<svg width="157" height="180" viewBox="0 0 75 126" fill="none" xmlns="http://www.w3.org/2000/svg">
<g filter="url(#filter0_b_14954_62261)">
<mask id="path-1-inside-1_14954_62261" fill="white">
<path d="M0.931688 126V103.824H26.6277V38.352H7.44369V20.576C22.7557 19.344 28.5637 13.712 30.6757 0.51199H49.6837V103.824H74.6757V126H0.931688Z"/>
</mask>
<path d="M0.931688 126V103.824H26.6277V38.352H7.44369V20.576C22.7557 19.344 28.5637 13.712 30.6757 0.51199H49.6837V103.824H74.6757V126H0.931688Z" fill="url(#paint0_linear_14954_62261)" fill-opacity="0.23"/>
<path d="M0.931688 126H-0.266762V127.198H0.931688V126ZM0.931688 103.824V102.626H-0.266762V103.824H0.931688ZM26.6277 103.824V105.022H27.8261V103.824H26.6277ZM26.6277 38.352H27.8261V37.1535H26.6277V38.352ZM7.44369 38.352H6.24524V39.5504H7.44369V38.352ZM7.44369 20.576L7.34757 19.3814L6.24524 19.4701V20.576H7.44369ZM30.6757 0.51199V-0.68646H29.6537L29.4923 0.322646L30.6757 0.51199ZM49.6837 0.51199H50.8821V-0.68646H49.6837V0.51199ZM49.6837 103.824H48.4852V105.022H49.6837V103.824ZM74.6757 103.824H75.8741V102.626H74.6757V103.824ZM74.6757 126V127.198H75.8741V126H74.6757ZM2.13014 126V103.824H-0.266762V126H2.13014ZM0.931688 105.022H26.6277V102.626H0.931688V105.022ZM27.8261 103.824V38.352H25.4292V103.824H27.8261ZM26.6277 37.1535H7.44369V39.5504H26.6277V37.1535ZM8.64214 38.352V20.576H6.24524V38.352H8.64214ZM7.5398 21.7706C15.3011 21.1461 20.8893 19.3933 24.8039 15.9295C28.7319 12.4538 30.7831 7.4265 31.8591 0.701333L29.4923 0.322646C28.4563 6.79748 26.5475 11.1862 23.2155 14.1345C19.87 17.0947 14.8982 18.7739 7.34757 19.3814L7.5398 21.7706ZM30.6757 1.71044H49.6837V-0.68646H30.6757V1.71044ZM48.4852 0.51199V103.824H50.8821V0.51199H48.4852ZM49.6837 105.022H74.6757V102.626H49.6837V105.022ZM73.4772 103.824V126H75.8741V103.824H73.4772ZM74.6757 124.802H0.931688V127.198H74.6757V124.802Z" fill="url(#paint1_linear_14954_62261)" mask="url(#path-1-inside-1_14954_62261)"/>
</g>
<defs>
<filter id="filter0_b_14954_62261" x="-20.4008" y="-20.8202" width="118.409" height="168.153" filterUnits="userSpaceOnUse" color-interpolation-filters="sRGB">
<feFlood flood-opacity="0" result="BackgroundImageFix"/>
<feGaussianBlur in="BackgroundImageFix" stdDeviation="10.6662"/>
<feComposite in2="SourceAlpha" operator="in" result="effect1_backgroundBlur_14954_62261"/>
<feBlend mode="normal" in="SourceGraphic" in2="effect1_backgroundBlur_14954_62261" result="shape"/>
</filter>
<linearGradient id="paint0_linear_14954_62261" x1="14.1163" y1="2.53623" x2="64.8451" y2="125.586" gradientUnits="userSpaceOnUse">
<stop stop-color="#6025EE"/>
<stop offset="1" stop-color="#160C2F"/>
</linearGradient>
<linearGradient id="paint1_linear_14954_62261" x1="74.186" y1="125.928" x2="9.60382" y2="23.7503" gradientUnits="userSpaceOnUse">
<stop stop-color="#140B2A"/>
<stop offset="1" stop-color="#7156B1"/>
</linearGradient>
</defs>
</svg>