<svg width="157" height="201" viewBox="0 0 157 201" fill="none" xmlns="http://www.w3.org/2000/svg">
<g filter="url(#filter0_b_18198_44359)">
<mask id="path-1-inside-1_18198_44359" fill="white">
<path d="M0.549406 201V174.504C0.549406 154.908 8.82941 141.108 22.0774 130.344C35.0494 119.58 51.3334 111.852 67.3414 104.952C76.7254 100.812 84.7294 97.224 92.7334 93.084C108.741 85.356 119.229 76.248 119.229 62.448C119.229 42.024 106.257 32.088 81.4174 32.088C54.0934 32.088 39.7414 45.888 39.7414 70.728V77.076H2.75741V69.072C2.75741 24.36 30.9094 0.899993 81.9694 0.899993C98.2534 0.899993 112.053 3.38399 123.093 8.62799C145.173 19.116 156.765 37.332 156.765 60.516C156.765 80.112 148.761 93.912 136.065 104.676C123.093 115.164 107.637 122.892 92.1814 129.792C84.1774 133.38 76.1734 137.244 68.7214 140.556C54.3694 148.008 44.1574 155.736 42.7774 167.604H156.489V201H0.549406Z"/>
</mask>
<path d="M0.549406 201V174.504C0.549406 154.908 8.82941 141.108 22.0774 130.344C35.0494 119.58 51.3334 111.852 67.3414 104.952C76.7254 100.812 84.7294 97.224 92.7334 93.084C108.741 85.356 119.229 76.248 119.229 62.448C119.229 42.024 106.257 32.088 81.4174 32.088C54.0934 32.088 39.7414 45.888 39.7414 70.728V77.076H2.75741V69.072C2.75741 24.36 30.9094 0.899993 81.9694 0.899993C98.2534 0.899993 112.053 3.38399 123.093 8.62799C145.173 19.116 156.765 37.332 156.765 60.516C156.765 80.112 148.761 93.912 136.065 104.676C123.093 115.164 107.637 122.892 92.1814 129.792C84.1774 133.38 76.1734 137.244 68.7214 140.556C54.3694 148.008 44.1574 155.736 42.7774 167.604H156.489V201H0.549406Z" fill="url(#paint0_linear_18198_44359)" fill-opacity="0.23"/>
<path d="M0.549406 201H-0.649043V202.198H0.549406V201ZM22.0774 130.344L22.8332 131.274L22.8427 131.266L22.0774 130.344ZM67.3414 104.952L67.8158 106.053L67.8251 106.048L67.3414 104.952ZM92.7334 93.084L92.2124 92.0047L92.1975 92.0119L92.1828 92.0195L92.7334 93.084ZM39.7414 77.076V78.2744H40.9399V77.076H39.7414ZM2.75741 77.076H1.55896V78.2744H2.75741V77.076ZM123.093 8.62799L123.608 7.54546L123.093 8.62799ZM136.065 104.676L136.819 105.608L136.83 105.599L136.84 105.59L136.065 104.676ZM92.1814 129.792L91.6929 128.698L91.6912 128.698L92.1814 129.792ZM68.7214 140.556L68.2347 139.461L68.2014 139.476L68.1691 139.492L68.7214 140.556ZM42.7774 167.604L41.587 167.466L41.4315 168.802H42.7774V167.604ZM156.489 167.604H157.688V166.406H156.489V167.604ZM156.489 201V202.198H157.688V201H156.489ZM1.74786 201V174.504H-0.649043V201H1.74786ZM1.74786 174.504C1.74786 155.322 9.82161 141.846 22.8331 131.274L21.3217 129.414C7.83721 140.37 -0.649043 154.494 -0.649043 174.504H1.74786ZM22.8427 131.266C35.6706 120.622 51.8134 112.95 67.8158 106.053L66.867 103.851C50.8535 110.754 34.4282 118.538 21.3121 129.422L22.8427 131.266ZM67.8251 106.048C77.2088 101.909 85.2435 98.3074 93.284 94.1485L92.1828 92.0195C84.2153 96.1406 76.242 99.7154 66.8577 103.856L67.8251 106.048ZM93.2544 94.1633C109.309 86.4126 120.428 77.0088 120.428 62.448H118.031C118.031 75.4872 108.173 84.2994 92.2124 92.0047L93.2544 94.1633ZM120.428 62.448C120.428 51.9653 117.085 43.9877 110.383 38.6702C103.734 33.3941 93.9658 30.8895 81.4174 30.8895V33.2864C93.709 33.2864 102.847 35.7499 108.893 40.5478C114.888 45.3043 118.031 52.5067 118.031 62.448H120.428ZM81.4174 30.8895C67.5674 30.8895 56.8118 34.3875 49.514 41.218C42.2033 48.0605 38.543 58.0775 38.543 70.728H40.9399C40.9399 58.5385 44.4555 49.2355 51.1519 42.968C57.861 36.6885 67.9434 33.2864 81.4174 33.2864V30.8895ZM38.543 70.728V77.076H40.9399V70.728H38.543ZM39.7414 75.8775H2.75741V78.2744H39.7414V75.8775ZM3.95586 77.076V69.072H1.55896V77.076H3.95586ZM3.95586 69.072C3.95586 46.9792 10.9003 30.3056 23.9939 19.1306C37.1194 7.92836 56.6017 2.09844 81.9694 2.09844V-0.298456C56.2771 -0.298456 36.1534 5.60162 22.4379 17.3074C8.6905 29.0404 1.55896 46.4528 1.55896 69.072H3.95586ZM81.9694 2.09844C98.1428 2.09844 111.751 4.56723 122.579 9.71053L123.608 7.54546C112.356 2.20075 98.364 -0.298456 81.9694 -0.298456V2.09844ZM122.579 9.71053C144.258 20.0079 155.567 37.8128 155.567 60.516H157.964C157.964 36.8512 146.089 18.2241 123.608 7.54546L122.579 9.71053ZM155.567 60.516C155.567 79.7153 147.754 93.1951 135.29 103.762L136.84 105.59C149.769 94.6289 157.964 80.5087 157.964 60.516H155.567ZM135.312 103.744C122.467 114.129 107.13 121.806 91.6929 128.698L92.67 130.886C108.145 123.978 123.72 116.199 136.819 105.608L135.312 103.744ZM91.6912 128.698C87.6802 130.496 83.6704 132.363 79.7392 134.191C75.8049 136.02 71.9499 137.81 68.2347 139.461L69.2081 141.651C72.9449 139.99 76.818 138.192 80.7496 136.364C84.6845 134.535 88.6786 132.676 92.6716 130.886L91.6912 128.698ZM68.1691 139.492C53.8456 146.93 43.0467 154.912 41.587 167.466L43.9678 167.742C45.2681 156.56 54.8933 149.086 69.2737 141.62L68.1691 139.492ZM42.7774 168.802H156.489V166.406H42.7774V168.802ZM155.291 167.604V201H157.688V167.604H155.291ZM156.489 199.802H0.549406V202.198H156.489V199.802Z" fill="url(#paint1_linear_18198_44359)" mask="url(#path-1-inside-1_18198_44359)"/>
</g>
<defs>
<filter id="filter0_b_18198_44359" x="-20.7826" y="-20.4325" width="198.881" height="242.765" filterUnits="userSpaceOnUse" color-interpolation-filters="sRGB">
<feFlood flood-opacity="0" result="BackgroundImageFix"/>
<feGaussianBlur in="BackgroundImageFix" stdDeviation="10.6662"/>
<feComposite in2="SourceAlpha" operator="in" result="effect1_backgroundBlur_18198_44359"/>
<feBlend mode="normal" in="SourceGraphic" in2="effect1_backgroundBlur_18198_44359" result="shape"/>
</filter>
<linearGradient id="paint0_linear_18198_44359" x1="29.6628" y1="7.5" x2="92.3046" y2="214.284" gradientUnits="userSpaceOnUse">
<stop stop-color="#6025EE"/>
<stop offset="1" stop-color="#160C2F"/>
</linearGradient>
<linearGradient id="paint1_linear_18198_44359" x1="157.86" y1="201" x2="72.191" y2="16.543" gradientUnits="userSpaceOnUse">
<stop stop-color="#140B2A"/>
<stop offset="1" stop-color="#7156B1"/>
</linearGradient>
</defs>
</svg>
