<svg width="162" height="205" viewBox="0 0 162 205" fill="none" xmlns="http://www.w3.org/2000/svg">
<g filter="url(#filter0_b_18198_45524)">
<mask id="path-1-inside-1_18198_45524" fill="white">
<path d="M80.5206 204.864C24.2166 204.864 0.756563 183.612 0.756563 138.624V133.104H37.7406V136.692C37.7406 161.532 50.7126 172.296 79.9686 172.296C106.189 172.296 122.473 160.152 122.473 141.384C122.473 121.512 109.777 116.544 85.7646 116.544H62.5806V88.116H85.7646C109.501 88.116 119.989 79.008 119.989 61.62C119.989 44.508 107.293 33.192 81.0726 33.192C54.8526 33.192 40.2246 46.992 40.2246 67.692V70.728H3.79256V66.312C3.79256 26.292 31.3926 0.899993 82.1766 0.899993C130.753 0.899993 157.801 23.808 157.801 57.48C157.801 79.008 148.969 92.808 131.305 100.26C150.073 106.884 161.113 121.236 161.113 145.524C161.113 157.392 158.077 167.604 151.729 176.436C138.757 194.652 115.021 204.864 80.5206 204.864Z"/>
</mask>
<path d="M80.5206 204.864C24.2166 204.864 0.756563 183.612 0.756563 138.624V133.104H37.7406V136.692C37.7406 161.532 50.7126 172.296 79.9686 172.296C106.189 172.296 122.473 160.152 122.473 141.384C122.473 121.512 109.777 116.544 85.7646 116.544H62.5806V88.116H85.7646C109.501 88.116 119.989 79.008 119.989 61.62C119.989 44.508 107.293 33.192 81.0726 33.192C54.8526 33.192 40.2246 46.992 40.2246 67.692V70.728H3.79256V66.312C3.79256 26.292 31.3926 0.899993 82.1766 0.899993C130.753 0.899993 157.801 23.808 157.801 57.48C157.801 79.008 148.969 92.808 131.305 100.26C150.073 106.884 161.113 121.236 161.113 145.524C161.113 157.392 158.077 167.604 151.729 176.436C138.757 194.652 115.021 204.864 80.5206 204.864Z" fill="url(#paint0_linear_18198_45524)" fill-opacity="0.23"/>
<path d="M0.756563 133.104V131.906H-0.441887V133.104H0.756563ZM37.7406 133.104H38.939V131.906H37.7406V133.104ZM62.5806 116.544H61.3821V117.742H62.5806V116.544ZM62.5806 88.116V86.9175H61.3821V88.116H62.5806ZM40.2246 70.728V71.9264H41.423V70.728H40.2246ZM3.79256 70.728H2.59411V71.9264H3.79256V70.728ZM131.305 100.26L130.839 99.1558L127.986 100.359L130.906 101.39L131.305 100.26ZM151.729 176.436L150.755 175.737L150.752 175.741L151.729 176.436ZM80.5206 203.666C52.4781 203.666 32.8824 198.366 20.2995 187.7C7.76248 177.074 1.95501 160.917 1.95501 138.624H-0.441887C-0.441887 161.319 5.48065 178.282 18.7497 189.529C31.9727 200.736 52.259 206.062 80.5206 206.062V203.666ZM1.95501 138.624V133.104H-0.441887V138.624H1.95501ZM0.756563 134.302H37.7406V131.906H0.756563V134.302ZM36.5421 133.104V136.692H38.939V133.104H36.5421ZM36.5421 136.692C36.5421 149.313 39.8428 158.62 47.1127 164.727C54.3341 170.793 65.2366 173.494 79.9686 173.494V171.098C65.4445 171.098 55.233 168.417 48.6544 162.891C42.1244 157.406 38.939 148.911 38.939 136.692H36.5421ZM79.9686 173.494C93.2465 173.494 104.147 170.422 111.761 164.845C119.412 159.242 123.671 151.158 123.671 141.384H121.274C121.274 150.378 117.392 157.75 110.345 162.911C103.262 168.098 92.9106 171.098 79.9686 171.098V173.494ZM123.671 141.384C123.671 131.157 120.375 124.488 113.742 120.486C107.261 116.575 97.7865 115.346 85.7646 115.346V117.742C97.7547 117.742 106.634 118.997 112.504 122.538C118.222 125.988 121.274 131.739 121.274 141.384H123.671ZM85.7646 115.346H62.5806V117.742H85.7646V115.346ZM63.779 116.544V88.116H61.3821V116.544H63.779ZM62.5806 89.3144H85.7646V86.9175H62.5806V89.3144ZM85.7646 89.3144C97.7501 89.3144 106.628 87.0212 112.524 82.326C118.476 77.5863 121.187 70.5667 121.187 61.62H118.79C118.79 70.0613 116.257 76.2897 111.031 80.451C105.749 84.6568 97.5151 86.9175 85.7646 86.9175V89.3144ZM121.187 61.62C121.187 52.7377 117.875 45.2608 111.094 40.0394C104.358 34.8519 94.3325 31.9935 81.0726 31.9935V34.3904C94.0326 34.3904 103.466 37.1901 109.632 41.9385C115.754 46.6532 118.79 53.3903 118.79 61.62H121.187ZM81.0726 31.9935C67.7619 31.9935 57.2404 35.4971 50.0291 41.7756C42.7991 48.0704 39.0261 57.0433 39.0261 67.692H41.423C41.423 57.6407 44.9641 49.3636 51.603 43.5834C58.2607 37.7869 68.1633 34.3904 81.0726 34.3904V31.9935ZM39.0261 67.692V70.728H41.423V67.692H39.0261ZM40.2246 69.5295H3.79256V71.9264H40.2246V69.5295ZM4.99101 70.728V66.312H2.59411V70.728H4.99101ZM4.99101 66.312C4.99101 46.5943 11.7789 30.5964 24.7203 19.5086C37.6858 8.40015 56.9708 2.09844 82.1766 2.09844V-0.298456C56.5983 -0.298456 36.6913 6.09584 23.1608 17.6884C9.60618 29.3016 2.59411 46.0097 2.59411 66.312H4.99101ZM82.1766 2.09844C106.292 2.09844 124.91 7.78629 137.471 17.5106C149.998 27.2094 156.602 40.9976 156.602 57.48H158.999C158.999 40.2904 152.079 25.7886 138.938 15.6154C125.831 5.46769 106.637 -0.298456 82.1766 -0.298456V2.09844ZM156.602 57.48C156.602 68.0817 154.428 76.6783 150.16 83.5138C145.897 90.3414 139.485 95.5082 130.839 99.1558L131.77 101.364C140.788 97.5598 147.624 92.1006 152.193 84.7832C156.757 77.4737 158.999 68.4062 158.999 57.48H156.602ZM130.906 101.39C140.098 104.634 147.322 109.741 152.258 116.945C157.197 124.154 159.914 133.562 159.914 145.524H162.311C162.311 133.198 159.508 123.286 154.235 115.591C148.96 107.891 141.28 102.51 131.703 99.1299L130.906 101.39ZM159.914 145.524C159.914 157.173 156.939 167.133 150.755 175.737L152.702 177.135C159.214 168.075 162.311 157.611 162.311 145.524H159.914ZM150.752 175.741C138.09 193.522 114.808 203.666 80.5206 203.666V206.062C115.234 206.062 139.423 195.782 152.705 177.131L150.752 175.741Z" fill="url(#paint1_linear_18198_45524)" mask="url(#path-1-inside-1_18198_45524)"/>
</g>
<defs>
<filter id="filter0_b_18198_45524" x="-20.5756" y="-20.4325" width="203.02" height="246.629" filterUnits="userSpaceOnUse" color-interpolation-filters="sRGB">
<feFlood flood-opacity="0" result="BackgroundImageFix"/>
<feGaussianBlur in="BackgroundImageFix" stdDeviation="10.6662"/>
<feComposite in2="SourceAlpha" operator="in" result="effect1_backgroundBlur_18198_45524"/>
<feBlend mode="normal" in="SourceGraphic" in2="effect1_backgroundBlur_18198_45524" result="shape"/>
</filter>
<linearGradient id="paint0_linear_18198_45524" x1="31.9884" y1="7.5" x2="92.8874" y2="215.423" gradientUnits="userSpaceOnUse">
<stop stop-color="#6025EE"/>
<stop offset="1" stop-color="#160C2F"/>
</linearGradient>
<linearGradient id="paint1_linear_18198_45524" x1="164.581" y1="201" x2="80.7823" y2="14.3841" gradientUnits="userSpaceOnUse">
<stop stop-color="#140B2A"/>
<stop offset="1" stop-color="#7156B1"/>
</linearGradient>
</defs>
</svg>
