<svg width="171" height="197" viewBox="0 0 171 197" fill="none" xmlns="http://www.w3.org/2000/svg">
<g filter="url(#filter0_b_18198_44360)">
<mask id="path-1-inside-1_18198_44360" fill="white">
<path d="M170.62 152.84H137.5V197H101.344V152.84H0.879625V127.448L105.76 0.211984H137.5V122.48H170.62V152.84ZM101.344 122.48V50.996L41.4516 122.48H101.344Z"/>
</mask>
<path d="M170.62 152.84H137.5V197H101.344V152.84H0.879625V127.448L105.76 0.211984H137.5V122.48H170.62V152.84ZM101.344 122.48V50.996L41.4516 122.48H101.344Z" fill="url(#paint0_linear_18198_44360)" fill-opacity="0.23"/>
<path d="M170.62 152.84V154.038H171.818V152.84H170.62ZM137.5 152.84V151.642H136.301V152.84H137.5ZM137.5 197V198.198H138.698V197H137.5ZM101.344 197H100.145V198.198H101.344V197ZM101.344 152.84H102.542V151.642H101.344V152.84ZM0.879625 152.84H-0.318825V154.038H0.879625V152.84ZM0.879625 127.448L-0.0451469 126.686L-0.318825 127.018V127.448H0.879625ZM105.76 0.211983V-0.986465H105.194L104.835 -0.550301L105.76 0.211983ZM137.5 0.211983H138.698V-0.986465H137.5V0.211983ZM137.5 122.48H136.301V123.678H137.5V122.48ZM170.62 122.48H171.818V121.282H170.62V122.48ZM101.344 122.48V123.678H102.542V122.48H101.344ZM101.344 50.996H102.542V47.6995L100.425 50.2263L101.344 50.996ZM41.4516 122.48L40.533 121.71L38.884 123.678H41.4516V122.48ZM170.62 151.642H137.5V154.038H170.62V151.642ZM136.301 152.84V197H138.698V152.84H136.301ZM137.5 195.802H101.344V198.198H137.5V195.802ZM102.542 197V152.84H100.145V197H102.542ZM101.344 151.642H0.879625V154.038H101.344V151.642ZM2.07807 152.84V127.448H-0.318825V152.84H2.07807ZM1.8044 128.21L106.684 0.974268L104.835 -0.550301L-0.0451469 126.686L1.8044 128.21ZM105.76 1.41043H137.5V-0.986465H105.76V1.41043ZM136.301 0.211983V122.48H138.698V0.211983H136.301ZM137.5 123.678H170.62V121.282H137.5V123.678ZM169.421 122.48V152.84H171.818V122.48H169.421ZM102.542 122.48V50.996H100.145V122.48H102.542ZM100.425 50.2263L40.533 121.71L42.3703 123.25L102.262 51.7657L100.425 50.2263ZM41.4516 123.678H101.344V121.282H41.4516V123.678Z" fill="url(#paint1_linear_18198_44360)" mask="url(#path-1-inside-1_18198_44360)"/>
</g>
<defs>
<filter id="filter0_b_18198_44360" x="-20.4525" y="-21.1205" width="212.405" height="239.453" filterUnits="userSpaceOnUse" color-interpolation-filters="sRGB">
<feFlood flood-opacity="0" result="BackgroundImageFix"/>
<feGaussianBlur in="BackgroundImageFix" stdDeviation="10.6662"/>
<feComposite in2="SourceAlpha" operator="in" result="effect1_backgroundBlur_18198_44360"/>
<feBlend mode="normal" in="SourceGraphic" in2="effect1_backgroundBlur_18198_44360" result="shape"/>
</filter>
<linearGradient id="paint0_linear_18198_44360" x1="36.5465" y1="3.5" x2="98.0168" y2="211.055" gradientUnits="userSpaceOnUse">
<stop stop-color="#6025EE"/>
<stop offset="1" stop-color="#160C2F"/>
</linearGradient>
<linearGradient id="paint1_linear_18198_44360" x1="167.674" y1="197" x2="83.2574" y2="11.0851" gradientUnits="userSpaceOnUse">
<stop stop-color="#140B2A"/>
<stop offset="1" stop-color="#7156B1"/>
</linearGradient>
</defs>
</svg>
