<svg width="255" height="255" viewBox="0 0 255 255" fill="none" xmlns="http://www.w3.org/2000/svg">
<g id="ajio 1">
<g id="Group">
<g id="Group_2">
<path id="Vector" fill-rule="evenodd" clip-rule="evenodd" d="M119.688 99.8474H115.636V99.9662C115.548 102.936 115.577 105.907 115.636 108.847V133.144C115.166 137.837 112.554 141.758 107.093 141.936C104.63 141.894 102.93 141.461 101.785 141.137C101.139 140.878 100.493 140.528 99.6654 140.005C98.403 142.144 97.17 144.312 95.9076 146.451C95.9311 146.451 95.9546 146.454 95.9751 146.457C95.9604 146.474 95.9487 146.492 95.937 146.51C105.919 155.332 118.983 149.777 122.711 140.302C125.089 134.273 124.326 107.422 123.856 99.6989L119.688 99.8474ZM38.9531 149.421V150.46L48.5532 150.757L52.311 142.352L75.7974 142.441L79.3791 151.025L88.803 150.371L63.6725 100.946L38.9531 149.421ZM56.9496 133.827L63.2909 118.59L71.1295 133.827H56.9496ZM189.618 99.5801C175.556 99.5801 164.165 111.105 164.165 125.332C164.165 139.56 175.556 151.084 189.618 151.084C203.681 151.084 215.101 139.56 215.101 125.332C215.101 111.105 203.681 99.5801 189.618 99.5801ZM189.618 142.292C180.37 142.292 172.855 134.688 172.855 125.332C172.855 115.976 180.37 108.372 189.618 108.372C198.866 108.372 206.382 115.976 206.382 125.332C206.382 134.688 198.895 142.292 189.618 142.292Z" fill="white"/>
</g>
<path id="Vector_2" d="M141.645 99.6914H149.542V151.106H141.645V99.6914Z" fill="white"/>
</g>
</g>
</svg>
