<svg width="255" height="255" viewBox="0 0 255 255" fill="none" xmlns="http://www.w3.org/2000/svg">
<g id="FemaleAsset 1 1">
<g id="Layer 1">
<path id="Vector" d="M122.71 42.7845C125.04 42.4815 127.407 42.588 129.753 42.6494C131.51 42.7026 132.964 44.3242 132.964 46.0645C133.144 49.365 132.98 52.6736 133.054 55.9782C133.058 57.6448 132.935 59.7004 131.416 60.7323C129.43 61.6372 127.182 61.2769 125.069 61.3301C123.201 61.4243 120.83 60.5357 120.683 58.3777C120.392 54.6309 120.622 50.8514 120.552 47.0964C120.495 45.4585 120.871 43.2841 122.71 42.7845Z" fill="white"/>
<path id="Vector_2" d="M123.24 69.3442C128.31 68.5375 133.613 69.5571 138.035 72.1573C143.469 75.4086 147.425 81.1169 148.317 87.4148C149.28 93.1066 147.912 99.2202 144.399 103.827C141.716 107.676 137.622 110.444 133.183 111.865C126.873 113.757 119.698 112.721 114.301 108.905C109.719 105.842 106.525 100.887 105.366 95.5226C104.162 89.7038 105.391 83.4591 108.704 78.5248C112.053 73.6929 117.409 70.2573 123.232 69.3483M124.383 82.3494C122.507 83.0046 120.71 84.0734 119.555 85.7318C117.569 88.4221 117.262 92.3409 119.015 95.2318C120.714 98.2375 124.231 100.187 127.7 99.8099C133.015 99.384 136.975 93.5202 135.292 88.4344C134.051 83.8973 128.9 81.0063 124.383 82.3494Z" fill="white"/>
<path id="Vector_3" d="M68.0842 82.0175C70.0661 81.3582 71.8473 82.7587 73.3829 83.8111C78.3131 87.4186 83.5955 90.5102 88.5666 94.0482C90.655 95.5879 93.0587 96.7303 94.9218 98.5484C95.9783 100.313 95.3149 102.488 94.0742 103.974C92.8048 105.555 91.9776 108.032 89.705 108.327C87.4201 108.831 85.7657 106.861 83.9476 105.866C77.6866 101.562 71.3355 97.3937 65.0335 93.1473C64.0139 92.4471 62.8223 91.5954 62.7567 90.2318C62.4742 88.2499 64.0139 86.7225 64.9393 85.1378C65.8606 84.0035 66.4667 82.296 68.0801 82.0134" fill="white"/>
<path id="Vector_4" d="M182.551 82.3163C184.172 81.2107 186.588 81.6611 187.633 83.3277C188.75 84.9862 189.999 86.5832 190.839 88.4054C191.4 90.1498 190.577 91.9269 189.045 92.8483C181.781 97.7171 174.484 102.541 167.265 107.471C165.819 108.544 163.35 108.745 162.179 107.188C160.811 105.759 159.841 104.027 158.825 102.348C157.863 100.788 158.301 98.4501 159.927 97.5041C167.453 92.4101 175.008 87.3653 182.551 82.3081" fill="white"/>
<path id="Vector_5" d="M54.631 120.685C56.0069 119.964 57.6039 120.206 59.0944 120.161C105.01 120.165 150.922 120.157 196.833 120.165C198.954 120.132 200.891 121.557 201.55 123.564C201.874 126.139 201.718 128.744 201.755 131.336C201.878 134.055 199.704 136.802 196.837 136.647C150.922 136.704 105.01 136.643 59.0985 136.671C57.0838 136.729 54.7415 136.712 53.292 135.082C51.2445 132.548 52.3461 129.083 52.0963 126.111C51.8137 123.981 52.6204 121.676 54.6269 120.681" fill="white"/>
<path id="Vector_6" d="M118.582 146.18C120.134 145.476 121.87 145.746 123.528 145.697C126.825 145.746 130.125 145.603 133.413 145.75C135.33 145.906 136.624 147.466 137.758 148.854C148.925 161.909 160.177 174.898 171.34 187.956C172.781 189.565 174.649 191.306 174.386 193.681C174.636 196.236 172.089 197.558 170.545 199.131C168.727 200.519 167.094 202.718 164.579 202.648C162.712 202.878 161.201 201.563 160.104 200.22C150.03 188.476 139.936 176.748 129.851 165.013C128.598 163.256 125.838 162.592 124.274 164.325C113.77 176.49 103.23 188.64 92.7391 200.822C91.1913 202.824 88.0055 203.05 86.0604 201.514C84.3201 200.142 82.7026 198.615 80.9828 197.215C78.7388 195.601 78.3703 191.924 80.3399 189.954C92.346 175.995 104.377 162.056 116.371 148.089C117.009 147.351 117.701 146.627 118.578 146.176" fill="white"/>
<path id="Vector_7" d="M123.149 184.468C125.327 184.214 127.539 184.3 129.729 184.366C131.564 184.415 133.014 186.073 132.858 187.899C132.907 194.836 132.94 201.781 132.837 208.714C132.968 210.388 131.314 211.76 129.729 211.797C127.522 211.912 125.282 212.006 123.088 211.719C121.269 211.363 120.524 209.397 120.549 207.727C120.549 201.31 120.504 194.889 120.577 188.469C120.459 186.777 121.421 184.898 123.149 184.472" fill="white"/>
<path id="Vector_8" d="M164.221 145.7C166.551 145.663 168.308 147.538 170.216 148.619C175.118 151.629 179.659 155.167 184.577 158.148C186.673 159.684 188.983 161.055 190.609 163.115C191.653 165.408 190.007 167.648 188.704 169.442C187.779 170.646 186.931 172.181 185.326 172.537C183.381 172.628 181.825 171.227 180.261 170.277C175.335 167.243 170.839 163.537 165.765 160.732C163.668 159.389 161.441 158.234 159.516 156.641C158.304 155.753 158.415 154.082 158.558 152.755C158.984 151.281 159.893 150.008 160.7 148.718C161.568 147.444 162.555 145.941 164.213 145.7" fill="white"/>
<path id="Vector_9" d="M87.8532 145.967C89.3355 145.201 91.0144 146.147 91.8948 147.376C93.4017 149.382 95.7399 151.34 95.2853 154.132C95.359 156.114 93.3567 157.015 91.9849 157.99C84.9909 162.322 78.3163 167.138 71.4533 171.662C70.2371 172.375 68.6319 172.551 67.3543 171.924C65.9211 170.589 64.8114 168.947 63.6075 167.412C62.4036 165.909 62.158 163.276 63.8328 162.023C69.0332 157.732 75.0854 154.644 80.5193 150.68C82.9885 149.145 85.2857 147.327 87.8573 145.971" fill="white"/>
</g>
</g>
</svg>
