<svg width="176" height="192" viewBox="0 0 176 192" fill="none" xmlns="http://www.w3.org/2000/svg">
<g id="Layer 1">
<g id="Group">
<path id="Vector" d="M98.4355 45.2722C95.7454 45.8362 94.3821 45.2885 92.893 42.9189C92.4913 42.2778 92.118 42.7404 91.7203 42.7606C91.3227 42.5781 91.1929 42.2169 91.1807 41.8355C91.132 40.4438 91.0103 39.048 91.27 37.6644C92.2559 36.6947 93.5503 36.1631 94.6052 35.2745C97.0884 33.189 99.2064 30.8762 99.9611 27.5896C100.298 26.1208 100.416 24.6357 100.294 23.1507C100.067 20.3957 100.05 20.4768 102.741 19.7586C106.429 18.7726 110.085 17.669 113.696 16.4234C120.857 13.9604 127.759 10.9092 134.434 7.34265C137.712 5.58981 140.918 3.70307 144.018 1.64185C144.391 1.39434 144.78 0.923673 145.219 1.1793C145.701 1.45926 145.531 2.08412 145.511 2.56696C145.328 6.88415 143.243 10.0977 139.745 12.5079C136.114 15.0073 132.097 16.6952 127.934 18.0545C122.772 19.7424 117.514 21.1098 112.32 22.6922C111.663 22.891 111.095 23.3536 110.373 23.3414C110.064 23.3171 109.772 23.4388 109.427 23.4428C109.318 23.4631 109.423 23.6092 109.476 23.5524C109.65 23.3698 109.922 23.382 110.17 23.3536C112.158 23.313 114.138 23.2359 116.118 23.0168C119.125 22.6841 122.103 22.1647 125.045 21.479C128.696 20.635 132.308 19.6288 135.858 18.4237C137.051 18.018 138.26 17.6528 139.429 17.174C140.001 16.9387 140.528 16.9711 140.394 17.7258C139.956 20.1684 139.303 22.5299 137.173 24.1326C137.112 24.1772 137.035 24.1935 136.957 24.2138C136.799 24.3639 136.641 24.5181 136.483 24.6682C134.389 26.1046 131.991 26.77 129.569 27.334C124.582 28.4944 119.502 28.6892 114.41 28.7906C113.387 28.8109 112.345 28.7906 111.347 29.1477C110.827 29.3343 110.283 29.2288 109.756 29.1315C109.318 29.1193 108.88 29.1234 108.636 29.1152C108.786 29.0544 109.147 29.1518 109.504 29.1274C111.833 29.5535 114.142 30.0038 116.516 30.1702C119.847 30.4055 123.17 30.4218 126.489 30.1215C127.869 29.9957 129.24 30.1215 130.62 29.9714C131.387 29.8902 131.285 30.4664 131.05 31.002C130.121 33.1241 128.546 34.5361 126.376 35.2948C123.592 36.2686 120.727 36.6176 117.794 36.4147C113.688 35.5058 109.561 34.7308 105.276 33.9477C105.528 34.7471 106.1 34.8931 106.469 35.2461C108.725 36.9057 111.395 37.4372 114.045 38.0012C115.538 38.3177 117.059 38.5003 118.573 38.6991C119.328 38.7965 119.388 39.0886 118.926 39.6688C117.952 40.882 116.54 41.2715 115.161 41.4217C112.548 41.7057 109.967 41.1701 107.419 40.6264C106.721 40.4763 106.157 39.9163 105.443 39.7419C104.461 39.47 103.686 38.8167 102.834 38.3136L102.846 38.3217C102.294 38.0783 101.811 37.6806 101.146 37.5711C100.907 38.0783 101.365 38.4272 101.406 38.8492C102.323 40.5331 103.901 41.4501 105.492 42.3468C105.991 42.6308 106.494 42.9027 106.993 43.1786C107.106 43.349 107.106 43.5194 107.013 43.6979C104.327 45.0815 102.4 44.7975 100.01 42.6227C99.0725 41.7706 98.1718 40.878 97.2426 40.0137C97.06 39.8433 96.9099 39.5146 96.5975 39.6688C96.3256 39.8027 96.35 40.1233 96.3337 40.3911C96.281 41.2512 96.6502 41.9694 97.1452 42.6146C97.5388 43.1299 98.0095 43.5884 98.4477 44.0712C98.5045 44.1686 98.5897 44.2376 98.683 44.3065C99.4418 44.8543 99.1659 45.1262 98.4233 45.2682L98.4355 45.2722Z" fill="white"/>
<path id="Vector_2" d="M77.2036 40.895C75.8565 42.0595 74.6595 43.3985 72.9716 44.1369C71.5474 44.7618 70.1922 44.8511 68.8613 43.93C68.6747 43.6947 68.0863 43.7068 68.3866 43.1672C69.5389 42.4774 70.6953 41.7877 71.8476 41.0979C72.2128 40.9234 72.5253 40.68 72.7768 40.3594C73.1055 39.9374 73.4341 39.5154 73.7628 39.0894C73.921 38.7445 74.1564 38.4321 74.2659 38.0669C74.4526 37.438 74.1199 37.4299 73.6695 37.6084C73.5396 37.7017 73.4057 37.7991 73.2759 37.8924C72.8904 38.144 72.4847 38.3672 72.0586 38.5416C71.7503 38.6958 71.4135 38.8135 71.1416 39.0123C67.9768 41.321 64.321 41.6253 60.5962 41.5645C58.888 41.5361 57.3461 40.968 56.1613 39.6615C55.9463 39.4221 55.5284 39.2071 55.6907 38.8257C55.8205 38.5132 56.2344 38.6187 56.5306 38.5822C60.2351 38.1197 63.9193 37.5597 67.3763 36.0422C68.6301 35.4904 69.8392 34.8534 70.7481 33.6645C68.8045 34.0378 66.8691 34.4557 64.9174 34.7722C61.6268 35.2997 58.4295 36.4561 55.0333 36.2451C52.9599 36.1152 50.8906 35.9245 48.9349 35.1374C48.2248 34.8534 47.5026 34.5775 46.9386 34.0256C46.0825 33.2507 45.2953 32.4189 44.7962 31.3558C44.3986 30.5078 44.5244 30.2684 45.4739 30.1872C46.3178 30.1142 47.1537 30.3333 47.9854 30.3536C51.6615 30.4469 55.3498 30.6052 59.0219 30.3536C61.4969 30.1832 63.9639 29.8058 66.3862 29.2215C66.6013 29.1688 66.8001 29.0633 66.9868 28.9456C66.7392 29.0714 66.4877 29.185 66.1996 29.1931C65.7695 29.2094 65.3353 29.2013 64.9053 29.2134C60.3933 28.4953 55.8043 28.8442 51.2883 28.2843C47.6 27.8258 43.9563 27.1522 40.5196 25.6144C38.9291 24.9003 37.724 23.7601 36.5757 22.5145C35.7926 21.0538 35.2205 19.52 34.973 17.8686C34.8432 16.9963 34.9974 16.8177 35.8494 17.1505C37.7768 17.9052 39.769 18.461 41.7125 19.1589C42.5038 19.443 43.3477 19.5566 44.1146 19.9177C45.5023 20.6115 47.036 20.8103 48.5089 21.208C52.6191 22.3116 56.8227 22.9162 61.0344 23.4396C62.6209 23.6384 64.2317 23.5126 65.8547 23.5167C65.5788 23.1028 65.1568 23.257 64.7998 23.2002C62.4058 22.5388 60.0281 21.8044 57.6423 21.1106C54.7047 20.2585 51.7427 19.4714 48.8335 18.5341C43.8711 16.9354 38.9697 15.1298 34.7701 11.9041C31.4957 9.39251 29.7226 6.10592 29.8808 1.89423C29.889 1.62644 29.8687 1.33835 30.1162 1.15982C30.4611 0.908257 30.6923 1.21663 30.9317 1.37081C33.6827 3.18858 36.5189 4.86027 39.3835 6.48733C43.5506 8.85691 47.8678 10.9141 52.2702 12.8008C58.1495 15.3205 64.1911 17.3817 70.3383 19.1305C71.6285 19.4957 72.9188 19.8568 74.2213 20.1733C74.834 20.3234 75.0166 20.6399 75.0084 21.2283C74.9922 22.6038 74.838 23.9752 74.9841 25.3629C75.3736 29.1445 77.0331 32.1916 79.9464 34.6221C81.2692 35.7257 82.7948 36.5251 84.1175 37.6287C84.4016 38.9799 84.2677 40.3391 84.219 41.6943C84.2028 42.1163 84.0689 42.5139 83.6672 42.7574C82.9652 42.4571 82.5473 42.5626 82.2105 43.3741C81.6628 44.7009 80.4374 45.2 79.1025 45.411C77.9988 45.5855 76.9398 45.342 75.6779 45.0499C76.8708 43.9746 78.0678 43.1672 78.5669 41.7795C78.6318 41.7308 78.6724 41.67 78.6927 41.5969C78.8631 41.0248 79.2729 40.2904 78.7089 39.9171C78.1814 39.5682 77.9258 40.4568 77.4754 40.6881C77.374 40.7408 77.2847 40.8138 77.1954 40.8869L77.2036 40.895Z" fill="white"/>
<path id="Vector_3" d="M83.6737 42.7649C84.0308 41.0243 83.832 39.2674 83.8563 37.5145C83.7589 37.3319 83.7468 37.1534 83.8563 36.9708C84.2702 31.6352 84.2215 26.2955 84.0105 20.9518C83.8644 17.1864 83.7873 13.421 83.6616 9.65566C83.6331 8.81981 84.0389 8.43029 84.822 8.42624C86.7453 8.41 88.6685 8.41 90.5918 8.42624C91.3749 8.43435 91.7766 8.8117 91.7482 9.65566C91.6224 13.421 91.5575 17.1905 91.4033 20.9518C91.1842 26.2955 91.1558 31.6352 91.5534 36.9708C91.6548 37.1331 91.6548 37.2995 91.5575 37.4658C91.5777 39.2308 91.3384 41.004 91.7198 42.7568C91.6792 43.2518 91.6021 43.7468 91.6021 44.2419C91.594 55.8179 91.5777 67.394 91.6264 78.966C91.6305 80.1062 91.245 80.5282 90.1901 80.6864C88.4616 80.942 86.7493 80.9339 85.0249 80.7107C84.0835 80.589 83.7873 80.163 83.7914 79.1892C83.8279 68.2298 83.8198 57.2705 83.8036 46.3112C83.8036 45.1264 83.978 43.9335 83.6737 42.7609V42.7649Z" fill="white"/>
<path id="Vector_4" d="M69.6342 96.9812C72.6409 104.415 75.6475 111.852 78.7636 119.561C81.8798 111.897 84.8986 104.463 87.9214 97.0299C88.0066 97.0421 88.0959 97.0502 88.1811 97.0624C88.7532 99.785 89.3253 102.508 89.8934 105.23C91.0944 110.98 92.2995 116.729 93.4721 122.487C93.5573 122.901 94.0929 123.639 93.1353 123.712C92.4821 123.761 91.6665 124.122 91.419 122.86C90.2139 116.721 88.9033 110.598 87.6293 104.471C87.6009 104.329 87.5603 104.187 87.4386 103.692C84.5009 110.919 81.685 117.857 78.7677 125.031C75.8666 117.853 73.0669 110.931 70.2672 104.009C70.1942 104.009 70.1171 104.009 70.044 104.009C69.5855 106.196 69.123 108.379 68.6726 110.566C67.8246 114.664 66.9806 118.762 66.1286 122.86C65.9784 123.594 64.7125 124.114 64.0755 123.696C63.6616 123.424 63.9943 123.055 64.0552 122.767C65.0736 117.764 66.1164 112.765 67.1551 107.766C67.9057 104.163 68.6564 100.56 69.407 96.9609C69.4841 96.965 69.5612 96.9731 69.6383 96.9772L69.6342 96.9812Z" fill="white"/>
<path id="Vector_5" d="M115.696 110.257C115.57 110.197 115.448 110.111 115.103 109.913C115.444 109.673 115.736 109.535 115.943 109.316C117.83 107.287 117.956 104.893 117.177 102.414C116.447 100.097 114.836 98.6855 112.381 98.3081C110.161 97.9632 107.926 98.2432 105.702 98.1215C104.866 98.0768 104.676 98.3771 104.68 99.1683C104.712 104.167 104.696 109.17 104.696 114.169V122.824C104.696 123.278 104.595 123.777 105.345 123.753C108.145 123.651 110.961 123.968 113.752 123.526C117.067 123.006 119.372 120.693 119.839 117.476C120.297 114.331 118.804 111.73 115.696 110.257ZM107.905 100.195C109.244 100.284 110.592 100.122 111.926 100.406C114.243 100.897 115.521 102.54 115.428 104.975C115.327 107.478 113.801 109.211 111.456 109.426C110.807 109.483 110.149 109.434 109.496 109.434C107.773 109.464 106.91 108.621 106.907 106.906C106.907 105.023 106.94 103.137 106.895 101.254C106.875 100.483 107.062 100.138 107.905 100.195ZM114.174 121.278C111.955 121.967 109.67 121.582 107.419 121.663C106.81 121.683 106.915 121.201 106.911 120.839C106.903 119.415 106.911 117.995 106.911 116.575C106.911 115.155 106.919 113.731 106.903 112.311C106.899 111.82 106.988 111.519 107.589 111.527C109.626 111.552 111.667 111.442 113.679 111.816C116.122 112.27 117.538 113.844 117.668 116.19C117.806 118.596 116.463 120.559 114.174 121.278Z" fill="white"/>
<path id="Vector_6" d="M41.1334 97.8223C33.773 97.8101 27.8328 103.641 27.8126 110.892C27.7923 118.122 33.7365 124.026 41.0603 124.046C48.4044 124.066 54.3568 118.211 54.3608 110.965C54.3608 103.673 48.4856 97.8304 41.1334 97.8223ZM41.0806 121.973C34.9172 121.969 30.032 117.079 30.032 110.916C30.028 104.777 34.9294 99.8997 41.109 99.8916C47.2034 99.8835 52.2266 104.882 52.2185 110.94C52.2104 116.978 47.1628 121.977 41.0806 121.973Z" fill="white"/>
<path id="Vector_7" d="M16.9547 115.042C16.4719 112.51 14.8489 110.94 12.3697 110.031C13.7452 108.919 14.5932 107.593 14.7677 105.897C15.1288 102.346 13.4531 98.3091 8.42987 98.163C6.62428 98.1062 4.81869 98.1914 3.0131 98.1183C2.13668 98.0818 1.92569 98.3618 1.92974 99.2139C1.96626 105.438 1.95003 111.666 1.95003 117.891V122.962C1.95003 123.344 1.89323 123.766 2.4978 123.746C5.4476 123.652 8.42582 124.054 11.3513 123.453C15.4128 122.622 17.7297 119.116 16.9547 115.042ZM5.02562 100.196C6.39706 100.285 7.78473 100.127 9.15617 100.407C11.546 100.898 12.7146 102.492 12.601 105.203C12.5077 107.54 10.9739 109.216 8.68955 109.423C8.00383 109.487 7.30594 109.435 6.61617 109.435C4.93365 109.462 4.0924 108.638 4.0924 106.964C4.0924 105.045 4.11674 103.121 4.08022 101.202C4.06805 100.496 4.21006 100.139 5.02562 100.196ZM10.9861 121.408C8.90054 121.899 6.77847 121.591 4.67668 121.672C4.10863 121.692 4.08834 121.327 4.0924 120.913C4.09645 119.457 4.0924 117.996 4.0924 116.539C4.0924 115.083 4.11674 113.772 4.08022 112.393C4.06399 111.76 4.25064 111.504 4.92419 111.524C6.80281 111.569 8.68144 111.484 10.556 111.756C13.1731 112.137 14.7799 113.748 14.9016 116.17C15.0233 118.743 13.4855 120.82 10.9861 121.408Z" fill="white"/>
<path id="Vector_8" d="M70.0544 0.969087C71.0931 0.401035 72.2252 0.23062 73.3897 0.23062C82.8924 0.226562 92.391 0.23062 101.89 0.226562C103.103 0.226562 104.255 0.461898 105.355 0.965029C105.939 1.7319 105.618 2.49065 105.339 3.24941C104.47 4.47072 103.212 4.80749 101.804 4.81155C97.8037 4.81966 93.8071 4.81155 89.8064 4.81155C84.4221 4.81155 79.0418 4.81155 73.6575 4.81155C72.351 4.81155 71.1216 4.61679 70.2167 3.53343C69.9084 3.11957 69.742 2.65295 69.7258 2.13765C69.7136 1.71567 69.7217 1.29774 70.0463 0.969087H70.0544Z" fill="white"/>
<path id="Vector_9" d="M117.62 133.049C123.978 139.752 130.133 146.24 136.345 152.789C136.645 152.334 136.516 151.908 136.52 151.515C136.532 145.94 136.544 140.36 136.512 134.785C136.508 133.978 136.637 133.653 137.558 133.649C138.508 133.649 138.589 134.035 138.589 134.814C138.565 142.162 138.577 149.506 138.569 156.854C138.569 157.142 138.674 157.459 138.374 157.869C132.146 151.267 125.954 144.694 119.709 138.072C119.409 138.604 119.527 139.03 119.527 139.435C119.519 144.897 119.511 150.358 119.531 155.82C119.531 156.542 119.45 156.948 118.557 156.935C117.713 156.923 117.547 156.603 117.551 155.84C117.575 148.532 117.563 141.225 117.567 133.917C117.567 133.735 117.591 133.548 117.624 133.049H117.62Z" fill="white"/>
<path id="Vector_10" d="M167.349 145.429C168.696 145.429 170.043 145.469 171.386 145.413C172.145 145.38 172.36 145.632 172.364 146.386C172.384 151.933 168.813 156.047 163.263 157.005C155.789 158.291 150.323 152.643 149.455 147.656C148.266 140.844 152.453 134.729 159.246 133.585C164.07 132.774 167.978 134.53 171.025 138.332C171.666 139.132 171.053 139.339 170.615 139.748C170.096 140.235 169.803 140.178 169.361 139.602C166.521 135.918 162.545 134.522 158.495 135.723C154.754 136.835 151.642 140.519 151.313 144.228C150.936 148.464 153.046 152.319 156.783 154.217C160.349 156.027 164.764 155.41 167.86 152.672C169.15 151.527 169.86 150.071 170.201 148.407C170.355 147.661 170.242 147.279 169.325 147.308C167.288 147.372 165.251 147.295 163.214 147.344C162.467 147.36 162.208 147.153 162.212 146.382C162.212 145.62 162.459 145.384 163.21 145.417C164.594 145.474 165.977 145.433 167.361 145.433L167.349 145.429Z" fill="white"/>
<path id="Vector_11" d="M74.9979 174.347C72.7663 179.841 70.5347 185.339 68.1772 191.137C65.8239 185.323 63.5923 179.8 61.3606 174.278L61.1375 174.286C60.6506 176.619 60.1596 178.952 59.6768 181.285C59.1249 183.955 58.5528 186.625 58.0456 189.303C57.8631 190.277 57.1733 189.985 56.6215 189.981C55.8546 189.972 56.1792 189.376 56.2482 189.043C57.648 182.271 59.0681 175.503 60.4883 168.735C60.5248 168.561 60.5938 168.391 60.7236 167.989C63.219 174.152 65.6332 180.117 68.1813 186.41C70.7375 180.133 73.172 174.152 75.7283 167.867C76.7305 172.651 77.6556 177.086 78.5847 181.521C79.096 183.963 79.6194 186.406 80.0941 188.857C80.1712 189.242 80.6541 189.899 79.7411 189.981C79.1082 190.037 78.5198 190.147 78.3251 189.149C77.3918 184.361 76.3653 179.589 75.3712 174.814C75.3428 174.672 75.2941 174.534 75.2535 174.396L75.002 174.347H74.9979Z" fill="white"/>
<path id="Vector_12" d="M42.9751 145.225C42.9751 148.723 42.9629 152.22 42.9832 155.718C42.9873 156.444 42.9832 156.931 41.9891 156.943C40.9463 156.955 40.922 156.448 40.926 155.673C40.9504 152.561 40.8976 149.445 40.9585 146.333C40.9788 145.383 40.6582 145.193 39.7818 145.201C36.1706 145.245 32.5554 145.258 28.9442 145.193C27.9461 145.177 27.7513 145.509 27.7675 146.43C27.8244 149.583 27.7635 152.736 27.8081 155.884C27.8203 156.704 27.5525 156.923 26.7572 156.927C25.9417 156.927 25.7226 156.659 25.7266 155.864C25.755 148.792 25.7591 141.72 25.7266 134.647C25.7226 133.775 26.0715 133.682 26.8059 133.657C27.6458 133.629 27.8284 133.929 27.8122 134.712C27.7675 137.248 27.8203 139.784 27.7797 142.324C27.7675 143.058 27.9501 143.33 28.7332 143.322C32.4621 143.286 36.1909 143.286 39.9198 143.322C40.7313 143.33 40.9707 143.067 40.9585 142.267C40.9139 139.808 40.9585 137.346 40.9301 134.887C40.922 134.108 40.9423 133.625 41.9891 133.641C42.9791 133.657 42.9913 134.108 42.9873 134.842C42.9629 138.303 42.9751 141.76 42.9751 145.221V145.225Z" fill="white"/>
<path id="Vector_13" d="M130.88 168.658C136.48 174.558 141.945 180.315 147.605 186.284C147.638 185.602 147.674 185.201 147.674 184.799C147.674 179.954 147.682 175.11 147.67 170.261C147.67 169.628 147.666 169.178 148.551 169.186C149.395 169.194 149.557 169.494 149.557 170.261C149.533 176.798 149.545 183.334 149.541 189.875C149.541 190.163 149.492 190.451 149.447 190.966C143.803 184.973 138.31 179.143 132.653 173.142C132.625 173.75 132.593 174.148 132.593 174.546C132.593 179.39 132.58 184.235 132.605 189.084C132.605 189.765 132.451 190.053 131.712 190.017C131.095 189.989 130.734 189.952 130.738 189.161C130.767 182.506 130.759 175.856 130.763 169.202C130.763 169.1 130.807 168.995 130.884 168.658H130.88Z" fill="white"/>
<path id="Vector_14" d="M37.7679 168.961C31.7709 168.961 27.0195 173.66 27.0195 179.592C27.0195 185.524 31.7871 190.247 37.7557 190.247C43.7243 190.247 48.5446 185.459 48.5527 179.604C48.5608 173.761 43.6999 168.961 37.7679 168.961ZM37.7516 188.445C32.8096 188.445 28.89 184.546 28.8819 179.62C28.8738 174.67 32.8542 170.702 37.8206 170.714C42.6328 170.722 46.7106 174.82 46.6944 179.628C46.6782 184.436 42.6125 188.445 37.7516 188.445Z" fill="white"/>
<path id="Vector_15" d="M140.407 96.8477C141.806 100.309 143.101 103.51 144.395 106.707C146.513 111.946 148.643 117.176 150.741 122.422C150.899 122.816 151.476 123.299 150.932 123.708C150.368 124.134 148.992 123.623 148.729 122.982C147.418 119.781 146.116 116.579 144.817 113.374C143.377 109.82 141.944 106.261 140.399 102.439C140.106 103.137 139.908 103.595 139.721 104.062C137.201 110.254 134.681 116.449 132.162 122.641C131.74 123.68 130.965 124.061 129.93 123.737C129.228 123.514 129.739 123.1 129.845 122.836C130.904 120.154 131.995 117.488 133.083 114.818C135.383 109.158 137.68 103.498 139.981 97.8336C140.082 97.5861 140.196 97.3427 140.415 96.8517L140.407 96.8477Z" fill="white"/>
<path id="Vector_16" d="M8.68803 133.422C10.1528 133.454 11.9624 134.335 13.3623 136.14C13.9912 136.952 13.4272 137.224 12.9403 137.682C12.3154 138.271 12.1207 137.739 11.8204 137.362C9.93369 134.98 6.84998 134.615 4.99164 136.546C3.27532 138.331 3.44573 140.762 5.54752 142.06C7.47078 143.249 9.532 144.215 11.5405 145.266C15.2531 147.209 16.0118 151.587 13.1594 154.675C9.4549 158.688 3.04404 157.747 0.844871 152.865C0.601421 152.322 0.337683 151.851 1.1857 151.506C1.90388 151.218 2.28934 151.133 2.66669 151.997C4.55749 156.339 9.95398 156.022 12.0395 152.845C13.4069 150.768 13.0499 148.544 10.94 147.262C9.06944 146.126 7.08938 145.176 5.15394 144.15C2.32992 142.657 1.3196 140.571 2.04995 137.715C2.7235 135.085 4.98353 133.426 8.67992 133.422H8.68803Z" fill="white"/>
<path id="Vector_17" d="M156.078 98.285C157.697 97.8184 158.61 98.2525 159.361 99.6727C161.109 102.959 163.061 106.136 164.932 109.358C165.118 109.678 165.329 109.987 165.617 110.445C165.954 109.885 166.23 109.439 166.494 108.989C168.445 105.637 170.389 102.282 172.341 98.9301C172.73 98.2607 174.187 97.8224 174.828 98.1633C175.242 98.3824 174.929 98.6258 174.828 98.8165C174.167 99.9892 173.485 101.146 172.811 102.306C170.941 105.528 169.082 108.757 167.192 111.967C166.843 112.555 166.701 113.14 166.709 113.817C166.729 116.816 166.684 119.814 166.737 122.809C166.753 123.726 166.323 123.778 165.621 123.762C164.964 123.746 164.457 123.803 164.477 122.841C164.538 119.847 164.481 116.848 164.51 113.85C164.518 113.127 164.343 112.515 163.978 111.898C161.568 107.792 159.186 103.665 156.792 99.5469C156.565 99.1574 156.346 98.7597 156.078 98.2891V98.285Z" fill="white"/>
<path id="Vector_18" d="M62.5095 137.674C61.1705 140.964 59.9411 143.975 58.7117 146.994C57.4985 149.984 56.2244 152.95 55.1046 155.973C54.6745 157.134 53.8792 156.955 53.0758 156.874C52.4469 156.809 52.8283 156.359 52.9338 156.091C53.7737 153.985 54.6298 151.887 55.4819 149.789C57.6486 144.45 59.8113 139.114 61.982 133.779C62.12 133.434 62.1606 133.02 62.6191 132.752C63.7186 135.466 64.8101 138.165 65.9056 140.863C67.8938 145.777 69.8942 150.682 71.858 155.604C72.0081 155.977 72.6614 156.456 71.9797 156.862C71.3346 157.247 70.2715 156.813 69.9915 156.123C68.7824 153.173 67.5855 150.22 66.3885 147.266C65.1347 144.17 63.8891 141.074 62.5136 137.67L62.5095 137.674Z" fill="white"/>
<path id="Vector_19" d="M85.1522 152.124C85.5985 151.819 85.6147 151.365 85.7486 150.984C87.5826 145.725 89.4004 140.467 91.2263 135.204C91.6185 134.076 92.4625 133.615 93.7582 133.82C90.9301 141.858 88.1101 149.884 85.1806 158.206C84.1987 155.39 83.3304 152.895 82.4621 150.395C80.6524 145.21 78.8346 140.032 77.0615 134.835C76.956 134.53 76.2987 133.897 77.0818 133.755C77.6539 133.654 78.5669 133.22 78.9117 134.303C79.2363 135.326 79.6177 136.332 79.9708 137.35C81.5735 141.956 83.1762 146.561 84.783 151.166C84.8925 151.479 85.0223 151.787 85.1522 152.124Z" fill="white"/>
<path id="Vector_20" d="M17.9396 174.11C13.0584 169.814 8.372 169.611 4.63098 173.522C1.25108 177.052 1.19427 182.177 4.51737 185.565C7.64571 188.754 12.9894 190.17 17.8909 185.252C18.4387 187.094 18.2358 187.646 16.6615 188.628C12.8231 191.022 7.92973 190.771 4.46057 187.999C0.662738 184.964 -0.720873 180.505 0.784463 176.151C2.24111 171.932 6.40005 169.006 10.9526 168.961C12.7217 168.945 14.369 169.335 15.9433 170.146C17.5623 170.978 18.6416 172.057 17.9437 174.114L17.9396 174.11Z" fill="white"/>
<path id="Vector_21" d="M105.634 0.985686C106.336 0.932938 106.616 1.28188 106.571 1.95543C106.555 2.22323 106.584 2.49508 106.547 2.76287C106.409 3.79754 106.973 4.98233 106.08 5.84658C104.969 6.92588 103.553 7.42495 102.031 7.61565C101.727 7.65217 101.418 7.65217 101.11 7.65217C92.151 7.65217 83.196 7.65217 74.2371 7.65217C72.6141 7.65217 71.1371 7.2099 69.786 6.30508C69.0921 5.83847 68.7107 5.25418 68.7391 4.38994C68.7675 3.58249 68.7351 2.77505 68.7229 1.9676C68.7148 1.39144 68.8974 0.981628 69.5628 0.989743C70.0335 1.16422 69.7941 1.54968 69.8103 1.84993C69.8347 2.25569 69.7535 2.66955 69.997 3.03878C70.0416 3.36339 70.2567 3.58655 70.4676 3.80971C71.3846 4.73482 72.5126 5.17709 73.7907 5.18115C82.9851 5.20549 92.1794 5.20549 101.374 5.18115C102.855 5.17709 104.173 4.72671 105.127 3.50134C105.675 2.73853 105.277 1.78501 105.63 0.981628L105.634 0.985686Z" fill="white"/>
<path id="Vector_22" d="M94.2132 169.262C92.8336 169.181 91.4419 169.27 90.0623 169.201C89.2427 169.16 89.0195 169.44 89.0317 170.24C89.0723 173.356 89.0479 176.472 89.0479 179.584C89.0479 182.696 89.0682 185.817 89.0358 188.933C89.0277 189.671 89.1372 190.028 90.0136 190.028C90.9185 190.032 90.9955 189.627 90.9874 188.908C90.9631 186.372 90.9996 183.832 90.9671 181.292C90.959 180.603 91.1619 180.323 91.8801 180.359C92.6835 180.4 93.499 180.375 94.3024 180.315C97.4795 180.071 99.4027 177.953 99.3905 174.752C99.3784 171.607 97.374 169.449 94.2132 169.262ZM95.1342 178.261C93.852 178.72 92.3548 179.032 91.2309 178.428C90.5127 178.038 91.0726 176.582 90.9834 175.608C90.959 175.34 90.9834 175.072 90.9834 174.8C90.9834 173.806 91.0077 172.808 90.9753 171.814C90.955 171.218 91.17 170.978 91.7705 171.011C92.6145 171.063 93.4625 171.011 94.2984 171.092C96.1242 171.279 97.3171 172.443 97.5119 174.143C97.7351 176.091 96.8708 177.645 95.1383 178.261H95.1342Z" fill="white"/>
<path id="Vector_23" d="M122.124 189.862C120.712 190.3 120.095 189.813 119.616 188.568C117.766 183.768 115.786 179.016 113.855 174.249C113.701 173.867 113.522 173.498 113.275 172.938C112.366 175.154 111.522 177.203 110.686 179.26C109.428 182.356 108.113 185.431 106.945 188.555C106.486 189.785 105.87 190.333 104.441 189.85C107.343 182.705 110.248 175.543 113.291 168.049C116.306 175.494 119.203 182.644 122.124 189.858V189.862Z" fill="white"/>
<path id="Vector_24" d="M173.696 169.338C171.574 172.99 169.525 176.549 167.431 180.087C166.98 180.845 166.774 181.596 166.794 182.477C166.838 184.668 166.778 186.863 166.826 189.054C166.843 189.829 166.575 190.024 165.84 190.024C165.114 190.024 164.931 189.768 164.944 189.082C164.98 187.005 164.903 184.927 164.976 182.854C165.021 181.645 164.7 180.634 164.079 179.608C162.233 176.545 160.468 173.441 158.679 170.345C158.492 170.024 158.192 169.744 158.216 169.322C159.429 169.006 160.249 169.253 160.898 170.499C162.229 173.051 163.759 175.502 165.215 177.993C165.402 178.318 165.617 178.622 165.913 179.085C166.7 177.746 167.419 176.536 168.125 175.323C169.038 173.765 170.044 172.248 170.819 170.621C171.427 169.338 172.255 168.953 173.7 169.347L173.696 169.338Z" fill="white"/>
<path id="Vector_25" d="M91.5627 37.4667C91.5627 37.3003 91.5627 37.1339 91.5586 36.9716C95.5958 34.9875 100.25 30.3985 100.087 25.0872C100.059 24.1093 100.087 23.1234 100.067 22.1374C100.023 20.206 100.031 20.137 101.848 19.7353C104.299 19.1957 106.701 18.4978 109.087 17.7512C113.968 16.2256 118.772 14.4728 123.471 12.4521C130.596 9.38869 137.408 5.73694 143.917 1.51713C144.351 1.23716 144.817 0.665054 145.321 0.977482C145.881 1.32643 145.783 2.06084 145.743 2.68164C145.385 8.05783 142.225 11.4215 137.798 13.9737C134.398 15.9335 130.787 17.3617 127.086 18.5708C123.69 19.6826 120.213 20.5468 116.78 21.5369C115.214 21.9873 113.66 22.4823 112.122 23.1396C113.794 23.0179 115.486 23.0138 117.137 22.7501C120.225 22.2591 123.305 21.7032 126.352 21.0094C128.762 20.4616 131.127 19.7029 133.493 18.9725C135.485 18.3558 137.441 17.6254 139.421 16.9762C140.241 16.7044 140.792 17.0614 140.634 17.7674C140.115 20.0924 139.591 22.4295 137.579 24.0282C137.412 24.158 137.303 24.5881 136.966 24.2189C139.104 22.3849 139.985 19.9828 140.22 17.1426C136.662 18.3598 133.213 19.5284 129.703 20.4941C123.653 22.1577 117.523 23.3343 111.238 23.6062C110.816 23.6224 110.394 23.5981 109.972 23.594C109.838 23.3425 110.036 23.2654 110.195 23.1639C115.94 21.4598 121.706 19.8287 127.423 18.0312C132.166 16.5421 136.759 14.6716 140.723 11.5554C143.722 9.19799 145.308 6.13863 145.256 2.284C145.252 1.95534 145.442 1.51307 145.114 1.33049C144.781 1.1479 144.497 1.53742 144.221 1.72001C134.739 7.89959 124.635 12.8092 113.944 16.5137C109.951 17.8973 105.914 19.1551 101.804 20.133C100.765 20.3805 100.347 20.7213 100.481 21.8818C100.704 23.7928 100.599 25.7161 100.132 27.6069C99.2719 31.1126 97.1093 33.6607 94.2447 35.7057C93.3723 36.3306 92.5446 37.0203 91.5586 37.4667H91.5627Z" fill="white"/>
<path id="Vector_26" d="M103.469 145.282C103.469 141.743 103.486 138.209 103.457 134.671C103.453 133.961 103.587 133.624 104.394 133.661C105.088 133.693 105.522 133.706 105.518 134.618C105.486 141.731 105.486 148.84 105.518 155.953C105.518 156.85 105.088 156.898 104.382 156.931C103.55 156.967 103.457 156.574 103.461 155.888C103.486 152.35 103.473 148.816 103.473 145.278L103.469 145.282Z" fill="white"/>
<path id="Vector_27" d="M83.8574 36.9711C83.8574 37.1496 83.8574 37.3322 83.8574 37.5148C79.5768 35.0356 75.9656 32.0006 75.0161 26.7827C74.6996 25.0339 74.6388 23.2689 74.866 21.5038C74.9512 20.8425 74.8254 20.4935 74.0586 20.2988C58.5873 16.3751 44.0655 10.2524 30.7081 1.45569C30.5864 1.37454 30.4444 1.32179 30.1766 1.18789C29.8926 4.42579 30.5458 7.26604 32.6801 9.67214C35.4676 12.8086 39.1153 14.6142 42.8928 16.1885C49.044 18.7569 55.5563 20.2014 61.8941 22.1774C62.8071 22.4614 63.7444 22.6765 64.6695 22.924C64.8237 22.9767 64.9738 23.0335 65.1117 23.1268C65.2416 23.3094 65.3836 23.488 65.128 23.6787C64.7993 23.7111 64.4666 23.6989 64.1379 23.6868C63.9675 23.634 63.8499 23.5285 63.8093 23.35C63.3711 22.5994 62.4987 22.7617 61.8617 22.5628C57.6743 21.2685 53.4545 20.0675 49.2591 18.8015C44.2156 17.284 39.3547 15.4257 35.0578 12.3176C32.5665 10.5161 30.7 8.22767 29.9697 5.18454C29.6938 4.03627 29.8926 2.82713 29.7019 1.64234C29.5801 0.879524 30.2496 0.668534 31.0246 1.19601C34.9198 3.85368 38.9976 6.20703 43.185 8.35751C49.8393 11.7699 56.7168 14.6548 63.8417 16.9473C67.0391 17.9779 70.2364 19.0004 73.5108 19.7591C74.7727 20.0512 75.2677 20.6234 75.1581 21.9705C74.9553 24.5064 75.15 27.018 76.1887 29.4079C77.2721 31.9113 79.0006 33.859 81.2201 35.3886C82.064 35.9729 82.8309 36.6992 83.8656 36.9751L83.8574 36.9711Z" fill="white"/>
<path id="Vector_28" d="M109.516 28.9061C114.653 28.5693 119.818 28.6059 124.93 27.9648C128.83 27.4779 132.676 26.7232 136.149 24.7228C136.243 24.6701 136.372 24.6822 136.486 24.666C135.979 25.5424 135.021 25.7453 134.202 26.0699C130.769 27.4292 127.186 28.0824 123.514 28.476C120.532 28.7966 117.558 28.8858 114.567 28.9061C113.654 28.9102 112.762 29.2307 111.674 29.1171C112.218 29.6973 112.843 29.7257 113.354 29.7663C116.024 29.9814 118.702 30.2775 121.372 30.2207C124.236 30.1599 127.097 29.8231 129.97 29.815C131.568 29.8109 131.637 29.9854 131.025 31.4339C129.998 33.8482 127.978 35.0532 125.653 35.743C123.457 36.3963 121.169 36.6925 118.864 36.733C118.171 36.7452 117.501 36.6357 116.888 36.2827C117.132 36.1082 117.383 36.1406 117.639 36.2543C120.609 36.3029 123.563 36.1812 126.387 35.1303C128.375 34.3878 129.897 33.1178 130.806 31.1499C131.138 30.4236 131.252 30.0868 130.173 30.1518C124.61 30.4926 119.039 30.7929 113.484 30.0544C112.076 29.8677 110.684 29.5797 109.285 29.3362C109.147 29.0765 109.378 29.0157 109.516 28.9021V28.9061Z" fill="white"/>
<path id="Vector_29" d="M36.6521 22.4002C39.0988 25.4595 42.6248 26.4049 46.1954 27.2611C50.7073 28.3404 55.3288 28.3404 59.9219 28.6244C61.6058 28.7299 63.2937 28.8151 64.9816 28.9084C65.1439 29.1478 65.9879 28.7908 65.5416 29.5576C60.3804 30.6897 55.1544 30.7749 49.9039 30.5314C48.2241 30.4543 46.5403 30.4259 44.8605 30.2839C44.6292 30.2636 44.402 30.2555 44.2153 30.0932C45.5299 29.5049 46.9176 29.8173 48.2566 29.8863C49.0113 29.9269 49.7741 30.008 50.541 30.0445C52.9836 30.1622 55.4303 30.3001 57.8688 30.0324C59.4634 29.8579 61.0783 29.939 62.6567 29.586C62.9813 29.513 63.3262 29.4805 63.5818 29.1924C61.5368 28.9977 59.5202 28.876 57.4915 28.876C54.5092 28.876 51.5553 28.4864 48.6015 28.0442C45.9803 27.6547 43.4525 27.0257 41.0018 26.0276C39.1069 25.2567 37.5529 24.0759 36.3438 22.4286C36.433 22.2906 36.5345 22.2785 36.6521 22.4002Z" fill="white"/>
<path id="Vector_30" d="M36.6529 22.4011C36.5514 22.4092 36.45 22.4214 36.3445 22.4295C35.6223 21.0297 35.0461 19.5812 34.8229 18.0068C34.7742 17.666 34.5957 17.2927 34.9 17.0371C35.2125 16.7693 35.6385 16.8383 35.9956 16.9844C38.8886 18.1732 41.883 19.0699 44.8896 19.9058C47.8556 20.7294 50.846 21.4557 53.8851 22.0238C56.8187 22.5715 59.7685 22.888 62.7305 23.1477C62.8684 23.1599 62.9983 23.2735 63.1322 23.3425C62.7345 23.736 62.2314 23.5291 61.7729 23.5859C59.0625 23.4277 56.3805 23.0219 53.7187 22.5229C50.6066 21.9426 47.531 21.1717 44.4839 20.2993C44.3053 20.2466 44.0984 20.2588 43.9767 20.0762C41.0512 19.1145 38.1217 18.1489 35.0826 17.1467C35.2652 19.0659 35.8048 20.7781 36.6529 22.4011Z" fill="white"/>
<path id="Vector_31" d="M105.302 39.5406C106.548 39.7435 107.501 40.7051 108.82 40.7944C111.457 40.9811 114.075 41.8899 116.74 40.8999C117.515 40.6118 118.205 40.2548 118.749 39.6299C118.891 39.4676 119.155 39.3337 119.029 39.0659C118.919 38.8265 118.655 38.8509 118.424 38.8225C115.661 38.4735 112.89 38.1246 110.256 37.1873C108.885 36.7004 107.355 36.4935 106.304 35.3046C106.881 35.1666 107.242 35.5846 107.668 35.8361C110.618 37.3334 113.835 37.8284 117.049 38.3356C117.69 38.437 118.339 38.4979 118.984 38.5831C119.24 38.6155 119.581 38.5587 119.674 38.8712C119.759 39.1592 119.487 39.3499 119.317 39.5528C118.205 40.8634 116.732 41.5085 115.077 41.5694C111.823 41.6871 108.589 41.5166 105.602 39.9748C105.46 39.8612 105.262 39.7881 105.302 39.5447V39.5406Z" fill="white"/>
<path id="Vector_32" d="M44.2188 30.0937C48.2844 30.3169 52.35 30.5847 56.4237 30.4508C59.5318 30.3493 62.6317 30.1262 65.6627 29.3431C65.8412 29.1524 66.0765 29.124 66.32 29.1321C66.5066 29.1402 66.6689 29.197 66.8069 29.3268C65.5288 30.0044 64.0843 30.0166 62.7129 30.2479C58.0265 31.031 53.2913 30.6739 48.5725 30.7267C47.5013 30.7388 46.4504 30.4183 45.367 30.4913C44.7219 30.5319 44.6813 30.7348 44.9085 31.2744C45.3711 32.3619 46.3571 33.0476 46.9373 34.0335C45.4522 33.1206 44.5231 31.8222 44.2188 30.0937Z" fill="white"/>
<path id="Vector_33" d="M107.669 35.8387C107.215 35.6602 106.76 35.4857 106.306 35.3072C105.734 34.8203 104.999 34.5281 104.391 33.7694C105.539 33.6517 106.464 34.0088 107.397 34.1914C110.818 34.8609 114.23 35.5669 117.646 36.2607C117.399 36.2688 117.147 36.281 116.896 36.2891C113.934 35.7251 110.968 35.1571 108.006 34.5931C107.276 34.4551 106.537 34.3293 105.685 34.1792C106.111 35.1936 107.292 35.0232 107.665 35.8428L107.669 35.8387Z" fill="white"/>
<path id="Vector_34" d="M77.2031 40.8951C77.2883 40.7733 77.3451 40.5989 77.4628 40.538C77.9416 40.2783 78.2216 39.2234 78.8058 39.759C79.3455 40.2499 79.2035 41.1629 78.5746 41.7837C78.5746 41.7066 78.5746 41.6335 78.5867 41.5564C78.6476 41.0858 79.0939 40.4731 78.676 40.181C78.185 39.8401 77.97 40.676 77.5318 40.822C77.4263 40.8586 77.3127 40.8707 77.2031 40.891V40.8951Z" fill="white"/>
<path id="Vector_35" d="M101.42 38.8544C101.014 38.3959 100.738 37.8928 100.746 37.1543C101.594 37.4343 102.28 37.7792 102.86 38.3229C102.3 38.3837 101.927 37.8928 101.335 37.8157C101.367 38.1727 101.395 38.5136 101.424 38.8544H101.42Z" fill="white"/>
<path id="Vector_36" d="M105.303 39.5398C105.404 39.6818 105.505 39.8238 105.603 39.9699C104.56 39.625 103.586 39.1665 102.844 38.3145C103.663 38.7243 104.483 39.1341 105.299 39.5398H105.303Z" fill="white"/>
<path id="Vector_37" d="M73.668 37.6124C73.8952 37.3405 74.1833 37.1782 74.6093 37.1133C74.5931 37.9126 74.3091 38.5537 73.7613 39.0974C73.4691 38.6186 74.7351 38.0424 73.668 37.6164V37.6124Z" fill="white"/>
<path id="Vector_38" d="M105.635 0.985131C105.502 1.82909 105.883 2.7258 105.384 3.53325C105.173 3.43587 105.262 3.18836 105.145 3.04634C105.299 2.36063 105.412 1.67085 105.356 0.964844C105.449 0.972959 105.542 0.977016 105.635 0.985131Z" fill="white"/>
<path id="Vector_39" d="M69.7694 3.08271C69.3069 2.4254 69.8465 1.66664 69.5625 0.989038C69.7248 0.980923 69.8871 0.972808 70.0494 0.96875C70.0372 1.35827 70.0251 1.75185 70.0129 2.14137C69.7775 2.41728 70.1184 2.83926 69.7654 3.08271H69.7694Z" fill="white"/>
<path id="Vector_40" d="M98.4375 45.2731C99.4356 44.8958 98.4943 44.4779 98.4619 44.0762C98.5633 44.1208 98.6891 44.1411 98.7662 44.2141C99.0218 44.4657 99.5695 44.6158 99.4478 45.0094C99.3261 45.3989 98.8148 45.3056 98.4375 45.2731Z" fill="white"/>
<path id="Vector_41" d="M61.7031 23.3744C62.1779 23.3622 62.6526 23.3501 63.1273 23.3379C63.3545 23.3379 63.5818 23.346 63.809 23.346C63.8901 23.415 63.9672 23.484 64.0484 23.5529C63.2531 23.6828 62.4416 24.0074 61.7072 23.3744H61.7031Z" fill="white"/>
<path id="Vector_42" d="M68.3892 43.1719C68.3892 43.5208 68.7422 43.6588 68.8639 43.9347C68.4906 43.8657 68.0321 43.8819 67.8901 43.4681C67.8293 43.2895 68.162 43.18 68.3892 43.1759V43.1719Z" fill="white"/>
<path id="Vector_43" d="M72.0586 38.5457C72.3954 38.2049 72.7687 37.9249 73.2758 37.8965C72.9999 38.359 72.5861 38.5538 72.0586 38.5457Z" fill="white"/>
<path id="Vector_44" d="M72.7807 40.3633C72.6468 40.8299 72.3669 41.1139 71.8516 41.1017C72.1031 40.7853 72.3872 40.5094 72.7807 40.3633Z" fill="white"/>
<path id="Vector_45" d="M107.028 43.703C107.02 43.5285 107.016 43.3581 107.008 43.1836C107.239 43.1836 107.507 43.2566 107.515 43.4838C107.523 43.7841 107.219 43.6786 107.028 43.703Z" fill="white"/>
<path id="Vector_46" d="M109.517 28.9043C109.44 29.0504 109.363 29.1964 109.286 29.3385C108.864 29.3953 108.466 29.3628 108.008 28.9043H109.517Z" fill="white"/>
<path id="Vector_47" d="M110.197 23.1562C110.124 23.2983 110.046 23.4403 109.973 23.5863C109.722 23.6432 109.474 23.6959 109.219 23.5133C109.503 23.2536 109.835 23.1684 110.197 23.1562Z" fill="white"/>
<path id="Vector_48" d="M61.7041 23.3749C62.4669 23.6711 63.2622 23.5697 64.0453 23.5535C64.4267 23.5575 64.8041 23.5656 65.1855 23.5697C65.3924 23.4155 65.5953 23.3993 65.7089 23.4885C65.4938 23.4764 65.2382 23.2938 64.9623 23.1436C64.8649 23.0706 64.7675 22.9935 64.6661 22.9205C65.4614 22.8272 66.1917 22.9043 66.7151 23.7198C66.4595 23.8334 66.2364 24.0282 66.0578 23.9957C63.8992 23.5737 61.7001 23.9592 59.5252 23.594C56.4375 23.0706 53.3254 22.6852 50.2741 21.9629C48.3387 21.5044 46.4154 20.9932 44.4922 20.49C44.2731 20.4332 44.058 20.3196 43.9688 20.0762C47.1417 20.8146 50.2701 21.756 53.4877 22.3159C56.2102 22.7906 58.9288 23.2897 61.7001 23.379L61.7041 23.3749Z" fill="white"/>
<path id="Vector_49" d="M66.3273 29.3058C66.1081 29.318 65.885 29.3302 65.6659 29.3464C65.4387 29.2003 65.2114 29.0543 64.9883 28.9082C65.4427 28.9082 65.8972 28.9082 66.3516 28.9123C66.4896 29.0502 66.4936 29.1841 66.3313 29.3058H66.3273Z" fill="white"/>
<path id="Vector_50" d="M66.3244 29.3064C66.3325 29.1765 66.3406 29.0426 66.3447 28.9128C66.5962 28.9047 66.8681 28.7586 67.0669 29.0102C67.0872 29.0345 66.8965 29.2171 66.8032 29.3307C66.6409 29.3226 66.4826 29.3145 66.3203 29.3064H66.3244Z" fill="white"/>
<path id="Vector_51" d="M70.297 3.25434C70.086 3.35577 70.0657 3.55459 70.0333 3.74935C69.806 3.58299 69.7939 3.33143 69.7695 3.08392C69.8669 2.77555 69.6965 2.39414 70.017 2.14258C70.1104 2.51587 70.2037 2.8851 70.297 3.25839V3.25434Z" fill="white"/>
<path id="Vector_52" d="M64.9648 23.1445C65.2813 23.2216 65.6019 23.2987 65.9386 23.3799C65.7195 23.7694 65.4355 23.5665 65.188 23.5706C65.115 23.4286 65.0379 23.2865 64.9648 23.1445Z" fill="white"/>
</g>
</g>
</svg>
