<svg width="24" height="24" viewBox="0 0 24 24" fill="none" xmlns="http://www.w3.org/2000/svg">
<g id="Cart">
<path id="Union" fill-rule="evenodd" clipRule="evenodd" d="M0.999878 3.40759H3.12894L3.83954 4.93285L7.31156 12.3852L4.93784 15.9517L4.16209 17.1172H5.5622H19.9009V15.6172H6.9623L8.57099 13.2002H17.2939H17.725L17.942 12.8276L22.5043 4.99355L23.1609 3.86611H21.8562H4.99736L4.28676 2.34086L4.0849 1.90759H3.60692H0.999878V3.40759ZM16.8627 11.7002H8.64722L5.6962 5.36611H20.5515L16.8627 11.7002ZM18.7051 18.5465C18.3558 18.1967 17.8821 18.0001 17.3881 18.0001C16.3545 18.0001 15.5257 18.8303 15.5257 19.8656C15.5257 20.3604 15.722 20.8349 16.0712 21.1847C16.4205 21.5346 16.8942 21.7311 17.3881 21.7311C17.8821 21.7311 18.3558 21.5346 18.7051 21.1847C19.0543 20.8349 19.2506 20.3604 19.2506 19.8656C19.2506 19.3709 19.0543 18.8964 18.7051 18.5465ZM9.39301 18.5465C9.04374 18.1967 8.57002 18.0001 8.07608 18.0001C7.04244 18.0001 6.21367 18.8303 6.21367 19.8656C6.21367 20.3604 6.40989 20.8349 6.75916 21.1847C7.10843 21.5346 7.58214 21.7311 8.07608 21.7311C8.57002 21.7311 9.04374 21.5346 9.39301 21.1847C9.74228 20.8349 9.93849 20.3604 9.93849 19.8656C9.93849 19.3709 9.74228 18.8964 9.39301 18.5465Z" fill="#1A3365"/>
</g>
</svg>
