<svg width="10" height="10" viewBox="0 0 10 10" fill="none" xmlns="http://www.w3.org/2000/svg">
<path id="&#239;&#129;&#152;" d="M1.45833 1.47917C2.44444 0.493056 3.625 0 5 0C6.375 0 7.54861 0.493056 8.52083 1.47917C9.50694 2.45139 10 3.625 10 5C10 6.375 9.50694 7.55556 8.52083 8.54167C7.54861 9.51389 6.375 10 5 10C3.625 10 2.44444 9.51389 1.45833 8.54167C0.486111 7.55556 0 6.375 0 5C0 3.625 0.486111 2.45139 1.45833 1.47917ZM7.41667 4.08333C7.52778 3.97222 7.58333 3.83333 7.58333 3.66667C7.58333 3.5 7.52778 3.36111 7.41667 3.25C7.30556 3.13889 7.16667 3.08333 7 3.08333C6.83333 3.08333 6.69444 3.13889 6.58333 3.25L4.33333 5.5L3.41667 4.58333C3.30556 4.47222 3.16667 4.41667 3 4.41667C2.83333 4.41667 2.69444 4.47222 2.58333 4.58333C2.47222 4.69444 2.41667 4.83333 2.41667 5C2.41667 5.16667 2.47222 5.30556 2.58333 5.41667L3.91667 6.75C4.02778 6.86111 4.16667 6.91667 4.33333 6.91667C4.5 6.91667 4.63889 6.86111 4.75 6.75L7.41667 4.08333Z" fill="#1A936F"/>
</svg>
