<svg width="20" height="14" viewBox="0 0 20 14" fill="none" xmlns="http://www.w3.org/2000/svg">
<path id="Union" fill-rule="evenodd" clipRule="evenodd" d="M15.6974 4.67251L13.6898 0.657274C13.6083 0.493313 13.4827 0.35533 13.3271 0.258841C13.1715 0.162351 12.9921 0.111181 12.809 0.111084H3.04644C2.86335 0.111181 2.68392 0.162351 2.52832 0.258841C2.37272 0.35533 2.24712 0.493313 2.16565 0.657274L0.158028 4.67251C0.0894821 4.81004 0.0540929 4.96171 0.054695 5.11537V6.63092C0.0542457 6.86087 0.134329 7.08371 0.281044 7.26076C0.497876 7.50932 0.765677 7.70828 1.06625 7.84414C1.36681 7.97999 1.69311 8.04954 2.02295 8.04806C2.56115 8.0489 3.08294 7.8628 3.49914 7.52156C3.91533 7.86299 4.43701 8.04959 4.97533 8.04959C5.51365 8.04959 6.03533 7.86299 6.45152 7.52156C6.86771 7.86299 7.38939 8.04959 7.92771 8.04959C8.46603 8.04959 8.9877 7.86299 9.4039 7.52156C9.82009 7.86299 10.3418 8.04959 10.8801 8.04959C11.4184 8.04959 11.9401 7.86299 12.3563 7.52156C12.8209 7.90302 13.4152 8.08949 14.0145 8.04177C14.6137 7.99406 15.1711 7.71586 15.5694 7.26568C15.7179 7.08931 15.7998 6.8664 15.8007 6.63584V5.11537C15.8013 4.96171 15.7659 4.81004 15.6974 4.67251ZM13.8325 7.06394C13.6223 7.06344 13.4153 7.01272 13.2287 6.916C13.0421 6.81928 12.8813 6.67936 12.7598 6.50791L12.3563 5.9568L11.9577 6.50791C11.8338 6.67673 11.672 6.81402 11.4852 6.90864C11.2984 7.00327 11.0919 7.05258 10.8825 7.05258C10.6732 7.05258 10.4667 7.00327 10.2799 6.90864C10.0931 6.81402 9.93125 6.67673 9.80739 6.50791L9.4039 5.9568L9.00533 6.50791C8.88146 6.67673 8.71958 6.81402 8.53279 6.90864C8.346 7.00327 8.13956 7.05258 7.93017 7.05258C7.72078 7.05258 7.51433 7.00327 7.32754 6.90864C7.14075 6.81402 6.97887 6.67673 6.85501 6.50791L6.45152 5.9568L6.05295 6.50791C5.92908 6.67673 5.7672 6.81402 5.58041 6.90864C5.39362 7.00327 5.18718 7.05258 4.97779 7.05258C4.7684 7.05258 4.56195 7.00327 4.37516 6.90864C4.18837 6.81402 4.02649 6.67673 3.90263 6.50791L3.49914 5.9568L3.09565 6.50791C2.97409 6.67936 2.81332 6.81928 2.62672 6.916C2.44013 7.01272 2.23312 7.06344 2.02295 7.06394C1.83751 7.06619 1.65373 7.02871 1.48398 6.95402C1.31423 6.87933 1.16244 6.76916 1.03882 6.63092V5.11537L3.04644 1.09521H12.809L14.8166 5.11045V6.61616C14.6937 6.75634 14.5424 6.86877 14.3727 6.94598C14.203 7.02318 14.0189 7.06339 13.8325 7.06394ZM12.8487 12.9047H6.94396H5.95983H3.00745V8.96822H2.02332V12.9047C2.02332 13.1657 2.12701 13.4161 2.31157 13.6006C2.49613 13.7852 2.74644 13.8889 3.00745 13.8889H12.8487C13.1097 13.8889 13.36 13.7852 13.5446 13.6006C13.7292 13.4161 13.8328 13.1657 13.8328 12.9047H12.8487ZM16.8835 7.68395C17.1037 7.68395 17.2821 7.8624 17.2821 8.08252V13.3968C17.2821 13.6169 17.1037 13.7954 16.8835 13.7954C16.6634 13.7954 16.485 13.6169 16.485 13.3968V11.1382H14.2276C14.0075 11.1382 13.829 10.9598 13.829 10.7397C13.829 10.5195 14.0075 10.3411 14.2276 10.3411H16.485V8.08252C16.485 7.8624 16.6634 7.68395 16.8835 7.68395ZM17.8103 10.3411C17.5902 10.3411 17.4117 10.5195 17.4117 10.7397C17.4117 10.9598 17.5902 11.1382 17.8103 11.1382H19.5419C19.762 11.1382 19.9405 10.9598 19.9405 10.7397C19.9405 10.5195 19.762 10.3411 19.5419 10.3411H17.8103Z" fill="#592EBF"/>
</svg>
