<svg width="160" height="16" viewBox="0 0 160 16" fill="none" xmlns="http://www.w3.org/2000/svg">
<g clip-path="url(#clip0_3619_4138)">
<path d="M160 2.44056C160 1.34188 159.114 0.448911 158.015 0.440614L2.01512 -0.737513C0.904678 -0.745899 0 0.151958 0 1.26243V5.47036C0 6.42864 0.679733 7.25226 1.62062 7.43404L14.3667 9.89658C14.9762 10.0143 15.6058 9.84239 16.0709 9.43116L19.1816 6.68053C20.0254 5.93436 21.3187 6.03193 22.041 6.89625L25.0968 10.5527C25.7869 11.3784 27.0067 11.5101 27.8571 10.8506L30.1394 9.08073C31.1974 8.26029 32.7402 8.97873 32.7932 10.3165L32.8632 12.0839C32.8939 12.8597 33.8376 13.2225 34.3801 12.667C34.7222 12.3167 35.2837 12.3109 35.633 12.654L36.239 13.2492C36.9312 13.9292 38.0469 13.9077 38.7125 13.2016L44.33 7.24236C44.4062 7.16155 44.4869 7.08861 44.579 7.02652C45.5022 6.40375 51.2482 2.91125 64 2.91125C72.7232 2.91125 82.2074 6.11459 84.487 6.93259C84.8251 7.0539 85.1177 7.26954 85.3406 7.55114L89.1609 12.3758C89.6679 13.016 90.5131 13.2837 91.2962 13.0521L100.207 10.4166C100.902 10.2109 101.655 10.3978 102.173 10.9051L104.503 13.1853C105.583 14.2423 107.4 13.7658 107.822 12.3148L108.914 8.56211C109.162 7.70819 109.945 7.12094 110.834 7.12094H119.389C119.787 7.12094 120.176 7.23974 120.507 7.46213L126.483 11.4876C127.471 12.1528 128.821 11.8113 129.512 10.8419C130.031 10.1143 130.672 9.34598 131.333 8.87497C132.583 7.98445 134.814 7.46467 135.954 7.24509C136.402 7.15882 136.857 7.31046 137.18 7.63241L138.049 8.49873C138.389 8.83865 138.968 8.71146 139.135 8.25988C139.316 7.76881 139.969 7.67385 140.283 8.09295L141.279 9.42307C141.878 10.2229 143.063 10.2643 143.716 9.50818L144.094 9.06966C144.948 8.08181 146.503 8.16294 147.249 9.23418L151.316 15.075C152.088 16.1828 153.72 16.2041 154.52 15.1167L155.12 14.3C155.723 13.4805 156.98 13.5929 157.428 14.5063C158.06 15.7952 160 15.3452 160 13.9097V2.44056Z" fill="#79FBF9"/>
<path d="M160 2.14577e-06C160 -1.10457 159.105 -2 158 -2H2C0.895432 -2 0 -1.10457 0 -2.38419e-07V3.05532C0 3.9953 0.654572 4.80843 1.57286 5.00918L14.0862 7.74471C14.728 7.88501 15.3978 7.70117 15.8781 7.25287L19.1629 4.18658C20.0074 3.39831 21.3421 3.48732 22.0744 4.38074L25.0927 8.06299C25.7822 8.9042 27.0175 9.04016 27.8735 8.36903L30.8906 6.00339C32.0624 5.08461 33.7778 5.91944 33.7778 7.40848V9.54321C33.7778 10.2302 34.5836 10.6007 35.1051 10.1535C35.4655 9.84439 36.014 9.9134 36.2866 10.3022L36.5931 10.7391C37.0614 11.4069 38.0244 11.4768 38.5843 10.8839L43.2416 5.95133C43.3027 5.88664 43.3642 5.829 43.4354 5.77565C44.322 5.11127 50.9989 0.45565 64 0.45565C72.7232 0.45565 82.2074 3.65899 84.487 4.47698C84.8251 4.59829 85.1177 4.81394 85.3406 5.09554L88.8019 9.46679C89.4704 10.311 90.6873 10.4744 91.5548 9.83644L99.093 4.29271C99.9681 3.64919 101.197 3.82172 101.861 4.68133L103.933 7.36436C104.674 8.32333 106.09 8.40856 106.941 7.54532L109.19 5.26179C109.566 4.8802 110.079 4.66533 110.615 4.66533L119.389 4.66533C119.787 4.66533 120.176 4.78413 120.507 5.00652L126.483 9.03201C127.471 9.69719 128.821 9.35572 129.512 8.38629C130.031 7.65872 130.672 6.89038 131.333 6.41937C132.583 5.52885 134.814 5.00907 135.954 4.78949C136.402 4.70322 136.857 4.85485 137.18 5.17681L138.049 6.04313C138.389 6.38304 138.968 6.25586 139.135 5.80428C139.316 5.3132 139.969 5.21824 140.283 5.63734L141.323 7.02598C141.912 7.81355 143.065 7.88986 143.754 7.18684L144.552 6.3709C145.423 5.48154 146.886 5.59489 147.609 6.60776L151.438 11.9692C152.227 13.0748 153.892 13.0073 154.589 11.8413L155.212 10.7992C155.761 9.88221 157.123 9.99393 157.515 10.988C158.036 12.3102 160 11.9372 160 10.5161V2.14577e-06Z" fill="#D0FFFE"/>
</g>
<defs>
<clipPath id="clip0_3619_4138">
<rect width="160" height="16" rx="8" fill="white"/>
</clipPath>
</defs>
</svg>
