<svg width="127" height="100" viewBox="0 0 127 100" fill="none" xmlns="http://www.w3.org/2000/svg">
<path d="M89.2177 86.9327L15.9135 98.0775L0.961548 22.5268L7.42395 21.566L74.3177 11.5391L88.1435 81.465L89.2177 86.9327Z" fill="#FF784B" stroke="#0D0D0D" stroke-width="0.3" stroke-linecap="round" stroke-linejoin="round"/>
<path fill-rule="evenodd" clipRule="evenodd" d="M88.4095 82.8185L19.0781 93.5497L4.8136 21.9541L7.42402 21.5658L74.3177 11.5391L88.1435 81.4651L88.4095 82.8185Z" fill="#0D0D0D"/>
<path d="M88.4095 82.818L88.4535 83.103C88.5312 83.091 88.6006 83.0478 88.6456 82.9835C88.6906 82.9193 88.7076 82.8393 88.6926 82.7624L88.4095 82.818ZM19.0781 93.5491L18.7952 93.6055C18.8254 93.757 18.9696 93.8578 19.1222 93.8343L19.0781 93.5491ZM4.81361 21.9535L4.77119 21.6681C4.69309 21.6797 4.62317 21.7228 4.57773 21.7874C4.53226 21.852 4.51528 21.9324 4.53071 22.0099L4.81361 21.9535ZM7.42403 21.5653L7.46646 21.8506H7.4668L7.42403 21.5653ZM74.3177 11.5385L74.6008 11.4825C74.5708 11.3314 74.4274 11.2304 74.2751 11.2532L74.3177 11.5385ZM88.1435 81.4645L88.4266 81.4089V81.4085L88.1435 81.4645ZM88.3652 82.533L19.034 93.2641L19.1222 93.8343L88.4535 83.103L88.3652 82.533ZM19.361 93.4928L5.09651 21.897L4.53071 22.0099L18.7952 93.6055L19.361 93.4928ZM4.85603 22.2387L7.46646 21.8506L7.38161 21.2801L4.77119 21.6681L4.85603 22.2387ZM7.4668 21.8506L74.3606 11.8238L74.2751 11.2532L7.38126 21.2801L7.4668 21.8506ZM74.0349 11.5944L87.8606 81.5205L88.4266 81.4085L74.6008 11.4825L74.0349 11.5944ZM87.8604 81.5201L88.1264 82.8735L88.6926 82.7624L88.4266 81.4089L87.8604 81.5201Z" fill="#0D0D0D"/>
<path d="M96.4123 78.9774L21.0342 90.3702L5.64148 13.156L81.073 1.92383L96.4123 78.9774Z" fill="#FFDF0D" stroke="#0D0D0D" stroke-width="0.3" stroke-linejoin="round"/>
<mask id="mask0_661_3458" style="mask-type:alpha" maskUnits="userSpaceOnUse" x="5" y="1" width="92" height="90">
<path d="M96.4123 78.786L21.0342 90.1789L5.64148 12.9646L81.073 1.73242L96.4123 78.786Z" fill="#FFDF0D"/>
</mask>
<g mask="url(#mask0_661_3458)">
<path d="M52.8845 85.3855L89.423 24.7832L81.7307 4.80859L27.8845 90.1932L52.8845 85.3855Z" fill="white"/>
<path d="M35.3198 54.5335L24.9156 56.087L22.9379 46.212L33.3602 44.6406L35.3198 54.5335Z" fill="white" stroke="#0D0D0D" stroke-width="0.3" stroke-linecap="round" stroke-linejoin="round"/>
<path d="M39.2645 74.3167L28.8601 75.8523L26.9005 65.9773L37.3047 64.4238L39.2645 74.3167Z" fill="white" stroke="#0D0D0D" stroke-width="0.3" stroke-linecap="round" stroke-linejoin="round"/>
<path d="M83.5536 67.7148L44.1095 73.5722L42.1499 63.6972L81.5759 57.8398L83.5536 67.7148Z" stroke="#0D0D0D" stroke-width="0.3" stroke-linejoin="round"/>
<path d="M79.6135 47.9294L40.1696 53.8044L38.2098 43.9473L77.636 38.0723L79.6135 47.9294Z" stroke="#0D0D0D" stroke-width="0.3" stroke-linejoin="round"/>
<path d="M75.6772 28.1919L36.2332 34.049L34.2736 24.174L73.6995 18.2812L75.6772 28.1919Z" stroke="#0D0D0D" stroke-width="0.3" stroke-linejoin="round"/>
<path d="M31.3873 34.7813L20.9829 36.3168L19.0054 26.4418L29.4275 24.9062L31.3873 34.7813Z" fill="white" stroke="#0D0D0D" stroke-width="0.3" stroke-linecap="round" stroke-linejoin="round"/>
</g>
<path fill-rule="evenodd" clipRule="evenodd" d="M87.4113 18.2461C82.9988 20.2093 79.2494 23.4141 76.6182 27.4714C73.9871 31.5285 72.5873 36.2641 72.5886 41.1031C72.623 47.6247 75.184 53.8778 79.7313 58.5424C84.2788 63.207 90.4567 65.9179 96.9605 66.1031L87.4113 18.2461Z" fill="#0D0D0D" stroke="#0D0D0D" stroke-width="0.3" stroke-linecap="round" stroke-linejoin="round"/>
<path fill-rule="evenodd" clipRule="evenodd" d="M100.844 11.9962C107.478 11.9866 113.846 14.6117 118.554 19.297C123.262 23.9824 125.926 30.3464 125.964 36.9962C125.95 43.663 123.296 50.0516 118.586 54.7591C113.877 59.4666 107.495 62.108 100.844 62.1031C94.1895 62.1126 87.8036 59.4735 83.0897 54.7655C78.3761 50.0574 75.7203 43.666 75.7061 36.9962C75.7437 30.3433 78.4105 23.9766 83.1222 19.2907C87.8339 14.6048 94.2064 11.9819 100.844 11.9962Z" fill="white" stroke="#0D0D0D" stroke-width="0.3" stroke-linecap="round" stroke-linejoin="round"/>
<path d="M100.839 18.0137C103.343 18.0091 105.823 18.4985 108.137 19.4545C110.452 20.4102 112.556 21.8137 114.329 23.5847C116.103 25.3556 117.511 27.4595 118.473 29.7758C119.435 32.0923 119.933 34.5758 119.938 37.085C119.935 39.5958 119.44 42.0814 118.478 44.3998C117.517 46.7183 116.109 48.8241 114.336 50.597C112.562 52.3698 110.457 53.7748 108.141 54.7318C105.825 55.6889 103.344 56.1791 100.839 56.1745C98.3331 56.1816 95.85 55.6931 93.5323 54.7372C91.2144 53.7812 89.1073 52.3764 87.3317 50.6033C85.5561 48.8302 84.1469 46.7237 83.1844 44.4041C82.2221 42.0845 81.7256 39.5972 81.7233 37.085C81.7279 34.5743 82.2263 32.0893 83.1896 29.7718C84.1531 27.4541 85.5627 25.3497 87.3381 23.5785C89.1135 21.8072 91.2196 20.4043 93.5363 19.4495C95.8531 18.4945 98.3346 18.0067 100.839 18.0137Z" fill="#9772FF" stroke="#0D0D0D" stroke-width="0.3" stroke-linecap="round" stroke-linejoin="round"/>
<path fill-rule="evenodd" clipRule="evenodd" d="M98.6252 41.4243H103.026V26.1562H98.6252V41.4243Z" fill="white" stroke="#0D0D0D" stroke-width="0.3" stroke-linecap="round" stroke-linejoin="round"/>
<path fill-rule="evenodd" clipRule="evenodd" d="M98.5914 48.0319H103.063V43.6211H98.5914V48.0319Z" fill="white" stroke="#0D0D0D" stroke-width="0.3" stroke-linecap="round" stroke-linejoin="round"/>
</svg>
