<svg width="24" height="24" viewBox="0 0 24 24" fill="none" xmlns="http://www.w3.org/2000/svg">
<g id="Frame 1116601909">
<path id="&#239;&#129;&#174;" d="M12.0174 7.91667V7.95312C14.1739 7.95312 15.913 9.77604 15.913 12C15.913 14.2604 14.1739 16.0833 12.0174 16.0833C9.86087 16.0833 8.12174 14.2604 8.12174 12C8.12174 11.599 8.1913 11.2344 8.29565 10.8698C8.53913 11.0521 8.88696 11.125 9.23478 11.125C10.2783 11.125 11.1826 10.2135 11.1826 9.08333C11.1478 8.75521 11.0783 8.39062 10.9043 8.09896C11.2522 7.98958 11.6348 7.95312 12.0174 7.91667ZM21.8957 11.4896C21.9652 11.6354 22 11.8177 22 12.0365C22 12.2187 21.9652 12.401 21.8957 12.5469C20.0174 16.4115 16.2609 19 12.0174 19C7.73913 19 3.98261 16.4115 2.10435 12.5469C2.03478 12.401 2 12.2187 2 12C2 11.8177 2.03478 11.6354 2.10435 11.4896C3.98261 7.625 7.73913 5 12.0174 5C16.2609 5 20.0174 7.625 21.8957 11.4896ZM12.0174 17.25C15.4261 17.25 18.5913 15.2448 20.2609 12C18.5913 8.75521 15.4261 6.75 12.0174 6.75C8.57391 6.75 5.4087 8.75521 3.73913 12C5.4087 15.2448 8.57391 17.25 12.0174 17.25Z" fill="#DF472C"/>
</g>
</svg>
