<svg width="533" height="532" viewBox="0 0 533 532" fill="none" xmlns="http://www.w3.org/2000/svg">
<g clip-path="url(#clip0_14547_46872)">
<g opacity="0.6">
<rect x="96.0011" y="36.3807" width="404.142" height="404.142" rx="202.071" transform="rotate(8.37168 96.0011 36.3807)" stroke="url(#paint0_radial_14547_46872)" stroke-width="0.937685"/>
</g>
<rect x="46.9547" y="-39.5495" width="531.766" height="531.766" rx="265.883" transform="rotate(9.27689 46.9547 -39.5495)" stroke="url(#paint1_radial_14547_46872)" stroke-opacity="0.6" stroke-width="1.2338"/>
<g clip-path="url(#clip1_14547_46872)">
<g filter="url(#filter0_f_14547_46872)">
<ellipse cx="247.753" cy="141.021" rx="174.854" ry="34.8234" transform="rotate(-15.703 247.753 141.021)" fill="#1E113E"/>
</g>
<g filter="url(#filter1_f_14547_46872)">
<ellipse cx="256.626" cy="393.602" rx="174.854" ry="34.8234" transform="rotate(-16.2013 256.626 393.602)" fill="#130A29"/>
</g>
</g>
<rect x="122.923" y="122.142" width="287.154" height="287.154" rx="143.577" stroke="url(#paint2_radial_14547_46872)" stroke-width="0.66625"/>
<g filter="url(#filter2_f_14547_46872)">
<path fill-rule="evenodd" clip-rule="evenodd" d="M350.262 277.484L262.3 186.359L182 182.375L183.146 262.766L271.108 353.891L350.262 277.484ZM227.589 209.278C233.005 214.889 232.847 223.828 227.236 229.244C221.626 234.66 212.687 234.502 207.27 228.892C201.854 223.281 202.012 214.342 207.623 208.926C213.234 203.51 222.173 203.667 227.589 209.278ZM270.762 331.369L266.631 327.532C261.836 323.055 257.874 319.197 254.746 315.957C251.618 312.716 249.136 309.813 247.299 307.247C245.462 304.681 244.189 302.33 243.478 300.194C242.768 298.058 242.432 295.88 242.472 293.661C242.552 289.126 244.138 285.365 247.231 282.38C250.325 279.394 254.139 277.941 258.674 278.021C261.182 278.066 263.561 278.638 265.81 279.74C268.059 280.841 269.986 282.371 271.592 284.33C273.267 282.429 275.247 280.968 277.533 279.947C279.82 278.926 282.217 278.437 284.726 278.481C289.261 278.562 293.021 280.148 296.007 283.241C298.993 286.334 300.445 290.148 300.365 294.683C300.326 296.903 299.914 299.067 299.129 301.177C298.343 303.286 296.988 305.591 295.061 308.09C293.135 310.59 290.552 313.404 287.311 316.532C284.071 319.66 279.976 323.376 275.025 327.68L270.762 331.369Z" fill="url(#paint3_linear_14547_46872)"/>
</g>
<mask id="path-9-inside-1_14547_46872" fill="white">
<path fill-rule="evenodd" clip-rule="evenodd" d="M351.262 284.484L263.3 193.359L183 189.375L184.146 269.766L272.108 360.891L351.262 284.484ZM228.589 216.278C234.005 221.889 233.847 230.828 228.236 236.244C222.626 241.66 213.687 241.502 208.27 235.892C202.854 230.281 203.012 221.342 208.623 215.926C214.234 210.51 223.173 210.667 228.589 216.278ZM271.762 338.369L267.631 334.532C262.836 330.055 258.874 326.197 255.746 322.957C252.618 319.716 250.136 316.813 248.299 314.247C246.462 311.681 245.189 309.33 244.478 307.194C243.768 305.058 243.432 302.88 243.472 300.661C243.552 296.126 245.138 292.365 248.231 289.38C251.325 286.394 255.139 284.941 259.674 285.021C262.182 285.066 264.561 285.638 266.81 286.74C269.059 287.841 270.986 289.371 272.592 291.33C274.267 289.429 276.247 287.968 278.533 286.947C280.82 285.926 283.217 285.437 285.726 285.481C290.261 285.562 294.021 287.148 297.007 290.241C299.993 293.334 301.445 297.148 301.365 301.683C301.326 303.903 300.914 306.067 300.129 308.177C299.343 310.286 297.988 312.591 296.061 315.09C294.135 317.59 291.552 320.404 288.311 323.532C285.071 326.66 280.976 330.376 276.025 334.68L271.762 338.369Z"/>
</mask>
<path fill-rule="evenodd" clip-rule="evenodd" d="M351.262 284.484L263.3 193.359L183 189.375L184.146 269.766L272.108 360.891L351.262 284.484ZM228.589 216.278C234.005 221.889 233.847 230.828 228.236 236.244C222.626 241.66 213.687 241.502 208.27 235.892C202.854 230.281 203.012 221.342 208.623 215.926C214.234 210.51 223.173 210.667 228.589 216.278ZM271.762 338.369L267.631 334.532C262.836 330.055 258.874 326.197 255.746 322.957C252.618 319.716 250.136 316.813 248.299 314.247C246.462 311.681 245.189 309.33 244.478 307.194C243.768 305.058 243.432 302.88 243.472 300.661C243.552 296.126 245.138 292.365 248.231 289.38C251.325 286.394 255.139 284.941 259.674 285.021C262.182 285.066 264.561 285.638 266.81 286.74C269.059 287.841 270.986 289.371 272.592 291.33C274.267 289.429 276.247 287.968 278.533 286.947C280.82 285.926 283.217 285.437 285.726 285.481C290.261 285.562 294.021 287.148 297.007 290.241C299.993 293.334 301.445 297.148 301.365 301.683C301.326 303.903 300.914 306.067 300.129 308.177C299.343 310.286 297.988 312.591 296.061 315.09C294.135 317.59 291.552 320.404 288.311 323.532C285.071 326.66 280.976 330.376 276.025 334.68L271.762 338.369Z" fill="url(#paint4_linear_14547_46872)"/>
<path d="M263.3 193.359L265.459 191.276L264.634 190.422L263.449 190.363L263.3 193.359ZM351.262 284.484L353.345 286.643L355.504 284.559L353.42 282.401L351.262 284.484ZM183 189.375L183.149 186.379L179.955 186.22L180 189.418L183 189.375ZM184.146 269.766L181.146 269.808L181.163 270.995L181.987 271.849L184.146 269.766ZM272.108 360.891L269.949 362.974L272.033 365.133L274.191 363.049L272.108 360.891ZM267.631 334.532L265.584 336.725L265.589 336.73L267.631 334.532ZM271.762 338.369L269.72 340.567L271.69 342.397L273.724 340.638L271.762 338.369ZM255.746 322.957L253.588 325.04L253.588 325.04L255.746 322.957ZM248.231 289.38L246.148 287.221L246.148 287.221L248.231 289.38ZM266.81 286.74L268.129 284.046L268.129 284.046L266.81 286.74ZM272.592 291.33L270.273 293.233L272.511 295.962L274.844 293.313L272.592 291.33ZM278.533 286.947L277.31 284.208L278.533 286.947ZM297.007 290.241L299.165 288.158L299.165 288.158L297.007 290.241ZM300.129 308.177L302.94 309.223L302.94 309.223L300.129 308.177ZM296.061 315.09L298.438 316.922L296.061 315.09ZM288.311 323.532L286.228 321.373L286.228 321.373L288.311 323.532ZM276.025 334.68L277.988 336.949L277.994 336.944L276.025 334.68ZM261.142 195.443L349.103 286.568L353.42 282.401L265.459 191.276L261.142 195.443ZM182.851 192.371L263.151 196.356L263.449 190.363L183.149 186.379L182.851 192.371ZM187.146 269.723L186 189.332L180 189.418L181.146 269.808L187.146 269.723ZM274.266 358.807L186.304 267.682L181.987 271.849L269.949 362.974L274.266 358.807ZM349.178 282.326L270.024 358.732L274.191 363.049L353.345 286.643L349.178 282.326ZM230.32 238.403C237.123 231.836 237.314 220.998 230.748 214.195L226.431 218.362C230.696 222.781 230.572 229.82 226.153 234.086L230.32 238.403ZM206.112 237.975C212.679 244.778 223.517 244.969 230.32 238.403L226.153 234.086C221.734 238.351 214.694 238.227 210.429 233.808L206.112 237.975ZM206.54 213.767C199.737 220.334 199.545 231.172 206.112 237.975L210.429 233.808C206.164 229.389 206.288 222.349 210.707 218.084L206.54 213.767ZM230.748 214.195C224.181 207.392 213.343 207.2 206.54 213.767L210.707 218.084C215.125 213.819 222.165 213.943 226.431 218.362L230.748 214.195ZM265.589 336.73L269.72 340.567L273.803 336.171L269.672 332.334L265.589 336.73ZM253.588 325.04C256.764 328.331 260.766 332.227 265.584 336.725L269.678 332.339C264.905 327.883 260.984 324.063 257.905 320.873L253.588 325.04ZM245.86 315.993C247.809 318.717 250.397 321.735 253.588 325.04L257.905 320.873C254.839 317.698 252.462 314.909 250.738 312.501L245.86 315.993ZM241.632 308.14C242.466 310.651 243.912 313.273 245.86 315.993L250.738 312.501C249.012 310.089 247.911 308.009 247.325 306.247L241.632 308.14ZM240.472 300.608C240.427 303.171 240.816 305.687 241.632 308.14L247.325 306.247C246.72 304.429 246.438 302.589 246.471 300.714L240.472 300.608ZM246.148 287.221C242.448 290.793 240.565 295.326 240.472 300.608L246.471 300.714C246.538 296.926 247.828 293.938 250.315 291.538L246.148 287.221ZM259.727 282.022C254.445 281.928 249.848 283.65 246.148 287.221L250.315 291.538C252.802 289.138 255.833 287.954 259.621 288.021L259.727 282.022ZM268.129 284.046C265.485 282.751 262.674 282.074 259.727 282.022L259.621 288.021C261.691 288.057 263.637 288.526 265.49 289.434L268.129 284.046ZM274.912 289.428C273.036 287.141 270.769 285.339 268.129 284.046L265.49 289.434C267.348 290.344 268.936 291.602 270.273 293.233L274.912 289.428ZM277.31 284.208C274.626 285.407 272.297 287.128 270.341 289.347L274.844 293.313C276.237 291.731 277.868 290.53 279.757 289.686L277.31 284.208ZM285.779 282.482C282.832 282.43 279.998 283.007 277.31 284.208L279.757 289.686C281.641 288.844 283.603 288.444 285.673 288.481L285.779 282.482ZM299.165 288.158C295.594 284.458 291.061 282.575 285.779 282.482L285.673 288.481C289.461 288.548 292.448 289.838 294.848 292.325L299.165 288.158ZM304.365 301.736C304.458 296.455 302.737 291.857 299.165 288.158L294.848 292.325C297.249 294.811 298.433 297.842 298.366 301.63L304.365 301.736ZM302.94 309.223C303.842 306.8 304.32 304.3 304.365 301.736L298.366 301.63C298.333 303.505 297.986 305.334 297.317 307.13L302.94 309.223ZM298.438 316.922C300.48 314.272 302.017 311.703 302.94 309.223L297.317 307.13C296.669 308.87 295.495 310.91 293.685 313.259L298.438 316.922ZM290.395 325.69C293.7 322.5 296.393 319.575 298.438 316.922L293.685 313.259C291.877 315.605 289.403 318.308 286.228 321.373L290.395 325.69ZM277.994 336.944C282.967 332.619 287.104 328.866 290.395 325.69L286.228 321.373C283.037 324.453 278.984 328.132 274.057 332.416L277.994 336.944ZM273.724 340.638L277.988 336.949L274.062 332.411L269.799 336.1L273.724 340.638Z" fill="url(#paint5_linear_14547_46872)" mask="url(#path-9-inside-1_14547_46872)"/>
</g>
<defs>
<filter id="filter0_f_14547_46872" x="51.1562" y="55.0205" width="393.191" height="172" filterUnits="userSpaceOnUse" color-interpolation-filters="sRGB">
<feFlood flood-opacity="0" result="BackgroundImageFix"/>
<feBlend mode="normal" in="SourceGraphic" in2="BackgroundImageFix" result="shape"/>
<feGaussianBlur stdDeviation="14" result="effect1_foregroundBlur_14547_46872"/>
</filter>
<filter id="filter1_f_14547_46872" x="60.4297" y="306.449" width="392.391" height="174.306" filterUnits="userSpaceOnUse" color-interpolation-filters="sRGB">
<feFlood flood-opacity="0" result="BackgroundImageFix"/>
<feBlend mode="normal" in="SourceGraphic" in2="BackgroundImageFix" result="shape"/>
<feGaussianBlur stdDeviation="14" result="effect1_foregroundBlur_14547_46872"/>
</filter>
<filter id="filter2_f_14547_46872" x="-24" y="-23.625" width="580.262" height="583.516" filterUnits="userSpaceOnUse" color-interpolation-filters="sRGB">
<feFlood flood-opacity="0" result="BackgroundImageFix"/>
<feBlend mode="normal" in="SourceGraphic" in2="BackgroundImageFix" result="shape"/>
<feGaussianBlur stdDeviation="103" result="effect1_foregroundBlur_14547_46872"/>
</filter>
<radialGradient id="paint0_radial_14547_46872" cx="0" cy="0" r="1" gradientUnits="userSpaceOnUse" gradientTransform="translate(289.806 225.283) rotate(-43.9391) scale(273.002 189.309)">
<stop stop-color="white"/>
<stop offset="1" stop-color="#130A29"/>
</radialGradient>
<radialGradient id="paint1_radial_14547_46872" cx="0" cy="0" r="1" gradientUnits="userSpaceOnUse" gradientTransform="translate(301.972 208.998) rotate(-43.9391) scale(359.214 249.091)">
<stop stop-color="white"/>
<stop offset="1" stop-color="#130A29"/>
</radialGradient>
<radialGradient id="paint2_radial_14547_46872" cx="0" cy="0" r="1" gradientUnits="userSpaceOnUse" gradientTransform="translate(260.574 256.407) rotate(-43.9391) scale(193.975 134.509)">
<stop stop-color="white"/>
<stop offset="1" stop-color="#592EBF"/>
</radialGradient>
<linearGradient id="paint3_linear_14547_46872" x1="269.902" y1="171.271" x2="270.402" y2="352.271" gradientUnits="userSpaceOnUse">
<stop stop-color="#8146F6"/>
<stop offset="1" stop-color="#5A4C76"/>
</linearGradient>
<linearGradient id="paint4_linear_14547_46872" x1="270.902" y1="178.271" x2="271.402" y2="359.271" gradientUnits="userSpaceOnUse">
<stop stop-color="#8146F6"/>
<stop offset="1" stop-color="#C5AAFA"/>
</linearGradient>
<linearGradient id="paint5_linear_14547_46872" x1="275.402" y1="357.771" x2="292.902" y2="189.271" gradientUnits="userSpaceOnUse">
<stop stop-color="#20143C"/>
<stop offset="0.246129" stop-color="#251745"/>
<stop offset="1" stop-color="white"/>
</linearGradient>
<clipPath id="clip0_14547_46872">
<rect width="533" height="530.688" fill="white" transform="translate(0 0.375)"/>
</clipPath>
<clipPath id="clip1_14547_46872">
<rect x="122.59" y="121.809" width="287.82" height="287.82" rx="143.91" fill="white"/>
</clipPath>
</defs>
</svg>
