<svg width="557" height="414" viewBox="0 0 557 414" fill="none" xmlns="http://www.w3.org/2000/svg">
<g clip-path="url(#clip0_14263_26420)">
<rect width="557" height="414" rx="32" fill="#130A29"/>
<circle opacity="0.3" cx="278.5" cy="183.5" r="286.863" stroke="url(#paint0_radial_14263_26420)" stroke-width="1.27494"/>
<circle opacity="0.5" cx="278.5" cy="183.501" r="220.4" stroke="url(#paint1_radial_14263_26420)" stroke-width="0.979557"/>
<g clip-path="url(#clip1_14263_26420)">
<g opacity="0.2">
<mask id="path-7-outside-1_14263_26420" maskUnits="userSpaceOnUse" x="182" y="89.6641" width="192" height="189" fill="black">
<rect fill="white" x="182" y="89.6641" width="192" height="189"/>
<path d="M252.202 244.338C248.884 244.338 246.043 243.156 243.68 240.793C241.316 238.43 240.135 235.589 240.135 232.27C240.135 228.952 241.316 226.111 243.68 223.748C246.043 221.385 248.884 220.203 252.202 220.203C255.521 220.203 258.361 221.385 260.725 223.748C263.088 226.111 264.269 228.952 264.269 232.27C264.269 235.589 263.088 238.43 260.725 240.793C258.361 243.156 255.521 244.338 252.202 244.338ZM312.539 244.338C309.22 244.338 306.38 243.156 304.016 240.793C301.653 238.43 300.472 235.589 300.472 232.27C300.472 228.952 301.653 226.111 304.016 223.748C306.38 221.385 309.22 220.203 312.539 220.203C315.857 220.203 318.698 221.385 321.062 223.748C323.425 226.111 324.606 228.952 324.606 232.27C324.606 235.589 323.425 238.43 321.062 240.793C318.698 243.156 315.857 244.338 312.539 244.338ZM241.108 135.239C241.25 135.54 241.554 135.731 241.886 135.731H339.436C340.092 135.731 340.508 136.436 340.19 137.01L311.126 189.59C310.974 189.864 310.685 190.035 310.371 190.035H259.349C259.034 190.035 258.745 190.206 258.594 190.481L252.905 200.825C252.589 201.399 253.004 202.102 253.66 202.102H323.744C324.22 202.102 324.606 202.488 324.606 202.964V213.307C324.606 213.783 324.22 214.169 323.744 214.169H233.297C232.642 214.169 232.226 213.466 232.542 212.891L249.576 181.974C249.709 181.731 249.718 181.439 249.6 181.189L228.301 136.224C228.158 135.923 227.855 135.731 227.522 135.731H216.862C216.386 135.731 216 135.346 216 134.869V124.526C216 124.05 216.386 123.664 216.862 123.664H235.065C235.397 123.664 235.7 123.856 235.843 124.156L241.108 135.239Z"/>
</mask>
<path d="M235.843 124.156L266.208 109.733L235.843 124.156ZM228.301 136.224L258.681 121.834L228.301 136.224ZM249.576 181.974L220.132 165.753L249.576 181.974ZM249.6 181.189L279.98 166.798L249.6 181.189ZM232.542 212.891L261.986 229.113L232.542 212.891ZM252.905 200.825L223.45 184.624L252.905 200.825ZM258.594 190.481L288.049 206.681L258.594 190.481ZM311.126 189.59L281.705 173.327L311.126 189.59ZM340.19 137.01L310.77 120.747L340.19 137.01ZM241.108 135.239L210.743 149.663L241.108 135.239ZM252.202 210.722C254.622 210.722 257.509 211.172 260.492 212.413C263.471 213.652 265.792 215.364 267.45 217.023L219.909 264.563C228.526 273.18 239.897 277.954 252.202 277.954V210.722ZM267.45 217.023C269.108 218.681 270.821 221.001 272.059 223.98C273.3 226.963 273.751 229.85 273.751 232.27H206.518C206.518 244.575 211.292 255.946 219.909 264.563L267.45 217.023ZM273.751 232.27C273.751 234.691 273.3 237.577 272.059 240.561C270.821 243.539 269.108 245.86 267.45 247.518L219.909 199.978C211.292 208.595 206.518 219.965 206.518 232.27H273.751ZM267.45 247.518C265.792 249.176 263.471 250.889 260.492 252.128C257.509 253.369 254.622 253.819 252.202 253.819V186.587C239.897 186.587 228.526 191.36 219.909 199.978L267.45 247.518ZM252.202 253.819C249.782 253.819 246.895 253.369 243.912 252.128C240.933 250.889 238.613 249.176 236.954 247.518L284.495 199.978C275.878 191.36 264.507 186.587 252.202 186.587V253.819ZM236.954 247.518C235.296 245.86 233.584 243.539 232.345 240.561C231.104 237.577 230.653 234.691 230.653 232.27H297.886C297.886 219.965 293.112 208.595 284.495 199.978L236.954 247.518ZM230.653 232.27C230.653 229.85 231.104 226.963 232.345 223.98C233.584 221.001 235.296 218.681 236.954 217.023L284.495 264.563C293.112 255.946 297.886 244.575 297.886 232.27H230.653ZM236.954 217.023C238.613 215.364 240.933 213.652 243.912 212.413C246.895 211.172 249.782 210.722 252.202 210.722V277.954C264.507 277.954 275.878 273.18 284.495 264.563L236.954 217.023ZM312.539 210.722C314.959 210.722 317.846 211.172 320.829 212.413C323.808 213.652 326.128 215.364 327.787 217.023L280.246 264.563C288.863 273.18 300.234 277.954 312.539 277.954V210.722ZM327.787 217.023C329.445 218.681 331.157 221.001 332.396 223.98C333.637 226.963 334.088 229.85 334.088 232.27H266.855C266.855 244.575 271.629 255.946 280.246 264.563L327.787 217.023ZM334.088 232.27C334.088 234.691 333.637 237.577 332.396 240.561C331.157 243.539 329.445 245.86 327.787 247.518L280.246 199.978C271.629 208.595 266.855 219.965 266.855 232.27H334.088ZM327.787 247.518C326.128 249.176 323.808 250.889 320.829 252.128C317.846 253.369 314.959 253.819 312.539 253.819V186.587C300.234 186.587 288.863 191.36 280.246 199.978L327.787 247.518ZM312.539 253.819C310.119 253.819 307.232 253.369 304.249 252.128C301.27 250.889 298.949 249.176 297.291 247.518L344.832 199.978C336.215 191.36 324.844 186.587 312.539 186.587V253.819ZM297.291 247.518C295.633 245.86 293.921 243.539 292.682 240.561C291.441 237.577 290.99 234.691 290.99 232.27H358.223C358.223 219.965 353.449 208.595 344.832 199.978L297.291 247.518ZM290.99 232.27C290.99 229.85 291.441 226.964 292.682 223.98C293.921 221.001 295.633 218.681 297.291 217.023L344.832 264.563C353.449 255.946 358.223 244.575 358.223 232.27H290.99ZM297.291 217.023C298.949 215.364 301.27 213.652 304.249 212.413C307.232 211.172 310.119 210.722 312.539 210.722V277.954C324.844 277.954 336.215 273.18 344.832 264.563L297.291 217.023ZM241.886 169.348H339.436V102.115H241.886V169.348ZM310.77 120.747L281.705 173.327L340.546 205.853L369.611 153.273L310.77 120.747ZM310.371 156.418H259.349V223.651H310.371V156.418ZM229.138 174.281L223.45 184.624L282.36 217.025L288.049 206.681L229.138 174.281ZM253.66 235.718H323.744V168.486H253.66V235.718ZM290.99 202.964V213.307H358.223V202.964H290.99ZM323.744 180.553H233.297V247.786H323.744V180.553ZM261.986 229.113L279.019 198.195L220.132 165.753L203.099 196.67L261.986 229.113ZM279.98 166.798L258.681 121.834L197.921 150.615L219.22 195.579L279.98 166.798ZM227.522 102.115H216.862V169.348H227.522V102.115ZM249.616 134.869V124.526H182.384V134.869H249.616ZM216.862 157.28H235.065V90.0478H216.862V157.28ZM205.478 138.579L210.743 149.663L271.473 120.816L266.208 109.733L205.478 138.579ZM235.065 157.28C222.42 157.28 210.904 150.001 205.478 138.579L266.208 109.733C260.497 97.7097 248.375 90.0478 235.065 90.0478V157.28ZM249.616 124.526C249.616 142.616 234.952 157.28 216.862 157.28V90.0478C197.82 90.0478 182.384 105.484 182.384 124.526H249.616ZM216.862 102.115C234.952 102.115 249.616 116.78 249.616 134.869H182.384C182.384 153.911 197.82 169.348 216.862 169.348V102.115ZM258.681 121.834C252.977 109.792 240.846 102.115 227.522 102.115V169.348C214.864 169.348 203.339 162.054 197.921 150.615L258.681 121.834ZM279.019 198.195C284.365 188.492 284.723 176.81 279.98 166.798L219.22 195.579C214.714 186.068 215.054 174.971 220.132 165.753L279.019 198.195ZM233.297 180.553C258.22 180.553 274.013 207.283 261.986 229.113L203.099 196.67C190.439 219.649 207.063 247.786 233.297 247.786V180.553ZM290.99 213.307C290.99 195.218 305.655 180.553 323.744 180.553V247.786C342.786 247.786 358.223 232.349 358.223 213.307H290.99ZM323.744 235.718C305.655 235.718 290.99 221.053 290.99 202.964H358.223C358.223 183.922 342.786 168.486 323.744 168.486V235.718ZM223.45 184.624C210.812 207.602 227.436 235.718 253.66 235.718V168.486C278.573 168.486 294.366 195.196 282.36 217.025L223.45 184.624ZM259.349 156.418C246.775 156.418 235.198 163.263 229.138 174.281L288.049 206.681C282.292 217.148 271.294 223.651 259.349 223.651V156.418ZM281.705 173.327C287.472 162.894 298.451 156.418 310.371 156.418V223.651C322.919 223.651 334.476 216.834 340.546 205.853L281.705 173.327ZM339.436 169.348C314.492 169.348 298.702 142.578 310.77 120.747L369.611 153.273C382.313 130.294 365.693 102.115 339.436 102.115V169.348ZM241.886 102.115C254.531 102.115 266.047 109.394 271.473 120.816L210.743 149.663C216.454 161.686 228.576 169.348 241.886 169.348V102.115Z" fill="url(#paint2_linear_14263_26420)" mask="url(#path-7-outside-1_14263_26420)"/>
</g>
<g opacity="0.2">
<mask id="path-9-outside-2_14263_26420" maskUnits="userSpaceOnUse" x="183" y="90.6641" width="191" height="187" fill="black">
<rect fill="white" x="183" y="90.6641" width="191" height="187"/>
<path d="M252.202 244.338C248.884 244.338 246.043 243.156 243.68 240.793C241.316 238.43 240.135 235.589 240.135 232.27C240.135 228.952 241.316 226.111 243.68 223.748C246.043 221.385 248.884 220.203 252.202 220.203C255.521 220.203 258.361 221.385 260.725 223.748C263.088 226.111 264.269 228.952 264.269 232.27C264.269 235.589 263.088 238.43 260.725 240.793C258.361 243.156 255.521 244.338 252.202 244.338ZM312.539 244.338C309.22 244.338 306.38 243.156 304.016 240.793C301.653 238.43 300.472 235.589 300.472 232.27C300.472 228.952 301.653 226.111 304.016 223.748C306.38 221.385 309.22 220.203 312.539 220.203C315.857 220.203 318.698 221.385 321.062 223.748C323.425 226.111 324.606 228.952 324.606 232.27C324.606 235.589 323.425 238.43 321.062 240.793C318.698 243.156 315.857 244.338 312.539 244.338ZM241.108 135.239C241.25 135.54 241.554 135.731 241.886 135.731H339.436C340.092 135.731 340.508 136.436 340.19 137.01L311.126 189.59C310.974 189.864 310.685 190.035 310.371 190.035H259.349C259.034 190.035 258.745 190.206 258.594 190.481L252.905 200.825C252.589 201.399 253.004 202.102 253.66 202.102H323.744C324.22 202.102 324.606 202.488 324.606 202.964V213.307C324.606 213.783 324.22 214.169 323.744 214.169H233.297C232.642 214.169 232.226 213.466 232.542 212.891L249.576 181.974C249.709 181.731 249.718 181.439 249.6 181.189L228.301 136.224C228.158 135.923 227.855 135.731 227.522 135.731H216.862C216.386 135.731 216 135.346 216 134.869V124.526C216 124.05 216.386 123.664 216.862 123.664H235.065C235.397 123.664 235.7 123.856 235.843 124.156L241.108 135.239Z"/>
</mask>
<path d="M235.843 124.156L265.429 110.103L235.843 124.156ZM228.301 136.224L257.902 122.203L228.301 136.224ZM249.576 181.974L220.887 166.168L249.576 181.974ZM249.6 181.189L279.201 167.167L249.6 181.189ZM232.542 212.891L261.231 228.697L232.542 212.891ZM252.905 200.825L224.205 185.04L252.905 200.825ZM258.594 190.481L287.293 206.266L258.594 190.481ZM311.126 189.59L282.46 173.744L311.126 189.59ZM340.19 137.01L311.524 121.164L340.19 137.01ZM241.108 135.239L211.522 149.293L241.108 135.239ZM252.202 211.583C254.518 211.583 257.291 212.015 260.161 213.209C263.027 214.401 265.255 216.047 266.84 217.632L220.519 263.954C228.976 272.411 240.128 277.092 252.202 277.092V211.583ZM266.84 217.632C268.426 219.218 270.072 221.445 271.264 224.311C272.457 227.182 272.889 229.955 272.889 232.27H207.38C207.38 244.345 212.062 255.497 220.519 263.954L266.84 217.632ZM272.889 232.27C272.889 234.586 272.457 237.359 271.264 240.23C270.072 243.095 268.426 245.323 266.84 246.909L220.519 200.587C212.062 209.044 207.38 220.196 207.38 232.27H272.889ZM266.84 246.909C265.255 248.494 263.027 250.14 260.161 251.332C257.291 252.526 254.518 252.957 252.202 252.957V187.449C240.128 187.449 228.976 192.13 220.519 200.587L266.84 246.909ZM252.202 252.957C249.886 252.957 247.113 252.526 244.243 251.332C241.377 250.14 239.149 248.494 237.564 246.909L283.885 200.587C275.429 192.13 264.277 187.449 252.202 187.449V252.957ZM237.564 246.909C235.979 245.323 234.333 243.095 233.141 240.23C231.947 237.359 231.515 234.586 231.515 232.27H297.024C297.024 220.196 292.342 209.044 283.885 200.587L237.564 246.909ZM231.515 232.27C231.515 229.955 231.947 227.182 233.141 224.311C234.333 221.445 235.979 219.218 237.564 217.632L283.885 263.954C292.342 255.497 297.024 244.345 297.024 232.27H231.515ZM237.564 217.632C239.149 216.047 241.377 214.401 244.243 213.209C247.113 212.015 249.886 211.583 252.202 211.583V277.092C264.277 277.092 275.429 272.411 283.885 263.954L237.564 217.632ZM312.539 211.583C314.855 211.583 317.628 212.015 320.498 213.209C323.364 214.401 325.592 216.047 327.177 217.632L280.856 263.954C289.312 272.411 300.464 277.092 312.539 277.092V211.583ZM327.177 217.632C328.763 219.218 330.408 221.445 331.6 224.311C332.794 227.182 333.226 229.955 333.226 232.27H267.717C267.717 244.345 272.399 255.497 280.856 263.954L327.177 217.632ZM333.226 232.27C333.226 234.586 332.794 237.359 331.6 240.23C330.408 243.096 328.763 245.323 327.177 246.909L280.856 200.587C272.399 209.044 267.717 220.196 267.717 232.27H333.226ZM327.177 246.909C325.592 248.494 323.364 250.14 320.498 251.332C317.628 252.526 314.855 252.957 312.539 252.957V187.449C300.464 187.449 289.312 192.13 280.856 200.587L327.177 246.909ZM312.539 252.957C310.223 252.957 307.45 252.526 304.58 251.332C301.714 250.14 299.486 248.494 297.901 246.909L344.222 200.587C335.765 192.13 324.613 187.449 312.539 187.449V252.957ZM297.901 246.909C296.315 245.323 294.669 243.095 293.477 240.23C292.284 237.359 291.852 234.586 291.852 232.27H357.361C357.361 220.196 352.679 209.044 344.222 200.587L297.901 246.909ZM291.852 232.27C291.852 229.955 292.284 227.182 293.477 224.311C294.669 221.445 296.315 219.218 297.901 217.632L344.222 263.954C352.679 255.497 357.361 244.345 357.361 232.27H291.852ZM297.901 217.632C299.486 216.047 301.714 214.401 304.58 213.209C307.45 212.015 310.223 211.583 312.539 211.583V277.092C324.613 277.092 335.765 272.411 344.222 263.954L297.901 217.632ZM241.886 168.486H339.436V102.977H241.886V168.486ZM311.524 121.164L282.46 173.744L339.792 205.436L368.856 152.856L311.524 121.164ZM310.371 157.28H259.349V222.789H310.371V157.28ZM229.894 174.696L224.205 185.04L281.604 216.61L287.293 206.266L229.894 174.696ZM253.66 234.856H323.744V169.348H253.66V234.856ZM291.852 202.964V213.307H357.361V202.964H291.852ZM323.744 181.415H233.297V246.924H323.744V181.415ZM261.231 228.697L278.264 197.779L220.887 166.168L203.854 197.086L261.231 228.697ZM279.201 167.167L257.902 122.203L198.7 150.246L219.999 195.211L279.201 167.167ZM227.522 102.977H216.862V168.486H227.522V102.977ZM248.754 134.869V124.526H183.246V134.869H248.754ZM216.862 156.418H235.065V90.9098H216.862V156.418ZM206.257 138.21L211.522 149.293L270.694 121.186L265.429 110.103L206.257 138.21ZM235.065 156.418C222.752 156.418 211.54 149.331 206.257 138.21L265.429 110.103C259.861 98.3801 248.043 90.9098 235.065 90.9098V156.418ZM248.754 124.526C248.754 142.14 234.476 156.418 216.862 156.418V90.9098C198.296 90.9098 183.246 105.96 183.246 124.526H248.754ZM216.862 102.977C234.476 102.977 248.754 117.256 248.754 134.869H183.246C183.246 153.435 198.296 168.486 216.862 168.486V102.977ZM257.902 122.203C252.341 110.462 240.513 102.977 227.522 102.977V168.486C215.197 168.486 203.976 161.384 198.7 150.246L257.902 122.203ZM278.264 197.779C283.477 188.318 283.825 176.929 279.201 167.167L219.999 195.211C215.612 185.949 215.942 175.144 220.887 166.168L278.264 197.779ZM233.297 181.415C257.565 181.415 272.941 207.441 261.231 228.697L203.854 197.086C191.511 219.491 207.719 246.924 233.297 246.924V181.415ZM291.852 213.307C291.852 195.694 306.131 181.415 323.744 181.415V246.924C342.31 246.924 357.361 231.873 357.361 213.307H291.852ZM323.744 234.856C306.131 234.856 291.852 220.577 291.852 202.964H357.361C357.361 184.398 342.31 169.348 323.744 169.348V234.856ZM224.205 185.04C211.883 207.443 228.091 234.856 253.66 234.856V169.348C277.917 169.348 293.295 195.355 281.604 216.61L224.205 185.04ZM259.349 157.28C247.089 157.28 235.802 163.954 229.894 174.696L287.293 206.266C281.688 216.457 270.98 222.789 259.349 222.789V157.28ZM282.46 173.744C288.075 163.586 298.765 157.28 310.371 157.28V222.789C322.605 222.789 333.873 216.143 339.792 205.436L282.46 173.744ZM339.436 168.486C315.148 168.486 299.774 142.42 311.524 121.164L368.856 152.856C381.241 130.452 365.036 102.977 339.436 102.977V168.486ZM241.886 102.977C254.199 102.977 265.411 110.064 270.694 121.186L211.522 149.293C217.09 161.015 228.908 168.486 241.886 168.486V102.977Z" fill="url(#paint3_linear_14263_26420)" mask="url(#path-9-outside-2_14263_26420)"/>
</g>
<g opacity="0.2">
<mask id="path-11-outside-3_14263_26420" maskUnits="userSpaceOnUse" x="192" y="99.6641" width="172" height="168" fill="black">
<rect fill="white" x="192" y="99.6641" width="172" height="168"/>
<path d="M252.202 244.338C248.884 244.338 246.043 243.156 243.68 240.793C241.316 238.43 240.135 235.589 240.135 232.27C240.135 228.952 241.316 226.111 243.68 223.748C246.043 221.385 248.884 220.203 252.202 220.203C255.521 220.203 258.361 221.385 260.725 223.748C263.088 226.111 264.269 228.952 264.269 232.27C264.269 235.589 263.088 238.43 260.725 240.793C258.361 243.156 255.521 244.338 252.202 244.338ZM312.539 244.338C309.22 244.338 306.38 243.156 304.016 240.793C301.653 238.43 300.472 235.589 300.472 232.27C300.472 228.952 301.653 226.111 304.016 223.748C306.38 221.385 309.22 220.203 312.539 220.203C315.857 220.203 318.698 221.385 321.062 223.748C323.425 226.111 324.606 228.952 324.606 232.27C324.606 235.589 323.425 238.43 321.062 240.793C318.698 243.156 315.857 244.338 312.539 244.338ZM241.108 135.239C241.25 135.54 241.554 135.731 241.886 135.731H339.436C340.092 135.731 340.508 136.436 340.19 137.01L311.126 189.59C310.974 189.864 310.685 190.035 310.371 190.035H259.349C259.034 190.035 258.745 190.206 258.594 190.481L252.905 200.825C252.589 201.399 253.004 202.102 253.66 202.102H323.744C324.22 202.102 324.606 202.488 324.606 202.964V213.307C324.606 213.783 324.22 214.169 323.744 214.169H233.297C232.642 214.169 232.226 213.466 232.542 212.891L249.576 181.974C249.709 181.731 249.718 181.439 249.6 181.189L228.301 136.224C228.158 135.923 227.855 135.731 227.522 135.731H216.862C216.386 135.731 216 135.346 216 134.869V124.526C216 124.05 216.386 123.664 216.862 123.664H235.065C235.397 123.664 235.7 123.856 235.843 124.156L241.108 135.239Z"/>
</mask>
<path d="M235.843 124.156L256.865 114.171L235.843 124.156ZM228.301 136.224L249.333 126.262L228.301 136.224ZM249.576 181.974L229.192 170.744L249.576 181.974ZM249.6 181.189L270.632 171.226L249.6 181.189ZM232.542 212.891L252.926 224.122L232.542 212.891ZM252.905 200.825L232.513 189.609L252.905 200.825ZM258.594 190.481L278.986 201.697L258.594 190.481ZM311.126 189.59L290.758 178.331L311.126 189.59ZM340.19 137.01L319.822 125.751L340.19 137.01ZM241.108 135.239L220.086 145.225L241.108 135.239ZM252.202 221.065C253.367 221.065 254.892 221.286 256.52 221.963C258.145 222.639 259.351 223.552 260.136 224.337L227.223 257.249C233.916 263.942 242.662 267.611 252.202 267.611V221.065ZM260.136 224.337C260.92 225.121 261.833 226.327 262.509 227.952C263.186 229.581 263.408 231.105 263.408 232.27H216.862C216.862 241.81 220.53 250.556 227.223 257.249L260.136 224.337ZM263.408 232.27C263.408 233.435 263.186 234.96 262.509 236.588C261.833 238.214 260.92 239.42 260.136 240.204L227.223 207.291C220.53 213.984 216.862 222.73 216.862 232.27H263.408ZM260.136 240.204C259.351 240.989 258.145 241.901 256.52 242.577C254.892 243.255 253.367 243.476 252.202 243.476V196.93C242.662 196.93 233.916 200.599 227.223 207.291L260.136 240.204ZM252.202 243.476C251.037 243.476 249.512 243.255 247.884 242.577C246.259 241.901 245.053 240.989 244.268 240.204L277.181 207.291C270.488 200.599 261.742 196.93 252.202 196.93V243.476ZM244.268 240.204C243.484 239.42 242.571 238.214 241.895 236.588C241.218 234.96 240.997 233.435 240.997 232.27H287.542C287.542 222.73 283.874 213.984 277.181 207.291L244.268 240.204ZM240.997 232.27C240.997 231.105 241.218 229.581 241.895 227.952C242.571 226.327 243.484 225.121 244.268 224.337L277.181 257.249C283.874 250.556 287.542 241.81 287.542 232.27H240.997ZM244.268 224.337C245.053 223.552 246.259 222.639 247.884 221.963C249.512 221.286 251.037 221.065 252.202 221.065V267.611C261.742 267.611 270.488 263.942 277.181 257.249L244.268 224.337ZM312.539 221.065C313.704 221.065 315.229 221.286 316.857 221.963C318.482 222.639 319.688 223.552 320.473 224.337L287.56 257.249C294.253 263.942 302.999 267.611 312.539 267.611V221.065ZM320.473 224.337C321.257 225.121 322.17 226.327 322.846 227.952C323.523 229.581 323.744 231.105 323.744 232.27H277.199C277.199 241.81 280.867 250.556 287.56 257.249L320.473 224.337ZM323.744 232.27C323.744 233.436 323.523 234.96 322.846 236.588C322.17 238.214 321.257 239.42 320.473 240.204L287.56 207.291C280.867 213.984 277.199 222.73 277.199 232.27H323.744ZM320.473 240.204C319.688 240.989 318.482 241.901 316.857 242.577C315.229 243.255 313.704 243.476 312.539 243.476V196.93C302.999 196.93 294.253 200.599 287.56 207.291L320.473 240.204ZM312.539 243.476C311.374 243.476 309.849 243.255 308.221 242.577C306.596 241.902 305.39 240.989 304.605 240.204L337.518 207.291C330.825 200.599 322.079 196.93 312.539 196.93V243.476ZM304.605 240.204C303.821 239.42 302.908 238.214 302.232 236.588C301.555 234.96 301.334 233.435 301.334 232.27H347.879C347.879 222.73 344.211 213.984 337.518 207.291L304.605 240.204ZM301.334 232.27C301.334 231.105 301.555 229.581 302.232 227.952C302.908 226.327 303.821 225.121 304.605 224.337L337.518 257.249C344.211 250.556 347.879 241.81 347.879 232.27H301.334ZM304.605 224.337C305.39 223.552 306.596 222.639 308.221 221.963C309.849 221.286 311.374 221.065 312.539 221.065V267.611C322.079 267.611 330.825 263.942 337.518 257.249L304.605 224.337ZM241.886 159.004H339.436V112.459H241.886V159.004ZM319.822 125.751L290.758 178.331L331.494 200.849L360.558 148.269L319.822 125.751ZM310.371 166.762H259.349V213.307H310.371V166.762ZM238.202 179.266L232.513 189.609L273.297 212.04L278.986 201.697L238.202 179.266ZM253.66 225.375H323.744V178.829H253.66V225.375ZM301.334 202.964V213.307H347.879V202.964H301.334ZM323.744 190.897H233.297V237.442H323.744V190.897ZM252.926 224.122L269.96 193.204L229.192 170.744L212.158 201.661L252.926 224.122ZM270.632 171.226L249.333 126.262L207.268 146.187L228.567 191.152L270.632 171.226ZM227.522 112.459H216.862V159.004H227.522V112.459ZM239.273 134.869V124.526H192.727V134.869H239.273ZM216.862 146.937H235.065V100.391H216.862V146.937ZM214.821 134.142L220.086 145.225L262.13 125.254L256.865 114.171L214.821 134.142ZM235.065 146.937C226.413 146.937 218.534 141.957 214.821 134.142L256.865 114.171C252.867 105.755 244.382 100.391 235.065 100.391V146.937ZM239.273 124.526C239.273 136.903 229.239 146.937 216.862 146.937V100.391C203.533 100.391 192.727 111.197 192.727 124.526H239.273ZM216.862 112.459C229.239 112.459 239.273 122.492 239.273 134.869H192.727C192.727 148.199 203.533 159.004 216.862 159.004V112.459ZM249.333 126.262C245.341 117.833 236.849 112.459 227.522 112.459V159.004C218.861 159.004 210.976 154.014 207.268 146.187L249.333 126.262ZM269.96 193.204C273.702 186.411 273.952 178.235 270.632 171.226L228.567 191.152C225.485 184.644 225.717 177.051 229.192 170.744L269.96 193.204ZM233.297 190.897C250.35 190.897 261.155 209.185 252.926 224.122L212.158 201.661C203.297 217.747 214.933 237.442 233.297 237.442V190.897ZM301.334 213.307C301.334 200.93 311.367 190.897 323.744 190.897V237.442C337.074 237.442 347.879 226.637 347.879 213.307H301.334ZM323.744 225.375C311.367 225.375 301.334 215.341 301.334 202.964H347.879C347.879 189.635 337.074 178.829 323.744 178.829V225.375ZM232.513 189.609C223.666 205.694 235.303 225.375 253.66 225.375V178.829C270.706 178.829 281.511 197.104 273.297 212.04L232.513 189.609ZM259.349 166.762C250.547 166.762 242.443 171.553 238.202 179.266L278.986 201.697C275.047 208.858 267.522 213.307 259.349 213.307V166.762ZM290.758 178.331C294.703 171.193 302.215 166.762 310.371 166.762V213.307C319.155 213.307 327.244 208.536 331.494 200.849L290.758 178.331ZM339.436 159.004C322.369 159.004 311.566 140.688 319.822 125.751L360.558 148.269C369.45 132.184 357.816 112.459 339.436 112.459V159.004ZM241.886 112.459C250.538 112.459 258.417 117.439 262.13 125.254L220.086 145.225C224.084 153.641 232.569 159.004 241.886 159.004V112.459Z" fill="url(#paint4_linear_14263_26420)" mask="url(#path-11-outside-3_14263_26420)"/>
</g>
<g opacity="0.2">
<mask id="path-13-outside-4_14263_26420" maskUnits="userSpaceOnUse" x="193" y="100.664" width="170" height="167" fill="black">
<rect fill="white" x="193" y="100.664" width="170" height="167"/>
<path d="M252.202 244.338C248.884 244.338 246.043 243.156 243.68 240.793C241.316 238.43 240.135 235.589 240.135 232.27C240.135 228.952 241.316 226.111 243.68 223.748C246.043 221.385 248.884 220.203 252.202 220.203C255.521 220.203 258.361 221.385 260.725 223.748C263.088 226.111 264.269 228.952 264.269 232.27C264.269 235.589 263.088 238.43 260.725 240.793C258.361 243.156 255.521 244.338 252.202 244.338ZM312.539 244.338C309.22 244.338 306.38 243.156 304.016 240.793C301.653 238.43 300.472 235.589 300.472 232.27C300.472 228.952 301.653 226.111 304.016 223.748C306.38 221.385 309.22 220.203 312.539 220.203C315.857 220.203 318.698 221.385 321.062 223.748C323.425 226.111 324.606 228.952 324.606 232.27C324.606 235.589 323.425 238.43 321.062 240.793C318.698 243.156 315.857 244.338 312.539 244.338ZM241.108 135.239C241.25 135.54 241.554 135.731 241.886 135.731H339.436C340.092 135.731 340.508 136.436 340.19 137.01L311.126 189.59C310.974 189.864 310.685 190.035 310.371 190.035H259.349C259.034 190.035 258.745 190.206 258.594 190.481L252.905 200.825C252.589 201.399 253.004 202.102 253.66 202.102H323.744C324.22 202.102 324.606 202.488 324.606 202.964V213.307C324.606 213.783 324.22 214.169 323.744 214.169H233.297C232.642 214.169 232.226 213.466 232.542 212.891L249.576 181.974C249.709 181.731 249.718 181.439 249.6 181.189L228.301 136.224C228.158 135.923 227.855 135.731 227.522 135.731H216.862C216.386 135.731 216 135.346 216 134.869V124.526C216 124.05 216.386 123.664 216.862 123.664H235.065C235.397 123.664 235.7 123.856 235.843 124.156L241.108 135.239Z"/>
</mask>
<path d="M235.843 124.156L256.086 114.541L235.843 124.156ZM228.301 136.224L248.554 126.631L228.301 136.224ZM249.576 181.974L229.947 171.16L249.576 181.974ZM249.6 181.189L269.853 171.595L249.6 181.189ZM232.542 212.891L252.171 223.706L232.542 212.891ZM252.905 200.825L233.268 190.024L252.905 200.825ZM258.594 190.481L278.23 201.281L258.594 190.481ZM311.126 189.59L291.512 178.748L311.126 189.59ZM340.19 137.01L320.577 126.168L340.19 137.01ZM241.108 135.239L220.865 144.855L241.108 135.239ZM252.202 221.927C253.263 221.927 254.674 222.129 256.189 222.759C257.701 223.388 258.815 224.235 259.526 224.946L227.833 256.64C234.365 263.172 242.893 266.749 252.202 266.749V221.927ZM259.526 224.946C260.238 225.658 261.084 226.771 261.713 228.283C262.344 229.799 262.546 231.21 262.546 232.27H217.724C217.724 241.58 221.3 250.107 227.833 256.64L259.526 224.946ZM262.546 232.27C262.546 233.331 262.344 234.742 261.713 236.257C261.084 237.77 260.238 238.883 259.526 239.595L227.833 207.901C221.3 214.433 217.724 222.961 217.724 232.27H262.546ZM259.526 239.595C258.815 240.306 257.701 241.153 256.189 241.782C254.674 242.412 253.263 242.614 252.202 242.614V197.792C242.893 197.792 234.365 201.368 227.833 207.901L259.526 239.595ZM252.202 242.614C251.142 242.614 249.731 242.412 248.215 241.782C246.703 241.153 245.589 240.306 244.878 239.595L276.572 207.901C270.039 201.368 261.512 197.792 252.202 197.792V242.614ZM244.878 239.595C244.166 238.883 243.32 237.77 242.691 236.257C242.061 234.742 241.859 233.331 241.859 232.27H286.68C286.68 222.961 283.104 214.433 276.572 207.901L244.878 239.595ZM241.859 232.27C241.859 231.21 242.061 229.799 242.691 228.283C243.32 226.771 244.166 225.658 244.878 224.946L276.572 256.64C283.104 250.107 286.68 241.58 286.68 232.27H241.859ZM244.878 224.946C245.589 224.235 246.703 223.388 248.215 222.759C249.731 222.129 251.142 221.927 252.202 221.927V266.749C261.512 266.749 270.039 263.172 276.572 256.64L244.878 224.946ZM312.539 221.927C313.599 221.927 315.011 222.129 316.526 222.759C318.038 223.388 319.152 224.235 319.863 224.946L288.17 256.64C294.702 263.172 303.229 266.749 312.539 266.749V221.927ZM319.863 224.946C320.575 225.658 321.421 226.771 322.05 228.283C322.68 229.799 322.882 231.21 322.882 232.27H278.061C278.061 241.58 281.637 250.107 288.17 256.64L319.863 224.946ZM322.882 232.27C322.882 233.331 322.68 234.742 322.05 236.257C321.421 237.77 320.575 238.883 319.863 239.595L288.17 207.901C281.637 214.433 278.061 222.961 278.061 232.27H322.882ZM319.863 239.595C319.152 240.306 318.038 241.153 316.526 241.782C315.011 242.412 313.599 242.614 312.539 242.614V197.792C303.229 197.792 294.702 201.368 288.17 207.901L319.863 239.595ZM312.539 242.614C311.478 242.614 310.067 242.412 308.552 241.782C307.04 241.153 305.926 240.306 305.215 239.595L336.908 207.901C330.376 201.368 321.848 197.792 312.539 197.792V242.614ZM305.215 239.595C304.503 238.883 303.657 237.77 303.028 236.257C302.397 234.742 302.195 233.331 302.195 232.27H347.017C347.017 222.961 343.441 214.433 336.908 207.901L305.215 239.595ZM302.195 232.27C302.195 231.21 302.397 229.799 303.028 228.283C303.657 226.771 304.503 225.658 305.215 224.946L336.908 256.64C343.441 250.107 347.017 241.58 347.017 232.27H302.195ZM305.215 224.946C305.926 224.235 307.04 223.388 308.552 222.759C310.067 222.129 311.478 221.927 312.539 221.927V266.749C321.848 266.749 330.376 263.172 336.908 256.64L305.215 224.946ZM241.886 158.142H339.436V113.321H241.886V158.142ZM320.577 126.168L291.512 178.748L330.739 200.432L359.804 147.852L320.577 126.168ZM310.371 167.624H259.349V212.445H310.371V167.624ZM238.957 179.681L233.268 190.024L272.541 211.625L278.23 201.281L238.957 179.681ZM253.66 224.513H323.744V179.691H253.66V224.513ZM302.195 202.964V213.307H347.017V202.964H302.195ZM323.744 191.759H233.297V236.58H323.744V191.759ZM252.171 223.706L269.205 192.788L229.947 171.16L212.913 202.077L252.171 223.706ZM269.853 171.595L248.554 126.631L208.047 145.818L229.346 190.783L269.853 171.595ZM227.522 113.321H216.862V158.142H227.522V113.321ZM238.411 134.869V124.526H193.589V134.869H238.411ZM216.862 146.075H235.065V101.253H216.862V146.075ZM215.6 133.772L220.865 144.855L261.351 125.624L256.086 114.541L215.6 133.772ZM235.065 146.075C226.746 146.075 219.169 141.286 215.6 133.772L256.086 114.541C252.232 106.425 244.049 101.253 235.065 101.253V146.075ZM238.411 124.526C238.411 136.427 228.763 146.075 216.862 146.075V101.253C204.009 101.253 193.589 111.673 193.589 124.526H238.411ZM216.862 113.321C228.763 113.321 238.411 122.968 238.411 134.869H193.589C193.589 147.723 204.009 158.142 216.862 158.142V113.321ZM248.554 126.631C244.704 118.503 236.516 113.321 227.522 113.321V158.142C219.194 158.142 211.612 153.344 208.047 145.818L248.554 126.631ZM269.205 192.788C272.813 186.238 273.055 178.353 269.853 171.595L229.346 190.783C226.382 184.525 226.606 177.224 229.947 171.16L269.205 192.788ZM233.297 191.759C249.694 191.759 260.084 209.344 252.171 223.706L212.913 202.077C204.368 217.588 215.589 236.58 233.297 236.58V191.759ZM302.195 213.307C302.195 201.406 311.843 191.759 323.744 191.759V236.58C336.598 236.58 347.017 226.161 347.017 213.307H302.195ZM323.744 224.513C311.843 224.513 302.195 214.865 302.195 202.964H347.017C347.017 190.111 336.598 179.691 323.744 179.691V224.513ZM233.268 190.024C224.737 205.535 235.959 224.513 253.66 224.513V179.691C270.05 179.691 280.44 197.263 272.541 211.625L233.268 190.024ZM259.349 167.624C250.861 167.624 243.047 172.244 238.957 179.681L278.23 201.281C274.443 208.167 267.208 212.445 259.349 212.445V167.624ZM291.512 178.748C295.306 171.884 302.529 167.624 310.371 167.624V212.445C318.841 212.445 326.642 207.844 330.739 200.432L291.512 178.748ZM339.436 158.142C323.025 158.142 312.638 140.53 320.577 126.168L359.804 147.852C368.378 132.341 357.159 113.321 339.436 113.321V158.142ZM241.886 113.321C250.205 113.321 257.782 118.109 261.351 125.624L220.865 144.855C224.719 152.97 232.902 158.142 241.886 158.142V113.321Z" fill="url(#paint5_linear_14263_26420)" mask="url(#path-13-outside-4_14263_26420)"/>
</g>
<path opacity="0.6" d="M323.744 195.637H313.819C315.047 194.982 316.086 193.979 316.783 192.717L316.783 192.717L345.848 140.138C348.547 135.255 345.016 129.267 339.436 129.267H245.428L241.683 121.382L241.683 121.382C240.469 118.828 237.893 117.199 235.065 117.199H216.862C212.816 117.199 209.535 120.48 209.535 124.526V134.869C209.535 138.916 212.816 142.196 216.862 142.196H223.976L242.53 181.365L226.88 209.772C224.19 214.655 227.723 220.634 233.297 220.634H237.787C235.081 223.934 233.67 227.889 233.67 232.27C233.67 237.317 235.542 241.798 239.108 245.364C242.674 248.93 247.155 250.802 252.202 250.802C257.249 250.802 261.73 248.93 265.296 245.364C268.862 241.798 270.734 237.317 270.734 232.27C270.734 227.889 269.323 223.934 266.618 220.634H298.123C295.418 223.934 294.007 227.889 294.007 232.27C294.007 237.317 295.879 241.798 299.445 245.364L304.016 240.793L299.445 245.364C303.011 248.93 307.492 250.802 312.539 250.802C317.586 250.802 322.067 248.93 325.633 245.364L321.062 240.793L325.633 245.364C329.199 241.798 331.071 237.317 331.071 232.27C331.071 227.65 329.501 223.503 326.499 220.099C329.18 219.01 331.071 216.379 331.071 213.307V202.964C331.071 198.918 327.791 195.637 323.744 195.637Z" stroke="url(#paint6_linear_14263_26420)" stroke-opacity="0.2" stroke-width="12.9293"/>
<path opacity="0.3" d="M316.406 192.509L316.406 192.509L345.471 139.929C348.011 135.334 344.687 129.698 339.436 129.698H245.155L241.293 121.567L241.293 121.567C240.151 119.163 237.727 117.63 235.065 117.63H216.862C213.054 117.63 209.966 120.718 209.966 124.526V134.869C209.966 138.678 213.054 141.765 216.862 141.765H224.249L243.014 181.38L227.258 209.98C224.726 214.576 228.05 220.203 233.297 220.203H238.727C235.688 223.563 234.101 227.674 234.101 232.27C234.101 237.202 235.927 241.574 239.413 245.059C242.899 248.545 247.271 250.371 252.202 250.371C257.134 250.371 261.505 248.545 264.991 245.059C268.477 241.574 270.303 237.202 270.303 232.27C270.303 227.674 268.716 223.563 265.678 220.203H299.063C296.025 223.563 294.438 227.674 294.438 232.27C294.438 237.202 296.264 241.574 299.75 245.059C303.236 248.545 307.607 250.371 312.539 250.371C317.47 250.371 321.842 248.545 325.328 245.059C328.814 241.574 330.64 237.202 330.64 232.27C330.64 227.539 328.959 223.322 325.743 219.909C328.577 219.052 330.64 216.421 330.64 213.307V202.964C330.64 199.156 327.553 196.068 323.744 196.068L310.371 196.068C312.881 196.068 315.192 194.705 316.406 192.509Z" stroke="url(#paint7_linear_14263_26420)" stroke-width="12.0674"/>
<g opacity="0.7" filter="url(#filter0_f_14263_26420)">
<path d="M231.992 290.81C226.117 290.81 221.088 288.718 216.905 284.535C212.722 280.351 210.63 275.322 210.63 269.448C210.63 263.573 212.722 258.544 216.905 254.361C221.088 250.178 226.117 248.086 231.992 248.086C237.866 248.086 242.895 250.178 247.079 254.361C251.262 258.544 253.354 263.573 253.354 269.448C253.354 275.322 251.262 280.351 247.079 284.535C242.895 288.718 237.866 290.81 231.992 290.81ZM338.801 290.81C332.926 290.81 327.897 288.718 323.714 284.535C319.531 280.351 317.439 275.322 317.439 269.448C317.439 263.573 319.531 258.544 323.714 254.361C327.897 250.178 332.926 248.086 338.801 248.086C344.675 248.086 349.704 250.178 353.888 254.361C358.071 258.544 360.163 263.573 360.163 269.448C360.163 275.322 358.071 280.351 353.888 284.535C349.704 288.718 344.675 290.81 338.801 290.81ZM212.766 98.5532H389.001L335.864 194.681H243.741L231.992 216.043H360.163V237.405H195.944L227.719 179.728L189.268 98.5532H167.906V77.1914H202.619L212.766 98.5532Z" fill="#CABAEE"/>
<path d="M212.077 98.8806L212.284 99.3162H212.766H387.708L335.414 193.919H243.741H243.29L243.072 194.314L231.323 215.676L230.701 216.806H231.992H359.4V236.642H197.235L228.388 180.096L228.576 179.754L228.409 179.402L189.958 98.2266L189.751 97.7903H189.268H168.669V77.9543H202.137L212.077 98.8806ZM231.992 290.047C226.321 290.047 221.486 288.037 217.444 283.995C213.403 279.954 211.393 275.118 211.393 269.448C211.393 263.777 213.403 258.942 217.444 254.901C221.486 250.859 226.321 248.849 231.992 248.849C237.662 248.849 242.498 250.859 246.539 254.901C250.58 258.942 252.591 263.777 252.591 269.448C252.591 275.118 250.58 279.954 246.539 283.995C242.498 288.037 237.662 290.047 231.992 290.047ZM338.801 290.047C333.13 290.047 328.295 288.037 324.254 283.995C320.212 279.954 318.202 275.118 318.202 269.448C318.202 263.777 320.212 258.942 324.254 254.901C328.295 250.859 333.13 248.849 338.801 248.849C344.471 248.849 349.307 250.859 353.348 254.901C357.39 258.942 359.4 263.777 359.4 269.448C359.4 275.118 357.39 279.954 353.348 283.995C349.307 288.037 344.471 290.047 338.801 290.047Z" stroke="#CDC0ED" stroke-width="1.52584"/>
</g>
<path d="M293.132 161.59L276.193 172.369V150.81L293.132 161.59Z" fill="#130A29" stroke="url(#paint8_linear_14263_26420)" stroke-width="0.861955"/>
<path d="M240.956 135.914L241.073 136.16H241.345H340.171L310.629 189.602H258.843H258.588L258.465 189.825L251.828 201.892L251.477 202.531H252.206H324.179V213.736H232.572L250.17 181.793L250.276 181.6L250.182 181.401L228.461 135.545L228.344 135.299H228.071H216.435V124.093H235.341L240.956 135.914ZM252.206 243.905C249.003 243.905 246.271 242.769 243.988 240.486C241.705 238.203 240.57 235.472 240.57 232.268C240.57 229.065 241.705 226.334 243.988 224.051C246.271 221.768 249.003 220.632 252.206 220.632C255.409 220.632 258.141 221.768 260.424 224.051C262.707 226.334 263.842 229.065 263.842 232.268C263.842 235.472 262.707 238.203 260.424 240.486C258.141 242.769 255.409 243.905 252.206 243.905ZM312.543 243.905C309.34 243.905 306.608 242.769 304.325 240.486C302.042 238.203 300.906 235.472 300.906 232.268C300.906 229.065 302.042 226.334 304.325 224.051C306.608 221.768 309.34 220.632 312.543 220.632C315.746 220.632 318.478 221.768 320.761 224.051C323.044 226.334 324.179 229.065 324.179 232.268C324.179 235.472 323.044 238.203 320.761 240.486C318.478 242.769 315.746 243.905 312.543 243.905Z" fill="url(#paint9_linear_14263_26420)" fill-opacity="0.9" stroke="url(#paint10_linear_14263_26420)" stroke-width="0.861955"/>
<rect x="83.5" y="15.5" width="197" height="320" fill="#130A29" fill-opacity="0.53" stroke="url(#paint11_radial_14263_26420)"/>
<mask id="path-22-inside-5_14263_26420" fill="white">
<path d="M83 336H281V184H83V336Z"/>
</mask>
<path d="M280 336V184H282V336H280Z" fill="url(#paint12_radial_14263_26420)" mask="url(#path-22-inside-5_14263_26420)"/>
</g>
<rect x="126.5" y="31.5" width="304" height="304" rx="151.5" stroke="url(#paint13_radial_14263_26420)"/>
<g filter="url(#filter1_bf_14263_26420)">
<rect y="308" width="557" height="145" fill="#130A29" fill-opacity="0.82"/>
</g>
<path d="M37.184 367.016V380H34.304V362.936H37.136L44.6 370.856L52.256 362.936H54.92V380H52.04V366.992L44.672 374.504H44.36L37.184 367.016ZM72.2021 376.232C71.8181 377.024 71.2661 377.72 70.5221 378.368C69.0101 379.664 66.8261 380.456 63.8261 380.456C59.9381 380.456 58.1381 379.112 58.1381 376.64V376.616C58.1381 375.128 58.7861 374.048 60.0821 373.352C60.5381 373.088 61.0421 372.872 61.6181 372.704C62.7701 372.344 64.5221 372.104 67.4501 371.936C68.6501 371.864 69.5621 371.768 70.2341 371.672C71.5781 371.48 72.0821 371.096 72.0821 370.328V370.304C72.0821 369.92 71.9381 369.56 71.6501 369.2C71.0981 368.504 69.8021 367.976 67.3781 367.976C63.3221 367.976 61.8101 368.984 61.5221 371.168H58.4501C58.9061 367.448 61.8101 365.768 67.1381 365.768C72.4421 365.768 74.9381 367.304 74.9381 370.976V380H72.4901L72.2021 376.232ZM64.6421 378.296C66.9221 378.296 68.7701 377.672 70.0901 376.664C71.4101 375.656 72.1301 374.432 72.1301 373.232V372.656C71.6741 373.256 70.5221 373.616 67.7141 373.784C64.5701 373.952 63.1061 374.216 62.2661 374.768C61.6181 375.152 61.3061 375.704 61.3061 376.376V376.4C61.3061 377.552 62.1941 378.296 64.6421 378.296ZM86.6531 373.256L81.7331 377.144V380H78.8291V361.808H81.7331V374.336L91.5251 366.296H95.6051L88.9331 371.72L95.9891 380H92.3651L86.6531 373.256ZM114.22 376.112C112.732 379.328 109.684 380.456 105.316 380.456C103.228 380.456 101.572 380.168 100.252 379.592C97.6115 378.392 96.4355 376.256 96.4355 373.328C96.4355 371.84 96.8195 370.568 97.5155 369.416C98.9555 367.136 101.74 365.768 105.556 365.768C107.428 365.768 109.012 366.056 110.356 366.656C113.02 367.856 114.46 370.016 114.46 373.04V374.24H99.2675C99.6515 376.808 101.644 378.104 105.556 378.104C108.484 378.104 110.068 377.456 110.908 376.112H114.22ZM105.628 368.096C102.052 368.096 99.8195 369.44 99.3155 372.056H111.532C111.148 369.392 109.204 368.096 105.628 368.096ZM126.258 363.992C124.842 363.992 124.266 363.464 124.266 362.072C124.266 360.68 124.938 360.176 126.234 360.176C127.554 360.176 128.226 360.68 128.226 362.072C128.226 363.368 127.578 363.992 126.258 363.992ZM124.65 380V366.296H127.722V380H124.65ZM143.136 380H140.52C138.936 380 137.712 379.784 136.8 379.4C134.976 378.56 134.28 376.736 134.28 373.496V368.84H130.56V366.44H131.328C131.976 366.416 132.648 366.392 132.96 366.368C134.064 366.248 134.256 366.008 134.448 365.096C134.616 364.352 134.64 363.32 134.64 362.48H137.112V366.296H143.136V368.84H137.112V373.04C137.112 374.288 137.232 375.2 137.448 375.848C137.928 377.072 139.032 377.384 141.24 377.384H143.136V380ZM160.618 380.456C155.482 380.456 152.242 378.992 151.498 375.368H154.906C155.482 377.528 157.522 378.104 160.762 378.104C162.01 378.104 162.97 378.008 163.666 377.816C165.082 377.432 165.61 376.76 165.61 375.92C165.61 375.512 165.442 375.152 165.13 374.936C164.482 374.456 162.946 374.24 159.73 374.144C157.906 374.072 156.466 373.928 155.338 373.664C153.082 373.112 152.122 372.056 152.122 370.28C152.122 367.664 154.546 365.768 159.49 365.768C164.482 365.768 167.338 367.208 168.37 370.544H165.154C164.554 368.648 162.538 367.976 159.49 367.976C158.362 367.976 157.498 368.072 156.826 368.264C155.53 368.648 155.026 369.296 155.026 370.064C155.026 370.472 155.17 370.784 155.458 371.048C156.034 371.528 157.57 371.744 160.714 371.864C162.706 371.936 164.242 372.104 165.394 372.392C167.674 372.944 168.562 373.976 168.562 375.872C168.562 376.736 168.274 377.528 167.698 378.2C166.57 379.592 164.242 380.456 160.618 380.456ZM174.287 380H171.431V361.808H174.311V369.656C175.367 367.28 177.599 365.768 180.887 365.768C182.471 365.768 183.743 366.056 184.799 366.632C186.911 367.784 187.991 369.92 187.991 372.68V380H184.991V373.472C184.991 372.44 184.823 371.528 184.511 370.736C183.863 369.128 182.447 368.192 179.975 368.192C176.351 368.192 174.287 370.184 174.287 373.904V380ZM200.146 380.456C193.882 380.456 191.146 377.768 191.146 373.208C191.146 371.624 191.53 370.304 192.298 369.2C193.882 366.944 196.666 365.768 200.242 365.768C202.066 365.768 203.626 366.056 205.018 366.632C207.778 367.784 209.386 370.016 209.386 373.208C209.386 377.672 206.362 380.456 200.146 380.456ZM200.218 377.96C204.346 377.96 206.338 376.4 206.338 373.208C206.338 369.92 204.106 368.192 200.29 368.192C196.57 368.192 194.194 369.824 194.194 373.208C194.194 376.4 196.21 377.96 200.218 377.96ZM222.305 380.408C218.969 380.408 216.713 379.376 215.561 377.48V384.896H212.633V366.296H215.201L215.441 369.176C216.737 366.992 219.233 365.792 222.449 365.792C224.081 365.792 225.521 366.08 226.745 366.656C229.193 367.808 230.585 369.992 230.585 373.208C230.585 374.816 230.225 376.112 229.457 377.216C227.945 379.328 225.353 380.408 222.305 380.408ZM221.441 377.984C225.593 377.984 227.561 376.328 227.561 373.208C227.561 369.968 225.353 368.192 221.537 368.192C217.769 368.192 215.441 370.112 215.441 373.208C215.441 376.352 217.553 377.984 221.441 377.984ZM247.729 373.688H234.049V370.736H247.729V373.688ZM264.811 376.232C264.427 377.024 263.875 377.72 263.131 378.368C261.619 379.664 259.435 380.456 256.435 380.456C252.547 380.456 250.747 379.112 250.747 376.64V376.616C250.747 375.128 251.395 374.048 252.691 373.352C253.147 373.088 253.651 372.872 254.227 372.704C255.379 372.344 257.131 372.104 260.059 371.936C261.259 371.864 262.171 371.768 262.843 371.672C264.187 371.48 264.691 371.096 264.691 370.328V370.304C264.691 369.92 264.547 369.56 264.259 369.2C263.707 368.504 262.411 367.976 259.987 367.976C255.931 367.976 254.419 368.984 254.131 371.168H251.059C251.515 367.448 254.419 365.768 259.747 365.768C265.051 365.768 267.547 367.304 267.547 370.976V380H265.099L264.811 376.232ZM257.251 378.296C259.531 378.296 261.379 377.672 262.699 376.664C264.019 375.656 264.739 374.432 264.739 373.232V372.656C264.283 373.256 263.131 373.616 260.323 373.784C257.179 373.952 255.715 374.216 254.875 374.768C254.227 375.152 253.915 375.704 253.915 376.376V376.4C253.915 377.552 254.803 378.296 257.251 378.296ZM281.134 380.408C277.63 380.408 275.35 379.328 274.222 377.312L274.03 380H271.438V361.808H274.342V369.2C275.638 366.944 278.182 365.792 281.302 365.792C282.91 365.792 284.302 366.08 285.526 366.632C287.95 367.784 289.342 369.968 289.342 373.208C289.342 374.816 288.982 376.112 288.238 377.216C286.798 379.328 284.23 380.408 281.134 380.408ZM280.246 377.984C284.374 377.984 286.318 376.352 286.318 373.208C286.318 369.92 284.11 368.192 280.294 368.192C279.094 368.192 278.038 368.384 277.126 368.792C275.302 369.56 274.198 371.048 274.198 373.208C274.198 376.328 276.358 377.984 280.246 377.984ZM292.627 380V361.808H295.627V380H292.627ZM316.532 376.112C315.044 379.328 311.996 380.456 307.628 380.456C305.54 380.456 303.884 380.168 302.564 379.592C299.924 378.392 298.748 376.256 298.748 373.328C298.748 371.84 299.132 370.568 299.828 369.416C301.268 367.136 304.052 365.768 307.868 365.768C309.74 365.768 311.324 366.056 312.668 366.656C315.332 367.856 316.772 370.016 316.772 373.04V374.24H301.58C301.964 376.808 303.956 378.104 307.868 378.104C310.796 378.104 312.38 377.456 313.22 376.112H316.532ZM307.94 368.096C304.364 368.096 302.132 369.44 301.628 372.056H313.844C313.46 369.392 311.516 368.096 307.94 368.096ZM328.57 363.992C327.154 363.992 326.578 363.464 326.578 362.072C326.578 360.68 327.25 360.176 328.546 360.176C329.866 360.176 330.538 360.68 330.538 362.072C330.538 363.368 329.89 363.992 328.57 363.992ZM326.962 380V366.296H330.034V380H326.962ZM337.11 380H334.086V366.296H336.702L336.966 369.752C338.022 367.304 340.35 365.768 343.662 365.768C345.246 365.768 346.518 366.056 347.574 366.632C349.686 367.784 350.79 369.92 350.79 372.68V380H347.79V373.328C347.79 372.296 347.646 371.384 347.286 370.616C346.638 369.08 345.222 368.192 342.75 368.192C339.078 368.192 337.11 370.232 337.11 373.952V380ZM374.944 376.232C374.56 377.024 374.008 377.72 373.264 378.368C371.752 379.664 369.568 380.456 366.568 380.456C362.68 380.456 360.88 379.112 360.88 376.64V376.616C360.88 375.128 361.528 374.048 362.824 373.352C363.28 373.088 363.784 372.872 364.36 372.704C365.512 372.344 367.264 372.104 370.192 371.936C371.392 371.864 372.304 371.768 372.976 371.672C374.32 371.48 374.824 371.096 374.824 370.328V370.304C374.824 369.92 374.68 369.56 374.392 369.2C373.84 368.504 372.544 367.976 370.12 367.976C366.064 367.976 364.552 368.984 364.264 371.168H361.192C361.648 367.448 364.552 365.768 369.88 365.768C375.184 365.768 377.68 367.304 377.68 370.976V380H375.232L374.944 376.232ZM367.384 378.296C369.664 378.296 371.512 377.672 372.832 376.664C374.152 375.656 374.872 374.432 374.872 373.232V372.656C374.416 373.256 373.264 373.616 370.456 373.784C367.312 373.952 365.848 374.216 365.008 374.768C364.36 375.152 364.048 375.704 364.048 376.376V376.4C364.048 377.552 364.936 378.296 367.384 378.296ZM405.907 374.168C405.403 378.152 402.259 380.456 396.835 380.456C390.499 380.456 387.787 377.768 387.787 373.208C387.787 371.624 388.171 370.304 388.963 369.2C390.499 366.944 393.331 365.768 396.907 365.768C402.091 365.768 405.307 367.952 405.907 371.984H402.691C402.187 369.44 400.219 368.192 396.931 368.192C393.211 368.192 390.835 369.824 390.835 373.208C390.835 376.4 392.851 377.96 396.931 377.96C400.339 377.96 402.163 376.736 402.715 374.168H405.907ZM409.017 380V361.808H412.017V380H409.017ZM417.633 363.992C416.217 363.992 415.641 363.464 415.641 362.072C415.641 360.68 416.313 360.176 417.609 360.176C418.929 360.176 419.601 360.68 419.601 362.072C419.601 363.368 418.953 363.992 417.633 363.992ZM416.025 380V366.296H419.097V380H416.025ZM440.454 374.168C439.95 378.152 436.806 380.456 431.382 380.456C425.046 380.456 422.334 377.768 422.334 373.208C422.334 371.624 422.718 370.304 423.51 369.2C425.046 366.944 427.878 365.768 431.454 365.768C436.638 365.768 439.854 367.952 440.454 371.984H437.238C436.734 369.44 434.766 368.192 431.478 368.192C427.758 368.192 425.382 369.824 425.382 373.208C425.382 376.4 427.398 377.96 431.478 377.96C434.886 377.96 436.71 376.736 437.262 374.168H440.454ZM451.364 373.256L446.444 377.144V380H443.54V361.808H446.444V374.336L456.236 366.296H460.316L453.644 371.72L460.7 380H457.076L451.364 373.256Z" fill="white"/>
<path d="M37.248 350.224C36.192 350.224 35.36 350.064 34.688 349.76C33.376 349.12 32.816 347.936 32.704 346.256H33.792C33.872 348.144 34.88 349.312 37.264 349.312C38 349.312 38.592 349.184 39.056 348.976C40 348.528 40.416 347.744 40.416 346.928C40.416 346.064 40 345.568 39.36 345.248C38.72 344.928 37.888 344.768 37.008 344.592C36.064 344.416 35.136 344.224 34.384 343.792C33.632 343.392 33.168 342.704 33.168 341.552C33.168 340.992 33.312 340.496 33.616 340.032C34.192 339.104 35.328 338.496 37.008 338.496C39.648 338.496 41.088 339.776 41.216 341.84H40.176C40.064 340.272 39.008 339.376 37.008 339.376C35.184 339.376 34.192 340.352 34.192 341.536C34.192 342.352 34.592 342.816 35.232 343.12C35.856 343.424 36.688 343.568 37.552 343.744C38.512 343.936 39.472 344.144 40.224 344.576C40.96 345.024 41.44 345.712 41.44 346.912C41.44 347.52 41.28 348.064 40.976 348.576C40.336 349.584 39.12 350.224 37.248 350.224ZM43.1575 353.28V352.384H43.7015C44.5975 352.384 45.1415 352.304 45.5415 352C45.9255 351.728 46.2615 351.168 46.6615 350.272L46.8695 349.856L42.8695 340.912H43.9415L47.3655 348.64L50.7255 340.912H51.7975L47.5895 350.464C47.0615 351.664 46.6615 352.384 46.1175 352.768C45.5895 353.168 44.8855 353.28 43.7015 353.28H43.1575ZM54.525 350H53.533V340.912H54.381L54.477 343.216C54.973 341.696 56.189 340.656 58.077 340.656C60.541 340.656 61.789 342.224 61.789 344.576V350H60.781V344.736C60.781 342.848 59.917 341.552 57.821 341.552C57.133 341.552 56.557 341.712 56.061 342.016C55.069 342.656 54.525 343.776 54.525 345.232V350ZM72.8686 346.64C72.5326 349.104 70.9006 350.224 68.5486 350.224C65.7006 350.224 64.0366 348.48 64.0366 345.584V345.408C64.0366 344.4 64.2446 343.552 64.6286 342.848C65.4286 341.408 66.8526 340.656 68.5646 340.656C70.9006 340.656 72.4846 341.808 72.8526 344.224H71.7966V344.208C71.4766 342.4 70.2766 341.536 68.5646 341.536C67.8926 341.536 67.3006 341.68 66.7886 342C65.7326 342.624 65.0926 343.776 65.0926 345.424V345.568C65.0926 347.856 66.3886 349.312 68.5486 349.312C70.3886 349.312 71.4766 348.432 71.8126 346.624H72.8686V346.64ZM79.7513 353.28V352.384H80.2953C81.1913 352.384 81.7353 352.304 82.1353 352C82.5193 351.728 82.8553 351.168 83.2552 350.272L83.4633 349.856L79.4633 340.912H80.5353L83.9593 348.64L87.3193 340.912H88.3913L84.1833 350.464C83.6553 351.664 83.2552 352.384 82.7113 352.768C82.1833 353.168 81.4793 353.28 80.2953 353.28H79.7513ZM93.8924 350.224C91.0124 350.224 89.3804 348.48 89.3804 345.584V345.408C89.3804 344.4 89.5724 343.552 89.9724 342.848C90.7724 341.408 92.1484 340.656 93.8924 340.656C94.7724 340.656 95.5404 340.848 96.2284 341.232C97.6044 341.984 98.4044 343.408 98.4044 345.408V345.584C98.4044 346.544 98.2284 347.36 97.8604 348.064C97.1244 349.456 95.7644 350.224 93.8924 350.224ZM93.8924 349.312C96.1164 349.312 97.3964 347.888 97.3964 345.568V345.424C97.3964 344.624 97.2524 343.968 96.9484 343.36C96.3244 342.208 95.2524 341.536 93.9084 341.536C93.2364 341.536 92.6284 341.68 92.1164 342C91.0604 342.624 90.4204 343.776 90.4204 345.424V345.568C90.4204 347.856 91.6844 349.312 93.8924 349.312ZM107.491 347.728C107.043 349.232 105.843 350.208 104.067 350.208C101.731 350.208 100.563 348.656 100.563 346.32V340.912H101.571V346.128C101.571 348 102.387 349.296 104.339 349.296C104.963 349.296 105.507 349.136 105.971 348.832C106.915 348.192 107.443 347.072 107.443 345.632V340.912H108.451V350H107.587L107.491 347.728ZM111.267 350V340.912H112.083L112.227 343.328C112.659 341.76 113.763 340.896 115.795 340.896H116.307V341.904H115.683C113.155 341.904 112.243 343.184 112.243 345.696V350H111.267ZM126.832 350.224C124.48 350.224 122.88 349.168 122.64 347.04H123.728C123.792 347.552 123.984 348 124.256 348.336C124.864 349.008 125.776 349.328 126.848 349.328C127.536 349.328 128.064 349.248 128.464 349.056C129.28 348.688 129.616 348.08 129.616 347.408C129.616 346.976 129.456 346.656 129.184 346.448C128.608 346.016 127.648 345.872 126.592 345.728C125.728 345.6 124.864 345.456 124.176 345.12C123.472 344.784 123.04 344.224 123.04 343.264C123.04 342.816 123.152 342.384 123.392 342C123.856 341.184 124.864 340.656 126.496 340.656C128.816 340.656 130.208 341.76 130.416 343.472H129.376C129.232 342.208 128.144 341.504 126.496 341.504C125.872 341.504 125.392 341.584 125.024 341.76C124.32 342.08 124.048 342.64 124.048 343.216C124.048 343.648 124.208 343.968 124.48 344.176C125.056 344.608 126.048 344.752 127.072 344.896C127.952 345.024 128.8 345.184 129.504 345.504C130.192 345.84 130.624 346.416 130.624 347.376C130.624 347.888 130.496 348.352 130.224 348.784C129.712 349.664 128.608 350.224 126.832 350.224ZM136.846 350.224C133.966 350.224 132.334 348.48 132.334 345.584V345.408C132.334 344.4 132.526 343.552 132.926 342.848C133.726 341.408 135.102 340.656 136.846 340.656C137.726 340.656 138.494 340.848 139.182 341.232C140.558 341.984 141.358 343.408 141.358 345.408V345.584C141.358 346.544 141.182 347.36 140.814 348.064C140.078 349.456 138.718 350.224 136.846 350.224ZM136.846 349.312C139.07 349.312 140.35 347.888 140.35 345.568V345.424C140.35 344.624 140.206 343.968 139.902 343.36C139.278 342.208 138.206 341.536 136.862 341.536C136.19 341.536 135.582 341.68 135.07 342C134.014 342.624 133.374 343.776 133.374 345.424V345.568C133.374 347.856 134.638 349.312 136.846 349.312ZM152.119 346.64C151.783 349.104 150.151 350.224 147.799 350.224C144.951 350.224 143.287 348.48 143.287 345.584V345.408C143.287 344.4 143.495 343.552 143.879 342.848C144.679 341.408 146.103 340.656 147.815 340.656C150.151 340.656 151.735 341.808 152.103 344.224H151.047V344.208C150.727 342.4 149.527 341.536 147.815 341.536C147.143 341.536 146.551 341.68 146.039 342C144.983 342.624 144.343 343.776 144.343 345.424V345.568C144.343 347.856 145.639 349.312 147.799 349.312C149.639 349.312 150.727 348.432 151.063 346.624H152.119V346.64ZM154.983 339.568C154.455 339.568 154.183 339.36 154.183 338.752C154.183 338.192 154.471 337.92 154.999 337.92C155.543 337.92 155.799 338.192 155.799 338.768C155.799 339.296 155.543 339.568 154.983 339.568ZM154.471 350V340.912H155.479V350H154.471ZM165.211 347.296C165.003 347.824 164.699 348.32 164.267 348.768C163.435 349.664 162.235 350.224 160.795 350.224C158.843 350.224 157.835 349.264 157.835 347.856C157.835 346.912 158.315 346.16 158.987 345.728C159.227 345.584 159.483 345.456 159.787 345.344C160.395 345.136 161.211 344.944 162.491 344.752L163.867 344.528C164.683 344.384 165.179 344.096 165.179 343.472C165.179 342.272 164.395 341.488 162.379 341.488C160.315 341.488 159.211 342.56 159.099 343.968H158.091C158.139 343.328 158.347 342.768 158.683 342.256C159.371 341.248 160.603 340.656 162.347 340.656C165.067 340.656 166.155 341.824 166.155 343.6V350H165.323L165.211 347.296ZM161.035 349.376C162.251 349.376 163.275 348.864 164.027 348.112C164.779 347.344 165.211 346.416 165.211 345.536V344.688C164.763 345.088 163.883 345.264 162.699 345.456C161.019 345.712 160.315 345.904 159.707 346.304C159.195 346.64 158.923 347.12 158.923 347.744C158.923 348.736 159.643 349.376 161.035 349.376ZM168.94 350V337.856H169.948V350H168.94ZM186.384 346.64C186.048 349.104 184.416 350.224 182.064 350.224C179.216 350.224 177.552 348.48 177.552 345.584V345.408C177.552 344.4 177.76 343.552 178.144 342.848C178.944 341.408 180.368 340.656 182.08 340.656C184.416 340.656 186 341.808 186.368 344.224H185.312V344.208C184.992 342.4 183.792 341.536 182.08 341.536C181.408 341.536 180.816 341.68 180.304 342C179.248 342.624 178.608 343.776 178.608 345.424V345.568C178.608 347.856 179.904 349.312 182.064 349.312C183.904 349.312 184.992 348.432 185.328 346.624H186.384V346.64ZM192.736 350.224C189.856 350.224 188.224 348.48 188.224 345.584V345.408C188.224 344.4 188.416 343.552 188.816 342.848C189.616 341.408 190.992 340.656 192.736 340.656C193.616 340.656 194.384 340.848 195.072 341.232C196.448 341.984 197.248 343.408 197.248 345.408V345.584C197.248 346.544 197.072 347.36 196.704 348.064C195.968 349.456 194.608 350.224 192.736 350.224ZM192.736 349.312C194.96 349.312 196.24 347.888 196.24 345.568V345.424C196.24 344.624 196.096 343.968 195.792 343.36C195.168 342.208 194.096 341.536 192.752 341.536C192.08 341.536 191.472 341.68 190.96 342C189.904 342.624 189.264 343.776 189.264 345.424V345.568C189.264 347.856 190.528 349.312 192.736 349.312ZM200.556 350H199.564V340.912H200.412L200.508 343.216C201.004 341.696 202.22 340.656 204.108 340.656C206.572 340.656 207.82 342.224 207.82 344.576V350H206.812V344.736C206.812 342.848 205.948 341.552 203.852 341.552C203.164 341.552 202.588 341.712 202.092 342.016C201.1 342.656 200.556 343.776 200.556 345.232V350ZM214.84 350H213.976C213.208 350 212.6 349.904 212.168 349.696C211.272 349.312 210.936 348.384 210.936 346.624V341.808H209.144V340.944H210.088C210.36 340.944 210.552 340.928 210.68 340.88C210.936 340.816 210.984 340.544 211 339.92C211 339.872 211.016 339.744 211.016 339.552L211.048 338.592H211.896V340.912H214.84V341.808H211.896V346.496C211.896 347.2 211.96 347.744 212.104 348.112C212.36 348.848 213 349.04 214.152 349.04H214.84V350ZM224.835 347.296C224.339 349.232 222.755 350.224 220.627 350.224C217.651 350.224 216.099 348.448 216.099 345.6V345.44C216.099 344.48 216.275 343.664 216.659 342.928C217.411 341.488 218.787 340.656 220.659 340.656C221.603 340.656 222.387 340.864 223.027 341.264C224.307 342.08 224.963 343.504 224.963 345.248V345.744H217.107C217.155 347.968 218.387 349.344 220.643 349.344C222.227 349.344 223.363 348.672 223.763 347.296H224.835ZM220.659 341.488C218.595 341.488 217.299 342.816 217.123 344.912H223.971C223.859 342.832 222.691 341.488 220.659 341.488ZM228.228 350H227.236V340.912H228.084L228.18 343.216C228.676 341.696 229.892 340.656 231.78 340.656C234.244 340.656 235.492 342.224 235.492 344.576V350H234.484V344.736C234.484 342.848 233.62 341.552 231.524 341.552C230.836 341.552 230.26 341.712 229.764 342.016C228.772 342.656 228.228 343.776 228.228 345.232V350ZM242.512 350H241.648C240.88 350 240.272 349.904 239.84 349.696C238.944 349.312 238.608 348.384 238.608 346.624V341.808H236.816V340.944H237.76C238.032 340.944 238.224 340.928 238.352 340.88C238.608 340.816 238.656 340.544 238.672 339.92C238.672 339.872 238.688 339.744 238.688 339.552L238.72 338.592H239.568V340.912H242.512V341.808H239.568V346.496C239.568 347.2 239.632 347.744 239.776 348.112C240.032 348.848 240.672 349.04 241.824 349.04H242.512V350Z" fill="white"/>
</g>
<rect x="0.15" y="0.15" width="556.7" height="413.7" rx="31.85" stroke="#474747" stroke-width="0.3"/>
<defs>
<filter id="filter0_f_14263_26420" x="85.2539" y="-5.4609" width="386.398" height="378.924" filterUnits="userSpaceOnUse" color-interpolation-filters="sRGB">
<feFlood flood-opacity="0" result="BackgroundImageFix"/>
<feBlend mode="normal" in="SourceGraphic" in2="BackgroundImageFix" result="shape"/>
<feGaussianBlur stdDeviation="41.3262" result="effect1_foregroundBlur_14263_26420"/>
</filter>
<filter id="filter1_bf_14263_26420" x="-55" y="253" width="667" height="255" filterUnits="userSpaceOnUse" color-interpolation-filters="sRGB">
<feFlood flood-opacity="0" result="BackgroundImageFix"/>
<feGaussianBlur in="BackgroundImageFix" stdDeviation="20.2217"/>
<feComposite in2="SourceAlpha" operator="in" result="effect1_backgroundBlur_14263_26420"/>
<feBlend mode="normal" in="SourceGraphic" in2="effect1_backgroundBlur_14263_26420" result="shape"/>
<feGaussianBlur stdDeviation="27.5" result="effect2_foregroundBlur_14263_26420"/>
</filter>
<radialGradient id="paint0_radial_14263_26420" cx="0" cy="0" r="1" gradientUnits="userSpaceOnUse" gradientTransform="translate(529.238 21.3688) rotate(150.25) scale(619.949 400.528)">
<stop stop-color="white"/>
<stop offset="1" stop-color="#140B2A"/>
</radialGradient>
<radialGradient id="paint1_radial_14263_26420" cx="0" cy="0" r="1" gradientUnits="userSpaceOnUse" gradientTransform="translate(463 39) rotate(148.472) scale(470.443 291.248)">
<stop stop-color="white"/>
<stop offset="1" stop-color="#140B2A"/>
</radialGradient>
<linearGradient id="paint2_linear_14263_26420" x1="229.695" y1="239.225" x2="344.353" y2="124.035" gradientUnits="userSpaceOnUse">
<stop offset="0.443717" stop-color="#110925"/>
<stop offset="1" stop-color="#4B4950"/>
</linearGradient>
<linearGradient id="paint3_linear_14263_26420" x1="229.695" y1="239.225" x2="344.353" y2="124.035" gradientUnits="userSpaceOnUse">
<stop offset="0.443717" stop-color="#110925"/>
<stop offset="1" stop-color="#313131"/>
</linearGradient>
<linearGradient id="paint4_linear_14263_26420" x1="229.695" y1="239.225" x2="344.353" y2="124.035" gradientUnits="userSpaceOnUse">
<stop offset="0.443717" stop-color="#110925"/>
<stop offset="1" stop-color="#4B4950"/>
</linearGradient>
<linearGradient id="paint5_linear_14263_26420" x1="229.695" y1="239.225" x2="344.353" y2="124.035" gradientUnits="userSpaceOnUse">
<stop offset="0.443717" stop-color="#110925"/>
<stop offset="1" stop-color="#313131"/>
</linearGradient>
<linearGradient id="paint6_linear_14263_26420" x1="343.569" y1="128.836" x2="237.549" y2="232.27" gradientUnits="userSpaceOnUse">
<stop stop-color="#AEA3C8"/>
<stop offset="1" stop-color="#130A29"/>
</linearGradient>
<linearGradient id="paint7_linear_14263_26420" x1="343.569" y1="128.836" x2="237.549" y2="232.27" gradientUnits="userSpaceOnUse">
<stop stop-color="#353535"/>
<stop offset="1" stop-color="#130A29"/>
</linearGradient>
<linearGradient id="paint8_linear_14263_26420" x1="276.768" y1="171.933" x2="292.34" y2="161.065" gradientUnits="userSpaceOnUse">
<stop offset="0.144625" stop-color="#110925"/>
<stop offset="0.988674" stop-color="white"/>
</linearGradient>
<linearGradient id="paint9_linear_14263_26420" x1="322.82" y1="123.662" x2="264.914" y2="245.32" gradientUnits="userSpaceOnUse">
<stop stop-color="#CABAEE"/>
<stop offset="1" stop-color="#CABAEE" stop-opacity="0"/>
</linearGradient>
<linearGradient id="paint10_linear_14263_26420" x1="239.437" y1="214.528" x2="329.99" y2="130.696" gradientUnits="userSpaceOnUse">
<stop stop-color="#594D73"/>
<stop offset="1" stop-color="#ADA2C8"/>
</linearGradient>
<radialGradient id="paint11_radial_14263_26420" cx="0" cy="0" r="1" gradientUnits="userSpaceOnUse" gradientTransform="translate(281 33.5) rotate(90) scale(147.5 32.2625)">
<stop/>
<stop offset="1" stop-color="#F0EFF1"/>
</radialGradient>
<radialGradient id="paint12_radial_14263_26420" cx="0" cy="0" r="1" gradientUnits="userSpaceOnUse" gradientTransform="translate(281 319) rotate(-90) scale(143.5 66.2857)">
<stop/>
<stop offset="1" stop-color="#F0EFF1"/>
</radialGradient>
<radialGradient id="paint13_radial_14263_26420" cx="0" cy="0" r="1" gradientUnits="userSpaceOnUse" gradientTransform="translate(411.5 97.5) rotate(143.05) scale(143.9)">
<stop stop-color="white"/>
<stop offset="1" stop-color="#140B2A"/>
</radialGradient>
<clipPath id="clip0_14263_26420">
<rect width="557" height="414" rx="32" fill="white"/>
</clipPath>
<clipPath id="clip1_14263_26420">
<rect x="126" y="31" width="305" height="305" rx="152" fill="white"/>
</clipPath>
</defs>
</svg>
