<svg width="24" height="24" viewBox="0 0 24 24" fill="none" xmlns="http://www.w3.org/2000/svg">
<mask id="path-1-outside-1_13712_30056" maskUnits="userSpaceOnUse" x="2" y="0" width="20" height="24" fill="black">
<rect fill="white" x="2" width="20" height="24"/>
<path d="M12 12.4783C13.5208 12.4783 15.0742 12.3471 16.6604 12.0849C18.2465 11.8226 19.6931 11.4596 21 10.9956V21.3261C19.8192 21.8219 18.4005 22.2248 16.7442 22.5349C15.0878 22.845 13.5064 23 12 23C10.4936 23 8.91224 22.845 7.25584 22.5349C5.59946 22.2248 4.18085 21.8219 3 21.3261V10.9956C4.30691 11.4596 5.75346 11.8226 7.33964 12.0849C8.9258 12.3471 10.4793 12.4783 12 12.4783ZM19.7553 20.4174V12.6935C18.7659 12.9836 17.532 13.2275 16.0536 13.4252C14.5751 13.6229 13.2239 13.7218 12 13.7218C10.7761 13.7218 9.42487 13.6229 7.94642 13.4252C6.46797 13.2275 5.23406 12.9836 4.24468 12.6935V20.4174C5.18618 20.7904 6.40293 21.1069 7.89495 21.3668C9.38697 21.6266 10.7553 21.7565 12 21.7565C13.2447 21.7565 14.613 21.6266 16.105 21.3668C17.5971 21.1069 18.8138 20.7904 19.7553 20.4174ZM12 1C13.1059 1 14.0525 1.39336 14.84 2.18009C15.6275 2.96684 16.0213 3.91261 16.0213 5.0174C16.0213 6.12217 15.6275 7.06793 14.84 7.85468C14.0525 8.64141 13.1059 9.03477 12 9.03477C10.8941 9.03477 9.94747 8.64141 9.15998 7.85468C8.37247 7.06793 7.97872 6.12217 7.97872 5.0174C7.97872 3.91261 8.37247 2.96684 9.15998 2.18009C9.94747 1.39336 10.8941 1 12 1ZM12.0008 7.79129C12.7646 7.79129 13.4182 7.5196 13.9616 6.97622C14.5049 6.43282 14.7766 5.77959 14.7766 5.01653C14.7766 4.25347 14.5046 3.60053 13.9607 3.05771C13.4168 2.51489 12.763 2.24348 11.9992 2.24348C11.2354 2.24348 10.5818 2.51517 10.0384 3.05855C9.49508 3.60195 9.2234 4.25518 9.2234 5.01824C9.2234 5.7813 9.49536 6.43424 10.0393 6.97706C10.5832 7.51988 11.237 7.79129 12.0008 7.79129Z"/>
</mask>
<path d="M12 12.4783C13.5208 12.4783 15.0742 12.3471 16.6604 12.0849C18.2465 11.8226 19.6931 11.4596 21 10.9956V21.3261C19.8192 21.8219 18.4005 22.2248 16.7442 22.5349C15.0878 22.845 13.5064 23 12 23C10.4936 23 8.91224 22.845 7.25584 22.5349C5.59946 22.2248 4.18085 21.8219 3 21.3261V10.9956C4.30691 11.4596 5.75346 11.8226 7.33964 12.0849C8.9258 12.3471 10.4793 12.4783 12 12.4783ZM19.7553 20.4174V12.6935C18.7659 12.9836 17.532 13.2275 16.0536 13.4252C14.5751 13.6229 13.2239 13.7218 12 13.7218C10.7761 13.7218 9.42487 13.6229 7.94642 13.4252C6.46797 13.2275 5.23406 12.9836 4.24468 12.6935V20.4174C5.18618 20.7904 6.40293 21.1069 7.89495 21.3668C9.38697 21.6266 10.7553 21.7565 12 21.7565C13.2447 21.7565 14.613 21.6266 16.105 21.3668C17.5971 21.1069 18.8138 20.7904 19.7553 20.4174ZM12 1C13.1059 1 14.0525 1.39336 14.84 2.18009C15.6275 2.96684 16.0213 3.91261 16.0213 5.0174C16.0213 6.12217 15.6275 7.06793 14.84 7.85468C14.0525 8.64141 13.1059 9.03477 12 9.03477C10.8941 9.03477 9.94747 8.64141 9.15998 7.85468C8.37247 7.06793 7.97872 6.12217 7.97872 5.0174C7.97872 3.91261 8.37247 2.96684 9.15998 2.18009C9.94747 1.39336 10.8941 1 12 1ZM12.0008 7.79129C12.7646 7.79129 13.4182 7.5196 13.9616 6.97622C14.5049 6.43282 14.7766 5.77959 14.7766 5.01653C14.7766 4.25347 14.5046 3.60053 13.9607 3.05771C13.4168 2.51489 12.763 2.24348 11.9992 2.24348C11.2354 2.24348 10.5818 2.51517 10.0384 3.05855C9.49508 3.60195 9.2234 4.25518 9.2234 5.01824C9.2234 5.7813 9.49536 6.43424 10.0393 6.97706C10.5832 7.51988 11.237 7.79129 12.0008 7.79129Z" fill="#B4B4B4"/>
<path d="M16.6604 12.0849L16.6424 11.9764L16.6604 12.0849ZM21 10.9956H21.11V10.8399L20.9632 10.892L21 10.9956ZM21 21.3261L21.0426 21.4275L21.11 21.3992V21.3261H21ZM16.7442 22.5349L16.7644 22.643H16.7644L16.7442 22.5349ZM7.25584 22.5349L7.2356 22.643H7.2356L7.25584 22.5349ZM3 21.3261H2.89V21.3992L2.95742 21.4275L3 21.3261ZM3 10.9956L3.0368 10.892L2.89 10.8399V10.9956H3ZM7.33964 12.0849L7.35758 11.9764H7.35758L7.33964 12.0849ZM19.7553 20.4174L19.7958 20.5197L19.8653 20.4921V20.4174H19.7553ZM19.7553 12.6935H19.8653V12.5466L19.7244 12.5879L19.7553 12.6935ZM16.0536 13.4252L16.039 13.3162H16.039L16.0536 13.4252ZM7.94642 13.4252L7.961 13.3162H7.961L7.94642 13.4252ZM4.24468 12.6935L4.27564 12.5879L4.13468 12.5466V12.6935H4.24468ZM4.24468 20.4174H4.13468V20.4921L4.20416 20.5197L4.24468 20.4174ZM7.89495 21.3668L7.87608 21.4751H7.87608L7.89495 21.3668ZM16.105 21.3668L16.1239 21.4751H16.1239L16.105 21.3668ZM13.9616 6.97622L14.0393 7.054L13.9616 6.97622ZM13.9607 3.05771L13.883 3.13557L13.883 3.13557L13.9607 3.05771ZM10.0384 3.05855L9.96066 2.98077L10.0384 3.05855ZM10.0393 6.97706L10.117 6.8992L10.117 6.8992L10.0393 6.97706ZM12 12.5883C13.5271 12.5883 15.0866 12.4566 16.6783 12.1934L16.6424 11.9764C15.0619 12.2377 13.5144 12.3683 12 12.3683V12.5883ZM16.6783 12.1934C18.2699 11.9303 19.7229 11.5657 21.0368 11.0993L20.9632 10.892C19.6633 11.3534 18.2232 11.715 16.6424 11.9764L16.6783 12.1934ZM20.89 10.9956V21.3261H21.11V10.9956H20.89ZM20.9574 21.2247C19.7856 21.7167 18.3749 22.1177 16.7239 22.4268L16.7644 22.643C18.4262 22.3319 19.8527 21.9271 21.0426 21.4275L20.9574 21.2247ZM16.7239 22.4268C15.0734 22.7357 13.4988 22.89 12 22.89V23.11C13.5139 23.11 15.1021 22.9542 16.7644 22.643L16.7239 22.4268ZM12 22.89C10.5012 22.89 8.92658 22.7357 7.27608 22.4268L7.2356 22.643C8.8979 22.9542 10.4861 23.11 12 23.11V22.89ZM7.27608 22.4268C5.62512 22.1177 4.2144 21.7167 3.04258 21.2247L2.95742 21.4275C4.1473 21.9271 5.57381 22.3319 7.2356 22.643L7.27608 22.4268ZM3.11 21.3261V10.9956H2.89V21.3261H3.11ZM2.9632 11.0993C4.27712 11.5657 5.73009 11.9303 7.3217 12.1934L7.35758 11.9764C5.77683 11.715 4.33671 11.3534 3.0368 10.892L2.9632 11.0993ZM7.32169 12.1934C8.91345 12.4566 10.4729 12.5883 12 12.5883V12.3683C10.4856 12.3683 8.93814 12.2377 7.35758 11.9764L7.32169 12.1934ZM19.8653 20.4174V12.6935H19.6453V20.4174H19.8653ZM19.7244 12.5879C18.7421 12.876 17.5141 13.119 16.039 13.3162L16.0682 13.5342C17.5499 13.3361 18.7898 13.0913 19.7863 12.799L19.7244 12.5879ZM16.039 13.3162C14.5644 13.5134 13.2181 13.6118 12 13.6118V13.8318C13.2297 13.8318 14.5859 13.7324 16.0682 13.5342L16.039 13.3162ZM12 13.6118C10.7819 13.6118 9.43562 13.5134 7.961 13.3162L7.93184 13.5342C9.41412 13.7324 10.7703 13.8318 12 13.8318V13.6118ZM7.961 13.3162C6.48587 13.119 5.25786 12.876 4.27564 12.5879L4.21372 12.799C5.21025 13.0913 6.45007 13.3361 7.93184 13.5342L7.961 13.3162ZM4.13468 12.6935V20.4174H4.35468V12.6935H4.13468ZM4.20416 20.5197C5.15516 20.8965 6.37991 21.2145 7.87608 21.4751L7.91383 21.2584C6.42596 20.9992 5.21719 20.6844 4.2852 20.3151L4.20416 20.5197ZM7.87608 21.4751C9.37304 21.7358 10.7478 21.8665 12 21.8665V21.6465C10.7628 21.6465 9.4009 21.5174 7.91383 21.2584L7.87608 21.4751ZM12 21.8665C13.2522 21.8665 14.627 21.7358 16.1239 21.4751L16.0862 21.2584C14.5991 21.5174 13.2372 21.6465 12 21.6465V21.8665ZM16.1239 21.4751C17.6201 21.2145 18.8448 20.8965 19.7958 20.5197L19.7148 20.3151C18.7828 20.6844 17.574 20.9992 16.0862 21.2584L16.1239 21.4751ZM12 1.11C13.0765 1.11 13.9953 1.49164 14.7623 2.25791L14.9178 2.10227C14.1098 1.29509 13.1352 0.89 12 0.89V1.11ZM14.7623 2.25791C15.5293 3.0242 15.9113 3.94205 15.9113 5.0174H16.1313C16.1313 3.88317 15.7257 2.90948 14.9178 2.10227L14.7623 2.25791ZM15.9113 5.0174C15.9113 6.09273 15.5293 7.01056 14.7623 7.77686L14.9178 7.9325C15.7257 7.12529 16.1313 6.15161 16.1313 5.0174H15.9113ZM14.7623 7.77686C13.9953 8.54313 13.0765 8.92477 12 8.92477V9.14477C13.1352 9.14477 14.1098 8.73968 14.9178 7.9325L14.7623 7.77686ZM12 8.92477C10.9235 8.92477 10.0047 8.54313 9.23773 7.77686L9.08224 7.9325C9.8902 8.73968 10.8648 9.14477 12 9.14477V8.92477ZM9.23773 7.77686C8.47069 7.01056 8.08872 6.09273 8.08872 5.0174H7.86872C7.86872 6.15161 8.27425 7.12529 9.08224 7.9325L9.23773 7.77686ZM8.08872 5.0174C8.08872 3.94205 8.47069 3.0242 9.23773 2.25791L9.08224 2.10227C8.27425 2.90948 7.86872 3.88317 7.86872 5.0174H8.08872ZM9.23773 2.25791C10.0047 1.49164 10.9235 1.11 12 1.11V0.89C10.8648 0.89 9.8902 1.29509 9.08224 2.10227L9.23773 2.25791ZM12.0008 7.90129C12.794 7.90129 13.4755 7.61787 14.0393 7.054L13.8838 6.89844C13.3609 7.42133 12.7353 7.68129 12.0008 7.68129V7.90129ZM14.0393 7.054C14.6032 6.49014 14.8866 5.80899 14.8866 5.01653H14.6666C14.6666 5.75019 14.4067 6.37551 13.8838 6.89844L14.0393 7.054ZM14.8866 5.01653C14.8866 4.22403 14.6029 3.54314 14.0384 2.97985L13.883 3.13557C14.4064 3.65792 14.6666 4.28291 14.6666 5.01653H14.8866ZM14.0384 2.97985C13.474 2.41659 12.7923 2.13348 11.9992 2.13348V2.35348C12.7336 2.35348 13.3596 2.61319 13.883 3.13557L14.0384 2.97985ZM11.9992 2.13348C11.206 2.13348 10.5245 2.4169 9.96066 2.98077L10.1162 3.13633C10.6391 2.61344 11.2647 2.35348 11.9992 2.35348V2.13348ZM9.96066 2.98077C9.39683 3.54463 9.1134 4.22577 9.1134 5.01824H9.3334C9.3334 4.28458 9.59333 3.65926 10.1162 3.13633L9.96066 2.98077ZM9.1134 5.01824C9.1134 5.81074 9.39715 6.49163 9.96159 7.05492L10.117 6.8992C9.59358 6.37685 9.3334 5.75186 9.3334 5.01824H9.1134ZM9.96158 7.05492C10.526 7.61818 11.2077 7.90129 12.0008 7.90129V7.68129C11.2664 7.68129 10.6404 7.42158 10.117 6.8992L9.96158 7.05492Z" fill="#B4B4B4" mask="url(#path-1-outside-1_13712_30056)"/>
</svg>
