<svg width="22" height="22" viewBox="0 0 22 22" fill="none" xmlns="http://www.w3.org/2000/svg">
<path fill-rule="evenodd" clipRule="evenodd" d="M11.2223 0.403465L10.7567 0.0483398L10.2993 0.413879L0.531811 8.21876L0.25 8.44394V8.80467V8.81525V8.82603V8.837V8.84816V8.85952V8.87107V8.88282V8.89475V8.90688V8.9192V8.9317V8.94439V8.95727V8.97034V8.98359V8.99702V9.01064V9.02444V9.03843V9.05259V9.06694V9.08146V9.09617V9.11105V9.1261V9.14134V9.15675V9.17233V9.18808V9.20401V9.22011V9.23639V9.25283V9.26944V9.28622V9.30316V9.32028V9.33756V9.355V9.37261V9.39038V9.40831V9.42641V9.44466V9.46308V9.48165V9.50039V9.51928V9.53832V9.55752V9.57688V9.59639V9.61606V9.63587V9.65584V9.67596V9.69622V9.71664V9.7372V9.75791V9.77877V9.79977V9.82092V9.84221V9.86365V9.88522V9.90694V9.92879V9.95079V9.97293V9.9952V10.0176V10.0402V10.0628V10.0856V10.1086V10.1317V10.1549V10.1782V10.2017V10.2253V10.249V10.2729V10.2969V10.321V10.3452V10.3696V10.3941V10.4187V10.4434V10.4683V10.4932V10.5183V10.5435V10.5688V10.5943V10.6198V10.6455V10.6713V10.6972V10.7232V10.7493V10.7755V10.8019V10.8283V10.8549V10.8816V10.9083V10.9352V10.9622V10.9893V11.0165V11.0437V11.0711V11.0986V11.1262V11.1539V11.1817V11.2096V11.2375V11.2656V11.2938V11.3221V11.3504V11.3789V11.4074V11.436V11.4647V11.4935V11.5224V11.5514V11.5805V11.6096V11.6389V11.6682V11.6976V11.7271V11.7566V11.7863V11.816V11.8458V11.8757V11.9056V11.9356V11.9657V11.9959V12.0262V12.0565V12.0869V12.1174V12.1479V12.1785V12.2092V12.2399V12.2707V12.3016V12.3325V12.3635V12.3946V12.4257V12.4569V12.4881V12.5194V12.5508V12.5822V12.6137V12.6452V12.6768V12.7085V12.7402V12.7719V12.8037V12.8356V12.8675V12.8994V12.9314V12.9635V12.9956V13.0277V13.0599V13.0921V13.1244V13.1567V13.1891V13.2214V13.2539V13.2864V13.3189V13.3514V13.384V13.4166V13.4493V13.482V13.5147V13.5475V13.5803V13.6131V13.6459V13.6788V13.7117V13.7447V13.7776V13.8106V13.8436V13.8766V13.9097V13.9428V13.9759V14.009V14.0421V14.0753V14.1085V14.1417V14.1749V14.2081V14.2413V14.2746V14.3079V14.3411V14.3744V14.4077V14.441V14.4744V14.5077V14.541V14.5743V14.6077V14.641V14.6744V14.7077V14.7411V14.7744V14.8078V14.8411V14.8745V14.9079V14.9412V14.9745V15.0079V15.0412V15.0745V15.1078V15.1411V15.1744V15.2077V15.241V15.2743V15.3075V15.3408V15.374V15.4072V15.4404V15.4736V15.5067V15.5398V15.573V15.6061V15.6391V15.6722V15.7052V15.7382V15.7712V15.8042V15.8371V15.87V15.9029V15.9357V15.9685V16.0013V16.0341V16.0668V16.0995V16.1321V16.1648V16.1973V16.2299V16.2624V16.2949V16.3273V16.3597V16.3921V16.4244V16.4566V16.4889V16.521V16.5532V16.5853V16.6173V16.6493V16.6812V16.7131V16.745V16.7768V16.8085V16.8402V16.8718V16.9034V16.9349V16.9664V16.9978V17.0292V17.0605V17.0917V17.1229V17.154V17.1851V17.216V17.247V17.2778V17.3086V17.3394V17.37V17.4006V17.4311V17.4616V17.492V17.5223V17.5525V17.5827V17.6128V17.6428V17.6728V17.7026V17.7324V17.7621V17.7918V17.8213V17.8508V17.8802V17.9095V17.9387V17.9678V17.9969V18.0258V18.0547V18.0835V18.1122V18.1408V18.1694V18.1978V18.2261V18.2544V18.2825V18.3106V18.3386V18.3664V18.3942V18.4219V18.4495V18.4769V18.5043V18.5316V18.5588V18.5858V18.6128V18.6397V18.6664V18.6931V18.7196V18.746V18.7724V18.7986V18.8247V18.8507V18.8766V18.9023V18.928V18.9535V18.9789V19.0043V19.0294V19.0545V19.0795V19.1043V19.129V19.1536V19.1781V19.2024V19.2266V19.2507V19.2747V19.2985V19.3222V19.3458V19.3693V19.3926V19.4158V19.4389V19.4618V19.4846V19.5073V19.5298V19.5522V19.5744V19.5966V19.6185V19.6404V19.6621V19.6836V19.705V19.7263V19.7474V19.7684V19.7893V19.8099V19.8305V19.8509V19.8711V19.8912V19.9112V19.931V19.9506V19.9701V19.9894V20.0086V20.0276V20.0465V20.0652V20.0838V20.1022V20.1204V20.1385V20.1564V20.1741V20.1917V20.2091V20.2264V20.2435V20.2604V20.2772V20.2938V20.3102V20.3264V20.3425V20.3584V20.3741V20.3897V20.4051V20.4203V20.4353V20.4502V20.4649V20.4794V20.4937V20.5078V20.5218V20.5356V20.5491V20.5626V20.5758V20.5888V20.6017V20.6143V20.6268V20.6391V20.6512V20.6631V20.6748V20.6864V20.6977V20.7088V20.7198V20.7305V20.7411V20.7514V20.7616V20.7715V20.7813V20.7909V20.8002V20.8094V20.8183V20.8271V20.8356V20.8439V20.8521V20.86V20.8677V20.8752V20.8825V20.8896V20.8964V20.9031V20.9095V20.9158V20.9218V20.9276V20.9332V20.9385V20.9437V20.9486V20.9533V20.9578V20.962V20.9661V20.9699V20.9735V20.9768V20.98V20.9829V20.9856V20.988V20.9903V20.9922V20.994V20.9955V20.9968V20.9979V20.9987V20.9993V20.9997C0.25 20.9998 0.25 20.9998 1 20.9998H0.25V21.7498H1H9.29268V20.2498H1.75V20.2435V20.2264V20.2091V20.1917V20.1741V20.1564V20.1385V20.1204V20.1022V20.0838V20.0652V20.0465V20.0276V20.0086V19.9894V19.9701V19.9506V19.931V19.9112V19.8912V19.8711V19.8509V19.8305V19.8099V19.7893V19.7684V19.7474V19.7263V19.705V19.6836V19.6621V19.6404V19.6185V19.5966V19.5744V19.5522V19.5298V19.5073V19.4846V19.4618V19.4389V19.4158V19.3926V19.3693V19.3458V19.3222V19.2985V19.2747V19.2507V19.2266V19.2024V19.1781V19.1536V19.129V19.1043V19.0795V19.0545V19.0294V19.0043V18.9789V18.9535V18.928V18.9023V18.8766V18.8507V18.8247V18.7986V18.7724V18.746V18.7196V18.6931V18.6664V18.6397V18.6128V18.5858V18.5588V18.5316V18.5043V18.4769V18.4495V18.4219V18.3942V18.3664V18.3386V18.3106V18.2825V18.2544V18.2261V18.1978V18.1694V18.1408V18.1122V18.0835V18.0547V18.0258V17.9969V17.9678V17.9387V17.9095V17.8802V17.8508V17.8213V17.7918V17.7621V17.7324V17.7026V17.6728V17.6428V17.6128V17.5827V17.5525V17.5223V17.492V17.4616V17.4311V17.4006V17.37V17.3394V17.3086V17.2778V17.247V17.216V17.1851V17.154V17.1229V17.0917V17.0605V17.0292V16.9978V16.9664V16.9349V16.9034V16.8718V16.8402V16.8085V16.7768V16.745V16.7131V16.6812V16.6493V16.6173V16.5853V16.5532V16.521V16.4889V16.4566V16.4244V16.3921V16.3597V16.3273V16.2949V16.2624V16.2299V16.1973V16.1648V16.1321V16.0995V16.0668V16.0341V16.0013V15.9685V15.9357V15.9029V15.87V15.8371V15.8042V15.7712V15.7382V15.7052V15.6722V15.6391V15.6061V15.573V15.5398V15.5067V15.4736V15.4404V15.4072V15.374V15.3408V15.3075V15.2743V15.241V15.2077V15.1744V15.1411V15.1078V15.0745V15.0412V15.0079V14.9745V14.9412V14.9079V14.8745V14.8411V14.8078V14.7744V14.7411V14.7077V14.6744V14.641V14.6077V14.5743V14.541V14.5077V14.4744V14.441V14.4077V14.3744V14.3411V14.3079V14.2746V14.2413V14.2081V14.1749V14.1417V14.1085V14.0753V14.0421V14.009V13.9759V13.9428V13.9097V13.8766V13.8436V13.8106V13.7776V13.7447V13.7117V13.6788V13.6459V13.6131V13.5803V13.5475V13.5147V13.482V13.4493V13.4166V13.384V13.3514V13.3189V13.2864V13.2539V13.2214V13.1891V13.1567V13.1244V13.0921V13.0599V13.0277V12.9956V12.9635V12.9314V12.8994V12.8675V12.8356V12.8037V12.7719V12.7402V12.7085V12.6768V12.6452V12.6137V12.5822V12.5508V12.5194V12.4881V12.4569V12.4257V12.3946V12.3635V12.3325V12.3016V12.2707V12.2399V12.2092V12.1785V12.1479V12.1174V12.0869V12.0565V12.0262V11.9959V11.9657V11.9356V11.9056V11.8757V11.8458V11.816V11.7863V11.7566V11.7271V11.6976V11.6682V11.6389V11.6096V11.5805V11.5514V11.5224V11.4935V11.4647V11.436V11.4074V11.3789V11.3504V11.3221V11.2938V11.2656V11.2375V11.2096V11.1817V11.1539V11.1262V11.0986V11.0711V11.0437V11.0165V10.9893V10.9622V10.9352V10.9083V10.8816V10.8549V10.8283V10.8019V10.7755V10.7493V10.7232V10.6972V10.6713V10.6455V10.6198V10.5943V10.5688V10.5435V10.5183V10.4932V10.4683V10.4434V10.4187V10.3941V10.3696V10.3452V10.321V10.2969V10.2729V10.249V10.2253V10.2017V10.1782V10.1549V10.1317V10.1086V10.0856V10.0628V10.0402V10.0176V9.9952V9.97293V9.95079V9.92879V9.90694V9.88522V9.86365V9.84221V9.82092V9.79977V9.77877V9.75791V9.7372V9.71664V9.69622V9.67596V9.65584V9.63587V9.61606V9.59639V9.57688V9.55752V9.53832V9.51928V9.50039V9.48165V9.46308V9.44466V9.42641V9.40831V9.39038V9.37261V9.355V9.33756V9.32028V9.30316V9.28622V9.26944V9.25283V9.23639V9.22011V9.20401V9.18808V9.17233V9.1654L10.7782 1.95125L20.25 9.17588V20.2498H13.1951V21.7498H21H21.75V20.9998V8.80467V8.43347L21.4549 8.20834L11.2223 0.403465ZM11.9823 14.2722V13.5222H10.4823V14.2722V17.1358V17.8858H11.9823V17.1358V14.2722Z" fill="#B4B4B4"/>
</svg>
