<svg width="25" height="25" viewBox="0 0 25 25" fill="none" xmlns="http://www.w3.org/2000/svg">
<path d="M5 12.8049V25H15.3999H25V12.8049L14.7674 5L5 12.8049Z" fill="#592EBF"/>
<path fill-rule="evenodd" clip-rule="evenodd" d="M12.2223 1.40346L11.7567 1.04834L11.2993 1.41388L1.53181 9.21876L1.25 9.44394V9.80467V9.81525V9.82603V9.837V9.84816V9.85952V9.87107V9.88282V9.89475V9.90688V9.9192V9.9317V9.94439V9.95727V9.97034V9.98359V9.99702V10.0106V10.0244V10.0384V10.0526V10.0669V10.0815V10.0962V10.111V10.1261V10.1413V10.1567V10.1723V10.1881V10.204V10.2201V10.2364V10.2528V10.2694V10.2862V10.3032V10.3203V10.3376V10.355V10.3726V10.3904V10.4083V10.4264V10.4447V10.4631V10.4817V10.5004V10.5193V10.5383V10.5575V10.5769V10.5964V10.6161V10.6359V10.6558V10.676V10.6962V10.7166V10.7372V10.7579V10.7788V10.7998V10.8209V10.8422V10.8636V10.8852V10.9069V10.9288V10.9508V10.9729V10.9952V11.0176V11.0402V11.0628V11.0856V11.1086V11.1317V11.1549V11.1782V11.2017V11.2253V11.249V11.2729V11.2969V11.321V11.3452V11.3696V11.3941V11.4187V11.4434V11.4683V11.4932V11.5183V11.5435V11.5688V11.5943V11.6198V11.6455V11.6713V11.6972V11.7232V11.7493V11.7755V11.8019V11.8283V11.8549V11.8816V11.9083V11.9352V11.9622V11.9893V12.0165V12.0437V12.0711V12.0986V12.1262V12.1539V12.1817V12.2096V12.2375V12.2656V12.2938V12.3221V12.3504V12.3789V12.4074V12.436V12.4647V12.4935V12.5224V12.5514V12.5805V12.6096V12.6389V12.6682V12.6976V12.7271V12.7566V12.7863V12.816V12.8458V12.8757V12.9056V12.9356V12.9657V12.9959V13.0262V13.0565V13.0869V13.1174V13.1479V13.1785V13.2092V13.2399V13.2707V13.3016V13.3325V13.3635V13.3946V13.4257V13.4569V13.4881V13.5194V13.5508V13.5822V13.6137V13.6452V13.6768V13.7085V13.7402V13.7719V13.8037V13.8356V13.8675V13.8994V13.9314V13.9635V13.9956V14.0277V14.0599V14.0921V14.1244V14.1567V14.1891V14.2214V14.2539V14.2864V14.3189V14.3514V14.384V14.4166V14.4493V14.482V14.5147V14.5475V14.5803V14.6131V14.6459V14.6788V14.7117V14.7447V14.7776V14.8106V14.8436V14.8766V14.9097V14.9428V14.9759V15.009V15.0421V15.0753V15.1085V15.1417V15.1749V15.2081V15.2413V15.2746V15.3079V15.3411V15.3744V15.4077V15.441V15.4744V15.5077V15.541V15.5743V15.6077V15.641V15.6744V15.7077V15.7411V15.7744V15.8078V15.8411V15.8745V15.9079V15.9412V15.9745V16.0079V16.0412V16.0745V16.1078V16.1411V16.1744V16.2077V16.241V16.2743V16.3075V16.3408V16.374V16.4072V16.4404V16.4736V16.5067V16.5398V16.573V16.6061V16.6391V16.6722V16.7052V16.7382V16.7712V16.8042V16.8371V16.87V16.9029V16.9357V16.9685V17.0013V17.0341V17.0668V17.0995V17.1321V17.1648V17.1973V17.2299V17.2624V17.2949V17.3273V17.3597V17.3921V17.4244V17.4566V17.4889V17.521V17.5532V17.5853V17.6173V17.6493V17.6812V17.7131V17.745V17.7768V17.8085V17.8402V17.8718V17.9034V17.9349V17.9664V17.9978V18.0292V18.0605V18.0917V18.1229V18.154V18.1851V18.216V18.247V18.2778V18.3086V18.3394V18.37V18.4006V18.4311V18.4616V18.492V18.5223V18.5525V18.5827V18.6128V18.6428V18.6728V18.7026V18.7324V18.7621V18.7918V18.8213V18.8508V18.8802V18.9095V18.9387V18.9678V18.9969V19.0258V19.0547V19.0835V19.1122V19.1408V19.1694V19.1978V19.2261V19.2544V19.2825V19.3106V19.3386V19.3664V19.3942V19.4219V19.4495V19.4769V19.5043V19.5316V19.5588V19.5858V19.6128V19.6397V19.6664V19.6931V19.7196V19.746V19.7724V19.7986V19.8247V19.8507V19.8766V19.9023V19.928V19.9535V19.9789V20.0043V20.0294V20.0545V20.0795V20.1043V20.129V20.1536V20.1781V20.2024V20.2266V20.2507V20.2747V20.2985V20.3222V20.3458V20.3693V20.3926V20.4158V20.4389V20.4618V20.4846V20.5073V20.5298V20.5522V20.5744V20.5966V20.6185V20.6404V20.6621V20.6836V20.705V20.7263V20.7474V20.7684V20.7893V20.8099V20.8305V20.8509V20.8711V20.8912V20.9112V20.931V20.9506V20.9701V20.9894V21.0086V21.0276V21.0465V21.0652V21.0838V21.1022V21.1204V21.1385V21.1564V21.1741V21.1917V21.2091V21.2264V21.2435V21.2604V21.2772V21.2938V21.3102V21.3264V21.3425V21.3584V21.3741V21.3897V21.4051V21.4203V21.4353V21.4502V21.4649V21.4794V21.4937V21.5078V21.5218V21.5356V21.5491V21.5626V21.5758V21.5888V21.6017V21.6143V21.6268V21.6391V21.6512V21.6631V21.6748V21.6864V21.6977V21.7088V21.7198V21.7305V21.7411V21.7514V21.7616V21.7715V21.7813V21.7909V21.8002V21.8094V21.8183V21.8271V21.8356V21.8439V21.8521V21.86V21.8677V21.8752V21.8825V21.8896V21.8964V21.9031V21.9095V21.9158V21.9218V21.9276V21.9332V21.9385V21.9437V21.9486V21.9533V21.9578V21.962V21.9661V21.9699V21.9735V21.9768V21.98V21.9829V21.9856V21.988V21.9903V21.9922V21.994V21.9955V21.9968V21.9979V21.9987V21.9993V21.9997C1.25 21.9998 1.25 21.9998 2 21.9998H1.25V22.7498H2H10.2927V21.2498H2.75V21.2435V21.2264V21.2091V21.1917V21.1741V21.1564V21.1385V21.1204V21.1022V21.0838V21.0652V21.0465V21.0276V21.0086V20.9894V20.9701V20.9506V20.931V20.9112V20.8912V20.8711V20.8509V20.8305V20.8099V20.7893V20.7684V20.7474V20.7263V20.705V20.6836V20.6621V20.6404V20.6185V20.5966V20.5744V20.5522V20.5298V20.5073V20.4846V20.4618V20.4389V20.4158V20.3926V20.3693V20.3458V20.3222V20.2985V20.2747V20.2507V20.2266V20.2024V20.1781V20.1536V20.129V20.1043V20.0795V20.0545V20.0294V20.0043V19.9789V19.9535V19.928V19.9023V19.8766V19.8507V19.8247V19.7986V19.7724V19.746V19.7196V19.6931V19.6664V19.6397V19.6128V19.5858V19.5588V19.5316V19.5043V19.4769V19.4495V19.4219V19.3942V19.3664V19.3386V19.3106V19.2825V19.2544V19.2261V19.1978V19.1694V19.1408V19.1122V19.0835V19.0547V19.0258V18.9969V18.9678V18.9387V18.9095V18.8802V18.8508V18.8213V18.7918V18.7621V18.7324V18.7026V18.6728V18.6428V18.6128V18.5827V18.5525V18.5223V18.492V18.4616V18.4311V18.4006V18.37V18.3394V18.3086V18.2778V18.247V18.216V18.1851V18.154V18.1229V18.0917V18.0605V18.0292V17.9978V17.9664V17.9349V17.9034V17.8718V17.8402V17.8085V17.7768V17.745V17.7131V17.6812V17.6493V17.6173V17.5853V17.5532V17.521V17.4889V17.4566V17.4244V17.3921V17.3597V17.3273V17.2949V17.2624V17.2299V17.1973V17.1648V17.1321V17.0995V17.0668V17.0341V17.0013V16.9685V16.9357V16.9029V16.87V16.8371V16.8042V16.7712V16.7382V16.7052V16.6722V16.6391V16.6061V16.573V16.5398V16.5067V16.4736V16.4404V16.4072V16.374V16.3408V16.3075V16.2743V16.241V16.2077V16.1744V16.1411V16.1078V16.0745V16.0412V16.0079V15.9745V15.9412V15.9079V15.8745V15.8411V15.8078V15.7744V15.7411V15.7077V15.6744V15.641V15.6077V15.5743V15.541V15.5077V15.4744V15.441V15.4077V15.3744V15.3411V15.3079V15.2746V15.2413V15.2081V15.1749V15.1417V15.1085V15.0753V15.0421V15.009V14.9759V14.9428V14.9097V14.8766V14.8436V14.8106V14.7776V14.7447V14.7117V14.6788V14.6459V14.6131V14.5803V14.5475V14.5147V14.482V14.4493V14.4166V14.384V14.3514V14.3189V14.2864V14.2539V14.2214V14.1891V14.1567V14.1244V14.0921V14.0599V14.0277V13.9956V13.9635V13.9314V13.8994V13.8675V13.8356V13.8037V13.7719V13.7402V13.7085V13.6768V13.6452V13.6137V13.5822V13.5508V13.5194V13.4881V13.4569V13.4257V13.3946V13.3635V13.3325V13.3016V13.2707V13.2399V13.2092V13.1785V13.1479V13.1174V13.0869V13.0565V13.0262V12.9959V12.9657V12.9356V12.9056V12.8757V12.8458V12.816V12.7863V12.7566V12.7271V12.6976V12.6682V12.6389V12.6096V12.5805V12.5514V12.5224V12.4935V12.4647V12.436V12.4074V12.3789V12.3504V12.3221V12.2938V12.2656V12.2375V12.2096V12.1817V12.1539V12.1262V12.0986V12.0711V12.0437V12.0165V11.9893V11.9622V11.9352V11.9083V11.8816V11.8549V11.8283V11.8019V11.7755V11.7493V11.7232V11.6972V11.6713V11.6455V11.6198V11.5943V11.5688V11.5435V11.5183V11.4932V11.4683V11.4434V11.4187V11.3941V11.3696V11.3452V11.321V11.2969V11.2729V11.249V11.2253V11.2017V11.1782V11.1549V11.1317V11.1086V11.0856V11.0628V11.0402V11.0176V10.9952V10.9729V10.9508V10.9288V10.9069V10.8852V10.8636V10.8422V10.8209V10.7998V10.7788V10.7579V10.7372V10.7166V10.6962V10.676V10.6558V10.6359V10.6161V10.5964V10.5769V10.5575V10.5383V10.5193V10.5004V10.4817V10.4631V10.4447V10.4264V10.4083V10.3904V10.3726V10.355V10.3376V10.3203V10.3032V10.2862V10.2694V10.2528V10.2364V10.2201V10.204V10.1881V10.1723V10.1654L11.7782 2.95125L21.25 10.1759V21.2498H14.1951V22.7498H22H22.75V21.9998V9.80467V9.43347L22.4549 9.20834L12.2223 1.40346ZM12.9823 15.2722V14.5222H11.4823V15.2722V18.1358V18.8858H12.9823V18.1358V15.2722Z" fill="#B4B4B4"/>
</svg>
