<svg width="254" height="254" viewBox="0 0 254 254" fill="none" xmlns="http://www.w3.org/2000/svg">
<g clip-path="url(#clip0_17772_44985)">
<path d="M82.7397 97.0164C85.0048 92.6676 77.6659 93.8907 77.6659 93.8907C75.0384 93.8907 73.8606 97.0617 73.3169 97.9677L65.3891 113.596C63.8942 116.179 58.9563 127.232 57.3254 129.678C57.1895 127.186 57.3707 122.203 57.416 121.026C57.7331 116.314 58.0502 112.736 58.5486 108.432C58.911 105.08 59.6358 101.32 58.9563 97.9677C58.5033 95.8839 57.8237 95.748 54.8338 95.4309C51.708 95.1138 49.5788 99.6439 48.5369 101.773C44.7315 109.655 40.4732 117.356 37.0755 125.42C36.0789 127.775 34.8557 130.131 33.8138 132.441C32.5906 135.25 31.4581 138.013 30.1444 140.777C28.74 143.676 24.3457 153.189 23.1226 156.179C21.7635 159.44 21.4917 162.068 26.9279 161.932C27.7887 161.932 29.6913 162.113 32.047 159.576C33.9044 157.583 34.2668 155.726 35.3541 152.962C39.25 143.178 42.0134 136.7 46.2718 127.005C46.6795 126.054 47.6308 123.291 48.5822 121.162C48.5369 124.197 48.0385 127.821 47.812 130.222C47.0872 139.01 46.5889 147.481 45.8188 156.179C45.7282 157.357 45.411 158.761 45.9547 159.848C46.4983 160.935 47.8573 161.207 48.9446 161.343C53.2936 161.887 53.7466 159.712 55.1056 156.722C56.3288 154.05 57.0536 151.875 58.1408 149.157C61.4932 140.777 65.0267 132.487 68.9227 124.333C69.9193 122.249 70.9159 120.21 72.0032 118.172C73.9965 114.412 75.6273 110.878 77.8018 106.711C79.4327 103.721 81.0182 100.323 82.7397 97.0164ZM232.009 120.618C231.511 115.59 224.625 118.126 220.502 118.897C218.962 119.168 214.205 120.074 208.724 121.116C208.497 115.454 208.588 116.586 208.543 113.143C208.407 108.16 208.135 104.264 207.863 99.8704C207.682 97.107 207.274 93.2565 202.291 93.9813C196.492 94.7967 195.541 97.6959 194.001 101.184C189.969 110.289 190.105 110.335 185.529 120.482C185.167 121.252 183.491 125.329 183.219 126.145C183.038 126.19 182.675 126.28 182.222 126.416C180.365 126.824 178.1 127.322 175.608 127.866L175.654 127.64C176.243 123.019 176.967 118.398 177.602 113.778C178.191 109.565 178.825 102.679 179.323 98.466C179.867 93.936 174.612 94.0266 174.612 94.0266C171.395 93.8454 170.172 94.7967 168.134 97.4241C164.645 101.954 160.432 106.847 156.717 111.83C149.968 120.844 145.03 127.64 138.914 136.7C137.147 139.327 134.429 143.313 132.073 146.439C130.488 143.313 129.129 139.871 127.815 136.7C125.912 132.17 124.508 129.361 123.602 126.371C122.786 123.744 123.783 123.381 125.731 121.886C131.348 117.628 137.691 114.684 143.444 110.607C147.521 107.707 152.414 104.491 156.4 101.501C156.4 101.501 158.711 100.142 159.979 98.4207C161.565 96.2463 157.08 93.9813 157.08 93.9813C154.543 93.5736 153.139 94.1625 151.372 94.9779C149.56 95.7933 147.204 97.6506 145.664 98.8738C142.266 101.501 137.963 104.627 134.61 107.254C130.488 110.471 127.679 112.464 123.149 115.137L134.656 97.9224C138.416 93.0753 128.449 91.7163 124.644 96.8352C121.11 101.411 118.709 105.442 115.946 109.61C109.287 119.531 103.805 129.95 98.3235 140.867C96.2396 145.035 94.201 149.384 92.2984 153.687C91.3923 155.771 88.7195 160.573 92.389 161.071C100.226 162.068 101.495 158.353 103.261 153.868C106.161 146.484 107.112 145.125 108.969 140.55C110.781 136.111 112.095 133.574 114.134 129.769C114.179 129.723 114.768 128.772 114.768 128.772C115.13 129.542 117.531 137.515 117.849 138.421C119.479 142.725 122.333 152.781 123.964 157.357C125.142 161.162 125.459 162.249 130.578 162.113C133.115 162.068 134.203 161.071 135.879 157.9C137.555 154.729 144.803 141.23 144.803 141.23C146.978 140.867 150.103 140.324 152.142 139.961C152.504 139.916 153.32 139.735 154.452 139.508C155.223 139.418 155.857 139.282 156.355 139.146C156.4 139.146 156.4 139.146 156.446 139.1C158.439 138.693 160.976 138.194 163.739 137.651C163.241 140.142 161.701 145.624 161.384 147.028C161.384 147.028 158.031 160.075 162.38 160.754C165.098 161.162 166.503 160.709 166.503 160.709C171.576 160.12 171.667 153.28 171.667 153.28L174.43 135.567C176.424 135.159 178.417 134.752 180.365 134.389L174.385 154.593C173.524 157.447 172.89 161.116 178.009 161.116C182.177 161.343 182.449 158.716 182.449 158.716C182.539 158.308 185.847 147.662 186.662 143.857C187.206 141.411 189.154 135.114 189.924 132.577C192.098 132.17 193.729 131.852 194.499 131.717C195.405 131.581 197.172 131.264 199.482 130.901C199.437 133.257 199.482 136.518 199.528 136.971C200.026 144.129 199.482 151.558 200.977 158.58C201.204 159.712 201.657 161.162 203.106 161.162C204.828 161.162 205.372 160.981 207.184 160.845C212.439 160.392 211.487 155.092 211.17 151.739C210.808 148.025 210.445 144.899 209.947 141.184C209.539 138.149 209.268 134.163 209.222 129.361V129.27C217.83 127.821 227.116 126.235 228.475 126.009C230.65 125.42 232.462 125.601 232.009 120.618ZM164.736 130.131C164.736 130.176 164.691 130.176 164.691 130.222C158.665 131.535 153.003 132.804 149.832 133.529C153.003 128.228 166.956 108.93 169.085 106.665C167.907 112.645 166.004 123.744 164.736 130.131ZM199.528 122.521V122.838C196.628 123.381 193.91 123.925 191.736 124.333C194.499 117.175 197.398 108.387 199.12 103.947C198.984 107.254 199.664 119.259 199.528 122.521ZM115.04 101.184C115.946 99.508 117.984 96.201 115.448 94.9326C113.953 94.2078 111.959 93.7548 110.419 94.5249C109.151 95.2044 108.199 96.5181 107.565 97.7412L97.8705 113.007C96.2849 115.182 94.79 117.9 91.5735 118.262C89.4444 118.489 87.9041 117.583 87.9494 115.68C87.9947 113.732 89.1272 111.15 89.988 109.474C92.5249 104.672 92.842 103.041 95.2883 98.2848C97.644 93.7095 89.9427 92.6676 88.04 95.9745C86.681 98.3301 84.0534 102.77 83.4645 104.264C82.3773 106.983 74.223 119.938 77.7565 125.057C82.2867 130.856 94.3369 121.705 88.1759 132.26C83.1927 140.731 80.0669 145.578 75.7179 153.415C74.7666 155.092 73.5887 156.768 73.2716 158.761C72.8186 161.569 76.6693 161.524 78.3454 161.434C81.29 161.207 82.6944 159.848 83.8722 157.175C84.5065 155.771 85.3672 154.05 86.0014 152.645C91.7094 140.188 97.7799 129.361 105.3 117.311C108.879 111.603 112.05 106.711 115.04 101.184Z" fill="white"/>
</g>
<defs>
<clipPath id="clip0_17772_44985">
<rect width="209.185" height="71.561" fill="white" transform="translate(22.3711 91.2207)"/>
</clipPath>
</defs>
</svg>
