<svg width="12" height="11" viewBox="0 0 12 11" fill="none" xmlns="http://www.w3.org/2000/svg">
<path d="M6 10.25C4.20312 10.25 2.5625 9.3125 1.66406 7.75C0.765625 6.20703 0.765625 4.3125 1.66406 2.75C2.5625 1.20703 4.20312 0.25 6 0.25C7.77734 0.25 9.41797 1.20703 10.3164 2.75C11.2148 4.3125 11.2148 6.20703 10.3164 7.75C9.41797 9.3125 7.77734 10.25 6 10.25ZM8.20703 4.33203H8.1875C8.38281 4.15625 8.38281 3.86328 8.1875 3.66797C8.01172 3.49219 7.71875 3.49219 7.54297 3.66797L5.375 5.85547L4.45703 4.9375C4.26172 4.74219 3.96875 4.74219 3.79297 4.9375C3.59766 5.11328 3.59766 5.40625 3.79297 5.58203L5.04297 6.83203C5.21875 7.02734 5.51172 7.02734 5.70703 6.83203L8.20703 4.33203Z" fill="#2C5ECD"/>
</svg>
