<svg width="10" height="10" viewBox="0 0 10 10" fill="none" xmlns="http://www.w3.org/2000/svg">
<path id="&#239;&#128;&#151;" d="M1.45833 1.47917C2.44444 0.493056 3.625 0 5 0C6.375 0 7.54861 0.493056 8.52083 1.47917C9.50694 2.45139 10 3.625 10 5C10 6.375 9.50694 7.55556 8.52083 8.54167C7.54861 9.51389 6.375 10 5 10C3.625 10 2.44444 9.51389 1.45833 8.54167C0.486111 7.55556 0 6.375 0 5C0 3.625 0.486111 2.45139 1.45833 1.47917ZM6.72917 6.625C6.8125 6.51389 6.84028 6.39583 6.8125 6.27083C6.79861 6.13194 6.73611 6.02083 6.625 5.9375L5.5 5.08333V2.83333C5.5 2.69444 5.45139 2.57639 5.35417 2.47917C5.25694 2.38194 5.13889 2.33333 5 2.33333C4.86111 2.33333 4.74306 2.38194 4.64583 2.47917C4.54861 2.57639 4.5 2.69444 4.5 2.83333V5.33333C4.5 5.5 4.56944 5.63194 4.70833 5.72917L6.04167 6.72917C6.125 6.79861 6.22222 6.83333 6.33333 6.83333C6.5 6.83333 6.63194 6.76389 6.72917 6.625Z" fill="#FFB800"/>
</svg>
