<svg width="533" height="532" viewBox="0 0 533 532" fill="none" xmlns="http://www.w3.org/2000/svg">
<g clip-path="url(#clip0_14547_46842)">
<g opacity="0.6">
<rect x="96.0011" y="36.6932" width="404.142" height="404.142" rx="202.071" transform="rotate(8.37168 96.0011 36.6932)" stroke="url(#paint0_radial_14547_46842)" stroke-width="0.937685"/>
</g>
<rect x="46.9547" y="-39.237" width="531.766" height="531.766" rx="265.883" transform="rotate(9.27689 46.9547 -39.237)" stroke="url(#paint1_radial_14547_46842)" stroke-opacity="0.6" stroke-width="1.2338"/>
<g clip-path="url(#clip1_14547_46842)">
<g filter="url(#filter0_f_14547_46842)">
<ellipse cx="237.753" cy="141.333" rx="174.854" ry="34.8234" transform="rotate(-15.703 237.753 141.333)" fill="#1E113E"/>
</g>
<g filter="url(#filter1_f_14547_46842)">
<ellipse cx="256.626" cy="393.915" rx="174.854" ry="34.8234" transform="rotate(-16.2013 256.626 393.915)" fill="#130A29"/>
</g>
</g>
<rect x="122.923" y="122.454" width="287.154" height="287.154" rx="143.577" stroke="url(#paint2_radial_14547_46842)" stroke-width="0.66625"/>
<g filter="url(#filter2_f_14547_46842)">
<path fill-rule="evenodd" clipRule="evenodd" d="M233.623 218.703C232.274 218.914 230.997 217.982 230.787 216.633L227.343 194.554C227.133 193.204 228.064 191.928 229.414 191.718L244.133 189.422C245.482 189.211 246.758 190.143 246.969 191.492L250.413 213.571C250.623 214.921 249.692 216.197 248.342 216.407L233.623 218.703ZM231.484 188.882C230.135 189.092 228.859 188.16 228.648 186.811L226.831 175.158C226.831 175.158 230.876 168.873 231.951 163.68L232.069 163.73C234.936 164.943 237.809 166.159 239.682 169.585C241.581 173.059 242.476 178.799 243.368 184.515C243.578 185.864 242.646 187.141 241.297 187.351L231.484 188.882ZM282.877 197.425L278.436 199.013L273.744 186.651L289.433 180.698L294.338 181.473L293.993 183.653C293.803 184.852 294.068 185.946 294.787 186.935C295.506 187.924 296.464 188.513 297.663 188.703C298.862 188.892 299.956 188.628 300.945 187.909C301.934 187.19 302.523 186.231 302.713 185.032L303.058 182.852L307.962 183.628L321.048 194.133L312.842 204.342L309.028 201.616L305.571 223.47L279.412 219.333L282.877 197.425ZM253.452 355.273V301.718L199.578 234.889H332L278.126 301.718V367.311L253.452 355.273ZM271.388 278.898L268.709 277.59C265.596 276.062 263.001 274.719 260.924 273.561C258.847 272.404 257.15 271.319 255.835 270.308C254.519 269.296 253.524 268.308 252.85 267.344C252.176 266.381 251.689 265.341 251.388 264.224C250.774 261.942 251.047 259.824 252.206 257.87C253.365 255.916 255.117 254.623 257.461 253.989C258.758 253.639 260.064 253.573 261.38 253.79C262.696 254.007 263.908 254.487 265.017 255.229C265.604 254.029 266.411 253.003 267.44 252.153C268.468 251.302 269.63 250.701 270.927 250.351C273.271 249.718 275.435 249.953 277.417 251.058C279.4 252.163 280.698 253.857 281.313 256.138C281.613 257.255 281.714 258.4 281.615 259.572C281.516 260.745 281.152 262.1 280.522 263.637C279.893 265.174 278.971 266.966 277.756 269.013C276.541 271.06 274.972 273.528 273.048 276.418L271.388 278.898Z" fill="url(#paint3_linear_14547_46842)"/>
<path d="M230.787 216.633L231.946 216.452L230.787 216.633ZM233.623 218.703L233.442 217.545H233.442L233.623 218.703ZM227.343 194.554L226.184 194.734L227.343 194.554ZM229.414 191.718L229.594 192.876L229.414 191.718ZM244.133 189.422L244.314 190.58L244.133 189.422ZM246.969 191.492L245.81 191.673V191.673L246.969 191.492ZM250.413 213.571L251.572 213.391V213.391L250.413 213.571ZM248.342 216.407L248.523 217.566H248.523L248.342 216.407ZM228.648 186.811L229.807 186.63L228.648 186.811ZM231.484 188.882L231.303 187.723L231.484 188.882ZM226.831 175.158L225.845 174.524L225.603 174.899L225.672 175.339L226.831 175.158ZM231.951 163.68L232.408 162.6L231.092 162.043L230.802 163.442L231.951 163.68ZM232.069 163.73L231.612 164.81L231.612 164.81L232.069 163.73ZM239.682 169.585L238.653 170.148V170.148L239.682 169.585ZM243.368 184.515L242.209 184.696V184.696L243.368 184.515ZM241.297 187.351L241.116 186.192H241.116L241.297 187.351ZM278.436 199.013L277.34 199.429L277.748 200.504L278.831 200.117L278.436 199.013ZM282.877 197.425L284.035 197.608L284.344 195.655L282.482 196.32L282.877 197.425ZM273.744 186.651L273.328 185.555L272.231 185.971L272.648 187.067L273.744 186.651ZM289.433 180.698L289.616 179.539L289.308 179.491L289.017 179.601L289.433 180.698ZM294.338 181.473L295.496 181.656L295.679 180.498L294.521 180.315L294.338 181.473ZM293.993 183.653L295.151 183.836V183.836L293.993 183.653ZM297.663 188.703L297.48 189.861V189.861L297.663 188.703ZM300.945 187.909L300.256 186.96V186.96L300.945 187.909ZM302.713 185.032L301.554 184.849V184.849L302.713 185.032ZM303.058 182.852L303.241 181.694L302.082 181.511L301.899 182.669L303.058 182.852ZM307.962 183.628L308.696 182.714L308.453 182.519L308.146 182.47L307.962 183.628ZM321.048 194.133L321.962 194.868L322.698 193.953L321.783 193.218L321.048 194.133ZM312.842 204.342L312.16 205.296L313.062 205.941L313.756 205.077L312.842 204.342ZM309.028 201.616L309.71 200.662L308.166 199.559L307.869 201.433L309.028 201.616ZM305.571 223.47L305.388 224.629L306.546 224.812L306.73 223.653L305.571 223.47ZM279.412 219.333L278.254 219.15L278.071 220.308L279.229 220.491L279.412 219.333ZM253.452 301.718H254.624V301.304L254.365 300.982L253.452 301.718ZM253.452 355.273H252.279V356.006L252.937 356.327L253.452 355.273ZM199.578 234.889V233.717H197.127L198.665 235.625L199.578 234.889ZM332 234.889L332.913 235.625L334.451 233.717H332V234.889ZM278.126 301.718L277.213 300.982L276.954 301.304V301.718H278.126ZM278.126 367.311L277.612 368.365L279.299 369.188V367.311H278.126ZM268.709 277.59L268.192 278.643L268.195 278.644L268.709 277.59ZM271.388 278.898L270.874 279.951L271.794 280.4L272.363 279.55L271.388 278.898ZM255.835 270.308L255.12 271.237H255.12L255.835 270.308ZM251.388 264.224L250.256 264.529L251.388 264.224ZM252.206 257.87L251.197 257.272L251.197 257.272L252.206 257.87ZM257.461 253.989L257.767 255.122L257.461 253.989ZM261.38 253.79L261.189 254.947H261.189L261.38 253.79ZM265.017 255.229L264.365 256.204L265.481 256.95L266.071 255.744L265.017 255.229ZM270.927 250.351L270.621 249.219H270.621L270.927 250.351ZM277.417 251.058L276.846 252.083H276.846L277.417 251.058ZM281.313 256.138L280.18 256.443L281.313 256.138ZM281.615 259.572L282.783 259.671L281.615 259.572ZM280.522 263.637L281.607 264.081L280.522 263.637ZM277.756 269.013L276.748 268.415L277.756 269.013ZM273.048 276.418L274.023 277.07L274.024 277.068L273.048 276.418ZM229.628 216.813C229.939 218.803 231.814 220.172 233.804 219.862L233.442 217.545C232.733 217.655 232.056 217.161 231.946 216.452L229.628 216.813ZM226.184 194.734L229.628 216.813L231.946 216.452L228.502 194.373L226.184 194.734ZM229.233 190.559C227.244 190.869 225.874 192.745 226.184 194.734L228.502 194.373C228.391 193.663 228.885 192.987 229.594 192.876L229.233 190.559ZM243.952 188.263L229.233 190.559L229.594 192.876L244.314 190.58L243.952 188.263ZM248.128 191.312C247.817 189.322 245.941 187.953 243.952 188.263L244.314 190.58C245.023 190.47 245.7 190.964 245.81 191.673L248.128 191.312ZM251.572 213.391L248.128 191.312L245.81 191.673L249.254 213.752L251.572 213.391ZM248.523 217.566C250.512 217.256 251.882 215.38 251.572 213.391L249.254 213.752C249.365 214.462 248.871 215.138 248.162 215.249L248.523 217.566ZM233.804 219.862L248.523 217.566L248.162 215.249L233.442 217.545L233.804 219.862ZM227.49 186.992C227.8 188.981 229.676 190.351 231.665 190.04L231.303 187.723C230.594 187.834 229.918 187.34 229.807 186.63L227.49 186.992ZM225.672 175.339L227.49 186.992L229.807 186.63L227.989 174.978L225.672 175.339ZM230.802 163.442C230.298 165.88 229.077 168.635 227.946 170.829C227.385 171.915 226.857 172.843 226.47 173.499C226.276 173.826 226.118 174.085 226.01 174.261C225.955 174.349 225.913 174.416 225.885 174.46C225.871 174.482 225.86 174.499 225.854 174.509C225.85 174.515 225.848 174.519 225.846 174.521C225.845 174.522 225.845 174.523 225.845 174.523C225.844 174.524 225.844 174.524 225.844 174.524C225.844 174.524 225.844 174.524 225.844 174.524C225.844 174.524 225.845 174.524 226.831 175.158C227.817 175.793 227.817 175.793 227.817 175.793C227.817 175.793 227.817 175.792 227.817 175.792C227.817 175.792 227.818 175.791 227.818 175.791C227.819 175.79 227.82 175.788 227.821 175.786C227.823 175.783 227.827 175.777 227.831 175.771C227.839 175.757 227.852 175.738 227.868 175.713C227.899 175.663 227.945 175.59 228.003 175.496C228.12 175.307 228.287 175.034 228.489 174.692C228.894 174.006 229.445 173.039 230.03 171.904C231.189 169.657 232.529 166.673 233.099 163.917L230.802 163.442ZM232.526 162.65L232.408 162.6L231.494 164.76L231.612 164.81L232.526 162.65ZM240.711 169.023C238.621 165.201 235.376 163.856 232.526 162.65L231.612 164.81C234.495 166.03 236.996 167.117 238.653 170.148L240.711 169.023ZM244.526 184.334C244.082 181.485 243.63 178.582 243.047 175.955C242.468 173.34 241.741 170.907 240.711 169.023L238.653 170.148C239.522 171.737 240.192 173.91 240.758 176.463C241.321 179.004 241.762 181.829 242.209 184.696L244.526 184.334ZM241.478 188.51C243.467 188.199 244.837 186.324 244.526 184.334L242.209 184.696C242.32 185.405 241.826 186.082 241.116 186.192L241.478 188.51ZM231.665 190.04L241.478 188.51L241.116 186.192L231.303 187.723L231.665 190.04ZM278.831 200.117L283.272 198.529L282.482 196.32L278.042 197.908L278.831 200.117ZM272.648 187.067L277.34 199.429L279.533 198.596L274.84 186.235L272.648 187.067ZM289.017 179.601L273.328 185.555L274.16 187.748L289.849 181.794L289.017 179.601ZM294.521 180.315L289.616 179.539L289.25 181.856L294.155 182.632L294.521 180.315ZM295.151 183.836L295.496 181.656L293.18 181.29L292.835 183.47L295.151 183.836ZM295.735 186.245C295.198 185.506 295.011 184.726 295.151 183.836L292.835 183.47C292.596 184.979 292.938 186.386 293.838 187.624L295.735 186.245ZM297.847 187.544C296.957 187.404 296.273 186.985 295.735 186.245L293.838 187.624C294.738 188.863 295.972 189.622 297.48 189.861L297.847 187.544ZM300.256 186.96C299.516 187.498 298.736 187.685 297.847 187.544L297.48 189.861C298.989 190.099 300.396 189.758 301.635 188.857L300.256 186.96ZM301.554 184.849C301.414 185.738 300.995 186.423 300.256 186.96L301.635 188.857C302.873 187.957 303.632 186.724 303.871 185.215L301.554 184.849ZM301.899 182.669L301.554 184.849L303.871 185.216L304.216 183.036L301.899 182.669ZM308.146 182.47L303.241 181.694L302.874 184.011L307.779 184.786L308.146 182.47ZM321.783 193.218L308.696 182.714L307.228 184.543L320.314 195.047L321.783 193.218ZM313.756 205.077L321.962 194.868L320.134 193.398L311.928 203.608L313.756 205.077ZM308.346 202.57L312.16 205.296L313.524 203.388L309.71 200.662L308.346 202.57ZM306.73 223.653L310.186 201.8L307.869 201.433L304.413 223.287L306.73 223.653ZM279.229 220.491L305.388 224.629L305.755 222.312L279.595 218.175L279.229 220.491ZM281.719 197.241L278.254 219.15L280.57 219.516L284.035 197.608L281.719 197.241ZM252.279 301.718V355.273H254.624V301.718H252.279ZM198.665 235.625L252.539 302.454L254.365 300.982L200.491 234.153L198.665 235.625ZM332 233.717H199.578V236.062H332V233.717ZM279.039 302.454L332.913 235.625L331.087 234.153L277.213 300.982L279.039 302.454ZM279.299 367.311V301.718H276.954V367.311H279.299ZM252.937 356.327L277.612 368.365L278.641 366.257L253.966 354.219L252.937 356.327ZM268.195 278.644L270.874 279.951L271.903 277.844L269.223 276.536L268.195 278.644ZM260.353 274.586C262.454 275.756 265.068 277.109 268.192 278.643L269.226 276.538C266.123 275.014 263.548 273.681 261.494 272.537L260.353 274.586ZM255.12 271.237C256.496 272.295 258.245 273.411 260.353 274.586L261.494 272.537C259.448 271.397 257.805 270.343 256.549 269.378L255.12 271.237ZM251.889 268.017C252.653 269.109 253.745 270.18 255.12 271.237L256.549 269.378C255.293 268.412 254.395 267.507 253.811 266.672L251.889 268.017ZM250.256 264.529C250.592 265.779 251.139 266.943 251.889 268.017L253.811 266.672C253.214 265.818 252.785 264.902 252.521 263.919L250.256 264.529ZM251.197 257.272C249.87 259.51 249.563 261.955 250.256 264.529L252.521 263.919C251.985 261.929 252.224 260.139 253.214 258.469L251.197 257.272ZM257.155 252.857C254.539 253.564 252.524 255.036 251.197 257.272L253.214 258.469C254.207 256.797 255.695 255.681 257.767 255.122L257.155 252.857ZM261.571 252.633C260.088 252.388 258.613 252.464 257.155 252.857L257.767 255.122C258.903 254.815 260.04 254.757 261.189 254.947L261.571 252.633ZM265.669 254.254C264.421 253.419 263.052 252.878 261.571 252.633L261.189 254.947C262.34 255.137 263.395 255.555 264.365 256.204L265.669 254.254ZM266.692 251.249C265.535 252.206 264.623 253.364 263.964 254.714L266.071 255.744C266.584 254.693 267.287 253.801 268.187 253.056L266.692 251.249ZM270.621 249.219C269.164 249.613 267.85 250.291 266.692 251.249L268.187 253.056C269.085 252.313 270.097 251.79 271.233 251.483L270.621 249.219ZM277.988 250.034C275.718 248.769 273.238 248.512 270.621 249.219L271.233 251.483C273.305 250.923 275.151 251.138 276.846 252.083L277.988 250.034ZM282.445 255.834C281.752 253.26 280.26 251.3 277.988 250.034L276.846 252.083C278.54 253.026 279.645 254.453 280.18 256.443L282.445 255.834ZM282.783 259.671C282.894 258.365 282.781 257.084 282.445 255.834L280.18 256.443C280.445 257.426 280.534 258.434 280.446 259.474L282.783 259.671ZM281.607 264.081C282.265 262.475 282.671 261 282.783 259.671L280.446 259.474C280.361 260.49 280.038 261.724 279.437 263.193L281.607 264.081ZM278.765 269.612C279.997 267.535 280.949 265.689 281.607 264.081L279.437 263.193C278.836 264.659 277.944 266.398 276.748 268.415L278.765 269.612ZM274.024 277.068C275.955 274.168 277.536 271.682 278.765 269.612L276.748 268.415C275.547 270.438 273.989 272.888 272.072 275.768L274.024 277.068ZM272.363 279.55L274.023 277.07L272.074 275.766L270.414 278.245L272.363 279.55Z" fill="url(#paint4_linear_14547_46842)"/>
</g>
<path fill-rule="evenodd" clipRule="evenodd" d="M233.623 218.703C232.274 218.914 230.997 217.982 230.787 216.633L227.343 194.554C227.133 193.204 228.064 191.928 229.414 191.718L244.133 189.422C245.482 189.211 246.758 190.143 246.969 191.492L250.413 213.571C250.623 214.921 249.692 216.197 248.342 216.407L233.623 218.703ZM231.484 188.882C230.135 189.092 228.859 188.16 228.648 186.811L226.831 175.158C226.831 175.158 230.876 168.873 231.951 163.68L232.069 163.73C234.936 164.943 237.809 166.159 239.682 169.585C241.581 173.059 242.476 178.799 243.368 184.515C243.578 185.864 242.646 187.141 241.297 187.351L231.484 188.882ZM282.877 197.425L278.436 199.013L273.744 186.651L289.433 180.698L294.338 181.473L293.993 183.653C293.803 184.852 294.068 185.946 294.787 186.935C295.506 187.924 296.464 188.513 297.663 188.703C298.862 188.892 299.956 188.628 300.945 187.909C301.934 187.19 302.523 186.231 302.713 185.032L303.058 182.852L307.962 183.628L321.048 194.133L312.842 204.342L309.028 201.616L305.571 223.47L279.412 219.333L282.877 197.425ZM253.452 355.273V301.718L199.578 234.889H332L278.126 301.718V367.311L253.452 355.273ZM271.388 278.898L268.709 277.59C265.596 276.062 263.001 274.719 260.924 273.561C258.847 272.404 257.15 271.319 255.835 270.308C254.519 269.296 253.524 268.308 252.85 267.344C252.176 266.381 251.689 265.341 251.388 264.224C250.774 261.942 251.047 259.824 252.206 257.87C253.365 255.916 255.117 254.623 257.461 253.989C258.758 253.639 260.064 253.573 261.38 253.79C262.696 254.007 263.908 254.487 265.017 255.229C265.604 254.029 266.411 253.003 267.44 252.153C268.468 251.302 269.63 250.701 270.927 250.351C273.271 249.718 275.435 249.953 277.417 251.058C279.4 252.163 280.698 253.857 281.313 256.138C281.613 257.255 281.714 258.4 281.615 259.572C281.516 260.745 281.152 262.1 280.522 263.637C279.893 265.174 278.971 266.966 277.756 269.013C276.541 271.06 274.972 273.528 273.048 276.418L271.388 278.898Z" fill="url(#paint5_linear_14547_46842)"/>
<path d="M230.787 216.633L231.946 216.452L230.787 216.633ZM233.623 218.703L233.442 217.545H233.442L233.623 218.703ZM227.343 194.554L226.184 194.734L227.343 194.554ZM229.414 191.718L229.594 192.876L229.414 191.718ZM244.133 189.422L244.314 190.58L244.133 189.422ZM246.969 191.492L245.81 191.673V191.673L246.969 191.492ZM250.413 213.571L251.572 213.391V213.391L250.413 213.571ZM248.342 216.407L248.523 217.566H248.523L248.342 216.407ZM228.648 186.811L229.807 186.63L228.648 186.811ZM231.484 188.882L231.303 187.723L231.484 188.882ZM226.831 175.158L225.845 174.524L225.603 174.899L225.672 175.339L226.831 175.158ZM231.951 163.68L232.408 162.6L231.092 162.043L230.802 163.442L231.951 163.68ZM232.069 163.73L231.612 164.81L231.612 164.81L232.069 163.73ZM239.682 169.585L238.653 170.148V170.148L239.682 169.585ZM243.368 184.515L242.209 184.696V184.696L243.368 184.515ZM241.297 187.351L241.116 186.192H241.116L241.297 187.351ZM278.436 199.013L277.34 199.429L277.748 200.504L278.831 200.117L278.436 199.013ZM282.877 197.425L284.035 197.608L284.344 195.655L282.482 196.32L282.877 197.425ZM273.744 186.651L273.328 185.555L272.231 185.971L272.648 187.067L273.744 186.651ZM289.433 180.698L289.616 179.539L289.308 179.491L289.017 179.601L289.433 180.698ZM294.338 181.473L295.496 181.656L295.679 180.498L294.521 180.315L294.338 181.473ZM293.993 183.653L295.151 183.836V183.836L293.993 183.653ZM297.663 188.703L297.48 189.861V189.861L297.663 188.703ZM300.945 187.909L300.256 186.96V186.96L300.945 187.909ZM302.713 185.032L301.554 184.849V184.849L302.713 185.032ZM303.058 182.852L303.241 181.694L302.082 181.511L301.899 182.669L303.058 182.852ZM307.962 183.628L308.696 182.714L308.453 182.519L308.146 182.47L307.962 183.628ZM321.048 194.133L321.962 194.868L322.698 193.953L321.783 193.218L321.048 194.133ZM312.842 204.342L312.16 205.296L313.062 205.941L313.756 205.077L312.842 204.342ZM309.028 201.616L309.71 200.662L308.166 199.559L307.869 201.433L309.028 201.616ZM305.571 223.47L305.388 224.629L306.546 224.812L306.73 223.653L305.571 223.47ZM279.412 219.333L278.254 219.15L278.071 220.308L279.229 220.491L279.412 219.333ZM253.452 301.718H254.624V301.304L254.365 300.982L253.452 301.718ZM253.452 355.273H252.279V356.006L252.937 356.327L253.452 355.273ZM199.578 234.889V233.717H197.127L198.665 235.625L199.578 234.889ZM332 234.889L332.913 235.625L334.451 233.717H332V234.889ZM278.126 301.718L277.213 300.982L276.954 301.304V301.718H278.126ZM278.126 367.311L277.612 368.365L279.299 369.188V367.311H278.126ZM268.709 277.59L268.192 278.643L268.195 278.644L268.709 277.59ZM271.388 278.898L270.874 279.951L271.794 280.4L272.363 279.55L271.388 278.898ZM255.835 270.308L255.12 271.237H255.12L255.835 270.308ZM251.388 264.224L250.256 264.529L251.388 264.224ZM252.206 257.87L251.197 257.272L251.197 257.272L252.206 257.87ZM257.461 253.989L257.767 255.122L257.461 253.989ZM261.38 253.79L261.189 254.947H261.189L261.38 253.79ZM265.017 255.229L264.365 256.204L265.481 256.95L266.071 255.744L265.017 255.229ZM270.927 250.351L270.621 249.219H270.621L270.927 250.351ZM277.417 251.058L276.846 252.083H276.846L277.417 251.058ZM281.313 256.138L280.18 256.443L281.313 256.138ZM281.615 259.572L282.783 259.671L281.615 259.572ZM280.522 263.637L281.607 264.081L280.522 263.637ZM277.756 269.013L276.748 268.415L277.756 269.013ZM273.048 276.418L274.023 277.07L274.024 277.068L273.048 276.418ZM229.628 216.813C229.939 218.803 231.814 220.172 233.804 219.862L233.442 217.545C232.733 217.655 232.056 217.161 231.946 216.452L229.628 216.813ZM226.184 194.734L229.628 216.813L231.946 216.452L228.502 194.373L226.184 194.734ZM229.233 190.559C227.244 190.869 225.874 192.745 226.184 194.734L228.502 194.373C228.391 193.663 228.885 192.987 229.594 192.876L229.233 190.559ZM243.952 188.263L229.233 190.559L229.594 192.876L244.314 190.58L243.952 188.263ZM248.128 191.312C247.817 189.322 245.941 187.953 243.952 188.263L244.314 190.58C245.023 190.47 245.7 190.964 245.81 191.673L248.128 191.312ZM251.572 213.391L248.128 191.312L245.81 191.673L249.254 213.752L251.572 213.391ZM248.523 217.566C250.512 217.256 251.882 215.38 251.572 213.391L249.254 213.752C249.365 214.462 248.871 215.138 248.162 215.249L248.523 217.566ZM233.804 219.862L248.523 217.566L248.162 215.249L233.442 217.545L233.804 219.862ZM227.49 186.992C227.8 188.981 229.676 190.351 231.665 190.04L231.303 187.723C230.594 187.834 229.918 187.34 229.807 186.63L227.49 186.992ZM225.672 175.339L227.49 186.992L229.807 186.63L227.989 174.978L225.672 175.339ZM230.802 163.442C230.298 165.88 229.077 168.635 227.946 170.829C227.385 171.915 226.857 172.843 226.47 173.499C226.276 173.826 226.118 174.085 226.01 174.261C225.955 174.349 225.913 174.416 225.885 174.46C225.871 174.482 225.86 174.499 225.854 174.509C225.85 174.515 225.848 174.519 225.846 174.521C225.845 174.522 225.845 174.523 225.845 174.523C225.844 174.524 225.844 174.524 225.844 174.524C225.844 174.524 225.844 174.524 225.844 174.524C225.844 174.524 225.845 174.524 226.831 175.158C227.817 175.793 227.817 175.793 227.817 175.793C227.817 175.793 227.817 175.792 227.817 175.792C227.817 175.792 227.818 175.791 227.818 175.791C227.819 175.79 227.82 175.788 227.821 175.786C227.823 175.783 227.827 175.777 227.831 175.771C227.839 175.757 227.852 175.738 227.868 175.713C227.899 175.663 227.945 175.59 228.003 175.496C228.12 175.307 228.287 175.034 228.489 174.692C228.894 174.006 229.445 173.039 230.03 171.904C231.189 169.657 232.529 166.673 233.099 163.917L230.802 163.442ZM232.526 162.65L232.408 162.6L231.494 164.76L231.612 164.81L232.526 162.65ZM240.711 169.023C238.621 165.201 235.376 163.856 232.526 162.65L231.612 164.81C234.495 166.03 236.996 167.117 238.653 170.148L240.711 169.023ZM244.526 184.334C244.082 181.485 243.63 178.582 243.047 175.955C242.468 173.34 241.741 170.907 240.711 169.023L238.653 170.148C239.522 171.737 240.192 173.91 240.758 176.463C241.321 179.004 241.762 181.829 242.209 184.696L244.526 184.334ZM241.478 188.51C243.467 188.199 244.837 186.324 244.526 184.334L242.209 184.696C242.32 185.405 241.826 186.082 241.116 186.192L241.478 188.51ZM231.665 190.04L241.478 188.51L241.116 186.192L231.303 187.723L231.665 190.04ZM278.831 200.117L283.272 198.529L282.482 196.32L278.042 197.908L278.831 200.117ZM272.648 187.067L277.34 199.429L279.533 198.596L274.84 186.235L272.648 187.067ZM289.017 179.601L273.328 185.555L274.16 187.748L289.849 181.794L289.017 179.601ZM294.521 180.315L289.616 179.539L289.25 181.856L294.155 182.632L294.521 180.315ZM295.151 183.836L295.496 181.656L293.18 181.29L292.835 183.47L295.151 183.836ZM295.735 186.245C295.198 185.506 295.011 184.726 295.151 183.836L292.835 183.47C292.596 184.979 292.938 186.386 293.838 187.624L295.735 186.245ZM297.847 187.544C296.957 187.404 296.273 186.985 295.735 186.245L293.838 187.624C294.738 188.863 295.972 189.622 297.48 189.861L297.847 187.544ZM300.256 186.96C299.516 187.498 298.736 187.685 297.847 187.544L297.48 189.861C298.989 190.099 300.396 189.758 301.635 188.857L300.256 186.96ZM301.554 184.849C301.414 185.738 300.995 186.423 300.256 186.96L301.635 188.857C302.873 187.957 303.632 186.724 303.871 185.215L301.554 184.849ZM301.899 182.669L301.554 184.849L303.871 185.216L304.216 183.036L301.899 182.669ZM308.146 182.47L303.241 181.694L302.874 184.011L307.779 184.786L308.146 182.47ZM321.783 193.218L308.696 182.714L307.228 184.543L320.314 195.047L321.783 193.218ZM313.756 205.077L321.962 194.868L320.134 193.398L311.928 203.608L313.756 205.077ZM308.346 202.57L312.16 205.296L313.524 203.388L309.71 200.662L308.346 202.57ZM306.73 223.653L310.186 201.8L307.869 201.433L304.413 223.287L306.73 223.653ZM279.229 220.491L305.388 224.629L305.755 222.312L279.595 218.175L279.229 220.491ZM281.719 197.241L278.254 219.15L280.57 219.516L284.035 197.608L281.719 197.241ZM252.279 301.718V355.273H254.624V301.718H252.279ZM198.665 235.625L252.539 302.454L254.365 300.982L200.491 234.153L198.665 235.625ZM332 233.717H199.578V236.062H332V233.717ZM279.039 302.454L332.913 235.625L331.087 234.153L277.213 300.982L279.039 302.454ZM279.299 367.311V301.718H276.954V367.311H279.299ZM252.937 356.327L277.612 368.365L278.641 366.257L253.966 354.219L252.937 356.327ZM268.195 278.644L270.874 279.951L271.903 277.844L269.223 276.536L268.195 278.644ZM260.353 274.586C262.454 275.756 265.068 277.109 268.192 278.643L269.226 276.538C266.123 275.014 263.548 273.681 261.494 272.537L260.353 274.586ZM255.12 271.237C256.496 272.295 258.245 273.411 260.353 274.586L261.494 272.537C259.448 271.397 257.805 270.343 256.549 269.378L255.12 271.237ZM251.889 268.017C252.653 269.109 253.745 270.18 255.12 271.237L256.549 269.378C255.293 268.412 254.395 267.507 253.811 266.672L251.889 268.017ZM250.256 264.529C250.592 265.779 251.139 266.943 251.889 268.017L253.811 266.672C253.214 265.818 252.785 264.902 252.521 263.919L250.256 264.529ZM251.197 257.272C249.87 259.51 249.563 261.955 250.256 264.529L252.521 263.919C251.985 261.929 252.224 260.139 253.214 258.469L251.197 257.272ZM257.155 252.857C254.539 253.564 252.524 255.036 251.197 257.272L253.214 258.469C254.207 256.797 255.695 255.681 257.767 255.122L257.155 252.857ZM261.571 252.633C260.088 252.388 258.613 252.464 257.155 252.857L257.767 255.122C258.903 254.815 260.04 254.757 261.189 254.947L261.571 252.633ZM265.669 254.254C264.421 253.419 263.052 252.878 261.571 252.633L261.189 254.947C262.34 255.137 263.395 255.555 264.365 256.204L265.669 254.254ZM266.692 251.249C265.535 252.206 264.623 253.364 263.964 254.714L266.071 255.744C266.584 254.693 267.287 253.801 268.187 253.056L266.692 251.249ZM270.621 249.219C269.164 249.613 267.85 250.291 266.692 251.249L268.187 253.056C269.085 252.313 270.097 251.79 271.233 251.483L270.621 249.219ZM277.988 250.034C275.718 248.769 273.238 248.512 270.621 249.219L271.233 251.483C273.305 250.923 275.151 251.138 276.846 252.083L277.988 250.034ZM282.445 255.834C281.752 253.26 280.26 251.3 277.988 250.034L276.846 252.083C278.54 253.026 279.645 254.453 280.18 256.443L282.445 255.834ZM282.783 259.671C282.894 258.365 282.781 257.084 282.445 255.834L280.18 256.443C280.445 257.426 280.534 258.434 280.446 259.474L282.783 259.671ZM281.607 264.081C282.265 262.475 282.671 261 282.783 259.671L280.446 259.474C280.361 260.49 280.038 261.724 279.437 263.193L281.607 264.081ZM278.765 269.612C279.997 267.535 280.949 265.689 281.607 264.081L279.437 263.193C278.836 264.659 277.944 266.398 276.748 268.415L278.765 269.612ZM274.024 277.068C275.955 274.168 277.536 271.682 278.765 269.612L276.748 268.415C275.547 270.438 273.989 272.888 272.072 275.768L274.024 277.068ZM272.363 279.55L274.023 277.07L272.074 275.766L270.414 278.245L272.363 279.55Z" fill="url(#paint6_linear_14547_46842)"/>
</g>
<defs>
<filter id="filter0_f_14547_46842" x="41.1562" y="55.333" width="393.191" height="172" filterUnits="userSpaceOnUse" color-interpolation-filters="sRGB">
<feFlood flood-opacity="0" result="BackgroundImageFix"/>
<feBlend mode="normal" in="SourceGraphic" in2="BackgroundImageFix" result="shape"/>
<feGaussianBlur stdDeviation="14" result="effect1_foregroundBlur_14547_46842"/>
</filter>
<filter id="filter1_f_14547_46842" x="60.4297" y="306.762" width="392.391" height="174.306" filterUnits="userSpaceOnUse" color-interpolation-filters="sRGB">
<feFlood flood-opacity="0" result="BackgroundImageFix"/>
<feBlend mode="normal" in="SourceGraphic" in2="BackgroundImageFix" result="shape"/>
<feGaussianBlur stdDeviation="14" result="effect1_foregroundBlur_14547_46842"/>
</filter>
<filter id="filter2_f_14547_46842" x="10.4222" y="-24.6598" width="510.734" height="580.551" filterUnits="userSpaceOnUse" color-interpolation-filters="sRGB">
<feFlood flood-opacity="0" result="BackgroundImageFix"/>
<feBlend mode="normal" in="SourceGraphic" in2="BackgroundImageFix" result="shape"/>
<feGaussianBlur stdDeviation="93.3514" result="effect1_foregroundBlur_14547_46842"/>
</filter>
<radialGradient id="paint0_radial_14547_46842" cx="0" cy="0" r="1" gradientUnits="userSpaceOnUse" gradientTransform="translate(289.806 225.596) rotate(-43.9391) scale(273.002 189.309)">
<stop stop-color="white"/>
<stop offset="1" stop-color="#130A29"/>
</radialGradient>
<radialGradient id="paint1_radial_14547_46842" cx="0" cy="0" r="1" gradientUnits="userSpaceOnUse" gradientTransform="translate(301.972 209.311) rotate(-43.9391) scale(359.214 249.091)">
<stop stop-color="white"/>
<stop offset="1" stop-color="#130A29"/>
</radialGradient>
<radialGradient id="paint2_radial_14547_46842" cx="0" cy="0" r="1" gradientUnits="userSpaceOnUse" gradientTransform="translate(260.574 256.719) rotate(-43.9391) scale(193.975 134.509)">
<stop stop-color="white"/>
<stop offset="1" stop-color="#592EBF"/>
</radialGradient>
<linearGradient id="paint3_linear_14547_46842" x1="267.92" y1="148.515" x2="274.729" y2="365.263" gradientUnits="userSpaceOnUse">
<stop stop-color="#8146F6"/>
<stop offset="1" stop-color="#C5AAFA"/>
</linearGradient>
<linearGradient id="paint4_linear_14547_46842" x1="273.897" y1="363.504" x2="300.393" y2="163.238" gradientUnits="userSpaceOnUse">
<stop stop-color="#20143C"/>
<stop offset="0.246129" stop-color="#251745"/>
<stop offset="1" stop-color="white"/>
</linearGradient>
<linearGradient id="paint5_linear_14547_46842" x1="267.92" y1="148.515" x2="274.729" y2="365.263" gradientUnits="userSpaceOnUse">
<stop stop-color="#8146F6"/>
<stop offset="1" stop-color="#C5AAFA"/>
</linearGradient>
<linearGradient id="paint6_linear_14547_46842" x1="273.897" y1="363.504" x2="300.393" y2="163.238" gradientUnits="userSpaceOnUse">
<stop stop-color="#20143C"/>
<stop offset="0.246129" stop-color="#251745"/>
<stop offset="1" stop-color="white"/>
</linearGradient>
<clipPath id="clip0_14547_46842">
<rect width="533" height="530.688" fill="white" transform="translate(0 0.6875)"/>
</clipPath>
<clipPath id="clip1_14547_46842">
<rect x="122.59" y="122.121" width="287.82" height="287.82" rx="143.91" fill="white"/>
</clipPath>
</defs>
</svg>
