<svg width="320" height="320" viewBox="0 0 320 320" fill="none" xmlns="http://www.w3.org/2000/svg">
<rect width="320" height="320" rx="160" fill="#FFDF00"/>
<path d="M209.327 184.726H209.475L209.58 184.622L218.524 175.678L219.134 175.067H218.271H110.944H110.796L110.691 175.172L101.747 184.116L101.136 184.726H102H209.327Z" fill="#6580E1" stroke="black" stroke-width="0.715512"/>
<path d="M101.642 184.368V185.232L102.253 184.621L111.197 175.677L111.302 175.572V175.424V139.648C111.302 134.053 113.479 128.966 117.033 125.188L116.519 124.69L107.575 133.634L107.575 133.634L107.568 133.642C103.894 137.547 101.642 142.807 101.642 148.592V184.368Z" fill="#6580E1" stroke="black" stroke-width="0.715512"/>
<path d="M107.564 133.644L108.077 134.142L109.006 133.213C112.783 129.662 117.868 127.486 123.461 127.486H187.858C199.515 127.486 208.965 136.936 208.965 148.594V184.369V185.233L209.576 184.622L218.52 175.679L218.625 175.574V175.426V139.65C218.625 127.597 208.854 117.827 196.801 117.827H132.405C126.14 117.827 120.491 120.468 116.511 124.696L108.507 132.7C108.183 133.005 107.869 133.32 107.564 133.644Z" fill="#6580E1" stroke="black" stroke-width="0.715512"/>
<path d="M102.358 148.595C102.358 136.938 111.808 127.488 123.465 127.488H187.861C199.519 127.488 208.969 136.938 208.969 148.595V184.013H102.358V148.595Z" fill="#FF7A00" stroke="black" stroke-width="0.715512"/>
<path fill-rule="evenodd" clipRule="evenodd" d="M176.515 109.171C171.295 114.72 163.885 118.185 155.665 118.185C139.859 118.185 127.045 105.371 127.045 89.5645C127.045 81.6611 130.248 74.506 135.428 69.3267L144.372 60.3828C139.192 65.5621 135.989 72.7172 135.989 80.6206C135.989 96.4272 148.803 109.241 164.609 109.241C172.829 109.241 180.239 105.776 185.459 100.227L176.515 109.171Z" fill="#FF7A00"/>
<path d="M176.253 108.926L176.766 109.424L185.71 100.48L185.71 100.48L185.718 100.472C190.596 95.2868 193.586 88.3024 193.586 80.6205C193.586 64.6163 180.612 51.6422 164.607 51.6422C156.605 51.6422 149.36 54.8861 144.117 60.1298L135.173 69.0737L135.426 69.3267L135.679 69.5796C140.794 64.4647 147.859 61.3017 155.664 61.3017C171.273 61.3017 183.926 73.9553 183.926 89.5644C183.926 97.0569 181.011 103.868 176.253 108.926Z" fill="#6580E1" stroke="black" stroke-width="0.715512"/>
<path d="M183.928 89.5638C183.928 105.173 171.274 117.827 155.665 117.827C140.056 117.827 127.403 105.173 127.403 89.5638C127.403 73.9548 140.056 61.3011 155.665 61.3011C171.274 61.3011 183.928 73.9548 183.928 89.5638Z" fill="#FF7A00" stroke="black" stroke-width="0.715512"/>
</svg>
