<svg width="51" height="58" viewBox="0 0 51 58" fill="none" xmlns="http://www.w3.org/2000/svg">
<path id="ReDesyn Logo" d="M14.378 38.2225C14.378 38.4213 14.378 38.5406 14.378 38.66C14.378 42.0802 14.378 45.4872 14.378 48.9075C14.378 48.9871 14.378 49.0799 14.378 49.1594C14.3913 49.292 14.325 49.3715 14.2057 49.4378C13.2247 49.9813 12.2436 50.5249 11.2626 51.0684C9.23433 52.1952 7.20604 53.3221 5.17774 54.4489C3.54714 55.3504 1.9298 56.2651 0.2992 57.1798C0.232916 57.2196 0.153381 57.2461 0.0738398 57.2859C0.00755535 57.0473 -0.0322218 1.35509 0.0340626 0.73202C0.0473195 0.73202 0.047313 0.71875 0.0605699 0.71875C0.0738268 0.71875 0.0871096 0.71875 0.0871096 0.71875C0.140137 0.745264 0.206396 0.77179 0.259423 0.798304C17.0824 10.1709 33.8922 19.5435 50.7549 28.9427C50.6489 29.0089 50.5826 29.0752 50.503 29.115C49.2171 29.8441 47.9179 30.5733 46.6188 31.2891C45.0014 32.1906 43.3841 33.0921 41.7667 33.9935C39.7252 35.1336 37.6836 36.2737 35.6421 37.4138C35.1383 37.6922 34.6213 37.9706 34.1175 38.2623C33.9319 38.3683 33.7861 38.3816 33.6005 38.2623C32.129 37.4403 30.6575 36.6317 29.186 35.8097C29.1197 35.77 29.0534 35.7169 28.9473 35.6506C32.9642 33.4235 36.9545 31.2096 40.9846 28.9692C40.9051 28.9029 40.852 28.8499 40.7857 28.8101C38.7707 27.6965 36.7689 26.5829 34.7539 25.4694C32.7256 24.3425 30.6972 23.2157 28.6689 22.0889C26.7599 21.0283 24.851 19.9678 22.942 18.9205C21.139 17.9129 19.3361 16.9187 17.5199 15.9112C15.9158 15.0229 14.3117 14.1347 12.7209 13.2465C10.4937 12.0136 8.27986 10.7807 6.05271 9.53458C5.69477 9.33572 5.33681 9.13687 4.96562 8.93802C4.91259 8.9115 4.8463 8.89825 4.76676 8.87173C4.76676 22.2877 4.76676 35.6772 4.76676 49.1064C4.85956 49.0666 4.93911 49.0534 5.00539 49.0136C6.45039 48.2049 7.89539 47.4095 9.34039 46.6008C9.49947 46.508 9.60553 46.402 9.57902 46.2031C9.56576 46.0838 9.57902 45.9645 9.57902 45.8584C9.57902 36.393 9.57902 26.9409 9.57902 17.4755C9.57902 17.3296 9.57903 17.1838 9.59229 16.985C16.7377 20.9885 23.8169 24.9523 30.9491 28.9427C27.0251 31.1433 23.1541 33.3042 19.23 35.5048C22.5575 37.3608 25.832 39.177 29.1064 41.0064C28.9208 41.2053 26.2827 42.7431 24.3074 43.7771C21.0595 41.9477 17.7585 40.105 14.378 38.2225ZM14.4178 32.7209C16.6847 31.4615 18.9251 30.2286 21.2053 28.9427C18.9119 27.67 16.6715 26.4238 14.4311 25.1777C14.3648 25.4561 14.3515 32.3232 14.4178 32.7209Z" fill="white"/>
</svg>
