<svg width="72" height="15" viewBox="0 0 72 15" fill="none" xmlns="http://www.w3.org/2000/svg">
<path d="M3.658 8.144V11H0.354V0.962H5.912C7.186 0.962 8.18 1.088 8.936 1.312C10.462 1.774 11.064 2.726 11.064 4.252C11.064 5.624 10.448 6.422 9.076 6.856C10.49 7.192 10.938 7.962 10.938 9.628V10.272C10.938 10.566 11.036 10.846 11.302 11H7.76C7.494 10.874 7.424 10.566 7.424 10.328V9.572C7.424 8.466 7.018 8.144 5.674 8.144H3.658ZM3.658 3.608V5.638H5.912C6.962 5.638 7.662 5.456 7.662 4.672V4.574C7.662 3.818 7.13 3.608 5.954 3.608H3.658ZM21.2658 8.41C20.5658 10.44 18.8018 11.266 15.7078 11.266C13.6638 11.266 12.3338 10.846 11.5078 10.09C10.6818 9.334 10.3598 8.326 10.3598 7.15C10.3598 6.282 10.5698 5.554 10.9618 4.854C11.7878 3.482 13.4118 2.642 15.9598 2.642C17.1918 2.642 18.1998 2.824 18.9838 3.202C20.5798 3.93 21.3358 5.26 21.3358 6.968V7.766H13.6498C13.8598 8.578 14.5318 8.97 15.9178 8.97C16.9678 8.97 17.4018 8.76 17.6678 8.41H21.2658ZM15.9178 4.966C14.6578 4.966 13.9718 5.372 13.7058 6.128H17.9898C17.7798 5.288 17.1358 4.966 15.9178 4.966ZM21.1653 0.962H26.2753C30.1393 0.962 32.3373 2.572 32.3373 5.988V6.03C32.3373 7.15 32.0993 8.074 31.6233 8.83C30.6433 10.3 28.8513 11 26.3593 11H21.1653V0.962ZM24.5113 3.79V8.144H26.1493C28.1513 8.144 28.8653 7.5 28.8653 6.002V5.974C28.8653 4.392 28.1373 3.79 26.0933 3.79H24.5113ZM42.7881 8.41C42.0881 10.44 40.3241 11.266 37.2301 11.266C35.1861 11.266 33.8561 10.846 33.0301 10.09C32.2041 9.334 31.8821 8.326 31.8821 7.15C31.8821 6.282 32.0921 5.554 32.4841 4.854C33.3101 3.482 34.9341 2.642 37.4821 2.642C38.7141 2.642 39.7221 2.824 40.5061 3.202C42.1021 3.93 42.8581 5.26 42.8581 6.968V7.766H35.1721C35.3821 8.578 36.0541 8.97 37.4401 8.97C38.4901 8.97 38.9241 8.76 39.1901 8.41H42.7881ZM37.4401 4.966C36.1801 4.966 35.4941 5.372 35.2281 6.128H39.5121C39.3021 5.288 38.6581 4.966 37.4401 4.966ZM47.4853 11.266C44.4053 11.266 42.4453 10.468 42.0393 8.326H45.6093C45.8473 8.914 46.4213 9.124 47.8073 9.124C48.9693 9.124 49.3333 8.872 49.3333 8.522C49.3333 8.41 49.2633 8.312 49.1373 8.242C48.8993 8.088 48.2133 8.018 46.7713 7.962C45.6793 7.906 44.8393 7.794 44.1813 7.626C42.8653 7.29 42.3333 6.646 42.3333 5.54C42.3333 3.762 43.9013 2.642 47.0653 2.642C50.1733 2.642 51.8393 3.496 52.4833 5.47H49.0813C48.8573 4.868 48.0873 4.686 46.9813 4.686C45.8053 4.686 45.4973 4.938 45.4973 5.26C45.4973 5.372 45.5673 5.484 45.7213 5.554C46.0153 5.708 46.7013 5.792 47.9753 5.848C49.1373 5.904 50.0473 6.016 50.7193 6.198C52.0493 6.548 52.5393 7.206 52.5393 8.312C52.5393 8.9 52.3573 9.404 52.0073 9.852C51.3073 10.734 49.8653 11.266 47.4853 11.266ZM51.7823 14.444V11.784H53.1123C53.4623 11.784 53.7283 11.742 53.9383 11.686C54.3443 11.56 54.5963 11.266 54.8763 10.734L54.9743 10.552L50.9003 2.88H54.5263L56.6123 7.094L56.7383 7.514L56.8643 7.108L58.9643 2.88H62.4643L58.0963 11.168C57.3403 12.61 56.7943 13.436 56.1783 13.884C55.5343 14.332 54.7503 14.444 53.4903 14.444H51.7823ZM64.9152 11H61.5272V2.88H64.4112L64.7332 4.7C65.2372 3.468 66.3012 2.642 68.0092 2.642C70.3612 2.642 71.6352 4 71.6352 6.352V11H68.2752V7.318C68.2752 6.044 67.8832 5.428 66.6652 5.428C65.4052 5.428 64.9152 6.058 64.9152 7.5V11Z" fill="#F8E0FF"/>
</svg>