<svg width="533" height="531" viewBox="0 0 533 531" fill="none" xmlns="http://www.w3.org/2000/svg">
<g clip-path="url(#clip0_14547_51793)">
<g opacity="0.6">
<rect x="96.0011" y="36.0682" width="404.142" height="404.142" rx="202.071" transform="rotate(8.37168 96.0011 36.0682)" stroke="url(#paint0_radial_14547_51793)" stroke-width="0.937685"/>
</g>
<rect x="46.9547" y="-39.862" width="531.766" height="531.766" rx="265.883" transform="rotate(9.27689 46.9547 -39.862)" stroke="url(#paint1_radial_14547_51793)" stroke-opacity="0.6" stroke-width="1.2338"/>
<g clip-path="url(#clip1_14547_51793)">
<g filter="url(#filter0_f_14547_51793)">
<ellipse cx="262.394" cy="140.708" rx="174.854" ry="34.8234" transform="rotate(-15.703 262.394 140.708)" fill="#1E113E"/>
</g>
<g filter="url(#filter1_f_14547_51793)">
<ellipse cx="256.626" cy="393.29" rx="174.854" ry="34.8234" transform="rotate(-16.2013 256.626 393.29)" fill="#130A29"/>
</g>
</g>
<rect x="122.923" y="121.829" width="287.154" height="287.154" rx="143.577" stroke="url(#paint2_radial_14547_51793)" stroke-width="0.66625"/>
<g filter="url(#filter2_f_14547_51793)">
<mask id="path-8-inside-1_14547_51793" fill="white">
<path fill-rule="evenodd" clipRule="evenodd" d="M266.045 176.062C260.37 176.062 256.286 179.647 252.807 182.702L252.762 182.741C249.273 185.804 246.217 188.39 243.279 188.835C240.374 189.275 234.692 186.313 229.231 183.419C226.501 181.972 223.816 180.598 220.868 180.16C217.919 179.723 214.274 180.921 212.398 183.929C209.683 188.283 210.872 193.453 213.356 197.728C215.84 202.002 219.675 206.012 223.691 209.617C226.987 212.577 230.428 215.251 233.341 217.376C230.099 218.911 227.832 222.223 227.832 226.018C227.832 229.405 229.637 232.406 232.329 234.104C222.636 240.652 214.579 250.968 208.48 262.586C200.612 277.575 196 294.832 196 309.784C196 329.108 204.424 341.058 217.404 347.207C230.384 353.356 247.453 354.358 266.045 354.358C284.636 354.358 301.705 353.356 314.685 347.207C327.666 341.058 336.089 329.108 336.089 309.784C336.089 294.832 331.471 277.575 323.603 262.586C317.503 250.967 309.445 240.649 299.751 234.102C302.441 232.404 304.244 229.404 304.244 226.018C304.244 222.225 301.98 218.915 298.741 217.379C301.653 215.253 305.095 212.578 308.392 209.617C312.408 206.012 316.243 202.002 318.727 197.728C321.211 193.453 322.401 188.283 319.685 183.929C317.809 180.921 314.164 179.723 311.215 180.16C308.267 180.598 305.582 181.972 302.852 183.419C297.391 186.313 291.709 189.275 288.804 188.835C285.866 188.39 282.81 185.804 279.321 182.741L279.265 182.692C275.788 179.64 271.713 176.062 266.045 176.062ZM268.839 273.683H268.777H259.905H259.904H254.629H247.896L247.477 274.304L243.222 280.605H247.896H254.327H254.583H256.453H256.459H259.323H259.331H261.867H268.711H268.839H268.886C268.876 280.647 268.866 280.688 268.856 280.729C268.85 280.751 268.845 280.772 268.839 280.794C268.698 281.343 268.52 281.867 268.306 282.366C268.199 282.616 268.083 282.86 267.957 283.098C267.657 283.666 267.304 284.199 266.899 284.697C266.797 284.824 266.691 284.948 266.583 285.07L266.581 285.072C265.686 286.08 264.6 286.945 263.323 287.668C263.237 287.716 263.15 287.764 263.063 287.811L263.062 287.812C261.692 288.551 260.143 289.11 258.415 289.492C257.957 289.592 257.489 289.681 257.012 289.756C256.264 289.875 255.492 289.963 254.697 290.02C253.962 290.073 253.206 290.099 252.43 290.099H245.559V297.021L247.877 299.514L250.526 302.363L272.999 326.535H285.433L279.637 320.363L276.591 317.12L265.103 304.887L259.466 298.885L257.012 296.272C257.247 296.272 257.48 296.27 257.712 296.265C258.453 296.251 259.176 296.213 259.881 296.152L259.885 296.152C261.849 295.982 263.672 295.632 265.356 295.102C265.979 294.906 266.58 294.691 267.16 294.457L267.167 294.454C267.422 294.351 267.673 294.244 267.92 294.134C269.344 293.496 270.631 292.735 271.784 291.851C272.457 291.335 273.081 290.782 273.656 290.192C274.628 289.197 275.461 288.098 276.155 286.894C276.845 285.698 277.392 284.433 277.797 283.098L277.798 283.095C277.831 282.986 277.863 282.876 277.895 282.765C278.093 282.063 278.253 281.342 278.375 280.603H278.569H280.436H284.218L288.471 274.304L288.893 273.68H284.22H284.218H280.228H278.585H278.375C278.324 273.342 278.267 273.01 278.204 272.686C278.109 272.196 277.999 271.723 277.876 271.266L277.856 271.19L277.855 271.188C277.613 270.305 277.319 269.483 276.972 268.723C276.761 268.26 276.532 267.813 276.285 267.382C275.767 266.479 275.171 265.648 274.496 264.89H275.018H278.375H284.22L284.641 264.265L285.008 263.722L288.894 257.967H284.22H277.534H274.496H266.879H255.741H254.629H247.898L243.643 264.268L243.223 264.89H247.896H247.898H254.584H254.629C258.4 264.89 261.435 265.578 263.735 266.956C263.906 267.059 264.073 267.165 264.236 267.275C264.288 267.311 264.34 267.346 264.392 267.382C265.799 268.363 266.903 269.545 267.706 270.928C267.757 271.015 267.806 271.102 267.854 271.19C268.096 271.637 268.309 272.104 268.491 272.591C268.623 272.944 268.739 273.308 268.839 273.683Z"/>
</mask>
<path fill-rule="evenodd" clipRule="evenodd" d="M266.045 176.062C260.37 176.062 256.286 179.647 252.807 182.702L252.762 182.741C249.273 185.804 246.217 188.39 243.279 188.835C240.374 189.275 234.692 186.313 229.231 183.419C226.501 181.972 223.816 180.598 220.868 180.16C217.919 179.723 214.274 180.921 212.398 183.929C209.683 188.283 210.872 193.453 213.356 197.728C215.84 202.002 219.675 206.012 223.691 209.617C226.987 212.577 230.428 215.251 233.341 217.376C230.099 218.911 227.832 222.223 227.832 226.018C227.832 229.405 229.637 232.406 232.329 234.104C222.636 240.652 214.579 250.968 208.48 262.586C200.612 277.575 196 294.832 196 309.784C196 329.108 204.424 341.058 217.404 347.207C230.384 353.356 247.453 354.358 266.045 354.358C284.636 354.358 301.705 353.356 314.685 347.207C327.666 341.058 336.089 329.108 336.089 309.784C336.089 294.832 331.471 277.575 323.603 262.586C317.503 250.967 309.445 240.649 299.751 234.102C302.441 232.404 304.244 229.404 304.244 226.018C304.244 222.225 301.98 218.915 298.741 217.379C301.653 215.253 305.095 212.578 308.392 209.617C312.408 206.012 316.243 202.002 318.727 197.728C321.211 193.453 322.401 188.283 319.685 183.929C317.809 180.921 314.164 179.723 311.215 180.16C308.267 180.598 305.582 181.972 302.852 183.419C297.391 186.313 291.709 189.275 288.804 188.835C285.866 188.39 282.81 185.804 279.321 182.741L279.265 182.692C275.788 179.64 271.713 176.062 266.045 176.062ZM268.839 273.683H268.777H259.905H259.904H254.629H247.896L247.477 274.304L243.222 280.605H247.896H254.327H254.583H256.453H256.459H259.323H259.331H261.867H268.711H268.839H268.886C268.876 280.647 268.866 280.688 268.856 280.729C268.85 280.751 268.845 280.772 268.839 280.794C268.698 281.343 268.52 281.867 268.306 282.366C268.199 282.616 268.083 282.86 267.957 283.098C267.657 283.666 267.304 284.199 266.899 284.697C266.797 284.824 266.691 284.948 266.583 285.07L266.581 285.072C265.686 286.08 264.6 286.945 263.323 287.668C263.237 287.716 263.15 287.764 263.063 287.811L263.062 287.812C261.692 288.551 260.143 289.11 258.415 289.492C257.957 289.592 257.489 289.681 257.012 289.756C256.264 289.875 255.492 289.963 254.697 290.02C253.962 290.073 253.206 290.099 252.43 290.099H245.559V297.021L247.877 299.514L250.526 302.363L272.999 326.535H285.433L279.637 320.363L276.591 317.12L265.103 304.887L259.466 298.885L257.012 296.272C257.247 296.272 257.48 296.27 257.712 296.265C258.453 296.251 259.176 296.213 259.881 296.152L259.885 296.152C261.849 295.982 263.672 295.632 265.356 295.102C265.979 294.906 266.58 294.691 267.16 294.457L267.167 294.454C267.422 294.351 267.673 294.244 267.92 294.134C269.344 293.496 270.631 292.735 271.784 291.851C272.457 291.335 273.081 290.782 273.656 290.192C274.628 289.197 275.461 288.098 276.155 286.894C276.845 285.698 277.392 284.433 277.797 283.098L277.798 283.095C277.831 282.986 277.863 282.876 277.895 282.765C278.093 282.063 278.253 281.342 278.375 280.603H278.569H280.436H284.218L288.471 274.304L288.893 273.68H284.22H284.218H280.228H278.585H278.375C278.324 273.342 278.267 273.01 278.204 272.686C278.109 272.196 277.999 271.723 277.876 271.266L277.856 271.19L277.855 271.188C277.613 270.305 277.319 269.483 276.972 268.723C276.761 268.26 276.532 267.813 276.285 267.382C275.767 266.479 275.171 265.648 274.496 264.89H275.018H278.375H284.22L284.641 264.265L285.008 263.722L288.894 257.967H284.22H277.534H274.496H266.879H255.741H254.629H247.898L243.643 264.268L243.223 264.89H247.896H247.898H254.584H254.629C258.4 264.89 261.435 265.578 263.735 266.956C263.906 267.059 264.073 267.165 264.236 267.275C264.288 267.311 264.34 267.346 264.392 267.382C265.799 268.363 266.903 269.545 267.706 270.928C267.757 271.015 267.806 271.102 267.854 271.19C268.096 271.637 268.309 272.104 268.491 272.591C268.623 272.944 268.739 273.308 268.839 273.683Z" fill="url(#paint3_linear_14547_51793)"/>
<path d="M252.807 182.702L250.915 180.546L250.914 180.546L252.807 182.702ZM252.762 182.741L254.654 184.897L254.654 184.897L252.762 182.741ZM243.279 188.835L243.708 191.671L243.708 191.671L243.279 188.835ZM229.231 183.419L227.888 185.953L227.888 185.953L229.231 183.419ZM220.868 180.16L220.447 182.998L220.447 182.998L220.868 180.16ZM212.398 183.929L209.964 182.411L209.964 182.411L212.398 183.929ZM223.691 209.617L225.607 207.483L225.607 207.483L223.691 209.617ZM233.341 217.376L234.569 219.969L238.931 217.903L235.032 215.059L233.341 217.376ZM232.329 234.104L233.935 236.481L237.575 234.022L233.859 231.678L232.329 234.104ZM208.48 262.586L211.02 263.919L211.02 263.919L208.48 262.586ZM217.404 347.207L216.176 349.799H216.176L217.404 347.207ZM314.685 347.207L315.913 349.799H315.913L314.685 347.207ZM323.603 262.586L321.063 263.919L323.603 262.586ZM299.751 234.102L298.22 231.676L294.506 234.021L298.145 236.479L299.751 234.102ZM298.741 217.379L297.05 215.062L293.155 217.904L297.512 219.97L298.741 217.379ZM308.392 209.617L306.476 207.483L308.392 209.617ZM318.727 197.728L321.207 199.169L321.207 199.169L318.727 197.728ZM319.685 183.929L322.119 182.411L322.119 182.411L319.685 183.929ZM311.215 180.16L311.636 182.998L311.636 182.998L311.215 180.16ZM302.852 183.419L304.195 185.953L304.195 185.953L302.852 183.419ZM288.804 188.835L288.375 191.671L288.375 191.671L288.804 188.835ZM279.321 182.741L277.429 184.897L277.429 184.897L279.321 182.741ZM279.265 182.692L281.157 180.536L281.157 180.536L279.265 182.692ZM268.839 273.683V276.551H272.576L271.61 272.942L268.839 273.683ZM247.896 273.683V270.814H246.372L245.519 272.078L247.896 273.683ZM247.477 274.304L249.854 275.91L249.854 275.91L247.477 274.304ZM243.222 280.605L240.845 279L237.824 283.473H243.222V280.605ZM268.886 280.605L271.676 281.274L272.524 277.737H268.886V280.605ZM268.856 280.729L271.638 281.428L271.638 281.428L268.856 280.729ZM268.839 280.794L271.617 281.509L271.617 281.509L268.839 280.794ZM268.306 282.366L270.943 283.497L270.943 283.497L268.306 282.366ZM267.957 283.098L270.494 284.437L270.494 284.437L267.957 283.098ZM266.899 284.697L264.674 282.888L264.674 282.888L266.899 284.697ZM266.583 285.07L268.726 286.976L268.728 286.974L266.583 285.07ZM266.581 285.072L264.438 283.166L264.436 283.168L266.581 285.072ZM263.323 287.668L264.735 290.165L264.737 290.164L263.323 287.668ZM263.063 287.811L261.702 285.287L261.701 285.287L263.063 287.811ZM263.062 287.812L264.424 290.337L264.425 290.336L263.062 287.812ZM258.415 289.492L259.031 292.293L259.033 292.293L258.415 289.492ZM257.012 289.756L256.563 286.923L256.563 286.923L257.012 289.756ZM254.697 290.02L254.902 292.881H254.902L254.697 290.02ZM245.559 290.099V287.231H242.69V290.099H245.559ZM245.559 297.021H242.69V298.148L243.458 298.974L245.559 297.021ZM247.877 299.514L245.776 301.467H245.776L247.877 299.514ZM250.526 302.363L248.425 304.316L250.526 302.363ZM272.999 326.535L270.898 328.488L271.749 329.403H272.999V326.535ZM285.433 326.535V329.403H292.062L287.524 324.571L285.433 326.535ZM279.637 320.363L277.546 322.326V322.326L279.637 320.363ZM276.591 317.12L278.682 315.156V315.156L276.591 317.12ZM265.103 304.887L263.012 306.85L265.103 304.887ZM259.466 298.885L261.557 296.922L259.466 298.885ZM257.012 296.272V293.403H250.383L254.921 298.235L257.012 296.272ZM257.712 296.265L257.655 293.397H257.655L257.712 296.265ZM259.881 296.152L259.634 293.294L259.634 293.294L259.881 296.152ZM259.885 296.152L260.131 299.009L260.132 299.009L259.885 296.152ZM265.356 295.102L264.495 292.366L264.495 292.366L265.356 295.102ZM267.16 294.457L268.234 297.117L268.236 297.116L267.16 294.457ZM267.167 294.454L266.092 291.795L266.092 291.795L267.167 294.454ZM267.92 294.134L266.748 291.516L266.748 291.516L267.92 294.134ZM271.784 291.851L273.53 294.127L273.531 294.126L271.784 291.851ZM273.656 290.192L275.709 292.196L273.656 290.192ZM276.155 286.894L278.64 288.327L278.64 288.327L276.155 286.894ZM277.797 283.098L275.054 282.258L275.052 282.265L277.797 283.098ZM277.798 283.095L280.541 283.935L280.543 283.927L277.798 283.095ZM277.895 282.765L280.655 283.547L280.655 283.547L277.895 282.765ZM278.375 280.603V277.734H275.938L275.544 280.139L278.375 280.603ZM284.218 280.603V283.471H285.743L286.596 282.208L284.218 280.603ZM288.471 274.304L286.094 272.699L286.094 272.699L288.471 274.304ZM288.893 273.68L291.27 275.286L294.291 270.812H288.893V273.68ZM278.375 273.68L275.538 274.106L275.904 276.549H278.375V273.68ZM278.204 272.686L275.388 273.233L275.388 273.233L278.204 272.686ZM277.876 271.266L280.646 270.519L280.644 270.514L277.876 271.266ZM277.856 271.19L280.624 270.438L280.622 270.432L277.856 271.19ZM277.855 271.188L275.089 271.946L275.089 271.946L277.855 271.188ZM276.972 268.723L274.362 269.913V269.913L276.972 268.723ZM276.285 267.382L278.773 265.955L278.773 265.955L276.285 267.382ZM274.496 264.89V262.021H268.107L272.353 266.796L274.496 264.89ZM284.22 264.89V267.758H285.744L286.597 266.495L284.22 264.89ZM284.641 264.265L287.018 265.871L287.018 265.871L284.641 264.265ZM285.008 263.722L282.631 262.117L282.631 262.117L285.008 263.722ZM288.894 257.967L291.271 259.572L294.292 255.099H288.894V257.967ZM247.898 257.967V255.099H246.373L245.52 256.362L247.898 257.967ZM243.643 264.268L241.266 262.663L243.643 264.268ZM243.223 264.89L240.846 263.284L237.825 267.758H243.223V264.89ZM263.735 266.956L265.209 264.496L265.209 264.496L263.735 266.956ZM264.236 267.275L265.842 264.899L265.842 264.899L264.236 267.275ZM264.392 267.382L262.751 269.735L262.751 269.735L264.392 267.382ZM267.706 270.928L265.226 272.368L265.226 272.368L267.706 270.928ZM267.854 271.19L265.333 272.56L265.333 272.56L267.854 271.19ZM268.491 272.591L265.804 273.595L268.491 272.591ZM254.699 184.857C258.306 181.691 261.608 178.931 266.045 178.931V173.194C259.132 173.194 254.267 177.603 250.915 180.546L254.699 184.857ZM254.654 184.897L254.699 184.857L250.914 180.546L250.87 180.586L254.654 184.897ZM243.708 191.671C245.811 191.353 247.737 190.312 249.446 189.128C251.17 187.935 252.926 186.414 254.654 184.897L250.87 180.585C249.109 182.131 247.592 183.435 246.181 184.412C244.755 185.398 243.684 185.873 242.85 185.999L243.708 191.671ZM227.888 185.953C230.597 187.389 233.493 188.914 236.093 190.017C237.396 190.571 238.697 191.05 239.919 191.361C241.102 191.662 242.433 191.864 243.708 191.671L242.85 185.999C242.673 186.026 242.204 186.023 241.333 185.801C240.503 185.59 239.497 185.231 238.335 184.737C236.002 183.746 233.326 182.343 230.575 180.884L227.888 185.953ZM220.447 182.998C222.838 183.352 225.109 184.481 227.888 185.953L230.575 180.884C227.893 179.463 224.794 177.843 221.288 177.323L220.447 182.998ZM214.832 185.447C216.001 183.573 218.422 182.698 220.447 182.998L221.288 177.323C217.416 176.749 212.547 178.27 209.964 182.411L214.832 185.447ZM215.836 196.286C213.568 192.384 212.949 188.466 214.832 185.447L209.964 182.411C206.416 188.1 208.175 194.522 210.876 199.169L215.836 196.286ZM225.607 207.483C221.666 203.944 218.094 200.173 215.836 196.286L210.876 199.169C213.585 203.832 217.685 208.08 221.774 211.752L225.607 207.483ZM235.032 215.059C232.17 212.971 228.81 210.359 225.607 207.483L221.774 211.752C225.164 214.795 228.687 217.531 231.651 219.693L235.032 215.059ZM230.7 226.018C230.7 223.387 232.277 221.053 234.569 219.969L232.114 214.784C227.921 216.769 224.964 221.058 224.964 226.018H230.7ZM233.859 231.678C231.952 230.475 230.7 228.365 230.7 226.018H224.964C224.964 230.445 227.322 234.337 230.799 236.53L233.859 231.678ZM211.02 263.919C216.982 252.563 224.76 242.679 233.935 236.481L230.723 231.727C220.513 238.625 212.177 249.373 205.941 261.253L211.02 263.919ZM198.868 309.784C198.868 295.363 203.335 278.56 211.02 263.919L205.941 261.253C197.89 276.59 193.132 294.301 193.132 309.784H198.868ZM218.632 344.614C212.59 341.753 207.694 337.588 204.29 331.953C200.88 326.308 198.868 319.025 198.868 309.784H193.132C193.132 319.867 195.332 328.22 199.379 334.919C203.432 341.627 209.237 346.512 216.176 349.799L218.632 344.614ZM266.045 351.49C247.412 351.49 230.958 350.453 218.632 344.614L216.176 349.799C229.81 356.258 247.494 357.226 266.045 357.226V351.49ZM313.457 344.614C301.132 350.453 284.677 351.49 266.045 351.49V357.226C284.595 357.226 302.279 356.258 315.913 349.799L313.457 344.614ZM333.221 309.784C333.221 319.025 331.21 326.308 327.8 331.953C324.395 337.588 319.499 341.753 313.457 344.614L315.913 349.799C322.852 346.512 328.658 341.627 332.71 334.919C336.757 328.22 338.958 319.867 338.958 309.784H333.221ZM321.063 263.919C328.749 278.561 333.221 295.363 333.221 309.784H338.958C338.958 294.3 334.193 276.589 326.142 261.253L321.063 263.919ZM298.145 236.479C307.321 242.676 315.101 252.562 321.063 263.919L326.142 261.253C319.906 249.372 311.569 238.622 301.356 231.725L298.145 236.479ZM301.376 226.018C301.376 228.364 300.125 230.474 298.22 231.676L301.282 236.527C304.757 234.334 307.113 230.443 307.113 226.018H301.376ZM297.512 219.97C299.801 221.056 301.376 223.389 301.376 226.018H307.113C307.113 221.061 304.158 216.773 299.97 214.787L297.512 219.97ZM306.476 207.483C303.272 210.36 299.911 212.974 297.05 215.062L300.432 219.696C303.395 217.533 306.918 214.796 310.309 211.752L306.476 207.483ZM316.247 196.286C313.989 200.173 310.417 203.944 306.476 207.483L310.309 211.752C314.398 208.08 318.498 203.832 321.207 199.169L316.247 196.286ZM317.251 185.447C319.134 188.466 318.515 192.384 316.247 196.286L321.207 199.169C323.908 194.522 325.667 188.1 322.119 182.411L317.251 185.447ZM311.636 182.998C313.661 182.698 316.082 183.573 317.251 185.447L322.119 182.411C319.537 178.27 314.667 176.749 310.795 177.323L311.636 182.998ZM304.195 185.953C306.974 184.481 309.245 183.352 311.636 182.998L310.795 177.323C307.289 177.843 304.19 179.463 301.508 180.884L304.195 185.953ZM288.375 191.671C289.651 191.864 290.981 191.662 292.164 191.361C293.386 191.051 294.687 190.571 295.991 190.017C298.59 188.914 301.486 187.389 304.195 185.953L301.508 180.884C298.757 182.343 296.081 183.746 293.748 184.737C292.586 185.231 291.581 185.59 290.75 185.801C289.879 186.023 289.41 186.026 289.234 185.999L288.375 191.671ZM277.429 184.897C279.157 186.414 280.913 187.935 282.637 189.128C284.346 190.312 286.272 191.353 288.375 191.671L289.234 185.999C288.399 185.873 287.328 185.398 285.902 184.412C284.491 183.435 282.974 182.131 281.213 180.585L277.429 184.897ZM277.373 184.848L277.429 184.897L281.213 180.586L281.157 180.536L277.373 184.848ZM266.045 178.931C270.475 178.931 273.769 181.684 277.373 184.848L281.157 180.536C277.807 177.595 272.951 173.194 266.045 173.194V178.931ZM268.777 276.551H268.839V270.814H268.777V276.551ZM259.905 276.551H268.777V270.814H259.905V276.551ZM259.904 276.551H259.905V270.814H259.904V276.551ZM254.629 276.551H259.904V270.814H254.629V276.551ZM247.896 276.551H254.629V270.814H247.896V276.551ZM249.854 275.91L250.274 275.288L245.519 272.078L245.099 272.699L249.854 275.91ZM245.599 282.21L249.854 275.91L245.099 272.699L240.845 279L245.599 282.21ZM247.896 277.737H243.222V283.473H247.896V277.737ZM254.327 277.737H247.896V283.473H254.327V277.737ZM254.583 277.737H254.327V283.473H254.583V277.737ZM256.453 277.737H254.583V283.473H256.453V277.737ZM256.459 277.737H256.453V283.473H256.459V277.737ZM259.323 277.737H256.459V283.473H259.323V277.737ZM259.331 277.737H259.323V283.473H259.331V277.737ZM261.867 277.737H259.331V283.473H261.867V277.737ZM268.711 277.737H261.867V283.473H268.711V277.737ZM268.839 277.737H268.711V283.473H268.839V277.737ZM268.886 277.737H268.839V283.473H268.886V277.737ZM271.638 281.428C271.651 281.377 271.663 281.325 271.676 281.274L266.097 279.936C266.089 279.968 266.082 279.999 266.074 280.03L271.638 281.428ZM271.617 281.509C271.624 281.482 271.631 281.455 271.638 281.428L266.074 280.03C266.07 280.046 266.066 280.063 266.061 280.08L271.617 281.509ZM270.943 283.497C271.217 282.857 271.441 282.194 271.617 281.509L266.061 280.079C265.955 280.492 265.824 280.877 265.67 281.236L270.943 283.497ZM270.494 284.437C270.656 284.13 270.805 283.817 270.943 283.497L265.67 281.236C265.593 281.415 265.51 281.59 265.421 281.758L270.494 284.437ZM269.125 286.507C269.649 285.863 270.105 285.172 270.494 284.437L265.421 281.758C265.208 282.16 264.96 282.536 264.674 282.888L269.125 286.507ZM268.728 286.974C268.864 286.821 268.996 286.665 269.125 286.507L264.674 282.888C264.597 282.982 264.518 283.075 264.437 283.166L268.728 286.974ZM268.724 286.978L268.726 286.976L264.439 283.164L264.438 283.166L268.724 286.978ZM264.737 290.164C266.263 289.299 267.603 288.241 268.726 286.976L264.436 283.168C263.77 283.918 262.937 284.59 261.91 285.172L264.737 290.164ZM264.424 290.336C264.528 290.28 264.632 290.223 264.735 290.165L261.912 285.171C261.843 285.21 261.773 285.248 261.702 285.287L264.424 290.336ZM264.425 290.336L264.425 290.336L261.701 285.287L261.7 285.287L264.425 290.336ZM259.033 292.293C260.985 291.862 262.789 291.218 264.424 290.337L261.701 285.287C260.594 285.884 259.301 286.359 257.796 286.691L259.033 292.293ZM257.461 292.589C257.993 292.505 258.516 292.406 259.031 292.293L257.798 286.69C257.397 286.779 256.985 286.856 256.563 286.923L257.461 292.589ZM254.902 292.881C255.775 292.818 256.628 292.722 257.462 292.589L256.563 286.923C255.9 287.029 255.21 287.107 254.492 287.159L254.902 292.881ZM252.43 292.968C253.271 292.968 254.095 292.939 254.902 292.881L254.492 287.159C253.828 287.207 253.141 287.231 252.43 287.231V292.968ZM245.559 292.968H252.43V287.231H245.559V292.968ZM248.427 297.021V290.099H242.69V297.021H248.427ZM249.978 297.561L247.659 295.068L243.458 298.974L245.776 301.467L249.978 297.561ZM252.627 300.41L249.978 297.561L245.776 301.467L248.425 304.316L252.627 300.41ZM275.099 324.581L252.627 300.41L248.425 304.316L270.898 328.488L275.099 324.581ZM285.433 323.666H272.999V329.403H285.433V323.666ZM277.546 322.326L283.342 328.498L287.524 324.571L281.728 318.399L277.546 322.326ZM274.5 319.083L277.546 322.326L281.728 318.399L278.682 315.156L274.5 319.083ZM263.012 306.85L274.5 319.083L278.682 315.156L267.194 302.923L263.012 306.85ZM257.375 300.849L263.012 306.85L267.194 302.923L261.557 296.922L257.375 300.849ZM254.921 298.235L257.375 300.849L261.557 296.922L259.103 294.308L254.921 298.235ZM257.655 293.397C257.443 293.401 257.229 293.403 257.012 293.403V299.14C257.265 299.14 257.517 299.138 257.768 299.133L257.655 293.397ZM259.634 293.294C258.995 293.349 258.336 293.384 257.655 293.397L257.768 299.133C258.569 299.117 259.356 299.076 260.127 299.01L259.634 293.294ZM259.639 293.294L259.634 293.294L260.127 299.01L260.131 299.009L259.639 293.294ZM264.495 292.366C263.032 292.826 261.417 293.14 259.638 293.294L260.132 299.009C262.28 298.823 264.312 298.438 266.217 297.838L264.495 292.366ZM266.086 291.797C265.579 292.002 265.049 292.192 264.495 292.366L266.216 297.838C266.908 297.621 267.581 297.38 268.234 297.117L266.086 291.797ZM266.092 291.795L266.085 291.798L268.236 297.116L268.242 297.114L266.092 291.795ZM266.748 291.516C266.534 291.612 266.315 291.705 266.092 291.795L268.242 297.114C268.529 296.998 268.812 296.877 269.092 296.752L266.748 291.516ZM270.038 289.575C269.075 290.314 267.982 290.963 266.748 291.516L269.092 296.752C270.706 296.029 272.188 295.156 273.53 294.127L270.038 289.575ZM271.604 288.189C271.126 288.678 270.605 289.14 270.038 289.576L273.531 294.126C274.308 293.53 275.035 292.886 275.709 292.196L271.604 288.189ZM273.671 285.46C273.096 286.457 272.408 287.365 271.604 288.189L275.709 292.196C276.847 291.03 277.826 289.739 278.64 288.327L273.671 285.46ZM275.052 282.265C274.71 283.393 274.25 284.457 273.671 285.46L278.64 288.327C279.44 286.94 280.074 285.473 280.542 283.93L275.052 282.265ZM275.055 282.255L275.054 282.258L280.54 283.938L280.541 283.935L275.055 282.255ZM275.135 281.984C275.108 282.077 275.081 282.17 275.053 282.263L280.543 283.927C280.581 283.801 280.618 283.674 280.655 283.547L275.135 281.984ZM275.544 280.139C275.44 280.774 275.303 281.389 275.135 281.984L280.655 283.547C280.884 282.737 281.067 281.91 281.205 281.066L275.544 280.139ZM278.569 277.734H278.375V283.471H278.569V277.734ZM280.436 277.734H278.569V283.471H280.436V277.734ZM284.218 277.734H280.436V283.471H284.218V277.734ZM286.094 272.699L281.841 278.997L286.596 282.208L290.848 275.91L286.094 272.699ZM286.515 272.075L286.094 272.699L290.848 275.91L291.27 275.286L286.515 272.075ZM284.22 276.549H288.893V270.812H284.22V276.549ZM284.218 276.549H284.22V270.812H284.218V276.549ZM280.228 276.549H284.218V270.812H280.228V276.549ZM278.585 276.549H280.228V270.812H278.585V276.549ZM278.375 276.549H278.585V270.812H278.375V276.549ZM275.388 273.233C275.443 273.516 275.493 273.807 275.538 274.106L281.211 273.255C281.155 272.877 281.091 272.505 281.019 272.138L275.388 273.233ZM275.107 272.012C275.211 272.4 275.305 272.807 275.388 273.233L281.019 272.138C280.912 271.585 280.788 271.046 280.646 270.519L275.107 272.012ZM275.088 271.942L275.108 272.018L280.644 270.514L280.624 270.438L275.088 271.942ZM275.089 271.946L275.089 271.949L280.622 270.432L280.621 270.429L275.089 271.946ZM274.362 269.913C274.64 270.521 274.883 271.197 275.089 271.946L280.621 270.43C280.343 269.413 279.998 268.445 279.582 267.533L274.362 269.913ZM273.796 268.809C273.998 269.161 274.187 269.529 274.362 269.913L279.582 267.533C279.335 266.991 279.065 266.465 278.773 265.955L273.796 268.809ZM272.353 266.796C272.892 267.402 273.374 268.072 273.796 268.809L278.773 265.955C278.16 264.886 277.449 263.893 276.64 262.983L272.353 266.796ZM275.018 262.021H274.496V267.758H275.018V262.021ZM278.375 262.021H275.018V267.758H278.375V262.021ZM284.22 262.021H278.375V267.758H284.22V262.021ZM282.264 262.66L281.842 263.284L286.597 266.495L287.018 265.871L282.264 262.66ZM282.631 262.117L282.264 262.66L287.018 265.871L287.385 265.327L282.631 262.117ZM286.517 256.362L282.631 262.117L287.385 265.327L291.271 259.572L286.517 256.362ZM284.22 260.836H288.894V255.099H284.22V260.836ZM277.534 260.836H284.22V255.099H277.534V260.836ZM274.496 260.836H277.534V255.099H274.496V260.836ZM266.879 260.836H274.496V255.099H266.879V260.836ZM255.741 260.836H266.879V255.099H255.741V260.836ZM254.629 260.836H255.741V255.099H254.629V260.836ZM247.898 260.836H254.629V255.099H247.898V260.836ZM246.02 265.873L250.275 259.572L245.52 256.362L241.266 262.663L246.02 265.873ZM245.601 266.495L246.02 265.873L241.266 262.663L240.846 263.284L245.601 266.495ZM247.896 262.021H243.223V267.758H247.896V262.021ZM247.898 262.021H247.896V267.758H247.898V262.021ZM254.584 262.021H247.898V267.758H254.584V262.021ZM254.629 262.021H254.584V267.758H254.629V262.021ZM265.209 264.496C262.318 262.763 258.718 262.021 254.629 262.021V267.758C258.081 267.758 260.552 268.393 262.261 269.417L265.209 264.496ZM265.842 264.899C265.635 264.759 265.424 264.625 265.209 264.496L262.261 269.417C262.388 269.493 262.51 269.571 262.63 269.652L265.842 264.899ZM266.032 265.029C265.969 264.985 265.906 264.942 265.842 264.899L262.629 269.652C262.67 269.679 262.711 269.707 262.751 269.735L266.032 265.029ZM270.187 269.488C269.159 267.717 267.757 266.232 266.032 265.029L262.751 269.735C263.84 270.494 264.648 271.372 265.226 272.368L270.187 269.488ZM270.374 269.821C270.313 269.709 270.251 269.598 270.187 269.488L265.226 272.368C265.262 272.431 265.298 272.495 265.333 272.56L270.374 269.821ZM271.178 271.587C270.95 270.977 270.682 270.388 270.374 269.821L265.333 272.56C265.511 272.886 265.668 273.231 265.804 273.595L271.178 271.587ZM271.61 272.942C271.487 272.481 271.343 272.029 271.178 271.587L265.804 273.595C265.903 273.86 265.991 274.136 266.068 274.424L271.61 272.942Z" fill="url(#paint4_linear_14547_51793)" mask="url(#path-8-inside-1_14547_51793)"/>
</g>
<mask id="path-10-inside-2_14547_51793" fill="white">
<path fill-rule="evenodd" clipRule="evenodd" d="M266.045 176.062C260.37 176.062 256.286 179.647 252.807 182.702L252.762 182.741C249.273 185.804 246.217 188.39 243.279 188.835C240.374 189.275 234.692 186.313 229.231 183.419C226.501 181.972 223.816 180.598 220.868 180.16C217.919 179.723 214.274 180.921 212.398 183.929C209.683 188.283 210.872 193.453 213.356 197.728C215.84 202.002 219.675 206.012 223.691 209.617C226.987 212.577 230.428 215.251 233.341 217.376C230.099 218.911 227.832 222.223 227.832 226.018C227.832 229.405 229.637 232.406 232.329 234.104C222.636 240.652 214.579 250.968 208.48 262.586C200.612 277.575 196 294.832 196 309.784C196 329.108 204.424 341.058 217.404 347.207C230.384 353.356 247.453 354.358 266.045 354.358C284.636 354.358 301.705 353.356 314.685 347.207C327.666 341.058 336.089 329.108 336.089 309.784C336.089 294.832 331.471 277.575 323.603 262.586C317.503 250.967 309.445 240.649 299.751 234.102C302.441 232.404 304.244 229.404 304.244 226.018C304.244 222.225 301.98 218.915 298.741 217.379C301.653 215.253 305.095 212.578 308.392 209.617C312.408 206.012 316.243 202.002 318.727 197.728C321.211 193.453 322.401 188.283 319.685 183.929C317.809 180.921 314.164 179.723 311.215 180.16C308.267 180.598 305.582 181.972 302.852 183.419C297.391 186.313 291.709 189.275 288.804 188.835C285.866 188.39 282.81 185.804 279.321 182.741L279.265 182.692C275.788 179.64 271.713 176.062 266.045 176.062ZM268.839 273.683H268.777H259.905H259.904H254.629H247.896L247.477 274.304L243.222 280.605H247.896H254.327H254.583H256.453H256.459H259.323H259.331H261.867H268.711H268.839H268.886C268.876 280.647 268.866 280.688 268.856 280.729C268.85 280.751 268.845 280.772 268.839 280.794C268.698 281.343 268.52 281.867 268.306 282.366C268.199 282.616 268.083 282.86 267.957 283.098C267.657 283.666 267.304 284.199 266.899 284.697C266.797 284.824 266.691 284.948 266.583 285.07L266.581 285.072C265.686 286.08 264.6 286.945 263.323 287.668C263.237 287.716 263.15 287.764 263.063 287.811L263.062 287.812C261.692 288.551 260.143 289.11 258.415 289.492C257.957 289.592 257.489 289.681 257.012 289.756C256.264 289.875 255.492 289.963 254.697 290.02C253.962 290.073 253.206 290.099 252.43 290.099H245.559V297.021L247.877 299.514L250.526 302.363L272.999 326.535H285.433L279.637 320.363L276.591 317.12L265.103 304.887L259.466 298.885L257.012 296.272C257.247 296.272 257.48 296.27 257.712 296.265C258.453 296.251 259.176 296.213 259.881 296.152L259.885 296.152C261.849 295.982 263.672 295.632 265.356 295.102C265.979 294.906 266.58 294.691 267.16 294.457L267.167 294.454C267.422 294.351 267.673 294.244 267.92 294.134C269.344 293.496 270.631 292.735 271.784 291.851C272.457 291.335 273.081 290.782 273.656 290.192C274.628 289.197 275.461 288.098 276.155 286.894C276.845 285.698 277.392 284.433 277.797 283.098L277.798 283.095C277.831 282.986 277.863 282.876 277.895 282.765C278.093 282.063 278.253 281.342 278.375 280.603H278.569H280.436H284.218L288.471 274.304L288.893 273.68H284.22H284.218H280.228H278.585H278.375C278.324 273.342 278.267 273.01 278.204 272.686C278.109 272.196 277.999 271.723 277.876 271.266L277.856 271.19L277.855 271.188C277.613 270.305 277.319 269.483 276.972 268.723C276.761 268.26 276.532 267.813 276.285 267.382C275.767 266.479 275.171 265.648 274.496 264.89H275.018H278.375H284.22L284.641 264.265L285.008 263.722L288.894 257.967H284.22H277.534H274.496H266.879H255.741H254.629H247.898L243.643 264.268L243.223 264.89H247.896H247.898H254.584H254.629C258.4 264.89 261.435 265.578 263.735 266.956C263.906 267.059 264.073 267.165 264.236 267.275C264.288 267.311 264.34 267.346 264.392 267.382C265.799 268.363 266.903 269.545 267.706 270.928C267.757 271.015 267.806 271.102 267.854 271.19C268.096 271.637 268.309 272.104 268.491 272.591C268.623 272.944 268.739 273.308 268.839 273.683Z"/>
</mask>
<path fill-rule="evenodd" clipRule="evenodd" d="M266.045 176.062C260.37 176.062 256.286 179.647 252.807 182.702L252.762 182.741C249.273 185.804 246.217 188.39 243.279 188.835C240.374 189.275 234.692 186.313 229.231 183.419C226.501 181.972 223.816 180.598 220.868 180.16C217.919 179.723 214.274 180.921 212.398 183.929C209.683 188.283 210.872 193.453 213.356 197.728C215.84 202.002 219.675 206.012 223.691 209.617C226.987 212.577 230.428 215.251 233.341 217.376C230.099 218.911 227.832 222.223 227.832 226.018C227.832 229.405 229.637 232.406 232.329 234.104C222.636 240.652 214.579 250.968 208.48 262.586C200.612 277.575 196 294.832 196 309.784C196 329.108 204.424 341.058 217.404 347.207C230.384 353.356 247.453 354.358 266.045 354.358C284.636 354.358 301.705 353.356 314.685 347.207C327.666 341.058 336.089 329.108 336.089 309.784C336.089 294.832 331.471 277.575 323.603 262.586C317.503 250.967 309.445 240.649 299.751 234.102C302.441 232.404 304.244 229.404 304.244 226.018C304.244 222.225 301.98 218.915 298.741 217.379C301.653 215.253 305.095 212.578 308.392 209.617C312.408 206.012 316.243 202.002 318.727 197.728C321.211 193.453 322.401 188.283 319.685 183.929C317.809 180.921 314.164 179.723 311.215 180.16C308.267 180.598 305.582 181.972 302.852 183.419C297.391 186.313 291.709 189.275 288.804 188.835C285.866 188.39 282.81 185.804 279.321 182.741L279.265 182.692C275.788 179.64 271.713 176.062 266.045 176.062ZM268.839 273.683H268.777H259.905H259.904H254.629H247.896L247.477 274.304L243.222 280.605H247.896H254.327H254.583H256.453H256.459H259.323H259.331H261.867H268.711H268.839H268.886C268.876 280.647 268.866 280.688 268.856 280.729C268.85 280.751 268.845 280.772 268.839 280.794C268.698 281.343 268.52 281.867 268.306 282.366C268.199 282.616 268.083 282.86 267.957 283.098C267.657 283.666 267.304 284.199 266.899 284.697C266.797 284.824 266.691 284.948 266.583 285.07L266.581 285.072C265.686 286.08 264.6 286.945 263.323 287.668C263.237 287.716 263.15 287.764 263.063 287.811L263.062 287.812C261.692 288.551 260.143 289.11 258.415 289.492C257.957 289.592 257.489 289.681 257.012 289.756C256.264 289.875 255.492 289.963 254.697 290.02C253.962 290.073 253.206 290.099 252.43 290.099H245.559V297.021L247.877 299.514L250.526 302.363L272.999 326.535H285.433L279.637 320.363L276.591 317.12L265.103 304.887L259.466 298.885L257.012 296.272C257.247 296.272 257.48 296.27 257.712 296.265C258.453 296.251 259.176 296.213 259.881 296.152L259.885 296.152C261.849 295.982 263.672 295.632 265.356 295.102C265.979 294.906 266.58 294.691 267.16 294.457L267.167 294.454C267.422 294.351 267.673 294.244 267.92 294.134C269.344 293.496 270.631 292.735 271.784 291.851C272.457 291.335 273.081 290.782 273.656 290.192C274.628 289.197 275.461 288.098 276.155 286.894C276.845 285.698 277.392 284.433 277.797 283.098L277.798 283.095C277.831 282.986 277.863 282.876 277.895 282.765C278.093 282.063 278.253 281.342 278.375 280.603H278.569H280.436H284.218L288.471 274.304L288.893 273.68H284.22H284.218H280.228H278.585H278.375C278.324 273.342 278.267 273.01 278.204 272.686C278.109 272.196 277.999 271.723 277.876 271.266L277.856 271.19L277.855 271.188C277.613 270.305 277.319 269.483 276.972 268.723C276.761 268.26 276.532 267.813 276.285 267.382C275.767 266.479 275.171 265.648 274.496 264.89H275.018H278.375H284.22L284.641 264.265L285.008 263.722L288.894 257.967H284.22H277.534H274.496H266.879H255.741H254.629H247.898L243.643 264.268L243.223 264.89H247.896H247.898H254.584H254.629C258.4 264.89 261.435 265.578 263.735 266.956C263.906 267.059 264.073 267.165 264.236 267.275C264.288 267.311 264.34 267.346 264.392 267.382C265.799 268.363 266.903 269.545 267.706 270.928C267.757 271.015 267.806 271.102 267.854 271.19C268.096 271.637 268.309 272.104 268.491 272.591C268.623 272.944 268.739 273.308 268.839 273.683Z" fill="url(#paint5_linear_14547_51793)"/>
<path d="M252.807 182.702L250.915 180.546L250.914 180.546L252.807 182.702ZM252.762 182.741L254.654 184.897L254.654 184.897L252.762 182.741ZM243.279 188.835L243.708 191.671L243.708 191.671L243.279 188.835ZM229.231 183.419L227.888 185.953L227.888 185.953L229.231 183.419ZM220.868 180.16L220.447 182.998L220.447 182.998L220.868 180.16ZM212.398 183.929L209.964 182.411L209.964 182.411L212.398 183.929ZM223.691 209.617L225.607 207.483L225.607 207.483L223.691 209.617ZM233.341 217.376L234.569 219.969L238.931 217.903L235.032 215.059L233.341 217.376ZM232.329 234.104L233.935 236.481L237.575 234.022L233.859 231.678L232.329 234.104ZM208.48 262.586L211.02 263.919L211.02 263.919L208.48 262.586ZM217.404 347.207L216.176 349.799H216.176L217.404 347.207ZM314.685 347.207L315.913 349.799H315.913L314.685 347.207ZM323.603 262.586L321.063 263.919L323.603 262.586ZM299.751 234.102L298.22 231.676L294.506 234.021L298.145 236.479L299.751 234.102ZM298.741 217.379L297.05 215.062L293.155 217.904L297.512 219.97L298.741 217.379ZM308.392 209.617L306.476 207.483L308.392 209.617ZM318.727 197.728L321.207 199.169L321.207 199.169L318.727 197.728ZM319.685 183.929L322.119 182.411L322.119 182.411L319.685 183.929ZM311.215 180.16L311.636 182.998L311.636 182.998L311.215 180.16ZM302.852 183.419L304.195 185.953L304.195 185.953L302.852 183.419ZM288.804 188.835L288.375 191.671L288.375 191.671L288.804 188.835ZM279.321 182.741L277.429 184.897L277.429 184.897L279.321 182.741ZM279.265 182.692L281.157 180.536L281.157 180.536L279.265 182.692ZM268.839 273.683V276.551H272.576L271.61 272.942L268.839 273.683ZM247.896 273.683V270.814H246.372L245.519 272.078L247.896 273.683ZM247.477 274.304L249.854 275.91L249.854 275.91L247.477 274.304ZM243.222 280.605L240.845 279L237.824 283.473H243.222V280.605ZM268.886 280.605L271.676 281.274L272.524 277.737H268.886V280.605ZM268.856 280.729L271.638 281.428L271.638 281.428L268.856 280.729ZM268.839 280.794L271.617 281.509L271.617 281.509L268.839 280.794ZM268.306 282.366L270.943 283.497L270.943 283.497L268.306 282.366ZM267.957 283.098L270.494 284.437L270.494 284.437L267.957 283.098ZM266.899 284.697L264.674 282.888L264.674 282.888L266.899 284.697ZM266.583 285.07L268.726 286.976L268.728 286.974L266.583 285.07ZM266.581 285.072L264.438 283.166L264.436 283.168L266.581 285.072ZM263.323 287.668L264.735 290.165L264.737 290.164L263.323 287.668ZM263.063 287.811L261.702 285.287L261.701 285.287L263.063 287.811ZM263.062 287.812L264.424 290.337L264.425 290.336L263.062 287.812ZM258.415 289.492L259.031 292.293L259.033 292.293L258.415 289.492ZM257.012 289.756L256.563 286.923L256.563 286.923L257.012 289.756ZM254.697 290.02L254.902 292.881H254.902L254.697 290.02ZM245.559 290.099V287.231H242.69V290.099H245.559ZM245.559 297.021H242.69V298.148L243.458 298.974L245.559 297.021ZM247.877 299.514L245.776 301.467H245.776L247.877 299.514ZM250.526 302.363L248.425 304.316L250.526 302.363ZM272.999 326.535L270.898 328.488L271.749 329.403H272.999V326.535ZM285.433 326.535V329.403H292.062L287.524 324.571L285.433 326.535ZM279.637 320.363L277.546 322.326V322.326L279.637 320.363ZM276.591 317.12L278.682 315.156V315.156L276.591 317.12ZM265.103 304.887L263.012 306.85L265.103 304.887ZM259.466 298.885L261.557 296.922L259.466 298.885ZM257.012 296.272V293.403H250.383L254.921 298.235L257.012 296.272ZM257.712 296.265L257.655 293.397H257.655L257.712 296.265ZM259.881 296.152L259.634 293.294L259.634 293.294L259.881 296.152ZM259.885 296.152L260.131 299.009L260.132 299.009L259.885 296.152ZM265.356 295.102L264.495 292.366L264.495 292.366L265.356 295.102ZM267.16 294.457L268.234 297.117L268.236 297.116L267.16 294.457ZM267.167 294.454L266.092 291.795L266.092 291.795L267.167 294.454ZM267.92 294.134L266.748 291.516L266.748 291.516L267.92 294.134ZM271.784 291.851L273.53 294.127L273.531 294.126L271.784 291.851ZM273.656 290.192L275.709 292.196L273.656 290.192ZM276.155 286.894L278.64 288.327L278.64 288.327L276.155 286.894ZM277.797 283.098L275.054 282.258L275.052 282.265L277.797 283.098ZM277.798 283.095L280.541 283.935L280.543 283.927L277.798 283.095ZM277.895 282.765L280.655 283.547L280.655 283.547L277.895 282.765ZM278.375 280.603V277.734H275.938L275.544 280.139L278.375 280.603ZM284.218 280.603V283.471H285.743L286.596 282.208L284.218 280.603ZM288.471 274.304L286.094 272.699L286.094 272.699L288.471 274.304ZM288.893 273.68L291.27 275.286L294.291 270.812H288.893V273.68ZM278.375 273.68L275.538 274.106L275.904 276.549H278.375V273.68ZM278.204 272.686L275.388 273.233L275.388 273.233L278.204 272.686ZM277.876 271.266L280.646 270.519L280.644 270.514L277.876 271.266ZM277.856 271.19L280.624 270.438L280.622 270.432L277.856 271.19ZM277.855 271.188L275.089 271.946L275.089 271.946L277.855 271.188ZM276.972 268.723L274.362 269.913V269.913L276.972 268.723ZM276.285 267.382L278.773 265.955L278.773 265.955L276.285 267.382ZM274.496 264.89V262.021H268.107L272.353 266.796L274.496 264.89ZM284.22 264.89V267.758H285.744L286.597 266.495L284.22 264.89ZM284.641 264.265L287.018 265.871L287.018 265.871L284.641 264.265ZM285.008 263.722L282.631 262.117L282.631 262.117L285.008 263.722ZM288.894 257.967L291.271 259.572L294.292 255.099H288.894V257.967ZM247.898 257.967V255.099H246.373L245.52 256.362L247.898 257.967ZM243.643 264.268L241.266 262.663L243.643 264.268ZM243.223 264.89L240.846 263.284L237.825 267.758H243.223V264.89ZM263.735 266.956L265.209 264.496L265.209 264.496L263.735 266.956ZM264.236 267.275L265.842 264.899L265.842 264.899L264.236 267.275ZM264.392 267.382L262.751 269.735L262.751 269.735L264.392 267.382ZM267.706 270.928L265.226 272.368L265.226 272.368L267.706 270.928ZM267.854 271.19L265.333 272.56L265.333 272.56L267.854 271.19ZM268.491 272.591L265.804 273.595L268.491 272.591ZM254.699 184.857C258.306 181.691 261.608 178.931 266.045 178.931V173.194C259.132 173.194 254.267 177.603 250.915 180.546L254.699 184.857ZM254.654 184.897L254.699 184.857L250.914 180.546L250.87 180.586L254.654 184.897ZM243.708 191.671C245.811 191.353 247.737 190.312 249.446 189.128C251.17 187.935 252.926 186.414 254.654 184.897L250.87 180.585C249.109 182.131 247.592 183.435 246.181 184.412C244.755 185.398 243.684 185.873 242.85 185.999L243.708 191.671ZM227.888 185.953C230.597 187.389 233.493 188.914 236.093 190.017C237.396 190.571 238.697 191.05 239.919 191.361C241.102 191.662 242.433 191.864 243.708 191.671L242.85 185.999C242.673 186.026 242.204 186.023 241.333 185.801C240.503 185.59 239.497 185.231 238.335 184.737C236.002 183.746 233.326 182.343 230.575 180.884L227.888 185.953ZM220.447 182.998C222.838 183.352 225.109 184.481 227.888 185.953L230.575 180.884C227.893 179.463 224.794 177.843 221.288 177.323L220.447 182.998ZM214.832 185.447C216.001 183.573 218.422 182.698 220.447 182.998L221.288 177.323C217.416 176.749 212.547 178.27 209.964 182.411L214.832 185.447ZM215.836 196.286C213.568 192.384 212.949 188.466 214.832 185.447L209.964 182.411C206.416 188.1 208.175 194.522 210.876 199.169L215.836 196.286ZM225.607 207.483C221.666 203.944 218.094 200.173 215.836 196.286L210.876 199.169C213.585 203.832 217.685 208.08 221.774 211.752L225.607 207.483ZM235.032 215.059C232.17 212.971 228.81 210.359 225.607 207.483L221.774 211.752C225.164 214.795 228.687 217.531 231.651 219.693L235.032 215.059ZM230.7 226.018C230.7 223.387 232.277 221.053 234.569 219.969L232.114 214.784C227.921 216.769 224.964 221.058 224.964 226.018H230.7ZM233.859 231.678C231.952 230.475 230.7 228.365 230.7 226.018H224.964C224.964 230.445 227.322 234.337 230.799 236.53L233.859 231.678ZM211.02 263.919C216.982 252.563 224.76 242.679 233.935 236.481L230.723 231.727C220.513 238.625 212.177 249.373 205.941 261.253L211.02 263.919ZM198.868 309.784C198.868 295.363 203.335 278.56 211.02 263.919L205.941 261.253C197.89 276.59 193.132 294.301 193.132 309.784H198.868ZM218.632 344.614C212.59 341.753 207.694 337.588 204.29 331.953C200.88 326.308 198.868 319.025 198.868 309.784H193.132C193.132 319.867 195.332 328.22 199.379 334.919C203.432 341.627 209.237 346.512 216.176 349.799L218.632 344.614ZM266.045 351.49C247.412 351.49 230.958 350.453 218.632 344.614L216.176 349.799C229.81 356.258 247.494 357.226 266.045 357.226V351.49ZM313.457 344.614C301.132 350.453 284.677 351.49 266.045 351.49V357.226C284.595 357.226 302.279 356.258 315.913 349.799L313.457 344.614ZM333.221 309.784C333.221 319.025 331.21 326.308 327.8 331.953C324.395 337.588 319.499 341.753 313.457 344.614L315.913 349.799C322.852 346.512 328.658 341.627 332.71 334.919C336.757 328.22 338.958 319.867 338.958 309.784H333.221ZM321.063 263.919C328.749 278.561 333.221 295.363 333.221 309.784H338.958C338.958 294.3 334.193 276.589 326.142 261.253L321.063 263.919ZM298.145 236.479C307.321 242.676 315.101 252.562 321.063 263.919L326.142 261.253C319.906 249.372 311.569 238.622 301.356 231.725L298.145 236.479ZM301.376 226.018C301.376 228.364 300.125 230.474 298.22 231.676L301.282 236.527C304.757 234.334 307.113 230.443 307.113 226.018H301.376ZM297.512 219.97C299.801 221.056 301.376 223.389 301.376 226.018H307.113C307.113 221.061 304.158 216.773 299.97 214.787L297.512 219.97ZM306.476 207.483C303.272 210.36 299.911 212.974 297.05 215.062L300.432 219.696C303.395 217.533 306.918 214.796 310.309 211.752L306.476 207.483ZM316.247 196.286C313.989 200.173 310.417 203.944 306.476 207.483L310.309 211.752C314.398 208.08 318.498 203.832 321.207 199.169L316.247 196.286ZM317.251 185.447C319.134 188.466 318.515 192.384 316.247 196.286L321.207 199.169C323.908 194.522 325.667 188.1 322.119 182.411L317.251 185.447ZM311.636 182.998C313.661 182.698 316.082 183.573 317.251 185.447L322.119 182.411C319.537 178.27 314.667 176.749 310.795 177.323L311.636 182.998ZM304.195 185.953C306.974 184.481 309.245 183.352 311.636 182.998L310.795 177.323C307.289 177.843 304.19 179.463 301.508 180.884L304.195 185.953ZM288.375 191.671C289.651 191.864 290.981 191.662 292.164 191.361C293.386 191.051 294.687 190.571 295.991 190.017C298.59 188.914 301.486 187.389 304.195 185.953L301.508 180.884C298.757 182.343 296.081 183.746 293.748 184.737C292.586 185.231 291.581 185.59 290.75 185.801C289.879 186.023 289.41 186.026 289.234 185.999L288.375 191.671ZM277.429 184.897C279.157 186.414 280.913 187.935 282.637 189.128C284.346 190.312 286.272 191.353 288.375 191.671L289.234 185.999C288.399 185.873 287.328 185.398 285.902 184.412C284.491 183.435 282.974 182.131 281.213 180.585L277.429 184.897ZM277.373 184.848L277.429 184.897L281.213 180.586L281.157 180.536L277.373 184.848ZM266.045 178.931C270.475 178.931 273.769 181.684 277.373 184.848L281.157 180.536C277.807 177.595 272.951 173.194 266.045 173.194V178.931ZM268.777 276.551H268.839V270.814H268.777V276.551ZM259.905 276.551H268.777V270.814H259.905V276.551ZM259.904 276.551H259.905V270.814H259.904V276.551ZM254.629 276.551H259.904V270.814H254.629V276.551ZM247.896 276.551H254.629V270.814H247.896V276.551ZM249.854 275.91L250.274 275.288L245.519 272.078L245.099 272.699L249.854 275.91ZM245.599 282.21L249.854 275.91L245.099 272.699L240.845 279L245.599 282.21ZM247.896 277.737H243.222V283.473H247.896V277.737ZM254.327 277.737H247.896V283.473H254.327V277.737ZM254.583 277.737H254.327V283.473H254.583V277.737ZM256.453 277.737H254.583V283.473H256.453V277.737ZM256.459 277.737H256.453V283.473H256.459V277.737ZM259.323 277.737H256.459V283.473H259.323V277.737ZM259.331 277.737H259.323V283.473H259.331V277.737ZM261.867 277.737H259.331V283.473H261.867V277.737ZM268.711 277.737H261.867V283.473H268.711V277.737ZM268.839 277.737H268.711V283.473H268.839V277.737ZM268.886 277.737H268.839V283.473H268.886V277.737ZM271.638 281.428C271.651 281.377 271.663 281.325 271.676 281.274L266.097 279.936C266.089 279.968 266.082 279.999 266.074 280.03L271.638 281.428ZM271.617 281.509C271.624 281.482 271.631 281.455 271.638 281.428L266.074 280.03C266.07 280.046 266.066 280.063 266.061 280.08L271.617 281.509ZM270.943 283.497C271.217 282.857 271.441 282.194 271.617 281.509L266.061 280.079C265.955 280.492 265.824 280.877 265.67 281.236L270.943 283.497ZM270.494 284.437C270.656 284.13 270.805 283.817 270.943 283.497L265.67 281.236C265.593 281.415 265.51 281.59 265.421 281.758L270.494 284.437ZM269.125 286.507C269.649 285.863 270.105 285.172 270.494 284.437L265.421 281.758C265.208 282.16 264.96 282.536 264.674 282.888L269.125 286.507ZM268.728 286.974C268.864 286.821 268.996 286.665 269.125 286.507L264.674 282.888C264.597 282.982 264.518 283.075 264.437 283.166L268.728 286.974ZM268.724 286.978L268.726 286.976L264.439 283.164L264.438 283.166L268.724 286.978ZM264.737 290.164C266.263 289.299 267.603 288.241 268.726 286.976L264.436 283.168C263.77 283.918 262.937 284.59 261.91 285.172L264.737 290.164ZM264.424 290.336C264.528 290.28 264.632 290.223 264.735 290.165L261.912 285.171C261.843 285.21 261.773 285.248 261.702 285.287L264.424 290.336ZM264.425 290.336L264.425 290.336L261.701 285.287L261.7 285.287L264.425 290.336ZM259.033 292.293C260.985 291.862 262.789 291.218 264.424 290.337L261.701 285.287C260.594 285.884 259.301 286.359 257.796 286.691L259.033 292.293ZM257.461 292.589C257.993 292.505 258.516 292.406 259.031 292.293L257.798 286.69C257.397 286.779 256.985 286.856 256.563 286.923L257.461 292.589ZM254.902 292.881C255.775 292.818 256.628 292.722 257.462 292.589L256.563 286.923C255.9 287.029 255.21 287.107 254.492 287.159L254.902 292.881ZM252.43 292.968C253.271 292.968 254.095 292.939 254.902 292.881L254.492 287.159C253.828 287.207 253.141 287.231 252.43 287.231V292.968ZM245.559 292.968H252.43V287.231H245.559V292.968ZM248.427 297.021V290.099H242.69V297.021H248.427ZM249.978 297.561L247.659 295.068L243.458 298.974L245.776 301.467L249.978 297.561ZM252.627 300.41L249.978 297.561L245.776 301.467L248.425 304.316L252.627 300.41ZM275.099 324.581L252.627 300.41L248.425 304.316L270.898 328.488L275.099 324.581ZM285.433 323.666H272.999V329.403H285.433V323.666ZM277.546 322.326L283.342 328.498L287.524 324.571L281.728 318.399L277.546 322.326ZM274.5 319.083L277.546 322.326L281.728 318.399L278.682 315.156L274.5 319.083ZM263.012 306.85L274.5 319.083L278.682 315.156L267.194 302.923L263.012 306.85ZM257.375 300.849L263.012 306.85L267.194 302.923L261.557 296.922L257.375 300.849ZM254.921 298.235L257.375 300.849L261.557 296.922L259.103 294.308L254.921 298.235ZM257.655 293.397C257.443 293.401 257.229 293.403 257.012 293.403V299.14C257.265 299.14 257.517 299.138 257.768 299.133L257.655 293.397ZM259.634 293.294C258.995 293.349 258.336 293.384 257.655 293.397L257.768 299.133C258.569 299.117 259.356 299.076 260.127 299.01L259.634 293.294ZM259.639 293.294L259.634 293.294L260.127 299.01L260.131 299.009L259.639 293.294ZM264.495 292.366C263.032 292.826 261.417 293.14 259.638 293.294L260.132 299.009C262.28 298.823 264.312 298.438 266.217 297.838L264.495 292.366ZM266.086 291.797C265.579 292.002 265.049 292.192 264.495 292.366L266.216 297.838C266.908 297.621 267.581 297.38 268.234 297.117L266.086 291.797ZM266.092 291.795L266.085 291.798L268.236 297.116L268.242 297.114L266.092 291.795ZM266.748 291.516C266.534 291.612 266.315 291.705 266.092 291.795L268.242 297.114C268.529 296.998 268.812 296.877 269.092 296.752L266.748 291.516ZM270.038 289.575C269.075 290.314 267.982 290.963 266.748 291.516L269.092 296.752C270.706 296.029 272.188 295.156 273.53 294.127L270.038 289.575ZM271.604 288.189C271.126 288.678 270.605 289.14 270.038 289.576L273.531 294.126C274.308 293.53 275.035 292.886 275.709 292.196L271.604 288.189ZM273.671 285.46C273.096 286.457 272.408 287.365 271.604 288.189L275.709 292.196C276.847 291.03 277.826 289.739 278.64 288.327L273.671 285.46ZM275.052 282.265C274.71 283.393 274.25 284.457 273.671 285.46L278.64 288.327C279.44 286.94 280.074 285.473 280.542 283.93L275.052 282.265ZM275.055 282.255L275.054 282.258L280.54 283.938L280.541 283.935L275.055 282.255ZM275.135 281.984C275.108 282.077 275.081 282.17 275.053 282.263L280.543 283.927C280.581 283.801 280.618 283.674 280.655 283.547L275.135 281.984ZM275.544 280.139C275.44 280.774 275.303 281.389 275.135 281.984L280.655 283.547C280.884 282.737 281.067 281.91 281.205 281.066L275.544 280.139ZM278.569 277.734H278.375V283.471H278.569V277.734ZM280.436 277.734H278.569V283.471H280.436V277.734ZM284.218 277.734H280.436V283.471H284.218V277.734ZM286.094 272.699L281.841 278.997L286.596 282.208L290.848 275.91L286.094 272.699ZM286.515 272.075L286.094 272.699L290.848 275.91L291.27 275.286L286.515 272.075ZM284.22 276.549H288.893V270.812H284.22V276.549ZM284.218 276.549H284.22V270.812H284.218V276.549ZM280.228 276.549H284.218V270.812H280.228V276.549ZM278.585 276.549H280.228V270.812H278.585V276.549ZM278.375 276.549H278.585V270.812H278.375V276.549ZM275.388 273.233C275.443 273.516 275.493 273.807 275.538 274.106L281.211 273.255C281.155 272.877 281.091 272.505 281.019 272.138L275.388 273.233ZM275.107 272.012C275.211 272.4 275.305 272.807 275.388 273.233L281.019 272.138C280.912 271.585 280.788 271.046 280.646 270.519L275.107 272.012ZM275.088 271.942L275.108 272.018L280.644 270.514L280.624 270.438L275.088 271.942ZM275.089 271.946L275.089 271.949L280.622 270.432L280.621 270.429L275.089 271.946ZM274.362 269.913C274.64 270.521 274.883 271.197 275.089 271.946L280.621 270.43C280.343 269.413 279.998 268.445 279.582 267.533L274.362 269.913ZM273.796 268.809C273.998 269.161 274.187 269.529 274.362 269.913L279.582 267.533C279.335 266.991 279.065 266.465 278.773 265.955L273.796 268.809ZM272.353 266.796C272.892 267.402 273.374 268.072 273.796 268.809L278.773 265.955C278.16 264.886 277.449 263.893 276.64 262.983L272.353 266.796ZM275.018 262.021H274.496V267.758H275.018V262.021ZM278.375 262.021H275.018V267.758H278.375V262.021ZM284.22 262.021H278.375V267.758H284.22V262.021ZM282.264 262.66L281.842 263.284L286.597 266.495L287.018 265.871L282.264 262.66ZM282.631 262.117L282.264 262.66L287.018 265.871L287.385 265.327L282.631 262.117ZM286.517 256.362L282.631 262.117L287.385 265.327L291.271 259.572L286.517 256.362ZM284.22 260.836H288.894V255.099H284.22V260.836ZM277.534 260.836H284.22V255.099H277.534V260.836ZM274.496 260.836H277.534V255.099H274.496V260.836ZM266.879 260.836H274.496V255.099H266.879V260.836ZM255.741 260.836H266.879V255.099H255.741V260.836ZM254.629 260.836H255.741V255.099H254.629V260.836ZM247.898 260.836H254.629V255.099H247.898V260.836ZM246.02 265.873L250.275 259.572L245.52 256.362L241.266 262.663L246.02 265.873ZM245.601 266.495L246.02 265.873L241.266 262.663L240.846 263.284L245.601 266.495ZM247.896 262.021H243.223V267.758H247.896V262.021ZM247.898 262.021H247.896V267.758H247.898V262.021ZM254.584 262.021H247.898V267.758H254.584V262.021ZM254.629 262.021H254.584V267.758H254.629V262.021ZM265.209 264.496C262.318 262.763 258.718 262.021 254.629 262.021V267.758C258.081 267.758 260.552 268.393 262.261 269.417L265.209 264.496ZM265.842 264.899C265.635 264.759 265.424 264.625 265.209 264.496L262.261 269.417C262.388 269.493 262.51 269.571 262.63 269.652L265.842 264.899ZM266.032 265.029C265.969 264.985 265.906 264.942 265.842 264.899L262.629 269.652C262.67 269.679 262.711 269.707 262.751 269.735L266.032 265.029ZM270.187 269.488C269.159 267.717 267.757 266.232 266.032 265.029L262.751 269.735C263.84 270.494 264.648 271.372 265.226 272.368L270.187 269.488ZM270.374 269.821C270.313 269.709 270.251 269.598 270.187 269.488L265.226 272.368C265.262 272.431 265.298 272.495 265.333 272.56L270.374 269.821ZM271.178 271.587C270.95 270.977 270.682 270.388 270.374 269.821L265.333 272.56C265.511 272.886 265.668 273.231 265.804 273.595L271.178 271.587ZM271.61 272.942C271.487 272.481 271.343 272.029 271.178 271.587L265.804 273.595C265.903 273.86 265.991 274.136 266.068 274.424L271.61 272.942Z" fill="url(#paint6_linear_14547_51793)" mask="url(#path-10-inside-2_14547_51793)"/>
</g>
<defs>
<filter id="filter0_f_14547_51793" x="65.7969" y="54.708" width="393.191" height="172" filterUnits="userSpaceOnUse" color-interpolation-filters="sRGB">
<feFlood flood-opacity="0" result="BackgroundImageFix"/>
<feBlend mode="normal" in="SourceGraphic" in2="BackgroundImageFix" result="shape"/>
<feGaussianBlur stdDeviation="14" result="effect1_foregroundBlur_14547_51793"/>
</filter>
<filter id="filter1_f_14547_51793" x="60.4297" y="306.137" width="392.391" height="174.306" filterUnits="userSpaceOnUse" color-interpolation-filters="sRGB">
<feFlood flood-opacity="0" result="BackgroundImageFix"/>
<feBlend mode="normal" in="SourceGraphic" in2="BackgroundImageFix" result="shape"/>
<feGaussianBlur stdDeviation="14" result="effect1_foregroundBlur_14547_51793"/>
</filter>
<filter id="filter2_f_14547_51793" x="-0.417282" y="-20.3548" width="532.924" height="571.13" filterUnits="userSpaceOnUse" color-interpolation-filters="sRGB">
<feFlood flood-opacity="0" result="BackgroundImageFix"/>
<feBlend mode="normal" in="SourceGraphic" in2="BackgroundImageFix" result="shape"/>
<feGaussianBlur stdDeviation="98.2086" result="effect1_foregroundBlur_14547_51793"/>
</filter>
<radialGradient id="paint0_radial_14547_51793" cx="0" cy="0" r="1" gradientUnits="userSpaceOnUse" gradientTransform="translate(289.806 224.971) rotate(-43.9391) scale(273.002 189.309)">
<stop stop-color="white"/>
<stop offset="1" stop-color="#130A29"/>
</radialGradient>
<radialGradient id="paint1_radial_14547_51793" cx="0" cy="0" r="1" gradientUnits="userSpaceOnUse" gradientTransform="translate(301.972 208.686) rotate(-43.9391) scale(359.214 249.091)">
<stop stop-color="white"/>
<stop offset="1" stop-color="#130A29"/>
</radialGradient>
<radialGradient id="paint2_radial_14547_51793" cx="0" cy="0" r="1" gradientUnits="userSpaceOnUse" gradientTransform="translate(260.574 256.094) rotate(-43.9391) scale(193.975 134.509)">
<stop stop-color="white"/>
<stop offset="1" stop-color="#592EBF"/>
</radialGradient>
<linearGradient id="paint3_linear_14547_51793" x1="268.3" y1="162.784" x2="273.235" y2="352.623" gradientUnits="userSpaceOnUse">
<stop stop-color="#8146F6"/>
<stop offset="1" stop-color="#C5AAFA"/>
</linearGradient>
<linearGradient id="paint4_linear_14547_51793" x1="265.939" y1="376.572" x2="294.974" y2="175.125" gradientUnits="userSpaceOnUse">
<stop stop-color="#20143C"/>
<stop offset="0.149541" stop-color="#251745"/>
<stop offset="1" stop-color="white"/>
</linearGradient>
<linearGradient id="paint5_linear_14547_51793" x1="268.3" y1="162.784" x2="273.235" y2="352.623" gradientUnits="userSpaceOnUse">
<stop stop-color="#8146F6"/>
<stop offset="1" stop-color="#C5AAFA"/>
</linearGradient>
<linearGradient id="paint6_linear_14547_51793" x1="265.939" y1="376.572" x2="294.974" y2="175.125" gradientUnits="userSpaceOnUse">
<stop stop-color="#20143C"/>
<stop offset="0.149541" stop-color="#251745"/>
<stop offset="1" stop-color="white"/>
</linearGradient>
<clipPath id="clip0_14547_51793">
<rect width="533" height="530.688" fill="white" transform="translate(0 0.0625)"/>
</clipPath>
<clipPath id="clip1_14547_51793">
<rect x="122.59" y="121.496" width="287.82" height="287.82" rx="143.91" fill="white"/>
</clipPath>
</defs>
</svg>
