<svg width="533" height="531" viewBox="0 0 533 531" fill="none" xmlns="http://www.w3.org/2000/svg">
<g clip-path="url(#clip0_14547_46818)">
<g opacity="0.6">
<rect x="96.0011" y="36.0057" width="404.142" height="404.142" rx="202.071" transform="rotate(8.37168 96.0011 36.0057)" stroke="url(#paint0_radial_14547_46818)" stroke-width="0.937685"/>
</g>
<rect x="46.9547" y="-39.9245" width="531.766" height="531.766" rx="265.883" transform="rotate(9.27689 46.9547 -39.9245)" stroke="url(#paint1_radial_14547_46818)" stroke-opacity="0.6" stroke-width="1.2338"/>
<g clip-path="url(#clip1_14547_46818)">
<g filter="url(#filter0_f_14547_46818)">
<ellipse cx="262.394" cy="140.646" rx="174.854" ry="34.8234" transform="rotate(-15.703 262.394 140.646)" fill="#1E113E"/>
</g>
<g filter="url(#filter1_f_14547_46818)">
<ellipse cx="256.626" cy="393.227" rx="174.854" ry="34.8234" transform="rotate(-16.2013 256.626 393.227)" fill="#130A29"/>
</g>
</g>
<rect x="122.923" y="121.767" width="287.154" height="287.154" rx="143.577" stroke="url(#paint2_radial_14547_46818)" stroke-width="0.66625"/>
<g filter="url(#filter2_f_14547_46818)">
<mask id="path-8-inside-1_14547_46818" fill="white">
<path fill-rule="evenodd" clip-rule="evenodd" d="M277.049 183.634C269.763 175.985 257.561 175.985 250.274 183.634L244.181 190.03C240.194 194.214 234.48 196.294 228.736 195.651L219.957 194.668C209.459 193.493 200.112 201.336 199.446 211.879L198.89 220.695C198.526 226.463 195.485 231.73 190.672 234.929L183.315 239.819C174.518 245.667 172.399 257.684 178.666 266.187L183.906 273.299C187.335 277.951 188.391 283.94 186.76 289.485L184.268 297.96C181.288 308.094 187.389 318.662 197.656 321.148L206.241 323.227C211.859 324.587 216.517 328.496 218.832 333.792L222.37 341.886C226.601 351.565 238.068 355.738 247.531 351.043L255.444 347.117C260.621 344.548 266.702 344.548 271.88 347.117L279.793 351.043C289.256 355.738 300.722 351.565 304.953 341.886L308.492 333.792C310.807 328.496 315.465 324.587 321.082 323.227L329.668 321.148C339.935 318.662 346.036 308.094 343.056 297.96L340.563 289.485C338.932 283.94 339.988 277.951 343.417 273.299L348.658 266.187C354.925 257.684 352.806 245.667 344.008 239.819L336.652 234.929C331.838 231.73 328.798 226.463 328.434 220.695L327.877 211.879C327.212 201.336 317.864 193.493 307.366 194.668L298.587 195.651C292.843 196.294 287.129 194.214 283.142 190.03L277.049 183.634ZM299.723 249.983C301.031 251.291 301.765 253.064 301.765 254.913L301.765 261.885C301.765 262.792 301.591 263.629 301.277 264.43L290.749 289.007C289.703 291.517 287.228 293.26 284.335 293.26L252.96 293.26C251.111 293.26 249.338 292.526 248.03 291.218C246.723 289.91 245.988 288.137 245.988 286.288L245.988 251.427C245.988 249.51 246.755 247.767 248.045 246.477L270.983 223.539L274.679 227.199C275.62 228.14 276.212 229.465 276.212 230.894C276.212 231.278 276.178 231.661 276.108 232.01L272.761 247.941L294.793 247.941C296.642 247.941 298.416 248.676 299.723 249.983ZM239.016 293.26L225.072 293.26L225.072 251.427L239.016 251.427L239.016 293.26Z"/>
</mask>
<path fill-rule="evenodd" clip-rule="evenodd" d="M277.049 183.634C269.763 175.985 257.561 175.985 250.274 183.634L244.181 190.03C240.194 194.214 234.48 196.294 228.736 195.651L219.957 194.668C209.459 193.493 200.112 201.336 199.446 211.879L198.89 220.695C198.526 226.463 195.485 231.73 190.672 234.929L183.315 239.819C174.518 245.667 172.399 257.684 178.666 266.187L183.906 273.299C187.335 277.951 188.391 283.94 186.76 289.485L184.268 297.96C181.288 308.094 187.389 318.662 197.656 321.148L206.241 323.227C211.859 324.587 216.517 328.496 218.832 333.792L222.37 341.886C226.601 351.565 238.068 355.738 247.531 351.043L255.444 347.117C260.621 344.548 266.702 344.548 271.88 347.117L279.793 351.043C289.256 355.738 300.722 351.565 304.953 341.886L308.492 333.792C310.807 328.496 315.465 324.587 321.082 323.227L329.668 321.148C339.935 318.662 346.036 308.094 343.056 297.96L340.563 289.485C338.932 283.94 339.988 277.951 343.417 273.299L348.658 266.187C354.925 257.684 352.806 245.667 344.008 239.819L336.652 234.929C331.838 231.73 328.798 226.463 328.434 220.695L327.877 211.879C327.212 201.336 317.864 193.493 307.366 194.668L298.587 195.651C292.843 196.294 287.129 194.214 283.142 190.03L277.049 183.634ZM299.723 249.983C301.031 251.291 301.765 253.064 301.765 254.913L301.765 261.885C301.765 262.792 301.591 263.629 301.277 264.43L290.749 289.007C289.703 291.517 287.228 293.26 284.335 293.26L252.96 293.26C251.111 293.26 249.338 292.526 248.03 291.218C246.723 289.91 245.988 288.137 245.988 286.288L245.988 251.427C245.988 249.51 246.755 247.767 248.045 246.477L270.983 223.539L274.679 227.199C275.62 228.14 276.212 229.465 276.212 230.894C276.212 231.278 276.178 231.661 276.108 232.01L272.761 247.941L294.793 247.941C296.642 247.941 298.416 248.676 299.723 249.983ZM239.016 293.26L225.072 293.26L225.072 251.427L239.016 251.427L239.016 293.26Z" fill="url(#paint3_linear_14547_46818)"/>
<path d="M250.274 183.634L248.624 182.062L250.274 183.634ZM277.049 183.634L275.399 185.206L277.049 183.634ZM244.181 190.03L242.531 188.457L244.181 190.03ZM228.736 195.651L228.483 197.916L228.736 195.651ZM219.957 194.668L220.211 192.403L219.957 194.668ZM199.446 211.879L201.721 212.023L199.446 211.879ZM198.89 220.695L196.615 220.551V220.551L198.89 220.695ZM190.672 234.929L189.41 233.031L189.41 233.031L190.672 234.929ZM183.315 239.819L182.054 237.921L183.315 239.819ZM178.666 266.187L176.831 267.54H176.831L178.666 266.187ZM183.906 273.299L185.741 271.946H185.741L183.906 273.299ZM186.76 289.485L184.574 288.842L186.76 289.485ZM184.268 297.96L182.082 297.317L184.268 297.96ZM197.656 321.148L198.192 318.933H198.192L197.656 321.148ZM206.241 323.227L205.705 325.442H205.705L206.241 323.227ZM218.832 333.792L216.744 334.704L218.832 333.792ZM222.37 341.886L224.458 340.973L222.37 341.886ZM247.531 351.043L248.544 353.085L247.531 351.043ZM255.444 347.117L256.457 349.159L255.444 347.117ZM271.88 347.117L270.867 349.159L271.88 347.117ZM279.793 351.043L280.806 349.002L279.793 351.043ZM304.953 341.886L302.865 340.973L304.953 341.886ZM308.492 333.792L306.403 332.879L308.492 333.792ZM321.082 323.227L321.619 325.442L321.082 323.227ZM329.668 321.148L329.132 318.933L329.668 321.148ZM343.056 297.96L340.869 298.603L343.056 297.96ZM340.563 289.485L342.75 288.842L340.563 289.485ZM343.417 273.299L345.252 274.651L343.417 273.299ZM348.658 266.187L346.823 264.835L348.658 266.187ZM344.008 239.819L345.27 237.921L344.008 239.819ZM336.652 234.929L337.913 233.031V233.031L336.652 234.929ZM328.434 220.695L326.159 220.839L328.434 220.695ZM327.877 211.879L330.152 211.735V211.735L327.877 211.879ZM307.366 194.668L307.113 192.403L307.366 194.668ZM298.587 195.651L298.841 197.916L298.587 195.651ZM283.142 190.03L284.793 188.457L283.142 190.03ZM299.723 249.983L301.335 248.372L301.335 248.372L299.723 249.983ZM301.277 264.43L303.372 265.328L303.386 265.295L303.4 265.261L301.277 264.43ZM290.749 289.007L288.654 288.11L288.65 288.12L288.645 288.13L290.749 289.007ZM248.03 291.218L249.642 289.606L249.642 289.606L248.03 291.218ZM248.045 246.477L246.433 244.865H246.433L248.045 246.477ZM270.983 223.539L272.587 221.92L270.976 220.323L269.372 221.927L270.983 223.539ZM274.679 227.199L276.29 225.588L276.282 225.58L274.679 227.199ZM276.108 232.01L278.338 232.478L278.341 232.468L278.343 232.457L276.108 232.01ZM272.761 247.941L270.531 247.473L269.954 250.22L272.761 250.22L272.761 247.941ZM294.793 247.941L294.793 250.22L294.793 247.941ZM225.072 293.26L222.793 293.26L222.793 295.539L225.072 295.539L225.072 293.26ZM239.016 293.26L239.016 295.539L241.295 295.539L241.295 293.26L239.016 293.26ZM225.072 251.427L225.072 249.148L222.793 249.148L222.793 251.427L225.072 251.427ZM239.016 251.427L241.295 251.427L241.295 249.148L239.016 249.148L239.016 251.427ZM251.924 185.206C258.313 178.5 269.011 178.5 275.399 185.206L278.7 182.062C270.515 173.471 256.809 173.471 248.624 182.062L251.924 185.206ZM245.831 191.602L251.924 185.206L248.624 182.062L242.531 188.457L245.831 191.602ZM228.483 197.916C234.934 198.638 241.353 196.302 245.831 191.602L242.531 188.457C239.036 192.126 234.026 193.95 228.99 193.386L228.483 197.916ZM219.704 196.933L228.483 197.916L228.99 193.386L220.211 192.403L219.704 196.933ZM201.721 212.023C202.304 202.779 210.5 195.903 219.704 196.933L220.211 192.403C208.419 191.083 197.919 199.893 197.172 211.735L201.721 212.023ZM201.165 220.839L201.721 212.023L197.172 211.735L196.615 220.551L201.165 220.839ZM191.933 236.827C197.34 233.233 200.756 227.318 201.165 220.839L196.615 220.551C196.296 225.609 193.63 230.226 189.41 233.031L191.933 236.827ZM184.577 241.717L191.933 236.827L189.41 233.031L182.054 237.921L184.577 241.717ZM180.5 264.835C175.006 257.38 176.864 246.844 184.577 241.717L182.054 237.921C172.172 244.489 169.792 257.987 176.831 267.54L180.5 264.835ZM185.741 271.946L180.5 264.835L176.831 267.54L182.072 274.651L185.741 271.946ZM188.947 290.128C190.779 283.9 189.593 277.173 185.741 271.946L182.072 274.651C185.078 278.73 186.004 283.98 184.574 288.842L188.947 290.128ZM186.455 298.603L188.947 290.128L184.574 288.842L182.082 297.317L186.455 298.603ZM198.192 318.933C189.191 316.753 183.841 307.488 186.455 298.603L182.082 297.317C178.734 308.7 185.587 320.57 197.119 323.363L198.192 318.933ZM206.777 321.012L198.192 318.933L197.119 323.363L205.705 325.442L206.777 321.012ZM220.92 332.879C218.32 326.93 213.087 322.539 206.777 321.012L205.705 325.442C210.63 326.634 214.714 330.061 216.744 334.704L220.92 332.879ZM224.458 340.973L220.92 332.879L216.744 334.704L220.282 342.798L224.458 340.973ZM246.518 349.002C238.221 353.118 228.168 349.459 224.458 340.973L220.282 342.798C225.034 353.671 237.914 358.359 248.544 353.085L246.518 349.002ZM254.431 345.076L246.518 349.002L248.544 353.085L256.457 349.159L254.431 345.076ZM272.893 345.076C267.077 342.19 260.247 342.19 254.431 345.076L256.457 349.159C260.996 346.907 266.327 346.907 270.867 349.159L272.893 345.076ZM280.806 349.002L272.893 345.076L270.867 349.159L278.78 353.085L280.806 349.002ZM302.865 340.973C299.156 349.459 289.103 353.118 280.806 349.002L278.78 353.085C289.409 358.359 302.289 353.671 307.042 342.798L302.865 340.973ZM306.403 332.879L302.865 340.973L307.042 342.798L310.58 334.704L306.403 332.879ZM320.546 321.012C314.236 322.539 309.004 326.93 306.403 332.879L310.58 334.704C312.61 330.061 316.694 326.634 321.619 325.442L320.546 321.012ZM329.132 318.933L320.546 321.012L321.619 325.442L330.204 323.363L329.132 318.933ZM340.869 298.603C343.482 307.488 338.133 316.753 329.132 318.933L330.204 323.363C341.737 320.57 348.59 308.7 345.242 297.317L340.869 298.603ZM338.377 290.128L340.869 298.603L345.242 297.317L342.75 288.842L338.377 290.128ZM341.583 271.946C337.731 277.173 336.545 283.9 338.377 290.128L342.75 288.842C341.32 283.98 342.246 278.73 345.252 274.651L341.583 271.946ZM346.823 264.835L341.583 271.946L345.252 274.651L350.493 267.54L346.823 264.835ZM342.747 241.717C350.46 246.844 352.318 257.38 346.823 264.835L350.493 267.54C357.532 257.987 355.152 244.489 345.27 237.921L342.747 241.717ZM335.39 236.827L342.747 241.717L345.27 237.921L337.913 233.031L335.39 236.827ZM326.159 220.839C326.568 227.318 329.983 233.233 335.39 236.827L337.913 233.031C333.693 230.226 331.027 225.609 330.708 220.551L326.159 220.839ZM325.603 212.023L326.159 220.839L330.708 220.551L330.152 211.735L325.603 212.023ZM307.62 196.933C316.824 195.903 325.019 202.779 325.603 212.023L330.152 211.735C329.404 199.893 318.905 191.083 307.113 192.403L307.62 196.933ZM298.841 197.916L307.62 196.933L307.113 192.403L298.334 193.386L298.841 197.916ZM281.492 191.602C285.97 196.302 292.389 198.638 298.841 197.916L298.334 193.386C293.298 193.95 288.288 192.126 284.793 188.457L281.492 191.602ZM275.399 185.206L281.492 191.602L284.793 188.457L278.7 182.062L275.399 185.206ZM304.044 254.913C304.044 252.46 303.07 250.107 301.335 248.372L298.112 251.595C298.992 252.475 299.486 253.669 299.486 254.913L304.044 254.913ZM304.044 261.885L304.044 254.913L299.486 254.913L299.486 261.885L304.044 261.885ZM303.4 265.261C303.809 264.215 304.044 263.097 304.044 261.885L299.486 261.885C299.486 262.487 299.373 263.042 299.155 263.6L303.4 265.261ZM292.844 289.905L303.372 265.328L299.182 263.533L288.654 288.11L292.844 289.905ZM284.335 295.539C288.168 295.539 291.461 293.225 292.853 289.884L288.645 288.13C287.946 289.809 286.289 290.981 284.335 290.981L284.335 295.539ZM252.96 295.539L284.335 295.539L284.335 290.981L252.96 290.981L252.96 295.539ZM246.419 292.83C248.154 294.565 250.507 295.539 252.96 295.539L252.96 290.981C251.716 290.981 250.522 290.487 249.642 289.606L246.419 292.83ZM243.709 286.288C243.709 288.742 244.684 291.095 246.419 292.83L249.642 289.606C248.762 288.726 248.267 287.533 248.267 286.288L243.709 286.288ZM243.709 251.427L243.709 286.288L248.267 286.288L248.267 251.427L243.709 251.427ZM246.433 244.865C244.731 246.567 243.709 248.884 243.709 251.427L248.267 251.427C248.267 250.136 248.779 248.966 249.657 248.089L246.433 244.865ZM269.372 221.927L246.433 244.865L249.657 248.089L272.595 225.15L269.372 221.927ZM276.282 225.58L272.587 221.92L269.379 225.158L273.075 228.818L276.282 225.58ZM278.492 230.894C278.492 228.835 277.64 226.937 276.29 225.588L273.067 228.811C273.6 229.343 273.933 230.096 273.933 230.894L278.492 230.894ZM278.343 232.457C278.445 231.944 278.492 231.409 278.492 230.894L273.933 230.894C273.933 231.146 273.91 231.379 273.873 231.563L278.343 232.457ZM274.992 248.41L278.338 232.478L273.877 231.541L270.531 247.473L274.992 248.41ZM294.793 245.662L272.761 245.662L272.761 250.22L294.793 250.22L294.793 245.662ZM301.335 248.372C299.6 246.637 297.247 245.662 294.793 245.662L294.793 250.22C296.038 250.22 297.231 250.715 298.112 251.595L301.335 248.372ZM225.072 295.539L239.016 295.539L239.016 290.981L225.072 290.981L225.072 295.539ZM222.793 251.427L222.793 293.26L227.351 293.26L227.351 251.427L222.793 251.427ZM239.016 249.148L225.072 249.148L225.072 253.706L239.016 253.706L239.016 249.148ZM241.295 293.26L241.295 251.427L236.737 251.427L236.737 293.26L241.295 293.26Z" fill="url(#paint4_linear_14547_46818)" mask="url(#path-8-inside-1_14547_46818)"/>
</g>
<mask id="path-10-inside-2_14547_46818" fill="white">
<path fill-rule="evenodd" clip-rule="evenodd" d="M272.157 176.173C267.153 172.294 260.158 172.294 255.154 176.173L239.353 188.421C237.066 190.195 234.281 191.208 231.389 191.32L211.411 192.094C205.085 192.339 199.726 196.835 198.386 203.023L194.155 222.563C193.543 225.391 192.061 227.958 189.917 229.903L175.111 243.337C170.422 247.591 169.208 254.48 172.159 260.081L181.477 277.769C182.826 280.33 183.341 283.248 182.949 286.116L180.242 305.924C179.385 312.197 182.882 318.255 188.743 320.649L207.251 328.209C209.931 329.303 212.201 331.208 213.744 333.657L224.403 350.571C227.778 355.927 234.352 358.32 240.38 356.386L259.418 350.281C262.174 349.397 265.137 349.397 267.893 350.281L286.93 356.386C292.959 358.32 299.532 355.927 302.908 350.571L313.567 333.657C315.11 331.208 317.38 329.303 320.059 328.209L338.567 320.649C344.428 318.255 347.926 312.197 347.069 305.924L344.362 286.116C343.97 283.248 344.484 280.33 345.833 277.769L355.152 260.081C358.103 254.48 356.888 247.591 352.2 243.337L337.393 229.903C335.25 227.958 333.768 225.391 333.156 222.563L328.924 203.023C327.585 196.835 322.226 192.339 315.9 192.094L295.922 191.32C293.03 191.208 290.245 190.195 287.958 188.421L272.157 176.173ZM299.717 249.985C301.024 251.292 301.759 253.066 301.759 254.915L301.759 261.887C301.759 262.793 301.585 263.63 301.271 264.432L290.743 289.009C289.697 291.519 287.222 293.262 284.328 293.262L252.954 293.262C251.105 293.262 249.331 292.527 248.024 291.22C246.716 289.912 245.982 288.139 245.982 286.29L245.982 251.429C245.982 249.512 246.749 247.769 248.039 246.479L270.977 223.54L274.672 227.201C275.613 228.142 276.206 229.467 276.206 230.896C276.206 231.279 276.171 231.663 276.101 232.011L272.755 247.943L294.787 247.943C296.636 247.943 298.409 248.677 299.717 249.985ZM239.01 293.262L225.065 293.262L225.065 251.429L239.01 251.429L239.01 293.262Z"/>
</mask>
<path fill-rule="evenodd" clip-rule="evenodd" d="M272.157 176.173C267.153 172.294 260.158 172.294 255.154 176.173L239.353 188.421C237.066 190.195 234.281 191.208 231.389 191.32L211.411 192.094C205.085 192.339 199.726 196.835 198.386 203.023L194.155 222.563C193.543 225.391 192.061 227.958 189.917 229.903L175.111 243.337C170.422 247.591 169.208 254.48 172.159 260.081L181.477 277.769C182.826 280.33 183.341 283.248 182.949 286.116L180.242 305.924C179.385 312.197 182.882 318.255 188.743 320.649L207.251 328.209C209.931 329.303 212.201 331.208 213.744 333.657L224.403 350.571C227.778 355.927 234.352 358.32 240.38 356.386L259.418 350.281C262.174 349.397 265.137 349.397 267.893 350.281L286.93 356.386C292.959 358.32 299.532 355.927 302.908 350.571L313.567 333.657C315.11 331.208 317.38 329.303 320.059 328.209L338.567 320.649C344.428 318.255 347.926 312.197 347.069 305.924L344.362 286.116C343.97 283.248 344.484 280.33 345.833 277.769L355.152 260.081C358.103 254.48 356.888 247.591 352.2 243.337L337.393 229.903C335.25 227.958 333.768 225.391 333.156 222.563L328.924 203.023C327.585 196.835 322.226 192.339 315.9 192.094L295.922 191.32C293.03 191.208 290.245 190.195 287.958 188.421L272.157 176.173ZM299.717 249.985C301.024 251.292 301.759 253.066 301.759 254.915L301.759 261.887C301.759 262.793 301.585 263.63 301.271 264.432L290.743 289.009C289.697 291.519 287.222 293.262 284.328 293.262L252.954 293.262C251.105 293.262 249.331 292.527 248.024 291.22C246.716 289.912 245.982 288.139 245.982 286.29L245.982 251.429C245.982 249.512 246.749 247.769 248.039 246.479L270.977 223.54L274.672 227.201C275.613 228.142 276.206 229.467 276.206 230.896C276.206 231.279 276.171 231.663 276.101 232.011L272.755 247.943L294.787 247.943C296.636 247.943 298.409 248.677 299.717 249.985ZM239.01 293.262L225.065 293.262L225.065 251.429L239.01 251.429L239.01 293.262Z" fill="url(#paint5_linear_14547_46818)"/>
<path d="M255.154 176.173L256.55 177.974V177.974L255.154 176.173ZM272.157 176.173L270.76 177.974V177.974L272.157 176.173ZM239.353 188.421L240.749 190.223L239.353 188.421ZM231.389 191.32L231.3 189.043L231.389 191.32ZM211.411 192.094L211.323 189.817L211.411 192.094ZM198.386 203.023L196.159 202.541L198.386 203.023ZM194.155 222.563L196.383 223.045L194.155 222.563ZM189.917 229.903L191.449 231.591L189.917 229.903ZM175.111 243.337L173.58 241.649H173.58L175.111 243.337ZM172.159 260.081L170.142 261.144H170.142L172.159 260.081ZM181.477 277.769L179.461 278.831L181.477 277.769ZM182.949 286.116L185.207 286.424L182.949 286.116ZM180.242 305.924L177.984 305.615L180.242 305.924ZM188.743 320.649L187.882 322.759H187.882L188.743 320.649ZM207.251 328.209L208.113 326.099H208.113L207.251 328.209ZM213.744 333.657L215.672 332.442L213.744 333.657ZM224.403 350.571L226.331 349.356L224.403 350.571ZM240.38 356.386L241.076 358.556L240.38 356.386ZM259.418 350.281L258.722 348.11L259.418 350.281ZM267.893 350.281L268.589 348.11L267.893 350.281ZM286.93 356.386L286.234 358.556L286.93 356.386ZM302.908 350.571L304.836 351.786L302.908 350.571ZM313.567 333.657L311.638 332.442L313.567 333.657ZM320.059 328.209L320.921 330.319H320.921L320.059 328.209ZM338.567 320.649L337.705 318.539H337.705L338.567 320.649ZM347.069 305.924L349.327 305.615L347.069 305.924ZM344.362 286.116L342.103 286.424L344.362 286.116ZM345.833 277.769L343.817 276.707L345.833 277.769ZM355.152 260.081L357.168 261.144L355.152 260.081ZM352.2 243.337L350.668 245.025L352.2 243.337ZM337.393 229.903L338.925 228.215L337.393 229.903ZM333.156 222.563L335.383 222.08V222.08L333.156 222.563ZM328.924 203.023L331.152 202.541V202.541L328.924 203.023ZM315.9 192.094L315.988 189.817H315.988L315.9 192.094ZM295.922 191.32L296.01 189.043L295.922 191.32ZM287.958 188.421L289.354 186.62V186.62L287.958 188.421ZM299.717 249.985L301.328 248.373V248.373L299.717 249.985ZM301.271 264.432L303.366 265.329L303.38 265.296L303.393 265.262L301.271 264.432ZM290.743 289.009L288.648 288.111L288.643 288.122L288.639 288.132L290.743 289.009ZM284.328 293.262L284.328 295.541L284.328 293.262ZM252.954 293.262L252.954 290.983L252.954 293.262ZM248.024 291.22L246.412 292.831L246.412 292.831L248.024 291.22ZM248.039 246.479L249.65 248.09L248.039 246.479ZM270.977 223.54L272.581 221.921L270.969 220.325L269.365 221.929L270.977 223.54ZM274.672 227.201L276.284 225.589L276.276 225.582L274.672 227.201ZM276.101 232.011L278.332 232.48L278.334 232.469L278.336 232.458L276.101 232.011ZM272.755 247.943L270.524 247.474L269.947 250.222L272.755 250.222L272.755 247.943ZM294.787 247.943L294.787 245.664L294.787 247.943ZM225.065 293.262L222.786 293.262L222.786 295.541L225.065 295.541L225.065 293.262ZM239.01 293.262L239.01 295.541L241.289 295.541L241.289 293.262L239.01 293.262ZM225.065 251.429L225.065 249.15L222.786 249.15L222.786 251.429L225.065 251.429ZM239.01 251.429L241.289 251.429L241.289 249.15L239.01 249.15L239.01 251.429ZM256.55 177.974C260.732 174.732 266.578 174.732 270.76 177.974L273.553 174.372C267.727 169.856 259.583 169.856 253.758 174.372L256.55 177.974ZM240.749 190.223L256.55 177.974L253.758 174.372L237.957 186.62L240.749 190.223ZM231.477 193.598C234.844 193.467 238.086 192.287 240.749 190.223L237.957 186.62C236.045 188.102 233.718 188.949 231.3 189.043L231.477 193.598ZM211.499 194.371L231.477 193.598L231.3 189.043L211.323 189.817L211.499 194.371ZM200.614 203.506C201.734 198.334 206.212 194.576 211.499 194.371L211.323 189.817C203.957 190.102 197.719 195.337 196.159 202.541L200.614 203.506ZM196.383 223.045L200.614 203.506L196.159 202.541L191.928 222.08L196.383 223.045ZM191.449 231.591C193.945 229.326 195.67 226.338 196.383 223.045L191.928 222.08C191.416 224.445 190.177 226.589 188.386 228.215L191.449 231.591ZM176.643 245.025L191.449 231.591L188.386 228.215L173.58 241.649L176.643 245.025ZM174.175 259.019C171.709 254.337 172.724 248.58 176.643 245.025L173.58 241.649C168.121 246.602 166.707 254.622 170.142 261.144L174.175 259.019ZM183.494 276.707L174.175 259.019L170.142 261.144L179.461 278.831L183.494 276.707ZM185.207 286.424C185.664 283.086 185.064 279.688 183.494 276.707L179.461 278.831C180.588 280.971 181.019 283.411 180.691 285.807L185.207 286.424ZM182.5 306.233L185.207 286.424L180.691 285.807L177.984 305.615L182.5 306.233ZM189.605 318.539C184.707 316.538 181.784 311.475 182.5 306.233L177.984 305.615C176.986 312.919 181.058 319.972 187.882 322.759L189.605 318.539ZM208.113 326.099L189.605 318.539L187.882 322.759L206.39 330.319L208.113 326.099ZM215.672 332.442C213.876 329.591 211.233 327.373 208.113 326.099L206.39 330.319C208.629 331.233 210.526 332.825 211.816 334.872L215.672 332.442ZM226.331 349.356L215.672 332.442L211.816 334.872L222.475 351.786L226.331 349.356ZM239.684 354.216C234.646 355.832 229.152 353.832 226.331 349.356L222.475 351.786C226.405 358.022 234.057 360.808 241.076 358.556L239.684 354.216ZM258.722 348.11L239.684 354.216L241.076 358.556L260.114 352.451L258.722 348.11ZM268.589 348.11C265.38 347.081 261.93 347.081 258.722 348.11L260.114 352.451C262.417 351.712 264.894 351.712 267.197 352.451L268.589 348.11ZM287.626 354.216L268.589 348.11L267.197 352.451L286.234 358.556L287.626 354.216ZM300.98 349.356C298.159 353.832 292.665 355.832 287.626 354.216L286.234 358.556C293.253 360.808 300.906 358.022 304.836 351.786L300.98 349.356ZM311.638 332.442L300.98 349.356L304.836 351.786L315.495 334.872L311.638 332.442ZM319.197 326.099C316.078 327.373 313.435 329.591 311.638 332.442L315.495 334.872C316.784 332.825 318.682 331.233 320.921 330.319L319.197 326.099ZM337.705 318.539L319.197 326.099L320.921 330.319L339.429 322.759L337.705 318.539ZM344.811 306.233C345.527 311.475 342.604 316.538 337.705 318.539L339.429 322.759C346.253 319.972 350.325 312.919 349.327 305.615L344.811 306.233ZM342.103 286.424L344.811 306.233L349.327 305.615L346.62 285.807L342.103 286.424ZM343.817 276.707C342.246 279.688 341.647 283.086 342.103 286.424L346.62 285.807C346.292 283.411 346.722 280.971 347.85 278.831L343.817 276.707ZM353.136 259.019L343.817 276.707L347.85 278.831L357.168 261.144L353.136 259.019ZM350.668 245.025C354.587 248.58 355.602 254.337 353.136 259.019L357.168 261.144C360.604 254.622 359.19 246.602 353.731 241.649L350.668 245.025ZM335.862 231.591L350.668 245.025L353.731 241.649L338.925 228.215L335.862 231.591ZM330.928 223.045C331.641 226.338 333.366 229.326 335.862 231.591L338.925 228.215C337.133 226.589 335.895 224.445 335.383 222.08L330.928 223.045ZM326.697 203.505L330.928 223.045L335.383 222.08L331.152 202.541L326.697 203.505ZM315.811 194.371C321.099 194.576 325.577 198.334 326.697 203.505L331.152 202.541C329.592 195.337 323.353 190.102 315.988 189.817L315.811 194.371ZM295.834 193.598L315.811 194.371L315.988 189.817L296.01 189.043L295.834 193.598ZM286.561 190.223C289.225 192.287 292.467 193.467 295.834 193.598L296.01 189.043C293.593 188.949 291.266 188.102 289.354 186.62L286.561 190.223ZM270.76 177.974L286.561 190.223L289.354 186.62L273.553 174.372L270.76 177.974ZM304.038 254.915C304.038 252.461 303.063 250.108 301.328 248.373L298.105 251.596C298.985 252.477 299.48 253.67 299.48 254.915L304.038 254.915ZM304.038 261.887L304.038 254.915L299.48 254.915L299.48 261.887L304.038 261.887ZM303.393 265.262C303.803 264.216 304.038 263.099 304.038 261.887L299.48 261.887C299.48 262.488 299.366 263.044 299.148 263.601L303.393 265.262ZM292.838 289.906L303.366 265.329L299.176 263.534L288.648 288.111L292.838 289.906ZM284.328 295.541C288.162 295.541 291.455 293.226 292.847 289.885L288.639 288.132C287.939 289.811 286.282 290.983 284.328 290.983L284.328 295.541ZM252.954 295.541L284.328 295.541L284.328 290.983L252.954 290.983L252.954 295.541ZM246.412 292.831C248.147 294.566 250.5 295.541 252.954 295.541L252.954 290.983C251.709 290.983 250.516 290.488 249.635 289.608L246.412 292.831ZM243.703 286.29C243.703 288.743 244.677 291.096 246.412 292.831L249.635 289.608C248.755 288.728 248.261 287.534 248.261 286.29L243.703 286.29ZM243.703 251.429L243.703 286.29L248.261 286.29L248.261 251.429L243.703 251.429ZM246.427 244.867C244.725 246.569 243.703 248.886 243.703 251.429L248.261 251.429C248.261 250.137 248.772 248.968 249.65 248.09L246.427 244.867ZM269.365 221.929L246.427 244.867L249.65 248.09L272.588 225.152L269.365 221.929ZM276.276 225.582L272.581 221.921L269.373 225.16L273.068 228.82L276.276 225.582ZM278.485 230.896C278.485 228.836 277.634 226.939 276.284 225.589L273.061 228.812C273.593 229.345 273.927 230.097 273.927 230.896L278.485 230.896ZM278.336 232.458C278.439 231.945 278.485 231.411 278.485 230.896L273.927 230.896C273.927 231.148 273.903 231.38 273.867 231.565L278.336 232.458ZM274.985 248.411L278.332 232.48L273.871 231.543L270.524 247.474L274.985 248.411ZM294.787 245.664L272.755 245.664L272.755 250.222L294.787 250.222L294.787 245.664ZM301.328 248.373C299.593 246.638 297.24 245.664 294.787 245.664L294.787 250.222C296.031 250.222 297.225 250.716 298.105 251.596L301.328 248.373ZM225.065 295.541L239.01 295.541L239.01 290.983L225.065 290.983L225.065 295.541ZM222.786 251.429L222.786 293.262L227.345 293.262L227.345 251.429L222.786 251.429ZM239.01 249.15L225.065 249.15L225.065 253.708L239.01 253.708L239.01 249.15ZM241.289 293.262L241.289 251.429L236.731 251.429L236.731 293.262L241.289 293.262Z" fill="url(#paint6_linear_14547_46818)" mask="url(#path-10-inside-2_14547_46818)"/>
</g>
<defs>
<filter id="filter0_f_14547_46818" x="65.7969" y="54.6455" width="393.191" height="172" filterUnits="userSpaceOnUse" color-interpolation-filters="sRGB">
<feFlood flood-opacity="0" result="BackgroundImageFix"/>
<feBlend mode="normal" in="SourceGraphic" in2="BackgroundImageFix" result="shape"/>
<feGaussianBlur stdDeviation="14" result="effect1_foregroundBlur_14547_46818"/>
</filter>
<filter id="filter1_f_14547_46818" x="60.4297" y="306.074" width="392.391" height="174.306" filterUnits="userSpaceOnUse" color-interpolation-filters="sRGB">
<feFlood flood-opacity="0" result="BackgroundImageFix"/>
<feBlend mode="normal" in="SourceGraphic" in2="BackgroundImageFix" result="shape"/>
<feGaussianBlur stdDeviation="14" result="effect1_foregroundBlur_14547_46818"/>
</filter>
<filter id="filter2_f_14547_46818" x="-19.2092" y="-16.3704" width="565.743" height="563.613" filterUnits="userSpaceOnUse" color-interpolation-filters="sRGB">
<feFlood flood-opacity="0" result="BackgroundImageFix"/>
<feBlend mode="normal" in="SourceGraphic" in2="BackgroundImageFix" result="shape"/>
<feGaussianBlur stdDeviation="97.1339" result="effect1_foregroundBlur_14547_46818"/>
</filter>
<radialGradient id="paint0_radial_14547_46818" cx="0" cy="0" r="1" gradientUnits="userSpaceOnUse" gradientTransform="translate(289.806 224.908) rotate(-43.9391) scale(273.002 189.309)">
<stop stop-color="white"/>
<stop offset="1" stop-color="#130A29"/>
</radialGradient>
<radialGradient id="paint1_radial_14547_46818" cx="0" cy="0" r="1" gradientUnits="userSpaceOnUse" gradientTransform="translate(301.972 208.623) rotate(-43.9391) scale(359.214 249.091)">
<stop stop-color="white"/>
<stop offset="1" stop-color="#130A29"/>
</radialGradient>
<radialGradient id="paint2_radial_14547_46818" cx="0" cy="0" r="1" gradientUnits="userSpaceOnUse" gradientTransform="translate(260.574 256.032) rotate(-43.9391) scale(193.975 134.509)">
<stop stop-color="white"/>
<stop offset="1" stop-color="#592EBF"/>
</radialGradient>
<linearGradient id="paint3_linear_14547_46818" x1="266.514" y1="164.859" x2="270.277" y2="351.322" gradientUnits="userSpaceOnUse">
<stop stop-color="#8146F6"/>
<stop offset="1" stop-color="#C5AAFA"/>
</linearGradient>
<linearGradient id="paint4_linear_14547_46818" x1="274.513" y1="349.702" x2="289.298" y2="175.76" gradientUnits="userSpaceOnUse">
<stop stop-color="#20143C"/>
<stop offset="0.246129" stop-color="#251745"/>
<stop offset="1" stop-color="white"/>
</linearGradient>
<linearGradient id="paint5_linear_14547_46818" x1="266.652" y1="159.576" x2="270.599" y2="355.315" gradientUnits="userSpaceOnUse">
<stop stop-color="#8146F6"/>
<stop offset="1" stop-color="#C5AAFA"/>
</linearGradient>
<linearGradient id="paint6_linear_14547_46818" x1="275.056" y1="353.614" x2="290.563" y2="171.018" gradientUnits="userSpaceOnUse">
<stop stop-color="#20143C"/>
<stop offset="0.246129" stop-color="#251745"/>
<stop offset="1" stop-color="white"/>
</linearGradient>
<clipPath id="clip0_14547_46818">
<rect width="533" height="530.688" fill="white"/>
</clipPath>
<clipPath id="clip1_14547_46818">
<rect x="122.59" y="121.434" width="287.82" height="287.82" rx="143.91" fill="white"/>
</clipPath>
</defs>
</svg>
