<svg width="60" height="60" viewBox="0 0 60 60" fill="none" xmlns="http://www.w3.org/2000/svg">
<path d="M41.48 25.6002C44.64 27.8802 46.96 26.0002 49.96 28.6002C53.36 31.5202 53.92 37.0402 52.88 41.0802C51.64 45.9202 47.44 50.9602 42.84 51.0802C38.84 51.2002 38.28 47.5202 32.28 44.8002C24.64 41.3602 21.08 45.3202 15.68 42.1202C9.91999 38.7202 7.87999 30.6402 8.23999 24.7602C8.39999 22.4402 9.39999 11.9202 18.36 8.08024C23.92 5.68024 31.4 6.36024 35.24 10.4802C39.72 15.2802 36.48 21.9602 41.48 25.6002Z" fill="#FFE0DB"/>
<path d="M9.47999 33.8396L21.28 33.7996L21.32 34.0796L23 33.1996L25 32.2796L27.68 31.6396H30.2L32.08 32.3197L35.32 34.2796L38.88 36.4797L40.8 37.3997L45.44 36.9997L46.28 36.2397L46.2 32.7597V31.8396L47.52 31.7596L48.08 32.2396L49.36 31.7197L50.4 31.6396L51.2 31.9996L51.32 32.4796L51.16 32.9996L52.6 32.9597L53.2 33.5197L53.4 34.2396L53 35.3597L50.96 37.3597L48.72 39.0797L45.64 41.1197L41.6 42.9997L38.88 43.8797L37.16 43.9997L33.84 43.6797L31.08 42.9997L29 42.5997L26.88 42.0797L25.28 41.8397H24.08L22.96 41.8797L21.4 42.1597L21.16 43.8797L18.68 43.7597L14.32 44.5197L10.32 44.9597L9.27999 40.9597L8.47999 33.7597L9.47999 33.8396Z" fill="#7A54F0"/>
<path d="M21.2805 33.7996L21.3205 34.0796L23.0005 33.1996L25.0005 32.2796L27.6805 31.6396H30.2005L32.0805 32.3197L35.3205 34.2796L38.8805 36.4797L40.8005 37.3997L45.4405 36.9997L46.2805 36.2397L46.2005 32.7597V31.8396L47.5205 31.7596L48.0805 32.2396L49.3605 31.7197L50.4005 31.6396L51.2005 31.9996L51.3205 32.4796L51.1605 32.9996L52.6005 32.9597L53.2005 33.5197L53.4005 34.2396L53.0005 35.3597L50.9605 37.3597L48.7205 39.0797L45.6405 41.1197L41.6005 42.9997L38.8805 43.8797L37.1605 43.9997L33.8405 43.6797L31.0805 42.9997L29.0005 42.5997L26.8805 42.0797L25.2805 41.8397H24.0805L22.9605 41.8797L21.4005 42.1597L21.1605 43.8797L21.5 39L21.2805 33.7996Z" fill="#EFA395"/>
<path d="M24.16 20.7601L45.88 20.0801L46.24 36.2001L45.2 37.0001L40.8 37.4001L37.48 35.6801L32.6 32.4401L29.32 31.5201L27.32 31.6001L24.36 32.6001L24.16 20.7601Z" fill="#DF472C"/>
<path d="M33.04 27.1999L33.16 32.5199L38.2 35.8799L38.04 26.9199L33.04 27.1999Z" fill="white"/>
<path d="M37.04 20.32L38.84 18.84L39.72 16.72L38.92 14.72L37.08 14.44L36.24 15.28L35.44 16.16L34.76 17.72L33.92 13.96L32 11.04L29.92 10L28.12 10.72L27 12.08L26.28 14.04L26.32 15.76L26.8 17.68L27.56 19L28.88 20.04L30 20.56L37.04 20.32Z" fill="#00C6A8"/>
<path d="M8.04002 33.7597C9.16002 33.7197 10.24 33.7197 11.36 33.7197H14.64L17.92 33.7597C19 33.7597 20.12 33.7997 21.24 33.8397C20.16 33.9997 19.04 34.1197 17.96 34.1997C16.84 34.2797 15.76 34.2797 14.64 34.2797C13.52 34.2797 12.44 34.2397 11.32 34.1597C10.24 34.0397 9.12002 33.9197 8.04002 33.7597Z" fill="black"/>
<path d="M8.08003 44.5997C10.32 44.8397 12.48 44.3997 14.68 43.9997C15.76 43.7997 16.88 43.6397 18 43.5997C19.12 43.5597 20.28 43.5997 21.36 43.9197C19.12 43.7197 16.96 44.1597 14.76 44.5597C13.68 44.7597 12.56 44.9197 11.44 44.9597C10.32 45.0397 9.16003 44.9597 8.08003 44.5997Z" fill="black"/>
<path d="M21.32 33.7197C21.52 34.5597 21.68 35.3997 21.76 36.2797C21.84 37.1197 21.88 37.9997 21.88 38.8797C21.88 39.7597 21.8 40.5997 21.68 41.4797C21.56 42.3197 21.4 43.1997 21.16 43.9997C21.16 43.1197 21.2 42.2797 21.24 41.4397C21.28 40.5997 21.32 39.7197 21.32 38.8797C21.36 38.0397 21.32 37.1597 21.32 36.3197C21.32 35.4397 21.32 34.5597 21.32 33.7197Z" fill="black"/>
<path d="M24.12 20.7603C27.72 20.4403 31.32 20.2803 34.96 20.1603C38.56 20.0403 42.2 20.0003 45.8 20.1203C42.2 20.4403 38.6 20.6003 34.96 20.7203C31.32 20.8003 27.72 20.8403 24.12 20.7603Z" fill="black"/>
<path d="M40.92 37.44C42.32 37.32 43.76 37.16 45.16 37.04" stroke="black" stroke-width="0.75" stroke-miterlimit="10"/>
<path d="M45.88 20C46.16 22.72 46.28 25.44 46.36 28.2C46.4 30.92 46.44 33.64 46.28 36.4C46 33.68 45.88 30.96 45.8 28.2C45.72 25.44 45.72 22.72 45.88 20Z" fill="black"/>
<path d="M24.16 20.6406C24.28 21.6006 24.36 22.6006 24.44 23.5606C24.52 24.5206 24.52 25.5206 24.56 26.4806C24.56 27.4406 24.6 28.4406 24.56 29.4006C24.56 30.4006 24.52 31.3606 24.4 32.3606C24.28 31.4006 24.2 30.4006 24.12 29.4406C24.04 28.4806 24.04 27.4806 24 26.5206C24 25.5606 23.96 24.5606 24 23.6006C24 22.6006 24.04 21.6406 24.16 20.6406Z" fill="black"/>
<path d="M33.04 27.04C33.2 27.52 33.28 28.04 33.36 28.52C33.44 29 33.44 29.52 33.48 30.04C33.48 30.56 33.48 31.04 33.44 31.56C33.4 32.08 33.32 32.56 33.2 33.04C33.08 32.52 33.04 32.04 33 31.52C32.96 31.04 32.96 30.52 32.92 30.04C32.92 29.56 32.92 29.04 32.92 28.56C32.92 28.04 32.96 27.52 33.04 27.04Z" fill="black"/>
<path d="M38 26.7598C38.12 27.5198 38.2 28.2398 38.28 28.9998C38.36 29.7598 38.36 30.5198 38.4 31.2398C38.4 31.9998 38.44 32.7598 38.4 33.4798C38.36 34.2398 38.32 34.9998 38.24 35.7598C38.12 34.9998 38.04 34.2798 37.96 33.5198C37.88 32.7598 37.88 31.9998 37.84 31.2798C37.84 30.5198 37.8 29.7598 37.84 29.0398C37.88 28.2398 37.92 27.4798 38 26.7598Z" fill="black"/>
<path d="M24.4 27.2406C27.92 27.0006 31.48 26.8806 35 26.7606C38.52 26.6406 42.08 26.5206 45.6 26.5606C42.08 27.0006 38.56 27.2006 35 27.3206C31.48 27.4006 27.96 27.4406 24.4 27.2406Z" fill="black"/>
<path d="M34.48 20.2002C34.68 19.6802 34.72 19.1602 34.68 18.6002C34.64 18.0802 34.6 17.5202 34.48 17.0002C34.32 15.9602 34 14.9202 33.56 13.9202C33.12 12.9602 32.6 12.0002 31.84 11.2802C31.48 10.9202 31.04 10.6402 30.56 10.5202C30.08 10.3602 29.6 10.3602 29.12 10.5202C28.16 10.8002 27.36 11.5602 26.96 12.4802C26.52 13.4002 26.44 14.4802 26.48 15.5602C26.52 16.6002 26.8 17.6802 27.4 18.5602C27.96 19.4402 28.84 20.1602 29.92 20.4402C28.84 20.2802 27.84 19.6002 27.2 18.7202C26.52 17.8402 26.2 16.7202 26.08 15.6002C25.96 14.4802 26.08 13.3602 26.52 12.2802C26.96 11.2402 27.88 10.3202 29 10.0002C29.56 9.84018 30.2 9.84018 30.76 10.0402C31.32 10.2402 31.84 10.5602 32.24 10.9602C32.64 11.3602 33 11.8402 33.28 12.3202C33.56 12.8002 33.8 13.2802 34 13.8002C34.4 14.8402 34.68 15.9202 34.8 17.0002C34.84 17.5602 34.88 18.0802 34.88 18.6402C34.8 19.1602 34.76 19.7202 34.48 20.2002Z" fill="black"/>
<path d="M36.36 20.3603C37.44 19.9603 38.32 19.2003 38.84 18.2403C39.08 17.7603 39.28 17.2403 39.32 16.7203C39.36 16.2003 39.28 15.6803 39 15.2803C38.72 14.9203 38.2 14.7203 37.72 14.7603C37.2 14.7603 36.72 15.0003 36.32 15.3603C35.52 16.0803 35.12 17.2003 34.72 18.2803C34.8 17.7203 34.92 17.1603 35.12 16.6003C35.32 16.0403 35.6 15.5203 36.04 15.0803C36.44 14.6403 37.04 14.3203 37.68 14.2803C38.32 14.2403 39 14.4403 39.44 15.0003C39.88 15.5603 39.96 16.2403 39.88 16.8403C39.8 17.4403 39.56 18.0403 39.24 18.5203C38.56 19.4803 37.48 20.2003 36.36 20.3603Z" fill="black"/>
<path d="M21.44 33.9605C22.8 33.1605 24.2 32.4005 25.72 31.8805C27.24 31.3605 28.88 31.1205 30.48 31.4805C32.08 31.8005 33.48 32.6405 34.8 33.5205C36.12 34.4005 37.4 35.3205 38.8 35.9605C39.48 36.2805 40.28 36.6005 40.92 37.2005C41.2 37.5205 41.48 37.8805 41.6 38.3205C41.72 38.7605 41.64 39.2405 41.44 39.6405C41.24 40.0405 40.92 40.3605 40.52 40.5605C40.16 40.7605 39.72 40.9205 39.32 41.0005C38.92 41.0805 38.48 41.0805 38.08 41.0805C37.68 41.0405 37.28 41.0005 36.88 40.9205C35.28 40.5605 33.88 39.8005 32.44 39.1605C31.04 38.5205 29.48 37.9605 27.92 38.1605C28.68 38.0005 29.52 38.0405 30.28 38.2005C31.08 38.3605 31.8 38.6005 32.56 38.9205C34.04 39.5205 35.44 40.2405 36.96 40.5205C37.72 40.6805 38.48 40.6805 39.24 40.5605C39.96 40.4405 40.68 40.0805 41 39.4405C41.16 39.1205 41.2 38.8005 41.12 38.4805C41.04 38.1605 40.84 37.8405 40.6 37.6005C40.08 37.0805 39.36 36.8005 38.64 36.4805C37.16 35.8005 35.88 34.8005 34.6 33.9205C33.32 33.0405 31.96 32.2405 30.44 31.8805C28.96 31.5205 27.36 31.6805 25.84 32.1205C24.28 32.5605 22.88 33.2805 21.44 33.9605Z" fill="black"/>
<path d="M38.48 37.2402C38.2 37.6802 38.04 38.0002 37.92 38.3602C37.8 38.7202 37.76 39.1202 37.8 39.6002C37.6 39.4402 37.44 39.2002 37.4 38.9602C37.32 38.7202 37.32 38.4402 37.4 38.2002C37.56 37.7202 37.96 37.3202 38.48 37.2402Z" fill="black"/>
<path d="M21.56 42.1597C23.56 41.5597 25.72 41.7597 27.76 42.1197C29.8 42.5197 31.8 43.1197 33.84 43.4797C34.84 43.6397 35.88 43.7197 36.92 43.7197C37.96 43.6797 38.96 43.5597 39.96 43.3197C41.96 42.8397 43.84 41.9997 45.6 40.9197C47.36 39.8797 49 38.5997 50.56 37.2397C50.96 36.8797 51.32 36.5597 51.72 36.1997C52.08 35.8397 52.48 35.5197 52.8 35.1197C53.08 34.7597 53.32 34.2797 53.16 33.8797C53.04 33.4797 52.6 33.2397 52.12 33.2397C51.64 33.1997 51.16 33.3197 50.68 33.4797C50.2 33.6397 49.76 33.8797 49.32 34.1197C48.44 34.6397 47.64 35.2797 46.84 35.9197C46.04 36.5597 45.2 37.1997 44.28 37.7197C43.36 38.2397 42.36 38.6397 41.32 38.6797C42.36 38.5597 43.32 38.1197 44.2 37.5997C45.08 37.0397 45.88 36.3597 46.64 35.6797C47.44 34.9997 48.24 34.3197 49.12 33.7597C49.56 33.4797 50.04 33.2397 50.56 33.0397C50.8 32.9597 51.08 32.8797 51.32 32.7997C51.6 32.7597 51.88 32.7197 52.16 32.7197C52.44 32.7597 52.72 32.7997 53 32.9597C53.28 33.1197 53.48 33.3597 53.6 33.6797C53.72 33.9997 53.68 34.3197 53.56 34.5997C53.48 34.8797 53.32 35.1197 53.16 35.3597C53 35.5997 52.8 35.7597 52.6 35.9597L52.04 36.4797C51.64 36.8397 51.28 37.1997 50.88 37.5197C49.32 38.9197 47.68 40.1997 45.88 41.3197C44.08 42.3997 42.12 43.2397 40.08 43.7197C38.04 44.1997 35.84 44.2397 33.8 43.8397C31.72 43.4397 29.76 42.7997 27.72 42.3597C25.68 41.9197 23.6 41.6797 21.56 42.1597Z" fill="black"/>
<path d="M46.16 33.8403C46.48 33.3603 46.88 32.9203 47.32 32.5603C47.76 32.1603 48.24 31.8403 48.8 31.6003C49.08 31.4803 49.36 31.3603 49.64 31.3203C49.96 31.2803 50.28 31.2403 50.6 31.3603C50.92 31.4803 51.2 31.6803 51.32 32.0003C51.44 32.3203 51.4 32.6803 51.16 32.8803C51.28 32.6003 51.2 32.3203 51.08 32.1603C50.96 31.9603 50.72 31.8403 50.48 31.8003C50 31.7203 49.52 31.9203 49 32.1203C48.52 32.3203 48.04 32.6003 47.56 32.9203C47.12 33.2003 46.68 33.5203 46.16 33.8403Z" fill="black"/>
<path d="M46.12 32.0006C46.28 31.6006 46.76 31.4006 47.2 31.4406C47.64 31.4806 48.08 31.7606 48.16 32.2006C47.76 32.0806 47.48 32.0006 47.16 32.0006C46.84 31.9206 46.52 31.9606 46.12 32.0006Z" fill="black"/>
<path d="M33.36 20.3598C33.48 19.9198 34.36 16.9198 32.56 14.4798C31.68 13.3198 29.96 11.9598 29.12 12.4398C27.92 13.0798 28 17.2798 30.36 19.2398C31.44 20.1598 32.72 20.3198 33.36 20.3598Z" fill="#FFE0DB"/>
<path d="M33.36 20.3602C33.56 19.5202 33.64 18.6002 33.6 17.7602C33.52 16.8802 33.32 16.0402 32.88 15.2802C32.48 14.5202 31.88 13.8802 31.2 13.3602C30.88 13.0802 30.48 12.8402 30.12 12.7202C29.72 12.5602 29.32 12.5202 29.08 12.7602C28.8 13.0002 28.68 13.4402 28.6 13.8402C28.52 14.2402 28.52 14.6802 28.56 15.1202C28.64 15.9602 28.88 16.8402 29.24 17.6002C29.6 18.3602 30.16 19.0802 30.92 19.5202C31.64 20.0002 32.48 20.2802 33.36 20.3602ZM33.36 20.3602C32.48 20.3602 31.6 20.1202 30.8 19.6802C30 19.2002 29.4 18.5202 28.96 17.7202C28.52 16.9202 28.28 16.0402 28.2 15.1202C28.16 14.6802 28.16 14.2002 28.24 13.7602C28.32 13.3202 28.44 12.8402 28.8 12.4402C29 12.2402 29.28 12.1602 29.56 12.1602C29.84 12.1602 30.04 12.2402 30.28 12.3202C30.72 12.5202 31.08 12.7602 31.44 13.0402C32.12 13.6002 32.76 14.2802 33.16 15.1202C33.56 15.9202 33.76 16.8402 33.8 17.7202C33.8 18.6402 33.68 19.5202 33.36 20.3602Z" fill="black"/>
<path d="M35.36 20.3209C35.28 19.9609 34.84 18.0009 36.04 16.6409C36.48 16.1209 37.36 15.4809 37.88 15.7209C38.48 16.0409 38.44 17.6009 37.8 18.6809C37.04 19.9609 35.68 20.2809 35.36 20.3209Z" fill="#FFE0DB"/>
<path d="M35.36 20.3205C35.04 19.3605 35 18.2405 35.44 17.2805C35.64 16.8005 36 16.3605 36.4 16.0405C36.6 15.8805 36.84 15.7205 37.08 15.6005C37.2 15.5605 37.36 15.5205 37.52 15.4805C37.68 15.4805 37.88 15.5205 38 15.6005C38.28 15.8005 38.36 16.1205 38.4 16.4005C38.44 16.6805 38.44 16.9605 38.4 17.2005C38.32 17.7205 38.16 18.2405 37.88 18.7205C37.6 19.1605 37.2 19.5605 36.76 19.8405C36.36 20.0805 35.88 20.2805 35.36 20.3205ZM35.36 20.3205C36.32 20.0405 37.24 19.4405 37.68 18.5605C37.88 18.1205 38.04 17.6405 38.08 17.1605C38.12 16.9205 38.12 16.6805 38.08 16.4405C38.04 16.2405 37.96 16.0005 37.84 15.9205C37.72 15.8405 37.52 15.8405 37.32 15.9205C37.12 16.0005 36.92 16.1205 36.72 16.2805C36.32 16.5605 36 16.9205 35.8 17.3605C35.56 17.8005 35.44 18.2805 35.4 18.7605C35.28 19.3205 35.28 19.8405 35.36 20.3205Z" fill="black"/>
</svg>
