<svg width="25" height="25" viewBox="0 0 25 25" fill="none" xmlns="http://www.w3.org/2000/svg">
<g id="Add to Wishlist_Icon only">
<path id="Vector" d="M7.425 3.16309L7.42572 3.16309C8.23152 3.1625 9.02673 3.36097 9.74429 3.74311C10.462 4.12532 11.0819 4.68065 11.5498 5.36416L12.3739 6.56782L13.1994 5.36518C14.1193 4.02521 15.6289 3.16309 17.325 3.16309C20.0904 3.16309 22.375 5.46924 22.375 8.36713C22.375 11.0944 20.7887 13.8178 18.5994 16.085C16.5479 18.2095 14.1098 19.7836 12.375 20.4586C10.6402 19.7836 8.20206 18.2095 6.15061 16.085C3.96128 13.8178 2.375 11.0944 2.375 8.36713C2.375 5.46924 4.65959 3.16309 7.425 3.16309Z" stroke="#FF487F" stroke-width="2"/>
</g>
</svg>
