<svg width="24" height="24" viewBox="0 0 24 24" fill="none" xmlns="http://www.w3.org/2000/svg">
<g id="Wishlist">
<path id="Vector" d="M11.3673 6.10266L12 7.09697L12.6327 6.10266C13.5444 4.6701 15.1551 3.75 17 3.75C19.8858 3.75 22.25 6.11421 22.25 9C22.25 10.2743 21.6619 11.6189 20.6764 12.9627C19.6967 14.2988 18.374 15.5659 17.0251 16.6695C15.6798 17.7702 14.3308 18.6903 13.3161 19.336C12.8095 19.6584 12.3879 19.9113 12.0942 20.0829C12.0617 20.102 12.0307 20.12 12.0014 20.137C11.9719 20.1197 11.9406 20.1014 11.9078 20.0821C11.614 19.9091 11.1924 19.6545 10.6856 19.3301C9.67064 18.6803 8.32131 17.7554 6.97572 16.6514C5.62641 15.5444 4.30328 14.2754 3.3232 12.9412C2.33697 11.5985 1.75 10.2606 1.75 9C1.75 6.11421 4.11421 3.75 7 3.75C8.84489 3.75 10.4556 4.6701 11.3673 6.10266Z" stroke="#1A3365" stroke-width="1.5"/>
</g>
</svg>
