<svg width="254" height="254" viewBox="0 0 254 254" fill="none" xmlns="http://www.w3.org/2000/svg">
<g clip-path="url(#clip0_17772_44988)">
<mask id="mask0_17772_44988" style="mask-type:luminance" maskUnits="userSpaceOnUse" x="0" y="0" width="254" height="254">
<path d="M254 0H0V254H254V0Z" fill="white"/>
</mask>
<g mask="url(#mask0_17772_44988)">
<path d="M148.941 94.3408H161.123C161.773 105.476 162.419 116.54 163.064 127.605C163.155 127.64 163.247 127.681 163.338 127.722C163.567 127.244 163.811 126.782 164.024 126.299C168.464 116.134 172.924 105.979 177.308 95.7886C177.826 94.5847 178.456 94.1935 179.731 94.2291C182.916 94.3256 186.112 94.2595 189.465 94.2595C190.221 105.182 190.973 116.007 191.72 126.833C191.806 126.853 191.898 126.878 191.989 126.899C193.01 124.755 194.011 122.601 195.053 120.462C200.92 108.433 207.473 96.8199 215.759 86.2586C219.945 80.9246 224.527 75.9614 230.252 72.1971C232.934 70.4343 235.784 69.0475 239.396 68.377C238.527 69.3066 237.918 69.9619 237.303 70.6121C229.068 79.4056 222.769 89.525 217.085 100.066C208.164 116.591 200.966 133.868 194.804 151.587C194.412 152.715 193.899 153.111 192.695 153.071C189.769 152.974 186.833 153.04 183.719 153.04C182.556 141.26 181.408 129.566 180.255 117.876C180.158 117.846 180.061 117.821 179.965 117.79C179.675 118.369 179.381 118.943 179.106 119.527C174.214 130.063 169.302 140.589 164.466 151.156C163.963 152.248 163.379 152.573 162.236 152.537C159.315 152.456 156.384 152.507 153.305 152.507C151.847 133.086 150.404 113.782 148.946 94.3307L148.941 94.3408Z" fill="white"/>
<path d="M14.6133 94.3245H25.4286C26.0941 105.114 26.7646 115.859 27.4555 127.06C27.8822 126.191 28.1464 125.714 28.3598 125.216C32.6625 115.391 36.9805 105.577 41.2376 95.7317C41.7303 94.5938 42.2891 94.1823 43.5388 94.228C46.4547 94.3347 49.3808 94.2636 52.4085 94.2636C53.7953 104.982 55.1669 115.554 56.5334 126.125C56.635 126.146 56.7366 126.171 56.8332 126.196C57.016 125.765 57.2192 125.338 57.3818 124.901C61.0292 115.153 64.697 105.409 68.2987 95.6402C68.6899 94.5734 69.1928 94.2178 70.3206 94.2432C73.7191 94.3194 77.1176 94.2737 80.7447 94.2737C79.6728 97.4589 78.6772 100.471 77.651 103.479C72.2256 119.369 66.7696 135.249 61.4052 151.16C60.8972 152.668 60.252 153.181 58.6721 153.1C55.8578 152.953 53.0333 153.059 50.1479 153.059C48.0702 141.594 46.0178 130.276 43.9706 118.963L43.6506 118.856C43.3915 119.42 43.1172 119.973 42.8784 120.547C38.662 130.865 34.4253 141.172 30.2698 151.51C29.7771 152.734 29.1675 153.141 27.8721 153.095C25.0476 152.993 22.218 153.065 19.1142 153.065C17.6156 133.507 16.117 114.01 14.6133 94.3448" fill="white"/>
<path d="M115.973 92.6839C120.037 92.628 124.035 93.1258 127.896 94.406C136.643 97.3118 141.744 103.433 143.059 112.481C144.426 121.904 142.831 130.901 137.7 139.019C131.853 148.279 123.151 153.05 112.417 154.355C107.586 154.939 102.785 154.751 98.0507 153.629C87.85 151.211 81.5813 144.627 80.0929 134.233C78.5536 123.504 81.1038 113.71 88.0177 105.257C94.8198 96.9409 104.512 92.6839 115.983 92.6839H115.973ZM129.343 118.465C129.343 117.525 129.404 116.575 129.333 115.64C128.881 109.834 125.594 105.221 120.56 103.794C113.976 101.935 107.774 102.905 102.668 107.624C95.4497 114.299 93.0316 122.91 93.9613 132.445C94.4744 137.693 97.1566 141.797 102.48 143.423C109.176 145.47 115.399 144.322 120.641 139.593C126.864 133.984 129.074 126.583 129.343 118.465Z" fill="white"/>
<path d="M76.113 185.201C74.462 185.511 73.1666 185.43 72.049 183.819C69.9611 180.822 67.6142 178.008 65.0996 174.767V185.186H62.082V170.012C64.368 169.392 64.8151 169.544 66.2426 171.393C68.4676 174.274 70.7079 177.149 73.2377 180.416V169.885H76.1028V185.201H76.113Z" fill="white"/>
<path d="M142.328 169.915C144.299 169.397 145.539 170.017 146.656 171.622C148.653 174.492 150.908 177.18 153.331 180.299V169.89H156.354V185.17C154.789 185.465 153.469 185.587 152.315 183.936C150.167 180.873 147.764 177.987 145.178 174.66V185.196H142.328V169.915Z" fill="white"/>
<path d="M99.1142 174.742H96.437C95.2585 172.339 92.9928 171.379 90.4325 172.39C89.8635 172.613 89.2641 173.324 89.1472 173.903C89.0812 174.239 89.8889 174.985 90.4223 175.153C92.0632 175.666 93.7751 175.956 95.4414 176.387C98.3065 177.129 99.8254 178.714 99.7644 180.843C99.7035 183.002 97.9915 185.003 95.2382 185.293C93.0639 185.521 90.7373 185.313 88.6189 184.769C86.3837 184.201 85.3169 182.194 85.4033 179.822C86.2872 179.725 87.1915 179.629 88.0652 179.537C89.2184 182.666 92.6626 183.982 95.4922 182.402C96.0002 182.118 96.5844 181.396 96.5691 180.893C96.5539 180.401 95.9138 179.674 95.3906 179.491C93.9224 178.968 92.3629 178.699 90.8541 178.272C89.9042 178.003 88.9136 177.759 88.055 177.292C85.2915 175.783 85.2052 172.374 87.8315 170.637C90.3004 169.001 95.04 169.082 97.3972 170.85C98.6367 171.78 99.3276 173.009 99.104 174.747L99.1142 174.742Z" fill="white"/>
<path d="M36.341 174.772H33.6435C32.3431 172.298 30.7886 171.546 27.9692 172.318C27.2885 172.501 26.7754 173.294 26.181 173.802C26.7144 174.295 27.1665 175.031 27.7914 175.234C29.3255 175.742 30.9461 175.971 32.5158 176.382C33.2676 176.575 34.0296 176.845 34.7053 177.221C37.4027 178.724 37.6771 182.057 35.2996 184.033C32.6936 186.197 26.7754 186.136 24.2303 183.896C23.0721 182.88 22.4371 181.61 22.4828 179.857C23.4023 179.745 24.3116 179.629 25.2107 179.517C26.1251 183.113 29.5287 183.464 32.1551 182.611C32.8206 182.392 33.6893 181.559 33.7147 180.97C33.7401 180.431 32.8561 179.568 32.1957 179.339C30.5752 178.77 28.8531 178.511 27.1818 178.064C24.403 177.322 22.9603 175.793 23.0771 173.807C23.2041 171.714 24.8094 170.236 27.5628 169.682C29.7319 169.245 31.8452 169.423 33.8417 170.408C35.5485 171.252 36.3817 172.649 36.341 174.772Z" fill="white"/>
<path d="M126.297 185.221V169.885H139.327V172.298H129.472V175.976H138.702V178.536H129.462V182.671H139.662V185.216H126.297V185.221Z" fill="white"/>
<path d="M189.373 175.957V178.522H180.122V182.652H190.302V185.213H176.957V169.896H189.967V172.274H180.132V175.952H189.373V175.957Z" fill="white"/>
<path d="M42.2133 176.539C44.4129 174.649 46.4144 173.247 48.0095 171.484C49.8028 169.503 51.8805 169.671 54.4307 169.874C51.7891 172.089 49.3608 174.116 46.8716 176.204C49.3964 179.176 51.8602 182.076 54.3494 185.007C51.8348 185.835 50.5597 185.475 49.0205 183.58C47.5727 181.797 46.1198 180.019 44.5755 178.129C43.6357 179.14 42.0913 179.45 42.2285 181.223C42.325 182.513 42.2488 183.819 42.2488 185.16C41.9237 185.236 41.7357 185.307 41.5376 185.317C39.9222 185.399 39.1094 184.652 39.1094 183.072V171.449C39.1094 170.941 39.1551 170.428 39.1805 169.849H42.2082V176.534L42.2133 176.539Z" fill="white"/>
<path d="M117.112 174.559C116.086 174.773 115.176 174.961 114.308 175.143C112.504 172.248 110.675 171.455 107.907 172.309C105.692 172.99 104.473 175.103 104.656 177.958C104.833 180.853 106.23 182.575 108.715 182.972C111.498 183.419 113.134 182.393 114.516 179.268C115.451 179.477 116.401 179.685 117.356 179.898C116.726 183.835 113.551 185.837 108.537 185.527C104.381 185.273 101.592 182.25 101.415 177.805C101.237 173.33 103.919 170.221 108.527 169.55C112.738 168.941 116.177 170.876 117.117 174.559H117.112Z" fill="white"/>
<path d="M171.983 179.267C172.912 179.481 173.872 179.699 174.822 179.918C173.913 184.083 170.713 186.003 165.622 185.501C161.619 185.109 158.968 182.061 158.881 177.769C158.79 173.141 161.32 170.215 165.993 169.544C170.184 168.945 173.603 170.906 174.523 174.533C173.618 174.741 172.714 174.954 171.825 175.163C169.951 171.881 168.142 171.485 165.008 172.455C162.879 173.115 161.828 175.412 162.087 178.307C162.315 180.913 163.672 182.524 166.003 182.955C168.736 183.463 170.332 182.493 171.978 179.267H171.983Z" fill="white"/>
<path d="M58.7386 169.875H55.8125V185.262H58.7386V169.875Z" fill="white"/>
<path d="M122.767 169.881H119.871V185.243H122.767V169.881Z" fill="white"/>
<mask id="mask1_17772_44988" style="mask-type:luminance" maskUnits="userSpaceOnUse" x="20" y="159" width="176" height="7">
<path d="M195.577 159.26H20.5508V165.422H195.577V159.26Z" fill="white"/>
</mask>
<g mask="url(#mask1_17772_44988)">
<path d="M20.5508 159.396C20.5508 159.396 115.725 159.081 128.861 159.396C141.998 159.711 195.577 159.396 195.577 159.396C195.577 159.396 143.568 166.005 119.342 165.375C119.342 165.375 73.0932 165.375 64.5995 163.8C64.5995 163.8 24.9551 161.91 20.5508 159.396Z" fill="white"/>
</g>
</g>
</g>
<defs>
<clipPath id="clip0_17772_44988">
<rect width="254" height="254" fill="white"/>
</clipPath>
</defs>
</svg>
